<?xml version="1.0" standalone="no"?>
<!DOCTYPE svg PUBLIC "-//W3C//DTD SVG 20010904//EN"
 "http://www.w3.org/TR/2001/REC-SVG-20010904/DTD/svg10.dtd">
<svg version="1.0" xmlns="http://www.w3.org/2000/svg"
 width="325.000000pt" height="325.000000pt" viewBox="0 0 325.000000 325.000000"
 preserveAspectRatio="xMidYMid meet">

<g transform="translate(0.000000,325.000000) scale(0.100000,-0.100000)"
fill="#000000" stroke="none">
<path d="M617 2983 c-2 -5 -7 -25 -11 -45 -7 -41 5 -59 62 -90 17 -9 45 -36
62 -60 18 -23 35 -42 39 -41 4 1 8 -3 8 -10 0 -10 198 -311 236 -359 8 -10 20
-18 26 -18 7 0 10 -4 7 -9 -4 -5 6 -23 20 -40 21 -26 24 -34 14 -46 -7 -8 -10
-21 -7 -29 5 -13 -13 -30 -142 -133 -3 -2 1 -9 7 -15 9 -9 16 -8 29 4 37 32
151 89 158 78 7 -11 66 -12 104 -1 26 7 66 91 56 120 -3 11 19 41 66 89 88 91
72 106 -32 28 -56 -43 -76 -53 -86 -44 -10 8 -17 8 -25 0 -17 -17 -65 -15 -72
3 -3 10 1 15 12 16 10 0 12 3 5 6 -7 2 -13 11 -13 19 0 8 -5 14 -12 14 -6 0
-8 3 -5 7 12 11 -14 34 -27 24 -7 -6 -17 -6 -26 -1 -13 8 -12 10 3 10 23 0 22
15 -5 50 -13 19 -31 30 -47 31 -15 1 -19 3 -10 6 14 3 12 9 -11 35 -15 17 -33
27 -39 24 -6 -4 -13 5 -17 21 -4 15 -35 60 -69 98 -105 119 -135 163 -135 200
0 24 -7 39 -22 49 -23 16 -93 22 -101 9z m413 -473 c0 -5 -2 -10 -4 -10 -3 0
-8 5 -11 10 -3 6 -1 10 4 10 6 0 11 -4 11 -10z"/>
<path d="M2618 2979 c-10 -5 -18 -15 -18 -22 0 -56 -47 -126 -184 -277 -13
-14 -26 -38 -30 -53 -4 -16 -11 -25 -17 -21 -6 3 -24 -7 -39 -24 -27 -30 -27
-31 -6 -35 13 -3 8 -5 -13 -6 -19 0 -31 -4 -28 -7 3 -4 -5 -15 -18 -26 -29
-22 -33 -48 -8 -48 13 0 14 -3 5 -12 -8 -8 -15 -8 -25 1 -11 9 -17 8 -26 -2
-6 -8 -8 -17 -4 -20 3 -4 1 -7 -5 -7 -7 0 -12 -6 -12 -14 0 -8 -6 -17 -12 -19
-8 -3 -6 -6 4 -6 11 -1 15 -6 12 -16 -7 -18 -55 -20 -72 -3 -8 8 -15 8 -24 0
-10 -8 -31 2 -85 44 -69 51 -93 64 -93 46 0 -4 29 -39 65 -77 39 -42 63 -76
60 -84 -3 -8 4 -38 15 -67 18 -43 27 -53 52 -58 46 -9 86 -7 93 4 7 11 121
-46 158 -78 14 -12 20 -13 30 -3 8 8 9 14 1 19 -55 35 -142 117 -137 128 3 8
0 21 -7 29 -10 12 -7 20 14 46 14 17 24 35 20 40 -3 5 1 9 9 9 16 0 40 33 172
231 52 78 92 146 89 151 -3 5 -1 7 4 6 6 -2 26 18 46 45 21 26 54 56 75 67 46
23 53 38 45 91 -6 38 -7 39 -48 39 -22 0 -49 -5 -58 -11z m-298 -463 c0 -3 -4
-8 -10 -11 -5 -3 -10 -1 -10 4 0 6 5 11 10 11 6 0 10 -2 10 -4z m-73 -142 c-3
-3 -12 -4 -19 -1 -8 3 -5 6 6 6 11 1 17 -2 13 -5z"/>
<path d="M828 2023 c12 -2 32 -2 45 0 12 2 2 4 -23 4 -25 0 -35 -2 -22 -4z"/>
<path d="M1058 2023 c61 -2 163 -2 225 0 61 1 11 3 -113 3 -124 0 -174 -2
-112 -3z"/>
<path d="M1558 2023 c61 -2 163 -2 225 0 61 1 11 3 -113 3 -124 0 -174 -2
-112 -3z"/>
<path d="M2058 2023 c61 -2 163 -2 225 0 61 1 11 3 -113 3 -124 0 -174 -2
-112 -3z"/>
<path d="M2468 2023 c12 -2 30 -2 40 0 9 3 -1 5 -23 4 -22 0 -30 -2 -17 -4z"/>
<path d="M880 1983 c0 -6 6 -15 13 -20 7 -5 -7 -10 -38 -14 -43 -5 -37 -6 35
-7 107 -2 96 -20 -15 -25 l-80 -3 83 -2 82 -2 0 -27 c0 -16 3 -38 6 -50 6 -21
3 -22 -77 -26 l-84 -3 83 -2 c45 -1 82 -6 82 -12 0 -5 -37 -11 -82 -13 l-83
-3 83 -2 82 -2 0 -37 c0 -21 3 -68 6 -105 6 -59 5 -67 -12 -71 -16 -4 -15 -5
4 -6 26 -1 30 -18 5 -24 -15 -4 -15 -5 -2 -6 10 -1 19 -13 23 -32 13 -68 14
-68 -76 -72 l-83 -3 86 -2 87 -2 6 -36 c4 -19 10 -42 13 -50 4 -11 -11 -14
-83 -16 l-89 -2 90 -5 c85 -6 90 -7 96 -31 16 -58 15 -59 -73 -63 l-83 -3 87
-2 c86 -2 86 -2 97 -32 l10 -30 -87 -2 -87 -2 80 -3 c93 -4 123 -12 85 -23
l-25 -8 28 -1 c15 -1 27 -7 27 -13 0 -7 14 -42 30 -76 17 -35 30 -65 30 -68 0
-2 -42 -5 -92 -7 l-93 -3 97 -2 c86 -2 99 -4 108 -22 10 -19 7 -20 -82 -22
l-93 -2 90 -3 c127 -5 138 -17 20 -23 l-100 -6 101 -2 c82 -2 103 -5 108 -18
5 -13 -7 -15 -93 -12 -55 2 -97 0 -94 -4 2 -5 49 -8 103 -8 134 0 140 -18 8
-23 l-103 -3 106 -2 107 -2 36 -45 37 -44 -103 -4 -103 -3 113 -2 c61 -1 112
-6 112 -11 0 -5 -8 -12 -17 -14 -12 -3 -9 -5 8 -6 14 0 34 -10 44 -21 18 -20
17 -20 -23 -20 -27 0 -42 5 -42 13 0 8 -3 7 -10 -3 -7 -11 -25 -14 -72 -12
-35 2 -60 0 -56 -4 4 -4 59 -7 123 -6 79 1 118 -3 127 -11 7 -7 31 -26 52 -42
l40 -30 -130 -5 -129 -6 135 -2 c134 -2 137 -2 200 -37 l65 -35 -155 0 c-104
0 -150 -4 -140 -10 18 -11 559 -14 587 -2 10 4 -49 9 -130 12 l-149 5 57 32
c56 32 59 33 193 35 l137 2 -128 6 -127 5 56 44 56 44 76 -5 c43 -2 95 -1 117
3 39 6 39 6 7 8 -24 1 -31 5 -26 14 4 6 -2 4 -14 -6 -12 -11 -26 -16 -33 -11
-7 4 -37 6 -68 5 -55 -2 -55 -2 -37 18 11 12 33 21 50 22 30 1 30 1 6 9 -41
12 -6 19 110 23 l105 3 -108 2 -108 2 38 45 37 45 106 2 105 2 -103 3 c-132 5
-126 23 8 23 54 0 101 3 103 8 3 4 -39 6 -94 4 -86 -3 -98 -1 -93 12 5 13 27
16 113 18 l106 2 -97 3 c-54 2 -98 8 -98 13 0 6 43 11 98 12 l97 2 -93 3 c-88
4 -92 5 -82 23 9 18 23 20 108 22 l97 2 -92 5 -92 6 33 75 c28 63 38 76 62 81
l29 7 -29 1 c-19 1 -27 4 -20 11 5 5 47 11 94 13 l85 3 -87 2 -87 2 10 30 c11
30 11 30 97 32 l87 2 -82 3 c-46 2 -83 7 -83 11 0 4 5 24 10 44 l11 37 87 4
87 3 -86 2 -86 2 10 50 10 50 86 2 86 2 -82 3 c-91 4 -90 4 -77 72 5 22 12 31
28 32 19 1 18 2 -4 9 -25 7 -24 9 20 23 9 3 5 6 -9 6 -23 1 -24 3 -17 54 3 28
6 75 6 104 l0 52 83 4 82 3 -82 2 c-47 1 -83 6 -83 12 0 6 36 11 83 12 l82 2
-77 3 -78 4 0 49 0 50 83 2 82 2 -80 3 c-111 5 -121 23 -15 25 47 1 66 3 43 5
-29 3 -40 8 -37 17 3 9 -4 11 -26 8 -20 -3 -30 0 -30 9 0 7 -3 9 -6 6 -4 -4
-1 -13 6 -22 11 -13 -13 -15 -220 -15 -202 0 -231 2 -220 15 10 12 6 13 -24 8
-26 -4 -36 -2 -36 7 0 7 -3 10 -6 7 -4 -4 -1 -13 6 -22 11 -13 -13 -15 -220
-15 -202 0 -231 2 -220 15 10 12 6 13 -24 8 -26 -4 -36 -2 -36 7 0 7 -3 10 -6
7 -4 -4 -1 -13 6 -22 11 -13 -13 -15 -218 -15 -192 0 -230 2 -226 14 4 10 -2
12 -21 8 -17 -3 -30 1 -36 9 -6 9 -9 10 -9 2z m1455 -195 c-3 -68 -11 -161
-16 -208 -56 -502 -266 -886 -590 -1082 -60 -37 -62 -37 -93 -21 -117 60 -265
196 -354 325 -175 255 -262 561 -286 1011 l-5 97 675 0 676 0 -7 -122z"/>
<path d="M838 1553 c12 -2 30 -2 40 0 9 3 -1 5 -23 4 -22 0 -30 -2 -17 -4z"/>
<path d="M2463 1553 c9 -2 25 -2 35 0 9 3 1 5 -18 5 -19 0 -27 -2 -17 -5z"/>
<path d="M843 1523 c9 -2 23 -2 30 0 6 3 -1 5 -18 5 -16 0 -22 -2 -12 -5z"/>
<path d="M2473 1523 c9 -2 23 -2 30 0 6 3 -1 5 -18 5 -16 0 -22 -2 -12 -5z"/>
<path d="M889 1497 c7 -10 21 -17 31 -17 10 0 24 7 31 17 13 15 12 15 -8 4
-18 -9 -28 -9 -45 0 -21 11 -22 11 -9 -4z"/>
<path d="M2389 1497 c7 -10 21 -17 31 -17 10 0 24 7 31 17 13 15 12 15 -8 4
-18 -9 -28 -9 -45 0 -21 11 -22 11 -9 -4z"/>
<path d="M933 1103 c9 -2 25 -2 35 0 9 3 1 5 -18 5 -19 0 -27 -2 -17 -5z"/>
<path d="M2363 1103 c9 -2 25 -2 35 0 9 3 1 5 -18 5 -19 0 -27 -2 -17 -5z"/>
<path d="M980 1062 c0 -16 36 -33 54 -26 23 9 20 23 -4 17 -11 -3 -27 0 -35 7
-10 8 -15 9 -15 2z"/>
<path d="M2344 1059 c-3 -6 -17 -9 -30 -6 -27 5 -33 -8 -8 -17 17 -7 54 10 54
24 0 13 -7 13 -16 -1z"/>
<path d="M1168 653 c18 -2 45 -2 60 0 15 2 0 4 -33 4 -33 0 -45 -2 -27 -4z"/>
<path d="M2113 653 c15 -2 39 -2 55 0 15 2 2 4 -28 4 -30 0 -43 -2 -27 -4z"/>
<path d="M1473 383 c37 -2 96 -2 130 0 34 2 4 3 -68 3 -71 0 -99 -1 -62 -3z"/>
<path d="M1738 383 c34 -2 90 -2 125 0 34 2 6 3 -63 3 -69 0 -97 -1 -62 -3z"/>
<path d="M1493 353 c26 -2 68 -2 95 0 26 2 4 3 -48 3 -52 0 -74 -1 -47 -3z"/>
<path d="M1753 353 c26 -2 67 -2 90 0 23 2 2 3 -48 3 -49 0 -68 -1 -42 -3z"/>
<path d="M1634 321 c5 -8 -13 -11 -56 -12 -35 -1 -53 -4 -40 -6 12 -2 22 -9
22 -14 0 -5 47 -9 105 -9 58 0 105 4 105 9 0 5 10 12 23 14 12 2 -4 5 -36 6
-40 1 -56 5 -51 12 4 8 0 8 -15 0 -16 -9 -26 -9 -42 0 -15 8 -19 8 -15 0z"/>
<path d="M1625 260 c3 -5 21 -10 40 -10 19 0 37 5 40 10 4 6 -12 10 -40 10
-28 0 -44 -4 -40 -10z"/>
</g>
</svg>
