<?xml version="1.0" standalone="no"?>
<!DOCTYPE svg PUBLIC "-//W3C//DTD SVG 20010904//EN"
 "http://www.w3.org/TR/2001/REC-SVG-20010904/DTD/svg10.dtd">
<svg version="1.0" xmlns="http://www.w3.org/2000/svg"
 width="1024.000000pt" height="1024.000000pt" viewBox="0 0 1024.000000 1024.000000"
 preserveAspectRatio="xMidYMid meet">

<g transform="translate(0.000000,1024.000000) scale(0.100000,-0.100000)"
fill="#000000" stroke="none">
<path d="M0 5120 l0 -5120 5120 0 5120 0 0 5120 0 5120 -5120 0 -5120 0 0
-5120z m5089 4871 c31 -61 124 -181 184 -240 25 -24 55 -38 107 -52 195 -53
496 -181 677 -290 93 -56 252 -165 342 -235 30 -24 59 -40 65 -37 6 3 8 3 4
-1 -10 -11 81 -88 94 -80 6 4 8 2 5 -3 -4 -6 21 -34 56 -64 34 -29 50 -39 35
-23 -16 17 -28 36 -28 43 0 7 -5 9 -10 6 -11 -7 -33 13 -38 35 -5 19 -23 30
-37 23 -5 -3 -5 0 2 7 9 10 15 10 26 2 8 -7 18 -8 22 -4 5 4 5 1 1 -5 -4 -8
-1 -13 8 -13 9 0 16 -7 16 -15 0 -9 9 -15 23 -15 18 0 19 2 7 10 -11 7 -3 10
30 10 30 0 40 -3 31 -9 -8 -5 -20 -7 -26 -5 -7 3 -15 -2 -18 -10 -5 -11 -1
-15 13 -13 11 2 22 6 25 9 6 6 55 -7 87 -23 10 -5 35 -9 55 -10 33 -1 35 -2
13 -8 -20 -6 -13 -9 35 -15 57 -8 119 -35 85 -37 -30 -3 67 -18 115 -18 44 -1
51 -4 51 -21 0 -11 -7 -20 -15 -20 -11 0 -12 -3 -4 -11 6 -6 63 -13 126 -16
64 -3 114 -9 112 -14 -8 -12 39 -14 162 -9 61 3 109 2 106 -2 -2 -5 9 -8 26
-8 16 0 31 -5 33 -11 5 -14 87 -29 94 -18 3 5 -12 10 -33 11 l-38 1 38 4 c20
2 37 10 37 16 0 8 3 8 9 -1 12 -20 87 -27 108 -11 9 8 14 9 11 4 -4 -6 -3 -17
3 -25 6 -11 9 -12 9 -2 0 7 4 10 10 7 5 -3 8 0 5 7 -4 9 5 13 27 14 30 1 31 0
11 -9 -47 -21 -20 -29 37 -11 13 5 13 6 0 14 -12 8 -11 10 4 10 11 0 34 12 50
27 17 15 -25 -29 -93 -99 -68 -69 -134 -131 -146 -138 -17 -9 -33 -9 -72 3
-58 17 -109 10 -170 -24 -55 -31 -60 -36 -79 -86 -17 -45 -17 -46 6 -89 12
-25 21 -47 18 -49 -9 -9 -147 44 -249 95 -217 109 -462 275 -629 425 -120 109
-311 265 -396 327 -237 169 -520 312 -821 415 -94 32 -133 50 -133 61 0 30
-41 -21 -82 -102 -40 -80 -121 -177 -169 -201 -26 -14 -27 -13 -99 88 -40 56
-86 131 -103 167 -31 67 -42 80 -66 80 -9 0 -11 -7 -7 -23 5 -21 0 -25 -67
-46 -267 -83 -636 -270 -845 -428 -101 -77 -234 -191 -382 -328 -241 -223
-379 -324 -605 -441 l-144 -75 10 33 c22 80 -5 157 -52 145 -11 -3 -17 -1 -14
3 3 5 -5 10 -17 12 -34 5 -22 23 13 21 17 0 28 2 24 5 -9 9 -165 9 -165 0 0
-21 -53 -4 -106 33 -60 42 -91 69 -224 193 -41 38 -93 82 -115 98 -37 28 -72
74 -62 84 2 3 12 -8 22 -23 21 -32 45 -57 45 -48 0 4 12 -7 26 -24 14 -17 30
-29 35 -25 5 3 9 0 9 -6 0 -6 5 -8 12 -4 6 4 8 3 5 -3 -3 -5 3 -17 14 -26 13
-12 19 -13 20 -4 0 9 2 9 6 0 7 -20 23 -15 17 5 -4 10 -3 13 3 6 4 -6 16 -10
27 -8 14 2 17 -2 14 -21 -4 -20 -2 -22 17 -15 12 5 27 5 34 0 7 -4 29 -4 50 1
20 5 45 6 56 2 l20 -6 -20 -8 c-17 -6 -17 -8 -2 -8 9 -1 20 -1 23 0 4 0 10 -5
15 -12 6 -10 45 -15 136 -19 74 -3 128 -9 128 -15 0 -5 17 -10 37 -11 25 -1
35 2 31 10 -4 7 -1 7 7 -1 7 -6 20 -9 29 -6 14 4 14 3 1 -6 -8 -6 -27 -11 -42
-11 -16 0 -28 -4 -28 -8 0 -5 10 -8 23 -6 12 1 38 3 57 3 27 1 32 4 20 12 -11
7 -4 8 25 3 44 -7 42 -7 68 -5 12 1 16 5 11 14 -6 9 -4 9 8 -1 11 -9 18 -10
23 -2 7 11 26 14 23 3 -2 -5 2 -8 7 -8 6 0 9 3 7 8 -1 4 13 7 32 7 25 0 39 7
50 22 11 15 16 18 16 8 0 -11 2 -12 8 -3 4 7 22 13 40 15 35 2 45 18 12 18
-17 0 -18 3 -9 13 13 14 67 17 85 5 13 -9 28 18 18 33 -3 5 0 9 5 9 6 0 11 -7
11 -15 0 -8 7 -15 16 -15 14 0 15 2 3 17 -13 15 -12 16 9 11 14 -4 20 -2 15 5
-4 7 0 8 11 4 13 -5 17 -3 13 7 -4 10 -1 13 9 9 8 -3 14 1 14 11 0 9 6 15 13
14 6 -2 11 3 9 10 -1 6 4 11 10 10 7 -2 12 3 10 10 -1 6 2 11 7 10 5 -2 42 27
82 63 365 328 648 503 1064 655 66 25 141 54 168 66 70 32 201 177 257 286 12
23 24 42 26 42 2 0 17 -26 33 -59z m-3866 -49 c97 -43 176 -147 162 -212 -7
-33 10 -41 34 -17 10 10 11 9 6 -5 -7 -18 -16 -22 -47 -19 -10 1 -18 -4 -18
-12 0 -12 -58 -47 -79 -47 -4 0 -18 9 -30 19 -16 14 -18 21 -9 25 7 3 1 4 -13
1 -21 -4 -33 6 -82 66 -73 88 -108 107 -171 89 -97 -27 -137 -119 -102 -235 4
-11 0 -6 -8 10 -19 38 -20 99 -2 158 15 51 53 110 66 102 4 -3 14 3 21 12 23
28 91 53 145 53 108 0 202 -49 244 -129 11 -20 19 -29 20 -20 0 25 -56 96 -97
123 -21 13 -56 29 -77 36 -53 17 -164 8 -215 -17 -23 -11 -41 -17 -41 -13 0 9
67 39 111 51 49 12 131 4 182 -19z m8046 -2 c75 -34 118 -76 156 -152 41 -82
46 -152 18 -233 -17 -51 -79 -122 -129 -148 -45 -23 -108 -28 -130 -12 -18 13
-16 14 16 15 59 0 110 20 151 57 49 44 67 77 80 147 8 44 6 64 -11 120 -28 90
-110 176 -190 200 -62 19 -110 20 -163 5 -22 -6 -41 -8 -44 -5 -10 10 64 24
132 25 50 0 83 -5 114 -19z m-259 -14 c0 -2 -7 -7 -16 -10 -8 -3 -12 -2 -9 4
6 10 25 14 25 6z m255 -31 c62 -30 76 -41 109 -89 21 -32 26 -50 26 -100 -1
-128 -70 -206 -184 -206 -55 0 -84 27 -133 127 -29 58 -37 88 -41 146 -4 68
-2 76 19 97 l24 23 -35 -7 c-39 -7 -93 -54 -120 -106 -11 -19 -19 -29 -20 -21
0 29 52 102 91 127 78 49 173 52 264 9z m-7816 -37 c4 -13 11 -42 14 -66 4
-36 3 -41 -9 -31 -8 6 -14 24 -14 40 0 15 -4 39 -10 53 -6 17 -6 26 0 26 6 0
14 -10 19 -22z m7423 -37 c7 10 8 2 4 -26 -6 -43 5 -72 23 -61 6 4 11 2 11 -4
0 -6 -10 -10 -22 -8 -32 4 -64 89 -46 121 13 22 13 21 16 -7 3 -23 6 -26 14
-15z m-3141 -345 c315 -143 575 -318 902 -609 139 -123 267 -217 439 -320 132
-79 338 -187 402 -209 35 -12 55 -32 44 -44 -9 -8 -181 57 -280 107 -54 27
-98 47 -98 45 0 -14 288 -166 315 -166 36 0 47 -14 36 -43 l-10 -26 -53 15
c-106 31 -300 120 -463 212 -179 101 -258 159 -516 383 -229 197 -355 288
-564 406 -162 91 -434 201 -602 244 -29 7 -53 15 -53 19 0 3 37 5 83 5 84 -1
172 -22 239 -56 20 -10 44 -16 54 -12 13 5 15 3 9 -7 -5 -9 -4 -11 4 -6 16 10
53 -3 45 -16 -4 -7 -2 -8 5 -4 6 4 21 4 32 1 15 -5 18 -10 9 -15 -8 -5 -7 -9
5 -13 9 -4 13 -3 10 3 -9 14 6 12 35 -6 l25 -15 -25 6 c-19 5 -22 4 -10 -4 8
-6 23 -8 34 -5 12 4 16 2 12 -5 -5 -7 -1 -8 10 -4 12 4 15 3 10 -5 -5 -8 -1
-10 10 -5 12 4 15 3 10 -5 -5 -8 -1 -10 10 -5 12 4 15 3 10 -5 -5 -8 -1 -10
10 -5 11 4 15 3 10 -5 -3 -6 -1 -14 5 -18 8 -4 9 -3 5 4 -12 20 4 13 62 -26
32 -21 89 -59 127 -84 39 -25 115 -75 171 -111 55 -36 125 -90 155 -119 57
-57 403 -339 440 -358 12 -7 31 -13 43 -15 11 -1 30 -6 41 -10 11 -4 1 4 -22
18 -89 53 -224 150 -299 216 -371 319 -650 501 -1002 650 -136 58 -175 72
-142 51 13 -9 13 -10 0 -10 -8 0 -22 5 -30 10 -13 8 -13 10 0 10 24 0 -24 29
-92 54 -35 13 -62 28 -61 32 10 45 3 45 171 -11 88 -29 215 -79 283 -109z
m-923 133 c2 -11 -10 -19 -38 -28 -142 -42 -597 -251 -701 -321 -144 -98 -309
-234 -498 -413 -143 -135 -316 -271 -331 -262 -6 4 -9 2 -8 -3 7 -25 -249
-185 -332 -208 -25 -7 -25 -6 -6 14 10 11 39 28 64 36 25 9 58 27 72 40 14 13
55 43 92 68 109 74 189 142 472 401 261 238 384 331 612 456 189 104 527 244
579 238 11 -1 21 -9 23 -18z m4209 -46 c43 -20 106 -90 99 -110 -3 -8 -6 -39
-6 -69 0 -38 -3 -53 -11 -48 -6 3 -16 0 -21 -7 -7 -10 -8 -8 -2 6 18 49 16 90
-8 124 -29 42 -114 91 -162 93 -20 1 -36 3 -36 5 0 2 15 10 33 18 34 16 63 13
114 -12z m-7626 -3 l24 -19 -41 -1 c-82 0 -174 -75 -174 -141 0 -16 -4 -29
-10 -29 -5 0 -10 -8 -11 -17 -2 -28 -17 27 -18 64 -1 17 -7 34 -13 37 -21 8
86 102 129 114 59 16 89 14 114 -8z m7624 -81 c28 -25 35 -38 35 -69 0 -32 -7
-43 -52 -85 -29 -26 -67 -60 -84 -77 l-31 -29 -23 35 c-26 43 -34 46 -27 9 4
-20 -2 -34 -25 -57 -26 -28 -28 -36 -23 -76 5 -44 5 -45 -8 -15 -31 68 -121
124 -202 126 -29 0 -28 1 10 13 22 7 65 36 95 65 46 43 61 51 93 51 21 0 48
-5 60 -11 22 -12 22 -12 3 10 -11 11 -25 21 -33 21 -19 0 -16 33 5 54 74 73
149 86 207 35z m-7616 -10 c69 -31 95 -46 99 -58 2 -6 -3 -11 -10 -11 -8 0
-25 -11 -38 -25 -13 -14 -30 -25 -38 -25 -9 0 -13 -7 -9 -20 3 -11 1 -20 -3
-20 -9 0 -75 87 -82 110 -5 14 20 70 31 70 3 0 25 -9 50 -21z m4151 -9 c30
-16 51 -29 45 -29 -5 0 -35 13 -65 29 -30 16 -50 29 -45 29 6 0 35 -13 65 -29z
m-826 -11 c-2 -3 -63 -30 -136 -59 -152 -60 -439 -204 -485 -242 -7 -6 -13 -7
-13 -2 0 5 -5 1 -11 -8 -5 -10 -18 -18 -28 -18 -9 0 -26 -8 -37 -17 -10 -10
-32 -25 -48 -33 -16 -8 -65 -49 -109 -91 -56 -55 -84 -75 -98 -72 -18 5 -17 6
4 24 12 10 19 18 15 19 -14 0 35 50 49 50 8 0 11 5 7 12 -4 6 -3 8 3 5 5 -3
25 9 43 28 18 19 36 32 40 30 4 -3 16 5 26 16 24 27 157 109 175 109 8 0 30
11 49 25 18 13 38 22 43 18 6 -3 7 -1 3 5 -7 11 83 62 110 62 8 0 14 3 14 8 0
7 61 31 90 35 8 1 17 5 20 9 3 3 19 8 35 10 17 2 35 10 42 18 6 8 15 15 20 16
4 0 15 4 23 7 69 30 165 53 154 36z m185 -13 c10 -12 -3 -19 -71 -42 -133 -44
-415 -161 -513 -213 -151 -79 -289 -170 -448 -295 -84 -65 -167 -132 -184
-149 -18 -17 -36 -28 -40 -24 -3 4 -15 0 -25 -10 -10 -9 -18 -12 -18 -6 0 14
198 189 211 185 6 -1 8 1 5 6 -8 13 116 117 226 189 180 119 398 224 658 319
155 57 181 62 199 40z m450 -23 c389 -112 697 -291 1086 -633 238 -209 383
-308 680 -466 72 -37 175 -87 230 -110 81 -33 101 -45 103 -64 3 -20 1 -22
-25 -16 -56 14 -260 108 -398 183 -278 152 -379 221 -620 428 -202 173 -268
225 -394 309 -202 137 -412 237 -676 322 -82 26 -152 49 -154 51 -2 1 2 10 9
18 15 18 28 16 159 -22z m-378 -58 c24 -19 51 -35 60 -35 10 0 40 15 67 34
l51 34 48 -15 c246 -77 374 -125 511 -193 232 -115 385 -220 624 -428 254
-222 415 -337 643 -460 141 -75 367 -181 429 -202 37 -12 38 -14 33 -49 -25
-160 -15 -430 22 -571 11 -41 21 -82 23 -90 2 -8 0 -5 -6 8 -5 12 -14 22 -19
22 -4 0 -5 5 -2 10 3 6 1 10 -4 10 -12 0 -14 -13 -4 -24 10 -10 12 -36 3 -36
-5 0 -11 8 -13 18 -3 12 -5 10 -7 -8 -1 -14 -2 -31 -1 -37 1 -7 -5 -10 -13 -7
-10 4 -15 -3 -18 -23 -2 -18 -8 -27 -17 -25 -12 3 -12 0 -2 -12 11 -13 10 -19
-5 -33 -17 -17 -17 -17 -12 5 3 12 2 20 -3 16 -5 -3 -9 0 -9 7 0 7 -2 10 -5 7
-9 -9 35 -118 70 -178 54 -91 56 -84 -40 -225 -47 -70 -82 -124 -77 -122 4 3
28 35 52 71 46 66 67 85 67 60 0 -8 -3 -14 -6 -14 -3 0 -12 -14 -20 -31 -12
-27 -12 -33 0 -40 9 -5 10 -9 2 -9 -8 0 -8 -9 0 -37 9 -28 9 -37 -1 -41 -7 -2
-10 -13 -6 -28 5 -18 1 -29 -12 -39 -11 -8 -14 -15 -9 -15 6 0 3 -5 -5 -11
-11 -8 -12 -12 -3 -15 18 -8 -7 -44 -29 -44 -24 0 -32 -18 -11 -23 14 -4 13
-5 -4 -6 -22 -1 -34 -21 -13 -21 5 0 6 -8 3 -17 -5 -12 -8 -13 -11 -4 -3 8 -9
6 -19 -8 -8 -12 -11 -26 -8 -31 3 -6 -1 -10 -9 -10 -10 0 -13 6 -10 18 5 13 4
14 -4 3 -6 -8 -7 -21 -4 -30 5 -14 3 -14 -11 -2 -15 12 -17 11 -17 -5 0 -16
-2 -17 -10 -4 -8 13 -11 13 -22 1 -11 -11 -11 -13 1 -6 9 5 12 3 9 -6 -3 -8
-15 -13 -27 -12 -11 2 -21 -2 -21 -8 0 -5 -4 -7 -10 -4 -5 3 -10 1 -10 -4 0
-6 7 -11 15 -11 9 0 12 -6 9 -15 -4 -8 -10 -15 -16 -15 -5 0 -7 4 -4 9 4 5 -3
7 -13 4 -13 -3 -17 -10 -14 -20 5 -13 2 -13 -14 -4 -19 10 -27 0 -98 -122
-132 -225 -213 -353 -271 -426 -30 -39 -57 -71 -60 -71 -2 0 20 35 50 78 66
95 152 244 194 337 17 39 26 61 19 51 -7 -11 -21 -29 -32 -40 -11 -11 -20 -25
-21 -31 -3 -26 -5 -28 -18 -10 -14 19 -46 15 -46 -6 0 -6 7 -8 17 -5 9 4 20 1
25 -6 12 -19 10 -34 -3 -21 -6 6 -18 9 -25 6 -8 -3 -14 -1 -14 3 0 5 -16 9
-35 9 -19 0 -35 -4 -35 -9 0 -4 -11 -5 -25 -2 -14 4 -25 2 -25 -3 0 -5 -7 -12
-16 -15 -13 -5 -14 -4 -6 7 9 10 8 14 -3 14 -8 0 -15 -7 -15 -14 0 -12 -17
-13 -97 -8 -158 11 -158 11 -156 -2 2 -7 -2 -13 -8 -13 -6 0 -9 6 -6 14 8 21
-3 27 -20 11 -8 -8 -26 -15 -41 -15 -19 0 -23 3 -13 9 10 6 11 14 3 26 -9 17
-10 17 -16 -2 -4 -12 -14 -24 -22 -27 -12 -4 -14 -1 -9 14 5 15 2 20 -14 20
-11 0 -23 -4 -26 -10 -11 -17 -28 -11 -21 7 4 10 4 14 0 11 -3 -4 -13 0 -21 8
-14 14 -19 10 -45 -35 -45 -81 -42 -59 6 37 115 230 151 373 166 650 11 224
24 269 98 360 19 23 33 42 31 43 -2 0 -40 1 -84 2 -105 3 -171 34 -320 154
-302 242 -493 500 -556 752 -38 150 -17 256 71 366 41 51 72 72 140 91 72 21
79 29 38 43 -47 16 -215 -10 -283 -44 -73 -36 -142 -100 -172 -159 -14 -28
-51 -91 -82 -141 -32 -49 -77 -125 -101 -167 -24 -43 -47 -78 -51 -78 -8 0
-19 52 -19 92 0 18 -18 57 -46 101 -70 107 -238 310 -284 342 -52 36 -44 44
14 15 77 -37 227 -215 301 -358 l27 -52 33 54 c49 82 113 161 207 258 64 66
75 80 43 57 -44 -32 -222 -209 -264 -264 -13 -16 -25 -25 -27 -20 -15 40 -101
152 -178 229 -104 106 -161 135 -269 137 l-62 2 60 10 c82 14 171 -2 238 -43
29 -17 90 -65 137 -105 47 -41 90 -75 95 -75 6 0 57 39 115 86 131 106 221
153 316 163 l69 7 -53 7 c-95 14 -209 -35 -357 -154 -75 -60 -89 -68 -103 -57
-9 7 -48 39 -86 71 -157 130 -305 163 -440 97 -23 -11 -52 -20 -63 -20 -27 0
-53 -10 -53 -20 0 -4 17 -11 37 -15 68 -12 93 -32 124 -98 83 -179 76 -338
-25 -582 -37 -89 -103 -215 -112 -215 -3 0 0 10 7 22 10 18 9 20 -5 15 -8 -3
-19 0 -23 7 -5 7 -17 16 -27 20 -18 6 -18 7 -1 20 17 12 17 13 1 19 -12 5 -16
14 -11 29 5 20 4 21 -5 5 -6 -9 -8 -22 -4 -28 4 -7 1 -10 -7 -7 -8 3 -13 12
-13 21 1 9 -1 16 -5 15 -25 -3 -51 4 -46 12 3 5 12 7 20 3 8 -3 15 0 15 7 0 6
4 9 8 6 5 -3 9 1 9 9 0 8 -3 12 -7 10 -15 -9 -33 16 -33 47 0 18 -2 27 -5 20
-2 -6 -8 -10 -12 -7 -5 3 -7 12 -4 20 4 10 0 12 -15 8 -13 -3 -21 -1 -21 6 0
7 4 10 9 6 5 -3 12 -1 16 5 3 5 1 10 -5 10 -7 0 -9 7 -6 15 3 9 -1 18 -9 21
-15 6 -16 29 -1 53 7 11 3 13 -20 7 -27 -6 -28 -5 -10 9 10 8 23 12 29 8 5 -3
7 0 5 8 -3 8 -12 13 -22 11 -19 -3 -22 14 -3 21 6 3 2 6 -10 6 -16 1 -21 6
-17 16 4 8 2 15 -4 15 -5 0 -13 7 -16 16 -5 13 -4 14 7 6 8 -7 18 -8 22 -4 5
4 5 2 1 -5 -3 -6 -2 -14 4 -18 13 -8 13 5 -2 38 -7 15 -19 27 -25 27 -7 0 -13
5 -13 11 0 6 7 8 16 5 9 -3 12 -2 8 5 -3 6 -15 9 -25 6 -11 -3 -19 -1 -19 4 0
5 5 9 11 9 5 0 8 4 4 10 -3 5 -12 7 -20 3 -21 -7 -19 7 3 23 9 7 12 14 5 14
-6 0 -15 -4 -18 -10 -3 -5 -13 -10 -22 -10 -9 0 -13 3 -10 6 3 4 0 16 -8 28
-8 11 -15 25 -15 31 0 5 5 3 10 -5 8 -13 12 -13 27 3 17 17 17 18 -2 11 -18
-7 -18 -6 -6 9 8 10 9 17 3 17 -6 0 -14 -4 -17 -10 -10 -17 -35 -11 -35 8 0
14 2 15 10 2 8 -13 10 -12 10 3 0 10 5 15 10 12 15 -9 12 8 -6 33 -8 12 -12
27 -8 34 5 8 2 9 -10 5 -10 -4 -19 -1 -23 8 -3 10 -13 14 -27 10 -21 -6 -21
-6 -2 9 18 15 15 21 -8 17 -5 -1 -13 4 -17 11 -6 10 -11 10 -20 1 -13 -13 -3
-36 12 -27 6 3 10 0 8 -7 -4 -34 1 -41 17 -24 9 9 18 14 21 11 3 -2 -4 -13
-15 -24 -20 -20 -20 -20 -32 9 -7 16 -18 29 -25 29 -8 0 -10 9 -7 25 2 14 8
25 12 25 15 0 18 39 3 44 -11 5 -13 1 -8 -15 4 -12 3 -19 -2 -16 -5 3 -15 2
-22 -3 -8 -4 -26 -4 -42 2 -29 10 -45 33 -29 43 6 4 10 11 10 16 0 6 -5 7 -12
3 -7 -4 -8 -3 -4 4 5 8 0 12 -13 12 -12 0 -21 4 -21 9 0 6 9 9 20 8 11 -1 20
-4 20 -7 0 -4 7 -7 15 -7 8 0 15 4 15 9 0 4 -6 8 -12 8 -10 0 -10 2 0 9 11 6
10 10 -4 15 -15 6 -16 9 -4 16 9 6 17 5 21 -2 5 -8 13 -5 25 7 17 17 17 17 -6
10 -23 -7 -24 -6 -11 9 8 9 20 15 28 12 8 -3 12 -2 8 3 -3 5 19 31 47 57 60
54 40 42 -42 -26 -30 -24 -59 -48 -65 -52 -5 -5 -52 -41 -104 -80 -52 -40
-106 -82 -120 -93 -14 -10 -57 -44 -96 -75 -67 -54 -112 -86 -90 -63 21 22
305 262 397 336 63 51 95 83 91 93 -4 10 -12 6 -33 -16 -15 -17 -36 -30 -46
-30 -13 0 -11 5 10 24 24 20 26 24 10 30 -10 4 -24 0 -34 -9 -14 -13 -19 -13
-23 -3 -3 10 -10 8 -28 -7 -36 -31 -68 -51 -38 -24 193 175 461 353 684 452
107 48 444 176 491 187 1 0 21 -16 45 -35z m-3373 -65 c9 -1 -1 -7 -23 -15
-38 -14 -59 -31 -98 -85 l-18 -25 4 29 c3 16 -4 49 -15 74 -22 50 -14 82 25
99 18 8 29 3 65 -34 24 -23 51 -43 60 -43z m-43 60 c3 -5 2 -10 -4 -10 -5 0
-13 5 -16 10 -3 6 -2 10 4 10 5 0 13 -4 16 -10z m94 -94 c9 -11 2 -18 -38 -35
-27 -11 -59 -21 -70 -21 -49 0 30 68 80 70 9 0 22 -6 28 -14z m152 -43 c13
-16 12 -17 -3 -4 -10 7 -18 15 -18 17 0 8 8 3 21 -13z m7189 3 c0 -2 -8 -10
-17 -17 -16 -13 -17 -12 -4 4 13 16 21 21 21 13z m-333 -23 c46 -21 73 -67 73
-120 0 -24 5 -43 10 -43 6 0 3 -12 -6 -26 -13 -19 -19 -22 -25 -12 -5 7 -15
13 -23 13 -9 0 -15 5 -13 10 1 6 5 9 10 8 11 -4 9 15 -3 22 -5 3 -10 1 -10 -6
0 -6 -18 5 -39 24 -22 20 -52 44 -68 54 -43 27 -58 43 -41 43 7 1 22 12 33 25
23 29 54 31 102 8z m-6977 -33 c9 -16 8 -20 -6 -20 -10 0 -36 -19 -58 -43 -23
-23 -49 -48 -58 -55 -15 -12 -16 -10 -13 18 6 44 45 108 69 113 44 9 56 6 66
-13z m2270 -4 c0 -3 -15 -14 -32 -26 l-33 -22 30 26 c31 27 35 29 35 22z
m4524 -37 c80 -27 158 -87 172 -133 6 -19 7 -37 3 -38 -5 -2 -5 -19 0 -38 5
-19 12 -57 16 -85 7 -48 7 -49 20 -25 7 14 14 39 16 55 4 35 17 57 30 49 5 -3
7 1 4 8 -3 7 14 34 37 59 24 25 35 35 24 23 -10 -13 -20 -36 -23 -51 -4 -33
-10 -82 -12 -103 -1 -13 -2 -13 -11 0 -8 12 -10 12 -10 1 0 -8 8 -20 18 -28 9
-8 11 -12 5 -8 -7 3 -13 1 -13 -4 0 -6 5 -11 10 -11 6 0 10 -5 10 -11 0 -5 -5
-7 -11 -3 -8 4 -8 1 -2 -12 13 -26 10 -50 -5 -46 -7 1 -12 -4 -12 -12 0 -8 7
-13 16 -12 9 0 19 -5 22 -13 3 -8 0 -11 -7 -7 -7 4 -9 2 -5 -7 3 -8 18 -17 35
-21 36 -7 39 -24 3 -20 -24 2 -25 1 -9 -16 9 -9 15 -21 13 -26 -6 -19 27 -116
43 -124 17 -10 29 -59 29 -121 0 -22 9 -49 24 -72 14 -20 21 -37 16 -37 -6 0
-10 -8 -11 -17 0 -15 -2 -15 -9 2 -8 19 -9 19 -9 -2 -1 -17 5 -23 19 -23 15 0
20 -7 21 -27 l1 -28 8 30 c5 18 7 -13 6 -82 -1 -62 1 -118 6 -125 5 -9 8 -5 8
11 0 13 3 22 6 19 3 -4 5 -38 5 -76 0 -42 6 -83 14 -100 12 -22 15 -79 15
-261 1 -144 5 -229 10 -226 6 4 10 2 10 -4 0 -6 7 -8 16 -4 13 5 13 7 2 14 -9
6 -9 9 -1 9 6 0 14 12 16 28 2 15 6 -443 7 -1018 2 -575 4 -1058 4 -1075 0
-16 7 -36 14 -44 8 -8 9 -17 4 -20 -15 -10 -20 -35 -11 -59 6 -14 5 -21 0 -17
-9 5 -12 -145 -12 -450 1 -512 -2 -2258 -4 -2285 -1 -19 -2 -54 -3 -77 -1 -28
-7 -43 -15 -43 -9 0 -13 -11 -11 -33 3 -29 3 -30 -5 -7 -5 15 -10 19 -11 10
-1 -8 -3 -19 -4 -25 0 -5 -7 -20 -14 -33 -13 -23 -8 -62 9 -62 8 0 -7 -36 -21
-50 -10 -10 -7 -89 3 -83 6 3 7 1 3 -5 -3 -6 1 -17 9 -26 14 -13 13 -15 -4
-13 -11 0 -18 4 -15 8 2 4 -1 11 -7 15 -8 4 -9 3 -5 -4 4 -7 3 -12 -3 -12 -5
0 -15 8 -20 18 -6 9 -11 12 -11 7 0 -6 28 -37 61 -70 155 -151 235 -343 274
-660 22 -174 40 -269 76 -395 38 -133 84 -214 231 -414 83 -112 90 -127 38
-86 -72 57 -389 367 -443 433 -28 34 -71 84 -96 112 -32 34 -35 40 -11 17 20
-17 41 -32 46 -32 17 0 160 -137 199 -191 21 -27 39 -48 41 -46 2 1 -14 73
-36 158 -21 85 -55 251 -75 369 -63 365 -97 474 -190 605 -44 62 -149 168
-175 177 -9 3 -11 9 -6 14 5 5 11 4 13 -3 8 -22 21 -14 16 10 -13 59 -26 87
-40 87 -12 0 -14 -10 -11 -45 2 -29 -1 -46 -9 -50 -7 -2 -13 -14 -13 -25 0
-14 15 -28 52 -48 53 -28 142 -101 133 -110 -2 -3 -28 11 -57 31 -29 20 -75
42 -103 49 -56 14 -80 28 -47 28 21 0 22 1 7 24 -13 19 -14 32 -6 67 19 82 14
81 -76 -11 -138 -143 -265 -207 -391 -198 -77 5 -135 36 -228 119 -43 38 -85
68 -94 66 -8 -1 -14 3 -13 9 2 8 -6 10 -20 6 -20 -5 -21 -4 -7 12 8 10 15 23
17 30 14 56 14 66 5 66 -6 0 -12 -12 -14 -27 -2 -14 -9 -29 -17 -31 -8 -3 -11
0 -7 7 4 6 1 11 -8 11 -13 0 -13 3 -1 27 14 27 11 109 -6 127 -21 23 -104 -29
-140 -89 -26 -42 -23 -18 5 48 39 88 142 161 219 155 l42 -3 -45 -27 c-25 -15
-40 -28 -35 -29 6 -1 17 -2 25 -3 8 -1 28 8 44 18 16 11 27 15 23 9 -4 -6 13
-24 41 -42 134 -86 390 -139 542 -112 l45 8 -44 2 c-151 4 -402 67 -516 129
-37 21 -50 33 -49 50 0 17 -6 23 -35 27 -20 3 -54 10 -76 15 -42 10 -59 5 -35
-10 11 -7 12 -10 2 -10 -34 0 -169 -108 -225 -180 l-28 -35 7 30 c4 17 18 42
31 56 17 19 21 29 13 34 -6 4 -10 16 -7 26 7 26 -6 24 -37 -7 -40 -41 -31 -15
22 61 37 55 58 75 99 95 28 14 52 29 52 34 1 16 -71 -3 -112 -29 -21 -15 -36
-21 -32 -15 5 9 1 10 -14 5 -12 -3 -21 -2 -21 4 0 5 -9 8 -21 6 -23 -5 -127
92 -132 122 -4 24 -39 83 -50 83 -4 0 -6 4 -2 9 3 5 -2 16 -10 24 -8 9 -15 25
-15 37 0 15 -5 20 -15 17 -8 -4 -17 -1 -21 5 -4 7 -3 8 4 4 7 -4 12 -2 12 3 0
6 -4 11 -10 11 -5 0 -10 8 -10 17 0 12 18 0 58 -37 31 -30 17 -13 -33 38 -88
91 -131 127 -64 54 l34 -37 -37 34 c-21 19 -35 37 -33 41 2 4 -46 56 -108 117
-155 152 -252 241 -243 223 5 -8 -56 49 -134 127 -78 78 -140 146 -136 151 3
5 -11 24 -32 43 l-37 34 35 -40 c29 -33 26 -32 -18 10 -48 46 -69 76 -39 59 6
-4 4 2 -7 14 -10 12 -22 20 -26 17 -4 -2 -56 51 -116 118 -177 197 -370 423
-349 407 11 -8 1 8 -23 35 -24 28 -73 87 -110 133 -36 45 -69 82 -73 82 -4 0
-24 24 -45 52 -21 29 -58 76 -83 104 -25 28 -59 67 -74 87 -16 21 -32 35 -36
33 -5 -3 -19 7 -32 22 l-24 27 28 -24 c15 -14 27 -21 27 -17 0 11 -124 156
-133 156 -5 0 10 -22 33 -50 23 -27 40 -50 37 -50 -15 0 -341 392 -433 522
l-32 43 52 57 51 58 27 -44 c42 -71 539 -680 583 -716 11 -8 16 -10 13 -5 -3
6 103 75 235 154 133 79 283 170 332 201 184 117 342 218 428 273 63 42 87 53
87 41 0 -27 -66 -80 -260 -208 -173 -115 -609 -381 -746 -457 l-61 -33 55 -63
c31 -34 60 -59 66 -56 5 4 6 1 1 -6 -7 -13 40 -71 57 -71 5 0 56 38 113 85
130 105 230 141 275 100 16 -14 20 -10 48 44 l32 59 -45 -6 c-49 -5 -95 16
-95 44 0 12 -7 14 -30 9 -42 -9 -162 -63 -242 -109 -64 -35 -81 -57 -58 -71 6
-3 10 -2 10 4 0 6 6 8 14 5 8 -3 43 13 77 36 103 70 198 93 294 70 l30 -7 -40
-7 c-135 -24 -171 -37 -259 -96 -49 -33 -95 -60 -103 -60 -7 0 -16 -7 -19 -15
-5 -13 -8 -13 -21 0 -8 9 -19 12 -24 9 -10 -6 -60 41 -52 49 2 3 -1 8 -8 13
-8 4 -10 3 -5 -4 9 -16 -7 -15 -22 0 -19 19 -15 25 46 59 289 164 716 433 930
585 l52 37 30 -29 c32 -32 37 -44 17 -44 -7 0 -37 -21 -67 -46 -55 -47 -163
-108 -173 -97 -3 3 -40 -18 -81 -46 -41 -28 -103 -65 -136 -82 -87 -44 -67
-48 26 -5 42 20 79 35 81 33 1 -2 -26 -21 -62 -42 -36 -21 -65 -39 -65 -41 0
-5 33 7 45 16 6 4 74 42 153 84 135 72 272 161 299 194 7 9 15 13 18 10 3 -3
22 -2 41 2 71 16 36 -16 -183 -163 -78 -53 -181 -116 -230 -141 -48 -24 -104
-55 -124 -69 -51 -34 -74 -40 -88 -23 -15 17 1 56 23 56 8 0 19 7 26 15 10 12
9 15 -4 15 -69 0 -128 -102 -75 -131 30 -16 93 -4 122 24 31 28 143 94 320
188 201 108 258 155 272 227 l7 32 -49 0 c-69 0 -83 12 -41 38 45 28 140 72
156 72 27 0 11 -37 -20 -48 l-33 -11 31 2 32 3 -18 -63 c-9 -35 -13 -63 -9
-63 5 0 9 4 9 10 0 5 46 56 103 112 299 297 516 590 736 993 52 94 130 237
175 318 44 82 89 157 98 167 17 18 15 29 -53 237 -120 369 -140 422 -166 443
-24 19 -25 19 -61 0 -20 -11 -38 -17 -41 -13 -3 3 -1 8 5 10 6 2 20 10 30 18
17 13 15 14 -26 15 -46 2 -46 4 3 14 67 15 90 93 42 141 -28 29 -51 31 -101
10 -49 -20 -34 -35 30 -28 49 5 54 4 61 -16 17 -56 -7 -79 -108 -101 -55 -13
-65 -22 -49 -46 9 -14 124 -34 176 -31 34 2 40 -1 47 -23 4 -14 30 -101 59
-195 28 -93 55 -179 60 -190 6 -11 23 -64 40 -118 16 -54 32 -102 35 -107 3
-5 -3 -14 -13 -19 -10 -6 -74 -113 -142 -238 -294 -543 -397 -702 -620 -948
-49 -55 -121 -136 -159 -180 -38 -44 -86 -96 -106 -115 l-38 -35 19 33 c10 17
21 32 25 32 13 0 27 47 18 63 -8 13 -19 16 -52 11 -44 -5 -159 -67 -191 -103
-25 -28 -33 -27 -55 10 -22 35 -21 45 10 143 l22 68 33 -5 c30 -5 38 0 111 76
323 340 511 597 698 959 77 149 82 157 101 144 18 -14 16 -20 -58 -168 -97
-193 -179 -323 -323 -513 -155 -204 -228 -291 -352 -418 -90 -91 -108 -105
-121 -95 -13 11 -15 10 -9 -4 3 -10 -2 -27 -13 -40 -15 -20 -16 -27 -6 -47
l13 -23 34 43 c19 23 80 90 135 148 151 158 204 220 332 391 133 177 240 349
343 554 39 77 73 143 75 145 3 3 10 -1 16 -7 7 -7 29 -12 51 -12 23 0 36 -4
32 -10 -10 -16 -57 -12 -77 7 -11 10 -18 12 -18 4 0 -7 18 -20 41 -30 23 -10
37 -20 32 -22 -11 -5 -59 -78 -74 -114 -7 -16 -20 -39 -30 -50 -9 -11 -33 -51
-54 -90 -20 -38 -46 -86 -57 -105 l-20 -35 31 35 32 35 -21 -35 c-56 -94 -266
-395 -277 -395 -6 0 -15 -4 -20 -9 -5 -5 -3 -6 5 -2 6 4 12 3 12 -2 0 -13 -25
-33 -32 -26 -3 3 -5 -1 -5 -9 1 -8 -37 -61 -84 -118 -148 -180 -191 -239 -185
-256 5 -12 14 -5 38 28 17 24 69 87 116 139 203 228 459 613 587 885 37 77 62
117 84 133 18 13 38 39 46 58 8 19 21 49 29 68 l15 34 -46 -44 c-50 -49 -64
-52 -144 -27 -30 9 -57 16 -61 15 -13 -3 -37 42 -47 90 -14 62 -2 92 47 117
53 27 166 45 192 31 22 -12 50 -60 60 -105 l7 -30 13 27 c17 35 -3 114 -33
130 -13 7 -56 9 -118 5 l-96 -5 -13 57 c-25 116 -82 299 -124 401 -24 58 -56
147 -71 199 -14 52 -40 123 -56 159 -16 36 -29 67 -29 69 0 3 14 2 30 -1 17
-3 43 -9 59 -12 23 -4 33 -15 51 -56 12 -27 22 -59 23 -69 1 -10 5 -19 9 -19
25 0 -9 90 -72 195 -27 45 -50 87 -50 93 0 6 19 20 43 31 52 25 125 28 133 6
4 -8 16 -15 29 -15 12 0 28 7 35 15 7 8 18 15 25 15 7 0 24 9 37 20 24 18 25
24 21 87 -5 67 -4 70 38 140 24 40 115 157 202 261 l157 189 53 9 c28 4 57 8
64 7 7 0 11 2 10 6 0 3 5 17 12 30 19 34 8 117 -24 189 -52 115 -173 200 -299
209 -75 5 -120 -18 -135 -69 -6 -23 -9 -27 -10 -12 -1 26 32 70 73 96 26 16
42 18 95 13 35 -3 92 -15 125 -26z m406 -29 c-29 -33 -54 -60 -57 -60 -3 0 18
27 47 60 29 33 54 60 57 60 3 0 -18 -27 -47 -60z m-6896 34 c37 -18 56 -49 56
-91 0 -26 0 -26 -23 8 -31 47 -81 71 -134 66 -61 -6 -148 -52 -207 -109 -32
-31 -53 -45 -60 -38 -13 13 34 81 79 116 78 59 217 82 289 48z m1896 -17 c0
-2 -10 -12 -22 -23 l-23 -19 19 23 c18 21 26 27 26 19z m4760 -70 c0 -9 -75
47 -87 66 -3 6 15 -4 40 -23 26 -18 47 -38 47 -43z m-6714 -2 l37 -25 -39 0
c-52 0 -132 -39 -187 -90 -25 -22 -50 -39 -57 -38 -7 2 -15 -4 -17 -12 -4 -13
-3 -13 6 0 9 13 11 13 11 -2 0 -20 -15 -24 -25 -8 -8 13 28 74 69 119 31 34
117 81 148 81 9 0 34 -11 54 -25z m6530 1 c89 -41 155 -148 153 -245 l-1 -36
-10 35 c-12 44 -66 118 -108 148 -47 35 -131 72 -165 72 l-30 0 25 20 c22 17
41 24 75 29 6 0 33 -10 61 -23z m-261 -98 c-3 -7 -18 -22 -33 -32 l-27 -19 28
30 c18 20 26 36 22 49 -6 17 -5 17 4 2 6 -9 9 -22 6 -30z m-6245 8 c25 -10 29
-14 15 -20 -9 -3 -27 -6 -40 -6 -38 0 -108 -29 -149 -62 -25 -20 -34 -24 -27
-12 30 52 81 92 134 104 17 5 33 8 33 9 1 1 16 -5 34 -13z m6448 -9 c61 -23
115 -89 127 -157 7 -40 -15 -77 -91 -150 -42 -40 -52 -46 -35 -22 12 17 27 32
33 32 6 0 9 3 5 6 -3 4 13 32 37 63 l43 56 -27 45 c-46 79 -126 116 -232 108
-32 -2 -58 -3 -58 -1 0 2 15 10 33 18 39 17 120 18 165 2z m-6441 -58 c9 -9 6
-17 -13 -31 -24 -20 -69 -96 -61 -104 2 -3 19 9 37 26 43 40 109 44 205 13 41
-13 46 -17 30 -24 -11 -4 -41 -8 -67 -8 -56 -1 -141 -31 -173 -61 l-23 -22
-11 34 c-16 50 -16 148 1 148 4 0 7 6 6 13 -2 7 6 11 20 9 12 -2 22 2 22 7 0
14 13 14 27 0z m6173 7 c0 -2 -8 -10 -17 -17 -16 -13 -17 -12 -4 4 13 16 21
21 21 13z m288 -14 c19 -10 41 -30 50 -45 16 -26 16 -29 1 -37 -9 -5 -22 -23
-29 -40 -7 -16 -16 -30 -21 -30 -5 0 -9 -6 -9 -14 0 -7 -9 -25 -20 -39 -11
-14 -20 -33 -20 -42 0 -21 -70 -139 -106 -180 l-26 -30 18 30 c40 65 64 120
64 144 -1 34 -32 102 -55 121 -11 8 -16 10 -11 3 5 -9 2 -11 -8 -7 -9 3 -13
10 -10 15 3 5 -2 6 -10 3 -9 -4 -18 1 -22 10 -4 11 -13 14 -32 9 -17 -4 -23
-2 -18 6 5 8 -11 11 -56 12 -63 1 -63 1 -26 13 20 6 40 14 44 19 4 4 17 7 28
7 20 1 20 2 4 14 -27 20 -23 25 35 51 67 31 185 34 235 7z m-6088 -50 c0 -5
-7 -9 -15 -9 -8 0 -15 4 -15 9 0 4 7 8 15 8 8 0 15 -4 15 -8z m1340 -7 c-7 -8
-17 -15 -23 -15 -6 0 -2 7 9 15 25 19 30 19 14 0z m-2105 -22 c3 -16 14 -45
24 -65 l19 -37 -24 17 c-29 21 -56 75 -48 96 9 24 23 19 29 -11z m1013 -19
c-8 -7 -88 -8 -95 0 -4 3 18 6 47 6 29 0 51 -3 48 -6z m-428 -134 c-14 -10
-37 -30 -53 -44 -32 -30 -49 -26 -64 15 -13 34 -5 65 23 90 34 29 48 28 84 -8
l35 -34 -25 -19z m6031 80 c45 -13 83 -52 75 -77 -10 -32 -73 -123 -80 -116
-4 4 0 -9 7 -28 39 -95 24 -158 -17 -70 -13 28 -26 48 -30 44 -3 -3 -6 0 -6 8
0 35 -139 139 -185 139 -8 0 -15 5 -15 10 0 6 14 10 31 10 23 0 41 11 75 45
47 49 73 55 145 35z m-4471 -4 c0 -2 -8 -10 -17 -17 -16 -13 -17 -12 -4 4 13
16 21 21 21 13z m-1503 -42 c10 -27 -8 -29 -27 -4 -11 14 -20 29 -20 33 0 12
41 -13 47 -29z m-504 -11 c-7 -2 -21 -2 -30 0 -10 3 -4 5 12 5 17 0 24 -2 18
-5z m72 -55 c26 -35 38 -54 27 -44 -12 11 -22 15 -22 9 0 -5 -7 -10 -16 -10
-14 0 -14 2 2 14 16 12 12 18 -9 14 -5 -1 -6 3 -2 9 3 5 -3 24 -15 40 -38 54
-14 32 35 -32z m533 24 c9 -6 -9 -18 -54 -37 -53 -23 -75 -39 -112 -86 -26
-32 -48 -56 -50 -54 -12 12 16 84 47 118 52 58 129 84 169 59z m4562 -49 c0
-7 -39 17 -46 28 -3 6 5 3 20 -6 14 -10 26 -19 26 -22z m1187 -35 c47 -50 53
-70 50 -155 l-2 -79 -26 36 c-40 54 -115 127 -170 164 -29 19 -46 37 -40 41 6
3 16 3 23 -1 6 -4 8 -3 4 4 -9 15 10 20 75 21 50 1 58 -2 86 -31z m-5794 5
c-18 -9 -33 -23 -33 -30 0 -11 5 -11 23 -2 12 6 29 17 37 24 30 25 58 27 80 5
l21 -21 -82 -61 c-45 -34 -90 -76 -101 -95 -24 -40 -41 -35 -26 8 6 17 8 52 5
79 -6 52 6 72 61 97 40 17 52 14 15 -4z m1557 13 c0 -2 -7 -7 -16 -10 -8 -3
-12 -2 -9 4 6 10 25 14 25 6z m3754 -21 c-25 -19 -40 -19 -24 0 7 8 20 15 28
15 13 0 12 -3 -4 -15z m796 11 c0 -2 -8 -10 -17 -17 -16 -13 -17 -12 -4 4 13
16 21 21 21 13z m-6551 -45 c-1 -13 -2 -13 -6 2 -2 9 -9 17 -14 17 -5 0 -9 5
-9 11 0 8 5 8 15 -1 8 -7 14 -20 14 -29z m830 9 c43 -21 51 -35 51 -86 0 -62
-39 -134 -85 -155 -20 -10 -20 -10 -1 5 15 12 16 16 5 16 -11 1 -11 3 2 13 42
32 61 111 37 162 -10 23 -16 25 -73 25 -97 0 -166 -40 -295 -169 -58 -57 -99
-98 -93 -89 7 8 9 19 5 23 -4 5 -1 5 6 1 9 -5 12 -3 10 7 -5 22 57 111 110
158 108 95 239 131 321 89z m5175 5 c68 -18 153 -72 191 -121 37 -48 73 -130
81 -184 l6 -45 -27 50 c-41 75 -90 139 -147 190 -67 60 -118 85 -183 92 -48 5
-56 3 -80 -21 -21 -22 -26 -34 -23 -62 3 -25 0 -34 -10 -34 -11 0 -13 9 -9 36
8 49 32 83 70 99 41 18 60 18 131 0z m-5979 -35 c-3 -5 -1 -10 4 -10 6 0 11
-4 11 -10 0 -5 -7 -7 -15 -4 -9 4 -15 0 -15 -8 0 -10 11 -15 32 -16 23 -1 28
2 18 8 -12 8 -12 10 -1 10 11 0 11 3 0 17 -11 13 -11 15 -1 9 19 -11 160 -190
200 -253 31 -48 33 -58 31 -125 -4 -157 -4 -156 67 -183 l45 -17 -5 -42 -6
-41 16 34 c13 30 13 35 -1 57 -17 26 -4 33 25 14 21 -13 1 -99 -49 -204 -34
-73 -37 -86 -23 -89 13 -4 12 -5 -3 -6 -11 0 -30 -8 -41 -16 -12 -8 -24 -12
-26 -9 -3 2 -17 -14 -32 -37 -15 -23 -23 -38 -17 -35 7 5 11 -11 11 -50 0 -39
5 -63 16 -76 16 -16 15 -18 -7 -26 -13 -5 -31 -7 -39 -4 -8 3 -12 2 -8 -2 4
-5 -2 -31 -14 -60 -11 -28 -43 -114 -70 -191 -28 -77 -54 -145 -59 -150 -4 -6
-4 -17 1 -24 5 -9 3 -20 -6 -29 -9 -8 -13 -21 -10 -29 3 -8 2 -11 -4 -8 -9 6
-25 -42 -35 -106 -4 -26 -3 -29 4 -14 11 23 14 10 4 -23 -4 -18 -8 -21 -15
-10 -6 9 -7 5 -3 -12 34 -126 262 -579 408 -810 33 -52 60 -100 60 -107 0 -7
5 -11 10 -10 5 1 12 -4 15 -12 3 -9 0 -11 -9 -6 -8 5 -11 4 -6 -1 5 -5 12 -9
17 -9 4 0 41 -44 82 -97 40 -53 134 -173 208 -267 74 -94 154 -196 178 -226
39 -49 45 -53 58 -40 9 8 24 15 35 15 16 0 18 -3 10 -18 -19 -36 -39 -46 -56
-28 -9 9 -21 16 -26 16 -5 0 -9 6 -9 13 0 7 -16 29 -36 48 -19 18 -51 55 -71
82 -19 26 -39 45 -43 42 -5 -3 -12 0 -16 6 -5 8 -3 9 7 4 8 -4 -4 12 -26 36
-87 95 -90 100 -76 108 9 6 10 11 2 15 -6 4 -11 2 -11 -4 0 -6 -5 -8 -10 -5
-6 4 -8 15 -5 25 3 10 0 22 -6 26 -9 5 -10 2 -5 -12 5 -14 4 -16 -4 -8 -6 6
-12 21 -15 34 -5 26 -15 40 -15 21 0 -7 -5 -9 -11 -6 -6 4 -8 14 -5 22 4 9 2
11 -6 7 -7 -5 -8 -3 -3 6 5 9 4 11 -3 6 -8 -5 -10 -1 -5 10 4 10 2 15 -3 11
-6 -3 -29 25 -53 64 -23 38 -48 72 -53 75 -13 8 -13 7 60 -105 62 -97 298
-423 381 -526 31 -38 108 -122 171 -186 115 -116 177 -158 255 -173 17 -4 24
-3 17 0 -6 3 -9 10 -6 16 4 6 -2 8 -17 3 -13 -4 -21 -4 -17 0 4 4 -12 20 -35
35 -45 28 -100 96 -136 167 -23 46 -26 57 -12 49 5 -3 11 4 14 15 3 12 10 18
16 15 10 -6 35 -77 36 -101 0 -5 16 -23 35 -38 19 -16 47 -49 63 -73 30 -49
68 -70 95 -54 14 8 13 9 -9 10 -16 0 -30 7 -35 18 -10 22 -15 72 -8 72 10 0
135 -70 189 -106 70 -46 98 -73 130 -121 41 -64 65 -75 181 -83 56 -4 108 -11
115 -15 33 -19 155 -99 164 -108 6 -5 -5 -2 -23 7 -18 10 -41 16 -50 15 -9 -2
-46 2 -82 9 -75 13 -194 23 -186 15 2 -3 50 -16 105 -29 95 -22 193 -63 253
-105 45 -32 83 -16 41 17 -17 13 -17 14 2 7 18 -6 19 -5 5 12 -14 17 -14 18 8
6 13 -7 25 -11 27 -9 2 2 44 49 92 105 48 55 168 188 265 294 98 107 215 235
260 285 46 50 135 151 198 224 252 293 308 353 370 399 36 26 105 82 153 126
79 70 90 77 103 63 14 -14 12 -21 -20 -71 -43 -67 -47 -84 -8 -38 16 19 39 36
51 38 34 5 21 -17 -29 -52 -24 -16 -89 -74 -143 -128 -54 -54 -96 -92 -92 -85
4 7 -18 -12 -50 -42 -72 -69 -236 -255 -422 -478 -197 -236 -453 -505 -526
-552 -32 -21 -104 -87 -160 -147 -155 -167 -397 -457 -387 -463 11 -7 -88
-122 -375 -436 -111 -120 -302 -334 -425 -474 -124 -140 -278 -311 -342 -381
l-117 -127 42 -37 c25 -22 30 -29 12 -17 -16 11 -40 30 -52 41 -12 11 -24 17
-27 12 -3 -4 27 -32 66 -62 39 -30 75 -61 78 -69 17 -36 28 -80 20 -80 -5 0
-10 -15 -12 -33 l-3 -32 -79 73 c-44 41 -94 81 -113 90 -18 9 -33 19 -33 24 0
12 48 10 72 -3 38 -21 28 -2 -18 31 -44 31 -47 32 -85 20 -31 -11 -39 -18 -37
-34 2 -16 -6 -23 -37 -32 -22 -7 -58 -13 -80 -14 -32 -1 -36 -3 -20 -10 11 -5
14 -9 7 -9 -10 -1 -12 -10 -7 -31 6 -26 4 -30 -14 -30 -11 0 -66 -20 -123 -44
-57 -24 -148 -59 -203 -77 -88 -29 -113 -33 -210 -33 -134 -1 -182 4 -217 21
-29 14 -37 33 -15 33 6 1 1 10 -12 20 -21 18 -20 25 2 21 4 0 7 8 7 19 0 11
-5 20 -10 20 -7 0 -7 6 -1 18 11 20 3 74 -10 66 -5 -3 -7 10 -4 28 4 29 4 30
-4 8 -5 -14 -9 -21 -10 -16 -1 5 -7 3 -15 -4 -12 -9 -16 -5 -22 27 l-8 38 -7
-30 -7 -30 -1 33 c-1 19 -5 31 -11 27 -6 -4 -11 33 -12 102 -1 59 -3 149 -4
198 -2 50 -3 112 -4 138 0 65 -23 58 -31 -9 -3 -27 -7 -41 -7 -31 -1 10 -6 16
-11 12 -6 -3 -9 32 -8 90 0 52 3 95 6 95 3 0 14 -7 24 -14 14 -11 17 -22 12
-50 -5 -24 -3 -36 4 -36 7 0 11 36 11 111 0 71 -4 108 -10 104 -5 -3 -11 -27
-11 -53 -1 -26 -3 -39 -6 -29 -2 9 -9 15 -14 12 -11 -7 -10 -12 -13 103 -1 51
1 95 6 98 4 3 8 -1 8 -8 0 -11 2 -10 9 0 6 10 10 4 15 -19 3 -18 9 -30 12 -26
3 3 7 122 8 266 1 190 -1 257 -9 251 -7 -5 -12 -30 -12 -55 0 -25 -6 -51 -11
-58 -6 -7 -9 -24 -6 -38 4 -18 3 -20 -4 -10 -8 11 -11 8 -15 -15 -3 -16 -3 81
-1 216 2 135 3 250 3 255 0 6 -1 83 -2 172 -1 90 -4 163 -7 163 -7 0 -3 218 5
230 3 5 3 15 0 21 -4 6 -8 173 -10 372 -3 426 -4 452 -14 417 -8 -28 -41 -41
-41 -16 0 10 6 13 15 10 10 -4 15 0 15 15 0 12 -4 21 -10 21 -5 0 -10 12 -10
26 0 17 4 23 13 18 7 -5 6 0 -3 11 -13 15 -16 74 -18 359 -4 379 -4 358 1 621
5 222 4 218 17 210 5 -3 11 23 13 62 3 58 4 53 7 -37 3 -95 4 -88 11 80 3 102
7 271 8 375 1 127 5 185 11 175 5 -8 10 -11 10 -6 0 5 7 3 15 -4 9 -7 13 -20
10 -29 -5 -13 -4 -14 7 -3 15 15 16 26 17 232 1 111 5 160 11 150 8 -12 10
-11 10 8 0 12 6 22 13 23 10 0 10 2 0 6 -7 2 -13 11 -13 19 0 8 6 11 15 8 8
-4 15 -1 15 6 0 22 19 -1 25 -32 12 -54 28 -5 26 83 -1 45 3 80 9 84 6 4 8 15
5 26 -4 10 -3 39 1 65 5 35 12 47 30 54 13 5 24 17 25 27 1 12 4 10 9 -7 6
-18 8 -7 9 42 1 69 19 105 47 94 10 -4 14 3 14 23 0 33 29 40 31 7 1 -19 1
-19 7 2 4 13 9 23 12 22 3 -1 16 4 30 10 22 9 23 10 3 6 -28 -5 -29 4 -4 26
18 16 20 16 24 0 4 -13 5 -12 6 4 0 11 9 29 19 40 9 11 18 26 20 34 4 18 23
31 34 24 4 -3 8 -1 8 4 0 6 6 10 13 9 20 -1 77 27 77 38 0 5 5 3 10 -5 6 -10
10 -11 10 -2 0 6 7 12 15 12 30 0 14 18 -22 26 -23 4 -31 9 -20 11 9 3 17 9
17 14 0 6 4 8 9 4 5 -3 12 4 16 15 3 11 11 20 16 20 6 0 7 -4 4 -10z m2046
-15 c5 4 9 1 9 -4 0 -6 -4 -11 -9 -11 -14 0 -32 26 -23 34 4 4 8 1 10 -8 2 -9
8 -14 13 -11z m-2126 5 c3 -5 -1 -10 -10 -10 -9 0 -13 5 -10 10 3 6 8 10 10
10 2 0 7 -4 10 -10z m42 4 c-3 -3 -12 -4 -19 -1 -8 3 -5 6 6 6 11 1 17 -2 13
-5z m3717 0 c13 -5 11 -12 -13 -43 -16 -20 -41 -61 -57 -91 -27 -51 -29 -63
-29 -170 0 -134 17 -194 96 -350 64 -126 160 -251 289 -378 229 -226 416 -343
525 -330 l33 4 -23 -31 c-53 -68 -67 -121 -76 -290 -10 -176 -20 -244 -50
-342 -25 -80 -33 -79 -13 2 20 83 29 362 16 449 -13 79 -36 110 -132 176 -139
95 -166 87 -84 -26 31 -43 63 -94 71 -113 18 -43 43 -182 43 -241 l0 -45 -15
28 c-8 15 -22 56 -31 90 -22 77 -107 287 -141 347 -14 25 -37 65 -50 89 -24
43 -54 83 -174 223 -209 245 -325 482 -344 704 -8 86 2 140 35 189 11 17 35
54 55 83 19 29 29 52 22 52 -13 0 -54 -56 -49 -66 2 -4 -9 -15 -26 -25 -32
-21 -92 -17 -92 6 0 7 21 30 48 51 26 21 41 31 33 21 -19 -24 -6 -21 37 8 36
25 66 31 96 19z m2301 -58 c57 -27 135 -101 172 -163 34 -59 83 -189 83 -221
l-1 -27 -14 32 c-62 143 -234 326 -327 349 -34 8 -35 18 -6 38 29 21 34 20 93
-8z m-6085 4 c0 -5 -5 -10 -11 -10 -5 0 -7 5 -4 10 3 6 8 10 11 10 2 0 4 -4 4
-10z m816 -24 c20 -20 18 -26 -8 -26 -66 0 -242 -154 -310 -271 -38 -64 -52
-75 -22 -18 8 17 17 39 19 50 12 61 149 204 239 249 69 35 64 34 82 16z m2181
-20 c-8 -20 -66 -21 -91 -3 -16 12 -14 13 16 9 23 -2 38 2 48 13 16 19 36 5
27 -19z m-2960 18 c-3 -3 -12 -4 -19 -1 -8 3 -5 6 6 6 11 1 17 -2 13 -5z
m2273 -24 c0 -5 -7 -10 -15 -10 -8 0 -15 5 -15 10 0 6 7 10 15 10 8 0 15 -4
15 -10z m3571 -65 c-45 -58 -101 -250 -100 -345 0 -47 2 -52 12 -36 44 72 180
187 262 220 22 10 50 27 63 39 24 22 24 22 39 2 34 -46 34 -51 -4 -69 -45 -22
-37 -32 11 -12 35 15 36 14 56 -14 11 -15 20 -44 20 -63 l0 -35 -59 5 c-33 3
-73 0 -93 -6 -91 -30 -253 -181 -300 -280 -29 -61 -30 -68 -26 -165 3 -70 10
-112 23 -136 24 -48 45 -71 59 -63 8 4 7 2 0 -6 -34 -37 -85 37 -103 149 -14
83 -14 410 -1 520 16 125 62 261 105 304 9 9 25 16 36 16 20 0 20 0 0 -25z
m157 16 c8 -4 12 -17 10 -27 -2 -10 2 -18 9 -17 6 1 23 -13 38 -32 25 -33 26
-55 3 -55 -5 0 -22 -9 -36 -21 -35 -27 -132 -89 -140 -89 -3 0 8 15 24 33 35
37 68 87 57 87 -4 0 6 14 22 30 16 17 26 30 22 30 -12 0 -67 -62 -62 -70 3 -5
-7 -18 -22 -30 -16 -12 -54 -51 -87 -88 l-58 -66 6 45 c9 57 81 203 122 246
31 33 65 42 92 24z m-2434 -38 c-33 -93 -7 -268 66 -442 43 -105 116 -236 155
-279 73 -81 258 -321 302 -391 52 -83 163 -347 188 -447 10 -41 15 -99 14
-156 -2 -93 -24 -208 -41 -208 -5 0 -6 5 -3 11 4 6 -2 5 -14 -2 -14 -10 -19
-20 -15 -36 4 -14 2 -23 -5 -23 -6 0 -11 -7 -11 -17 0 -13 5 -11 21 8 12 13
20 19 18 14 -31 -80 -43 -104 -52 -98 -6 3 -7 1 -3 -6 8 -12 -47 -115 -67
-128 -7 -4 -7 -1 1 10 15 18 7 41 -10 31 -7 -4 -8 -2 -4 5 4 6 12 8 18 5 7 -5
9 -2 6 8 -4 8 -2 21 4 29 8 11 9 10 4 -3 -3 -10 -1 -18 4 -18 16 0 22 20 11
34 -12 14 -10 25 22 96 23 51 47 200 46 275 -1 42 -3 35 -14 -41 -27 -203
-127 -416 -237 -507 -35 -30 -40 -37 -26 -42 10 -4 24 0 33 9 9 9 19 16 23 16
3 0 1 -5 -6 -12 -20 -20 -14 -28 23 -28 41 0 84 35 150 122 81 107 138 249
175 435 19 91 22 130 17 248 -3 77 -10 156 -16 176 -6 19 -38 68 -72 108 l-61
72 85 -65 c100 -77 102 -81 117 -251 13 -141 -1 -346 -31 -465 -41 -160 -159
-356 -245 -406 -40 -23 -58 -28 -114 -27 -82 1 -122 18 -181 74 -42 40 -56 75
-25 63 23 -9 70 17 119 64 30 29 45 39 41 27 -8 -23 56 48 94 103 14 21 41 71
61 112 35 74 36 77 36 200 0 103 -4 138 -24 200 -36 118 -93 228 -182 351
-111 155 -155 205 -238 269 -46 36 -66 57 -58 62 9 6 9 8 0 8 -17 0 -207 163
-323 277 l-96 93 -210 -212 c-280 -284 -465 -518 -554 -703 -102 -209 -125
-471 -59 -662 22 -66 84 -195 112 -236 11 -16 17 -30 14 -33 -9 -9 -88 114
-128 200 -21 45 -50 127 -65 181 -25 91 -28 116 -28 280 -1 159 2 189 22 259
29 100 82 215 112 241 18 16 15 6 -18 -60 -22 -44 -47 -104 -56 -134 -17 -58
-21 -131 -8 -131 5 0 23 38 40 83 18 46 57 124 88 173 117 188 172 249 578
656 l187 188 31 -38 c66 -78 198 -201 297 -276 118 -89 181 -150 284 -274 159
-191 273 -399 310 -567 3 -11 5 -2 6 20 1 56 -14 104 -70 223 -60 128 -111
206 -255 385 -136 170 -263 386 -321 547 l-24 65 5 -61 c8 -87 42 -175 117
-295 88 -140 87 -137 63 -118 -10 9 -71 58 -135 110 -63 52 -157 138 -208 191
l-92 97 61 123 c69 137 144 246 193 277 44 28 47 27 31 -16z m-674 -104 c0
-95 -21 -221 -55 -319 -52 -153 -181 -378 -305 -533 -54 -68 -88 -103 -258
-262 -86 -81 -98 -111 -109 -273 l-7 -107 -13 128 c-11 119 -15 134 -52 202
l-39 73 66 12 c154 29 297 142 462 365 92 124 153 232 200 351 63 161 73 206
76 349 4 163 3 156 19 120 8 -17 14 -64 15 -106z m-660 117 c0 -3 -4 -8 -10
-11 -5 -3 -10 -1 -10 4 0 6 5 11 10 11 6 0 10 -2 10 -4z m720 -64 c30 -109
-21 -370 -111 -570 -40 -90 -129 -233 -140 -227 -5 3 -7 0 -4 -7 3 -7 -13 -33
-35 -57 -22 -24 -40 -47 -40 -51 0 -12 -26 -31 -33 -24 -3 3 23 44 58 91 118
156 204 326 245 489 22 86 50 274 45 301 -18 90 -7 132 15 55z m-2044 -14 c0
-18 6 -77 13 -132 17 -136 17 -423 -1 -511 l-14 -70 -6 55 c-3 30 -6 150 -7
265 -2 187 -14 304 -36 377 -11 32 12 19 23 -14 l12 -33 -6 39 c-4 26 -1 42 8
47 7 5 13 9 13 9 0 0 0 -15 1 -32z m-262 -168 c53 -22 155 -90 176 -116 9 -10
10 -15 3 -10 -9 5 -11 2 -7 -8 3 -9 10 -14 16 -13 5 1 14 -9 19 -22 8 -20 7
-22 -5 -12 -10 8 -16 9 -21 1 -3 -5 -1 -10 4 -10 6 0 11 -8 11 -17 0 -14 -6
-11 -24 12 -13 17 -24 35 -26 40 -4 19 -22 35 -34 28 -6 -3 -8 -3 -4 2 9 9 -9
35 -24 35 -6 0 -4 -8 3 -17 11 -16 11 -16 -1 -5 -8 7 -15 18 -15 24 0 7 -35
31 -79 54 -68 36 -79 49 -44 53 3 1 27 -8 52 -19z m6543 -22 c-3 -8 -6 -5 -6
6 -1 11 2 17 5 13 3 -3 4 -12 1 -19z m-6767 -14 c0 -8 -4 -12 -10 -9 -5 3 -10
10 -10 16 0 5 5 9 10 9 6 0 10 -7 10 -16z m203 -31 c26 -13 45 -28 42 -33 -3
-5 1 -7 9 -4 25 9 141 -114 176 -187 39 -83 39 -110 0 -33 -33 65 -128 189
-138 180 -3 -3 5 -18 19 -34 21 -24 20 -24 -11 4 -45 39 -83 66 -144 98 -27
14 -43 26 -35 26 11 0 11 2 -1 11 -25 17 29 -1 83 -28z m5377 -103 c9 -17 8
-19 -7 -13 -16 6 -16 5 -5 -10 8 -9 22 -19 33 -22 10 -4 19 -11 19 -17 0 -6 8
-17 18 -24 15 -11 12 -12 -18 -5 -52 13 -120 22 -120 16 0 -3 16 -47 36 -98
85 -219 196 -550 231 -686 35 -140 36 -149 20 -165 -20 -21 -16 -30 -57 124
-55 203 -141 457 -236 694 l-44 110 23 24 c22 24 31 25 117 7 14 -3 7 2 -15
10 -55 22 -62 31 -40 55 23 25 32 25 45 0z m-5265 -207 c-9 -21 -33 -90 -54
-153 -21 -63 -61 -178 -88 -255 -125 -346 -154 -438 -144 -448 14 -14 14 -72
0 -100 -16 -30 -60 -77 -73 -77 -6 0 0 9 14 20 14 10 25 22 26 27 0 4 6 26 12
48 11 41 11 62 0 80 -14 23 47 229 144 485 22 58 58 157 80 220 49 140 91 231
96 208 2 -9 -4 -33 -13 -55z m2553 14 c6 -7 28 -62 50 -123 21 -61 50 -129 63
-152 32 -54 169 -206 189 -210 9 -2 29 4 45 12 24 13 26 16 12 22 -9 3 -25 3
-34 0 -12 -5 -37 15 -95 76 -82 88 -91 102 -162 267 -37 86 -41 100 -23 84 12
-10 43 -37 68 -58 166 -141 244 -211 327 -290 85 -81 123 -125 241 -284 46
-61 135 -251 153 -326 10 -43 13 -85 8 -150 -8 -100 -25 -144 -75 -190 -20
-19 -41 -54 -55 -95 -12 -36 -31 -77 -41 -92 -20 -28 -86 -74 -95 -65 -3 2 0
23 5 46 10 47 1 94 -25 122 -22 24 -82 36 -97 19 -9 -10 -9 -11 3 -5 8 5 5 -3
-6 -16 -35 -39 -47 -70 -48 -124 0 -34 6 -62 20 -85 22 -39 162 -156 240 -200
60 -35 108 -32 164 9 l34 26 -21 -31 c-12 -17 -29 -36 -36 -43 -13 -10 -10
-16 15 -42 28 -27 30 -34 25 -78 -6 -47 -25 -101 -36 -101 -4 0 -23 21 -42 48
-20 26 -71 74 -113 107 -164 126 -199 159 -240 224 -47 72 -66 119 -66 160 0
36 42 121 73 150 26 24 27 41 3 41 -16 0 -73 -87 -97 -148 l-18 -47 -1 53 c0
65 18 106 70 157 36 35 44 38 92 38 29 0 64 -3 78 -5 14 -3 35 -6 47 -7 12 0
31 -10 41 -21 10 -11 25 -18 33 -15 18 8 72 80 101 136 22 43 40 169 19 139
-9 -13 -11 -12 -12 5 -1 17 -2 16 -9 -5 -8 -25 -8 -25 -9 -2 -1 13 -5 20 -11
17 -5 -3 -10 -1 -10 4 0 21 -21 10 -32 -16 -15 -38 -18 -54 -8 -48 5 3 11 1
15 -5 3 -6 -1 -13 -10 -16 -14 -6 -14 -8 -1 -23 8 -9 13 -28 12 -43 -2 -20 0
-25 12 -20 12 4 9 -4 -7 -27 -17 -23 -28 -30 -40 -25 -45 20 -118 43 -135 44
-20 0 -20 0 0 15 35 28 -67 -15 -123 -52 -164 -107 -182 -221 -62 -383 32 -44
56 -80 53 -80 -19 0 -116 65 -153 102 -66 68 -93 121 -99 198 -6 86 15 151 74
229 69 92 76 118 82 276 6 159 17 144 28 -37 5 -67 11 -105 17 -101 16 9 0
219 -22 294 -10 36 -28 88 -40 114 -22 50 -126 211 -144 222 -5 3 9 -22 33
-56 23 -34 56 -92 73 -129 30 -63 32 -75 35 -202 5 -191 -5 -234 -80 -347 -69
-105 -88 -164 -88 -268 1 -110 43 -196 154 -312 22 -24 45 -43 51 -43 5 0 -1
9 -15 20 -14 11 -20 20 -14 20 6 0 20 -11 33 -24 l22 -23 -78 -70 c-43 -38
-107 -93 -143 -122 -36 -28 -102 -91 -146 -138 l-81 -86 -62 92 c-34 51 -102
140 -151 197 -86 100 -101 126 -81 138 14 9 194 -176 257 -263 43 -61 60 -78
66 -67 4 8 7 436 6 951 l-3 936 -29 -68 c-16 -37 -72 -133 -124 -213 -138
-209 -168 -325 -127 -485 18 -68 40 -106 102 -178 151 -174 131 -411 -43 -513
-68 -40 -84 -24 -28 28 88 81 110 167 62 250 -29 49 -110 128 -154 151 -73 37
-175 28 -261 -25 l-33 -19 40 -59 c22 -32 40 -62 40 -65 0 -10 -91 57 -133 99
-58 57 -81 116 -74 190 10 110 31 130 39 38 6 -61 48 -159 73 -168 8 -3 42 12
76 35 42 28 72 41 96 41 l34 0 -35 33 c-48 46 -68 103 -80 234 -5 45 -3 53 14
58 11 4 24 3 30 0 6 -3 22 3 37 15 l27 21 18 -23 c19 -24 30 -58 48 -149 11
-60 54 -133 73 -126 7 3 11 9 10 15 -17 76 -24 178 -21 272 7 153 30 222 128
370 167 252 201 322 215 433 6 48 14 57 33 34z m-2931 -107 c-24 -19 -41 -56
-50 -110 -4 -21 -4 -20 -6 7 0 17 4 44 11 60 6 15 10 35 9 43 -1 12 0 12 7 2
7 -10 11 -10 22 3 7 8 17 15 23 15 5 0 -2 -9 -16 -20z m5400 -67 c-3 -10 -5
-4 -5 12 0 17 2 24 5 18 2 -7 2 -21 0 -30z m-5297 7 c11 -7 4 -9 -25 -7 -35 2
-40 -1 -43 -21 -4 -27 20 -57 62 -79 26 -13 27 -16 12 -25 -22 -12 -70 -2 -89
20 -8 9 -17 30 -21 46 -6 23 -4 27 8 23 11 -4 16 -1 16 11 0 37 45 55 80 32z
m23 -31 c-8 -8 -16 -8 -30 0 -16 9 -14 10 12 11 21 0 26 -3 18 -11z m365 -32
c4 -21 -25 -34 -40 -19 -8 8 -8 16 2 27 16 19 34 15 38 -8z m4990 -5 c4 -26
-11 -48 -42 -64 -12 -6 -18 -7 -14 -3 4 4 0 14 -9 20 -9 7 -18 26 -19 42 -2
27 0 29 40 28 35 0 41 -3 44 -23z m1439 -39 c-2 -16 -4 -5 -4 22 0 28 2 40 4
28 2 -13 2 -35 0 -50z m-40 35 c-3 -8 -6 -5 -6 6 -1 11 2 17 5 13 3 -3 4 -12
1 -19z m-6916 -35 c13 -16 12 -17 -3 -4 -17 13 -22 21 -14 21 2 0 10 -8 17
-17z m6916 -25 c-3 -8 -6 -5 -6 6 -1 11 2 17 5 13 3 -3 4 -12 1 -19z m-6838
-34 c14 -12 -19 -1 -35 12 -18 14 -18 14 6 3 14 -6 27 -13 29 -15z m2500 -35
c1 -21 9 -30 38 -42 l37 -14 -70 -23 c-38 -12 -87 -31 -108 -41 -22 -11 -41
-19 -43 -19 -1 0 13 21 33 48 20 26 50 71 67 101 26 45 32 51 38 35 4 -10 8
-31 8 -45z m-2525 17 c47 -16 37 -24 -26 -18 -28 2 -49 10 -52 18 -7 18 26 18
78 0z m458 -16 c16 0 4 -45 -13 -48 -9 -2 -24 4 -33 14 -13 13 -14 19 -5 31 7
7 19 11 26 8 8 -3 19 -5 25 -5z m2016 -222 c23 -23 12 -36 -72 -93 -46 -31
-96 -73 -110 -93 -30 -45 -56 -104 -56 -131 0 -11 -5 -23 -11 -27 -20 -12 -4
125 20 182 25 58 75 111 141 148 50 29 70 32 88 14z m-2427 -69 c-21 -59 -20
-62 -12 39 1 7 6 10 11 7 6 -3 10 -1 10 6 0 7 2 10 5 7 3 -2 -4 -29 -14 -59z
m-225 -107 c-16 -2 -32 0 -37 5 -5 5 7 7 29 4 34 -5 35 -6 8 -9z m191 -4 c-3
-8 -6 -5 -6 6 -1 11 2 17 5 13 3 -3 4 -12 1 -19z m-224 -43 c-21 -16 -26 -14
-17 8 3 9 12 13 20 10 12 -4 11 -8 -3 -18z m182 5 c3 -6 -1 -7 -9 -4 -18 7
-21 14 -7 14 6 0 13 -4 16 -10z m-258 -42 c-3 -8 -6 -5 -6 6 -1 11 2 17 5 13
3 -3 4 -12 1 -19z m43 -25 c-11 -17 -11 -17 -6 0 3 10 6 24 7 30 0 9 2 9 5 0
3 -7 0 -20 -6 -30z m160 30 c0 -4 -11 -18 -24 -32 -13 -15 -28 -39 -34 -56
l-10 -30 -1 30 c-1 36 23 75 47 76 14 0 13 2 -3 9 -19 8 -19 9 3 9 12 1 22 -2
22 -6z m-213 -55 c-3 -7 -5 -2 -5 12 0 14 2 19 5 13 2 -7 2 -19 0 -25z m5563
28 c0 -2 -7 -7 -16 -10 -8 -3 -12 -2 -9 4 6 10 25 14 25 6z m-5436 -21 c-4 -8
-10 -15 -14 -15 -11 0 6 -70 19 -83 18 -18 13 -26 -11 -22 -49 10 -54 69 -12
116 21 23 25 24 18 4z m-837 -102 c-3 -10 -5 -4 -5 12 0 17 2 24 5 18 2 -7 2
-21 0 -30z m798 -115 c33 -73 59 -141 58 -151 -2 -10 1 -16 6 -13 10 7 36 -50
34 -76 -1 -11 3 -16 9 -12 6 4 8 3 5 -3 -3 -5 5 -33 18 -61 13 -29 22 -52 19
-52 -5 0 -127 245 -192 388 -39 84 -45 112 -23 112 4 0 34 -60 66 -132z m5921
75 c-8 -15 -15 -25 -16 -21 0 12 23 58 27 54 3 -2 -2 -17 -11 -33z m-5576
-138 c144 -351 329 -643 627 -993 36 -42 41 -52 29 -62 -12 -9 -21 -4 -49 27
-166 185 -313 391 -449 629 -123 214 -242 490 -231 533 3 12 7 20 8 19 2 -2
31 -70 65 -153z m-270 110 c0 -10 -16 -4 -40 16 l-25 20 33 -16 c17 -8 32 -18
32 -20z m5821 -28 c-10 -9 -11 -8 -5 6 3 10 9 15 12 12 3 -3 0 -11 -7 -18z
m-5734 7 c-3 -3 -12 -4 -19 -1 -8 3 -5 6 6 6 11 1 17 -2 13 -5z m1919 -70 c13
-3 24 -9 24 -13 0 -28 32 -192 50 -257 42 -151 168 -355 227 -371 34 -8 173
26 247 61 l51 24 -40 1 c-102 3 -167 39 -241 130 -43 54 -91 174 -82 202 2 7
23 -20 46 -59 82 -139 191 -232 270 -232 74 0 135 51 162 133 15 47 1 95 -42
137 -24 24 -38 30 -74 30 -87 0 -132 -49 -121 -130 6 -48 3 -50 -18 -10 -21
42 -19 70 11 117 66 101 201 98 272 -7 47 -69 13 -197 -84 -314 -107 -130
-140 -160 -206 -185 -72 -26 -108 -47 -108 -61 0 -15 31 -11 77 10 l43 19 -16
-25 c-42 -62 37 -164 127 -164 36 0 99 35 99 55 0 21 19 28 26 10 4 -9 -1 -24
-10 -34 -14 -15 -14 -20 -4 -24 9 -4 1 -17 -24 -41 -36 -34 -41 -36 -105 -36
-77 0 -129 20 -186 69 -38 34 -74 111 -62 132 5 7 4 10 -2 6 -5 -3 -18 19 -27
51 -11 34 -45 94 -87 152 -38 52 -84 124 -103 160 -77 146 -127 321 -125 440
1 41 4 65 6 53 3 -14 14 -25 29 -29z m3784 -151 c-47 -88 -206 -329 -223 -340
-9 -5 -9 -3 -1 8 31 40 188 286 220 343 20 36 38 66 41 66 3 0 -14 -35 -37
-77z m-2210 37 c0 -5 -2 -10 -4 -10 -3 0 -8 5 -11 10 -3 6 -1 10 4 10 6 0 11
-4 11 -10z m430 -80 c0 -5 -2 -10 -4 -10 -3 0 -8 5 -11 10 -3 6 -1 10 4 10 6
0 11 -4 11 -10z m1045 -29 c3 -5 1 -12 -5 -16 -5 -3 -10 1 -10 9 0 18 6 21 15
7z m904 -65 c-23 -40 -37 -44 -17 -5 21 39 30 51 34 46 3 -2 -5 -21 -17 -41z
m-2372 -11 c32 -21 31 -80 -1 -123 -19 -26 -25 -29 -30 -17 -3 9 -2 14 2 11 4
-3 14 5 22 17 12 20 12 21 -4 8 -13 -11 -20 -11 -28 -3 -7 7 -8 12 -3 12 10 0
-26 29 -37 30 -3 0 -9 -8 -11 -17 -3 -10 -5 -4 -6 14 -2 73 41 104 96 68z
m-3471 -80 c14 -25 25 -48 22 -50 -2 -2 -16 18 -31 46 -35 62 -27 65 9 4z
m3184 -140 c13 -14 21 -25 18 -25 -2 0 -15 11 -28 25 -13 14 -21 25 -18 25 2
0 15 -11 28 -25z m481 -8 c-10 -9 -11 -8 -5 6 3 10 9 15 12 12 3 -3 0 -11 -7
-18z m644 13 c-3 -5 -11 -10 -16 -10 -6 0 -7 5 -4 10 3 6 11 10 16 10 6 0 7
-4 4 -10z m-990 -98 c-3 -3 -11 0 -18 7 -9 10 -8 11 6 5 10 -3 15 -9 12 -12z
m-2817 -185 c40 -54 70 -103 66 -109 -4 -6 -3 -8 3 -5 13 8 125 -117 115 -128
-4 -5 -2 -5 4 -2 14 8 60 -49 99 -120 33 -62 78 -76 46 -15 -4 9 -11 30 -15
46 -6 25 -5 28 13 23 12 -3 21 -1 21 4 0 5 -5 9 -11 9 -5 0 -7 5 -4 10 9 15
42 12 59 -6 9 -8 16 -32 16 -52 0 -28 -3 -33 -10 -22 -8 12 -10 11 -10 -8 0
-26 -46 -71 -75 -73 -14 -1 -11 -4 10 -9 24 -6 25 -8 8 -9 -34 -2 -74 20 -70
38 2 9 -5 33 -15 53 -13 27 -15 39 -6 44 6 4 8 3 4 -4 -3 -6 -2 -13 3 -16 5
-4 8 2 6 11 -1 10 -9 17 -18 15 -8 -1 -19 3 -23 9 -5 9 -2 10 9 6 10 -3 17 -2
17 3 0 9 -14 14 -32 12 -3 -1 -9 5 -12 14 -4 10 -2 13 6 8 7 -4 8 -3 4 4 -4 6
-13 9 -20 6 -17 -7 -98 85 -128 145 -27 53 -34 62 -70 99 -15 15 -43 56 -62
90 -38 67 -47 95 -18 52 9 -13 50 -69 90 -123z m2086 -38 c36 -28 24 -41 -32
-33 -33 4 -59 1 -86 -11 -44 -19 -52 -15 -37 14 27 49 110 66 155 30z m941 7
c37 -16 42 -25 25 -42 -7 -7 2 -16 29 -29 38 -17 58 -40 43 -49 -12 -7 -45 10
-102 53 -41 31 -62 40 -80 37 -101 -20 -103 -20 -91 2 6 12 19 26 29 31 25 15
108 13 147 -3z m-145 -76 c9 0 43 -13 76 -29 89 -43 149 -55 185 -37 28 14 29
14 29 -10 0 -29 -48 -54 -104 -54 -83 0 -226 87 -226 137 0 13 3 14 12 5 7 -7
19 -12 28 -12z m-369 -246 c-66 -82 -136 -167 -156 -189 l-37 -40 34 45 c95
128 270 341 276 336 2 -2 -51 -71 -117 -152z m79 4 c-29 -48 -60 -85 -60 -72
0 11 67 104 75 104 2 0 -5 -15 -15 -32z m-1980 -175 c140 -108 335 -229 571
-355 94 -51 278 -159 322 -190 15 -11 27 -24 27 -31 0 -6 -7 -2 -15 9 -13 16
-14 16 -9 2 3 -10 1 -18 -4 -18 -9 0 -209 114 -602 343 -148 86 -334 216 -422
296 -29 25 -38 41 -38 64 l0 31 53 -50 c28 -28 81 -73 117 -101z m-379 106
l24 -21 -26 15 c-14 8 -36 17 -50 20 -24 4 -24 4 2 6 15 0 37 -8 50 -20z
m4429 -40 c-14 -26 -18 -24 -12 6 2 14 8 22 13 19 5 -3 5 -14 -1 -25z m-4418
-29 c34 -16 75 -30 90 -30 15 0 30 -5 33 -11 5 -7 14 -4 28 8 21 17 21 16 0
-8 -13 -14 -23 -38 -23 -55 0 -43 -8 -47 -43 -22 -17 12 -49 25 -71 28 -38 5
-41 8 -62 63 -12 31 -21 57 -19 57 2 0 32 -13 67 -30z m2457 -250 c100 -124
233 -280 296 -348 65 -69 112 -128 109 -134 -4 -6 -3 -8 3 -5 6 4 107 -108
226 -251 119 -141 259 -309 312 -372 96 -114 85 -104 -49 43 -38 42 -73 74
-77 71 -5 -3 -6 3 -2 13 3 10 2 15 -2 10 -10 -9 -47 22 -39 34 3 5 -19 32 -48
61 -29 29 -47 48 -39 43 9 -5 12 -4 7 3 -4 6 -13 9 -21 5 -8 -3 -15 0 -15 6 0
6 -6 11 -12 11 -13 1 -95 90 -82 90 4 0 13 -8 20 -17 11 -15 13 -15 13 -3 0 8
-6 24 -14 34 -8 11 -15 16 -15 11 0 -5 -8 2 -17 15 -9 14 -25 31 -35 38 -10 7
-16 18 -13 23 4 5 -3 9 -13 9 -23 0 -46 25 -37 39 4 7 -1 8 -11 4 -13 -5 -16
-2 -12 9 4 8 2 21 -4 29 -8 11 -9 10 -4 -3 3 -10 4 -18 3 -18 -2 0 -23 21 -47
47 -25 26 -37 41 -27 34 9 -7 17 -9 17 -4 0 14 -21 32 -34 29 -6 -2 -7 -1 -3
2 5 2 1 13 -9 23 -9 10 -20 16 -24 14 -4 -3 -30 21 -56 52 -27 32 -43 54 -37
50 9 -6 11 -3 7 7 -3 9 -12 16 -19 16 -7 0 -45 37 -85 83 -87 100 -340 433
-340 448 0 25 60 -40 229 -251z m-2541 225 c17 -36 15 -41 -8 -20 -20 18 -27
45 -12 45 5 0 14 -11 20 -25z m42 -89 c0 -6 -7 -2 -15 8 -8 11 -15 25 -15 30
0 6 7 2 15 -8 8 -11 15 -25 15 -30z m4209 1 c-2 -2 -20 -14 -39 -27 l-35 -24
24 27 c14 15 31 27 39 27 9 0 13 -1 11 -3z m-4094 -17 c3 -6 -1 -7 -9 -4 -18
7 -21 14 -7 14 6 0 13 -4 16 -10z m2104 -496 c1 -323 -1 -394 -13 -410 -13
-17 -15 -17 -21 -3 -10 27 -1 862 10 879 18 28 24 -68 24 -466z m-2109 390 c6
-18 8 -39 4 -45 -4 -7 -3 -9 3 -6 13 8 33 -36 24 -51 -5 -8 -17 0 -37 24 -37
47 -42 60 -43 108 -1 38 -1 39 19 21 10 -9 24 -33 30 -51z m3977 33 c-33 -28
-147 -94 -129 -76 12 13 143 96 152 98 3 0 -7 -10 -23 -22z m183 19 c0 -2 -8
-10 -17 -17 -16 -13 -17 -12 -4 4 13 16 21 21 21 13z m-3877 -85 c45 -37 114
-89 152 -114 79 -53 127 -91 105 -84 -35 11 -341 235 -348 255 -7 22 8 13 91
-57z m3837 55 c0 -2 -8 -10 -17 -17 -16 -13 -17 -12 -4 4 13 16 21 21 21 13z
m-2250 -59 c0 -2 -10 -12 -22 -23 l-23 -19 19 23 c18 21 26 27 26 19z m-1710
-47 c13 -8 13 -10 -2 -10 -9 0 -20 5 -23 10 -8 13 5 13 25 0z m68 -58 c0 -21
-2 -23 -12 -11 -6 9 -22 21 -35 28 -17 10 -20 15 -11 21 22 14 58 -9 58 -38z
m1592 44 c0 -2 -8 -10 -17 -17 -16 -13 -17 -12 -4 4 13 16 21 21 21 13z
m-1269 -22 c40 -20 89 -63 89 -78 0 -6 -5 -3 -11 7 -16 27 -30 20 -18 -10 9
-24 7 -24 -34 13 -24 21 -59 49 -78 62 -33 22 -33 22 -8 22 14 0 41 -7 60 -16z
m1229 -28 c0 -2 -8 -10 -17 -17 -16 -13 -17 -12 -4 4 13 16 21 21 21 13z
m-1313 -57 c23 -16 49 -36 58 -46 9 -9 20 -12 23 -7 16 21 30 12 28 -19 -1
-31 0 -32 42 -31 23 0 42 -1 42 -2 0 -2 -18 -8 -40 -14 -22 -6 -40 -16 -40
-22 0 -6 -9 1 -20 15 -11 14 -20 32 -20 41 0 14 -28 37 -140 119 l-25 18 25
-12 c14 -7 44 -25 67 -40z m194 34 c13 -16 12 -17 -3 -4 -17 13 -22 21 -14 21
2 0 10 -8 17 -17z m-1 -223 l35 -8 -36 -1 c-19 0 -44 6 -55 15 -19 15 -19 16
1 8 11 -3 36 -10 55 -14z m2110 -175 c7 -9 11 -17 9 -18 -2 -2 -42 -33 -89
-69 -131 -101 -381 -278 -423 -299 -29 -15 -42 -17 -57 -9 -11 6 -20 13 -20
15 0 3 66 49 148 103 81 54 206 142 277 195 72 53 133 96 136 96 4 1 12 -6 19
-14z m56 -66 c13 -15 15 -23 7 -26 -7 -3 -50 -35 -95 -72 -46 -37 -150 -116
-233 -176 -82 -59 -169 -123 -192 -142 -42 -33 -42 -33 -53 -12 -16 29 3 47
205 194 94 68 206 153 250 189 44 35 83 65 86 65 3 1 14 -9 25 -20z m75 -94
c6 -13 1 -10 -14 8 l-24 28 -54 -42 c-30 -23 -74 -61 -99 -83 -97 -87 -122
-108 -260 -216 -137 -107 -198 -141 -112 -62 23 22 43 37 45 35 2 -2 21 10 43
27 21 16 55 41 75 54 19 13 74 59 120 103 47 43 118 103 157 132 40 30 72 59
72 65 0 13 40 -25 51 -49z m-91 -63 c0 -10 -121 -128 -235 -228 -49 -43 -96
-87 -103 -96 -7 -9 -46 -45 -87 -78 -42 -34 -93 -87 -114 -118 -22 -31 -71
-88 -111 -127 l-71 -70 -55 60 c-82 90 -141 162 -120 145 11 -8 22 -13 25 -11
3 3 21 -15 40 -40 23 -30 32 -37 29 -21 -7 26 -1 27 26 7 11 -8 31 -15 44 -15
17 0 23 -4 18 -15 -11 -30 17 -14 73 43 72 72 90 124 67 190 -29 81 -75 122
-137 122 -40 0 -97 -37 -123 -81 -8 -14 -22 -26 -30 -26 -24 0 5 47 61 98 27
24 59 61 72 82 l24 39 53 -53 c33 -33 70 -84 95 -134 23 -44 43 -81 44 -83 5
-6 97 48 139 83 46 38 52 61 13 50 -20 -5 -20 -5 -4 5 10 6 76 63 148 125 138
120 219 175 219 147z m172 -29 c19 -21 143 -166 274 -323 131 -157 279 -330
328 -386 161 -179 525 -573 747 -809 119 -126 249 -268 288 -314 72 -86 78
-102 49 -138 -7 -9 -6 -18 2 -28 7 -8 17 -41 24 -72 10 -51 16 -60 53 -85 39
-26 42 -32 52 -96 30 -185 41 -314 39 -470 l-1 -167 -7 194 c-4 126 -10 196
-17 198 -6 2 -8 13 -5 25 3 14 1 19 -6 14 -7 -4 -12 -3 -12 3 0 5 -10 11 -22
13 -13 2 -23 10 -23 18 0 11 -14 16 -57 18 -39 2 -58 -1 -58 -9 0 -7 11 -10
30 -7 17 3 33 1 36 -4 3 -4 -15 -8 -40 -8 -36 0 -44 3 -40 15 5 13 -12 15
-122 13 -98 -1 -116 -3 -74 -8 77 -9 45 -13 -92 -10 -75 1 -118 -2 -118 -8 0
-6 7 -12 17 -14 9 -2 -29 -3 -85 -3 -82 0 -96 2 -72 10 24 8 9 10 -74 10 -58
0 -99 4 -93 8 7 5 -4 6 -23 2 -19 -4 -104 -9 -189 -11 -85 -3 -160 -8 -167
-12 -20 -11 -100 -2 -83 9 10 6 5 9 -16 9 -23 0 -27 -3 -15 -10 8 -5 13 -10
10 -10 -33 -5 -87 -6 -94 -2 -5 3 -37 7 -72 9 -45 3 -64 1 -64 -7 0 -7 -7 -10
-15 -6 -8 3 -15 1 -15 -4 0 -6 7 -10 16 -10 8 0 13 -4 9 -9 -3 -5 3 -12 12
-14 14 -4 13 -5 -4 -6 -13 0 -23 5 -23 12 0 8 -3 9 -8 1 -4 -6 -38 -14 -76
-18 -38 -4 -78 -12 -89 -17 -14 -8 -18 -8 -13 0 4 6 0 11 -8 11 -9 0 -16 -6
-16 -14 0 -8 -7 -17 -16 -20 -8 -3 -13 -2 -10 2 2 4 -33 7 -79 7 -46 0 -81 -4
-78 -9 3 -5 -9 -6 -28 -3 -19 4 -76 9 -127 12 -85 5 -93 4 -90 -12 2 -14 -3
-17 -24 -15 -15 2 -35 -1 -45 -7 -16 -9 -16 -10 5 -11 12 0 22 -5 22 -11 0 -5
-3 -8 -7 -6 -5 3 -17 1 -28 -4 l-20 -8 20 -1 20 -1 -20 -9 c-11 -5 -35 -9 -53
-9 -18 -1 -40 -8 -49 -17 -18 -18 -24 -95 -9 -107 7 -5 6 -7 -4 -4 -11 2 -17
23 -21 73 l-5 69 -2 -70 c0 -38 3 -120 7 -181 7 -94 11 -114 30 -133 22 -22
28 -74 12 -100 -6 -10 -3 -27 9 -50 9 -20 26 -62 35 -93 l18 -57 -35 -53 c-20
-29 -56 -87 -80 -128 -105 -176 -200 -330 -204 -330 -10 0 4 67 21 100 60 117
193 340 218 368 24 25 28 35 19 44 -15 15 -56 -22 -84 -77 -29 -57 -79 -127
-85 -121 -3 3 13 37 37 76 23 40 40 73 38 75 -2 2 -30 -30 -62 -71 -32 -41
-62 -74 -66 -74 -5 0 -13 -15 -20 -33 l-11 -32 -19 49 c-11 27 -29 61 -42 75
-12 14 -16 20 -8 14 40 -36 129 12 177 94 26 45 30 48 65 45 l37 -3 -29 31
c-17 18 -30 36 -30 41 0 5 -6 9 -14 9 -7 0 -20 7 -27 16 -11 14 -10 18 6 30
37 28 2 35 -178 37 -99 1 -173 5 -168 10 25 25 374 38 412 15 17 -11 22 -10
35 6 8 11 14 23 14 28 0 4 -73 9 -162 9 -90 1 -192 4 -228 8 -62 6 -60 7 57
14 67 4 155 10 194 13 l72 7 -7 111 c-6 104 -11 278 -36 1176 -11 388 -11 698
-1 635 4 -24 10 44 14 170 4 116 10 244 13 285 l5 75 87 83 c151 145 571 502
590 502 4 0 24 -17 44 -37z m-1124 -86 c56 -48 102 -90 102 -93 0 -3 -7 -16
-16 -30 l-17 -24 -88 90 c-94 96 -127 141 -90 121 34 -19 37 -12 6 15 -16 14
-23 22 -15 18 8 -4 61 -48 118 -97z m-368 -5 c161 -137 334 -325 379 -409 6
-12 14 -49 17 -81 4 -32 3 -490 -2 -1018 -5 -527 -10 -902 -12 -831 -2 107 -5
125 -16 115 -10 -9 -11 -17 -4 -25 7 -9 7 -13 -2 -13 -7 0 -10 -8 -7 -20 6
-22 -8 -37 -18 -20 -4 7 -13 6 -27 -1 -15 -8 -19 -8 -14 0 4 6 0 11 -8 11 -9
0 -16 -8 -17 -17 0 -14 -2 -13 -9 5 -5 12 -15 22 -22 22 -9 0 -9 3 2 10 12 8
12 10 1 10 -11 0 -11 3 -1 15 10 12 7 13 -22 5 -18 -6 -53 -11 -78 -11 -30 -1
-36 -3 -17 -6 15 -2 27 -9 27 -15 0 -6 -9 -8 -20 -5 -11 3 -18 1 -14 -4 3 -5
-10 -9 -28 -9 -18 0 -42 -8 -53 -16 -20 -16 -20 -16 1 -10 12 4 32 2 45 -3 18
-7 4 -10 -59 -10 -46 -1 -81 -5 -78 -10 4 -5 -9 -6 -29 -1 -19 4 -33 5 -31 1
2 -3 -22 -6 -54 -6 -32 0 -56 3 -54 7 3 5 0 8 -5 8 -6 0 -11 -4 -11 -10 0 -5
-6 -7 -14 -4 -8 3 -17 1 -21 -5 -3 -6 -15 -11 -26 -11 -11 0 -17 5 -14 10 4 6
-8 10 -30 10 -20 0 -34 -4 -31 -9 3 -5 -5 -11 -19 -13 -14 -3 -22 -1 -18 5 3
5 0 8 -8 5 -8 -3 -15 -12 -17 -20 -3 -13 6 -16 45 -16 26 0 54 3 63 8 8 4 24
4 35 -1 21 -8 19 -9 -34 -15 -19 -2 -37 -8 -41 -14 -3 -5 -11 -5 -20 0 -18 12
-33 13 -27 3 3 -5 -27 -8 -66 -8 -40 -1 -171 -3 -291 -7 -186 -5 -221 -9 -228
-22 -5 -9 -16 -16 -25 -16 -14 0 -14 2 3 15 16 12 11 12 -31 -2 -27 -9 -56
-18 -64 -20 -7 -2 -10 -10 -7 -18 3 -8 0 -15 -7 -16 -7 0 -3 -4 8 -9 19 -8 19
-9 -2 -9 -19 -1 -23 5 -24 32 -2 30 -2 30 -6 4 -2 -15 -9 -27 -14 -27 -6 0 -8
-4 -5 -8 4 -7 -200 -16 -341 -15 -30 0 -43 -4 -43 -13 0 -8 -6 -11 -15 -8 -11
5 -13 2 -9 -10 3 -9 10 -13 15 -10 5 3 9 0 9 -5 0 -6 -18 -11 -39 -11 -22 0
-42 -4 -45 -9 -3 -5 -33 -12 -66 -16 -33 -4 -58 -10 -55 -15 3 -4 -9 -10 -27
-14 -41 -8 -58 -23 -58 -53 0 -13 -4 -21 -10 -18 -16 10 -23 -42 -17 -126 5
-71 3 -79 -13 -79 -16 0 -19 15 -25 147 -4 82 -5 233 -1 338 6 162 10 194 27
221 12 20 19 50 19 80 0 53 5 63 34 80 11 6 23 17 26 25 4 8 12 24 18 36 7 13
12 34 12 47 0 14 5 28 10 31 15 9 12 66 -5 99 -8 15 -15 32 -15 36 0 12 452
527 799 910 562 621 636 704 810 908 30 34 57 62 60 62 4 0 58 -44 121 -98z
m660 -2 c0 -14 -18 -21 -25 -10 -11 19 -44 10 -79 -20 -29 -26 -33 -27 -29
-10 3 11 12 20 19 20 8 0 17 6 20 14 3 8 14 16 25 19 14 4 17 10 12 23 -6 15
-2 15 25 -5 18 -12 32 -26 32 -31z m-150 -20 c0 -5 -5 -10 -11 -10 -5 0 -7 5
-4 10 3 6 8 10 11 10 2 0 4 -4 4 -10z m160 -173 c43 -42 60 -82 49 -119 -13
-46 -45 -92 -79 -112 -30 -17 -34 -17 -76 -1 -24 9 -42 22 -41 28 1 7 -4 11
-10 10 -19 -4 -73 76 -73 108 0 38 26 29 34 -11 3 -17 20 -46 38 -65 27 -30
40 -36 74 -37 42 0 71 11 98 38 29 28 17 36 -15 10 -56 -47 -127 -29 -149 39
-15 45 -6 69 36 101 18 14 32 30 29 34 -2 4 9 7 24 8 19 0 39 -10 61 -31z
m-3882 -504 c-1 -63 -3 -78 -5 -43 -2 30 -8 59 -14 65 -5 5 -9 16 -8 25 0 10
3 9 9 -5 7 -16 9 -13 9 18 1 20 3 37 6 37 3 0 4 -44 3 -97z m3926 -380 c4
-258 11 -762 17 -1122 6 -359 8 -664 5 -677 -5 -19 -13 -24 -36 -24 l-30 0 0
253 c0 138 -3 642 -7 1119 -6 803 -5 868 11 892 9 14 20 26 25 26 4 0 11 -210
15 -467z m1571 387 c10 -11 16 -20 13 -20 -3 0 -13 9 -23 20 -10 11 -16 20
-13 20 3 0 13 -9 23 -20z m-1651 -31 c3 -17 6 -515 6 -1105 0 -899 -2 -1074
-14 -1074 -11 0 -14 72 -19 403 -8 612 -8 1792 -1 1800 14 14 22 7 28 -24z
m-3847 -121 c-3 -8 -6 -5 -6 6 -1 11 2 17 5 13 3 -3 4 -12 1 -19z m136 -973
c4 -8 3 -16 -1 -19 -4 -3 -9 4 -9 15 -2 23 3 25 10 4z m1024 0 c63 -19 145
-90 178 -155 30 -58 19 -85 -16 -37 -54 76 -184 169 -251 181 -21 4 -38 11
-38 16 0 15 70 12 127 -5z m-8 -63 c14 -10 26 -24 26 -30 0 -6 19 -29 43 -52
38 -37 42 -45 42 -88 -1 -66 -20 -97 -61 -97 -29 0 -41 -10 -96 -75 -69 -82
-103 -144 -111 -203 -7 -57 -25 -29 -26 40 0 62 34 178 62 213 9 11 44 29 76
38 34 10 60 24 62 32 1 8 8 43 15 78 12 59 12 64 -7 83 -12 11 -38 27 -60 35
-33 13 -34 14 -9 10 17 -2 39 -8 50 -12 18 -7 18 -6 6 9 -7 10 -28 17 -45 17
-40 0 -82 -42 -84 -84 -4 -54 42 -78 54 -28 9 38 23 52 49 52 36 0 48 -23 26
-47 -13 -13 -17 -29 -14 -46 3 -16 1 -27 -6 -27 -13 0 -10 -22 4 -32 6 -4 -15
-8 -46 -8 -43 0 -63 5 -84 22 -24 19 -27 26 -23 69 3 29 16 64 32 89 14 22 26
48 26 59 0 17 4 18 37 11 20 -5 48 -17 62 -28z m-185 3 c-4 -8 -17 -15 -30
-15 -13 0 -24 -5 -24 -10 0 -15 -145 -83 -180 -84 -15 -1 -26 -4 -24 -8 7 -11
-95 -28 -164 -27 -37 1 -56 3 -42 5 100 16 261 63 350 104 120 55 121 55 114
35z m26 -19 c0 -2 -7 -17 -15 -32 -20 -38 -19 -117 1 -156 15 -29 15 -31 -2
-23 -11 4 -31 12 -46 17 -27 10 -39 28 -18 28 6 0 10 14 10 31 0 17 9 42 20
56 25 32 26 47 3 39 -13 -5 -11 0 6 18 22 23 41 33 41 22z m110 -35 c0 -13
-31 -43 -38 -37 -3 3 3 15 13 26 20 22 25 24 25 11z m-988 -67 c-16 -33 -32
-72 -36 -89 -4 -16 -15 -41 -26 -55 -19 -24 -19 -24 -13 -2 3 12 9 22 13 22 4
0 10 9 13 20 3 11 0 20 -5 20 -6 0 -5 6 2 15 10 12 10 15 -4 15 -9 0 -16 5
-16 11 0 5 4 7 10 4 5 -3 9 9 8 29 -1 41 18 69 44 63 10 -3 21 -1 24 5 3 5 8
7 11 5 2 -3 -9 -31 -25 -63z m798 31 c-7 -9 -15 -13 -17 -11 -7 7 7 26 19 26
6 0 6 -6 -2 -15z m5784 -1 c10 -26 7 -62 -6 -67 -19 -7 -58 10 -65 29 -4 11 2
24 16 36 28 22 47 23 55 2z m1103 0 c-3 -3 -12 -4 -19 -1 -8 3 -5 6 6 6 11 1
17 -2 13 -5z m-12 -44 c3 -5 1 -10 -4 -10 -6 0 -11 5 -11 10 0 6 2 10 4 10 3
0 8 -4 11 -10z m-6945 -5 c0 -2 -14 -12 -31 -21 -17 -8 -28 -11 -24 -4 4 6 17
15 29 20 27 11 26 11 26 5z m-544 -63 c-5 -4 -66 26 -66 33 0 3 16 -3 35 -12
19 -9 33 -18 31 -21z m558 6 c-13 -44 -34 -91 -39 -86 -7 7 28 108 38 108 4 0
5 -10 1 -22z m-649 -15 l18 -28 -21 19 c-12 11 -22 23 -22 28 0 14 7 9 25 -19z
m438 20 c-7 -2 -19 -2 -25 0 -7 3 -2 5 12 5 14 0 19 -2 13 -5z m-203 -154 c51
-19 85 -23 160 -23 103 1 157 16 222 60 26 19 41 23 53 17 14 -8 12 -13 -17
-34 -18 -14 -48 -31 -65 -38 -18 -7 -30 -17 -28 -22 3 -4 -20 -16 -52 -25 -70
-20 -206 -15 -273 11 -46 19 -82 42 -45 30 16 -5 17 -5 5 3 -8 6 -18 8 -22 6
-11 -7 -67 28 -98 61 -21 23 -22 25 -5 19 13 -4 7 5 -15 25 -25 22 -14 17 40
-18 41 -27 104 -60 140 -72z m3 104 c-7 -2 -19 -2 -25 0 -7 3 -2 5 12 5 14 0
19 -2 13 -5z m498 -9 c87 -25 86 -24 60 -37 -38 -19 -55 -79 -55 -197 0 -58 6
-125 13 -149 24 -83 99 -123 122 -63 15 38 5 164 -14 176 -13 8 -13 14 0 51 8
24 27 57 42 74 25 27 29 29 35 15 4 -10 2 -20 -4 -24 -7 -4 5 -15 27 -26 38
-19 38 -19 11 -22 -16 -2 -28 -6 -29 -10 -2 -20 -11 -61 -21 -97 -6 -22 -10
-82 -10 -134 l1 -93 -55 5 c-41 4 -52 2 -45 -6 5 -7 10 -16 10 -22 0 -5 16
-30 34 -55 47 -64 61 -90 46 -90 -7 0 -2 -12 12 -27 13 -16 2 -8 -25 17 -27
26 -60 70 -77 105 -15 33 -46 84 -69 113 -51 68 -70 132 -77 257 -4 78 -2 108
10 138 9 20 20 37 24 38 22 2 45 8 50 13 7 7 -60 36 -83 36 -13 0 -14 3 -4 15
7 8 13 15 14 15 1 0 27 -7 57 -16z m-811 -12 c0 -24 -106 -126 -116 -111 -3 6
16 33 45 62 28 27 51 54 51 58 0 5 5 9 10 9 6 0 10 -8 10 -18z m373 11 c-7 -2
-21 -2 -30 0 -10 3 -4 5 12 5 17 0 24 -2 18 -5z m295 -25 c-2 -15 -11 -24 -25
-26 -27 -4 -29 5 -6 30 22 24 35 23 31 -4z m6746 -14 c-5 -28 -21 -34 -64 -25
-3 1 11 15 30 30 19 16 36 28 38 27 1 -2 -1 -16 -4 -32z m-816 -50 c-4 -64
-34 -48 -53 29 -8 31 36 52 48 23 4 -10 6 -34 5 -52z m-5470 17 c3 -8 0 -11
-7 -7 -7 5 -11 -5 -11 -31 0 -22 -5 -44 -12 -51 -14 -14 -64 -16 -73 -2 -4 6
6 7 24 4 23 -5 32 -2 37 10 9 24 -12 44 -28 28 -17 -17 -25 -15 -31 9 -5 20
12 49 29 49 4 0 15 -7 25 -16 16 -15 17 -14 12 6 -5 17 -2 21 12 19 10 -2 20
-10 23 -18z m6203 -14 c-10 -9 -11 -8 -5 6 3 10 9 15 12 12 3 -3 0 -11 -7 -18z
m-6194 -59 c-2 -13 -4 -5 -4 17 -1 22 1 32 4 23 2 -10 2 -28 0 -40z m6169 18
c14 -10 45 -14 95 -14 96 1 125 -14 179 -93 70 -103 99 -186 70 -204 -18 -11
-10 -25 14 -25 66 0 30 158 -57 249 l-42 44 45 -25 c59 -34 91 -95 134 -263
19 -71 53 -201 76 -288 23 -87 54 -217 70 -290 15 -72 31 -145 35 -162 7 -27
4 -25 -23 15 -38 58 -72 89 -217 198 -128 95 -233 193 -227 210 2 6 -2 21 -8
33 -12 21 -13 20 -58 -23 -82 -78 -144 -128 -160 -128 -17 0 -18 -1 76 115 44
55 59 81 50 86 -7 4 -16 5 -21 2 -15 -9 -199 187 -280 299 -43 58 -92 116
-110 127 l-32 20 55 -5 c34 -4 81 0 123 10 84 20 98 20 91 2 -8 -21 48 -134
101 -204 41 -55 120 -124 172 -151 17 -9 29 -6 65 14 23 14 59 25 78 25 50 -1
112 -16 121 -31 4 -7 17 -51 29 -98 35 -142 41 -163 46 -158 9 9 -57 273 -75
297 -25 34 -43 36 -117 10 -55 -18 -69 -19 -106 -9 -75 20 -115 47 -176 118
-78 90 -88 121 -72 220 16 101 18 103 56 77z m-452 -89 c3 -12 8 -56 11 -97 2
-41 2 -65 -1 -52 -5 22 -24 31 -24 12 0 -5 -5 -10 -11 -10 -6 0 -9 6 -6 14 6
15 -8 142 -19 170 -7 18 -6 18 18 2 14 -9 29 -27 32 -39z m-6141 -64 c4 -60 9
-125 13 -145 5 -30 3 -38 -9 -38 -8 0 -18 -7 -21 -16 -3 -8 -11 -12 -17 -8 -8
4 -9 3 -5 -5 4 -6 1 -14 -8 -17 -8 -3 -12 -12 -9 -20 3 -8 2 -14 -3 -13 -22 4
-45 -2 -39 -10 3 -5 1 -12 -4 -15 -5 -4 -13 -1 -16 5 -5 7 -14 4 -26 -9 -10
-11 -24 -19 -31 -17 -66 14 -78 19 -78 31 0 8 -7 14 -15 14 -10 0 -15 7 -13
18 2 12 -3 16 -16 14 -21 -4 -22 -7 47 98 75 113 115 158 176 200 31 22 59 39
62 39 3 1 9 -47 12 -106z m417 46 c0 -60 -13 -73 -23 -23 -4 22 11 84 20 84 2
0 3 -27 3 -61z m-899 10 c11 -5 17 -14 14 -20 -9 -14 -19 -11 -33 11 -14 23
-10 25 19 9z m5372 -6 c-7 -2 -21 -2 -30 0 -10 3 -4 5 12 5 17 0 24 -2 18 -5z
m884 -60 c-2 -16 -4 -5 -4 22 0 28 2 40 4 28 2 -13 2 -35 0 -50z m-3650 25
c-3 -8 -6 -5 -6 6 -1 11 2 17 5 13 3 -3 4 -12 1 -19z m2100 16 c-3 -3 -12 -4
-19 -1 -8 3 -5 6 6 6 11 1 17 -2 13 -5z m169 -1 c-4 -4 -17 -8 -29 -9 -12 -1
-29 -4 -37 -6 -8 -3 -12 -3 -7 -1 4 3 5 9 1 14 -3 5 14 9 37 9 23 0 39 -3 35
-7z m521 1 c-3 -3 -12 -4 -19 -1 -8 3 -5 6 6 6 11 1 17 -2 13 -5z m-4699 -119
c4 -46 2 -55 -12 -55 -30 0 -64 29 -59 50 3 11 9 20 14 20 5 0 8 10 6 23 -1
13 3 21 11 20 6 -2 12 2 12 9 0 9 3 9 12 0 6 -6 13 -36 16 -67z m1569 59 c-3
-3 -12 -4 -19 -1 -8 3 -5 6 6 6 11 1 17 -2 13 -5z m-2222 -110 c-9 -24 -31
-56 -50 -73 -32 -28 -90 -49 -102 -37 -4 3 2 6 13 6 43 1 124 113 124 172 0
19 2 20 10 8 8 -13 10 -12 11 5 1 12 4 8 6 -9 3 -16 -3 -48 -12 -72z m6225
-46 c0 -87 -4 -138 -9 -129 -7 11 -10 10 -14 -5 -2 -10 -5 31 -5 91 0 70 3 99
8 80 6 -23 8 -15 9 38 0 37 3 67 6 67 3 0 5 -64 5 -142z m-6615 -8 c3 -5 -1
-10 -9 -10 -8 0 -18 5 -21 10 -3 6 1 10 9 10 8 0 18 -4 21 -10z m-3 -27 c-6
-2 -9 -9 -6 -15 4 -7 0 -7 -12 0 -11 5 -26 12 -34 15 -8 3 3 5 25 5 22 0 34
-2 27 -5z m1230 -75 c-6 -6 -7 0 -4 19 5 21 7 23 10 9 2 -10 0 -22 -6 -28z
m-78 -64 l-17 -39 -7 30 c-3 17 -12 40 -19 53 -12 22 -11 23 8 12 18 -9 23 -7
34 17 l12 28 3 -32 c2 -17 -4 -48 -14 -69z m2900 75 c-3 -5 -10 -7 -15 -3 -5
3 -7 10 -3 15 3 5 10 7 15 3 5 -3 7 -10 3 -15z m-3146 -29 c23 -10 45 -26 48
-35 3 -8 11 -12 18 -8 6 4 4 -1 -4 -11 -14 -17 -15 -17 -35 5 -38 44 -124 30
-125 -20 -1 -17 -30 -61 -30 -45 0 5 -5 2 -11 -6 -15 -22 0 58 17 92 26 51 56
58 122 28z m-766 -50 c13 0 9 -59 -9 -123 -15 -55 -17 -58 -31 -41 -9 12 -13
13 -10 4 3 -8 -4 -24 -15 -35 l-20 -20 8 20 c27 71 45 144 46 188 0 45 2 49
11 30 6 -13 15 -23 20 -23z m3905 18 c-3 -8 -6 -5 -6 6 -1 11 2 17 5 13 3 -3
4 -12 1 -19z m-3630 -132 c40 -38 73 -72 73 -77 0 -5 -14 -9 -31 -9 -33 0 -46
11 -164 146 l-60 68 54 -30 c30 -16 87 -60 128 -98z m446 99 c0 -6 -7 -11 -16
-13 -12 -3 -15 1 -11 13 7 17 25 17 27 0z m6035 -21 c-2 -11 3 -24 12 -31 13
-10 13 -11 -3 -9 -18 2 -37 22 -37 39 0 5 5 5 11 1 8 -4 9 1 4 17 -6 19 -5 21
5 13 6 -7 10 -20 8 -30z m-6018 -20 c-8 -8 -17 -32 -21 -52 -6 -35 -7 -35 -8
-7 -1 28 22 75 36 75 3 0 0 -7 -7 -16z m80 -9 c-7 -8 -17 -15 -23 -15 -5 0 -2
9 8 20 21 23 35 19 15 -5z m280 -40 c0 -5 -5 -3 -10 5 -5 8 -10 20 -10 25 0 6
5 3 10 -5 5 -8 10 -19 10 -25z m-310 -1 c0 -8 -9 -14 -20 -14 -19 0 -27 19
-14 33 10 9 34 -4 34 -19z m6058 -20 c-3 -14 -5 -12 -10 9 -3 19 -2 25 4 19 6
-6 8 -18 6 -28z m-6033 -50 c18 12 26 13 23 5 -2 -7 -17 -17 -33 -22 -24 -8
-31 -6 -47 13 -27 33 -22 46 6 14 23 -28 24 -28 51 -10z m156 9 c13 -16 12
-17 -3 -4 -17 13 -22 21 -14 21 2 0 10 -8 17 -17z m5875 -29 c-3 -8 -10 -14
-16 -14 -11 0 -14 43 -3 54 10 10 26 -23 19 -40z m-5975 -27 c-8 -8 -11 -3 -9
18 2 43 12 55 16 21 2 -16 -1 -33 -7 -39z m-1123 -35 c-6 -29 -13 -50 -16 -47
-2 2 1 27 8 55 7 28 14 49 16 47 3 -2 -1 -27 -8 -55z m7270 -22 c-7 -10 -14
-17 -17 -15 -4 4 18 35 25 35 2 0 -1 -9 -8 -20z m-3238 -1 c0 -6 -10 -7 -22
-3 -22 6 -22 6 -7 -12 27 -30 30 -57 15 -108 -18 -58 -60 -106 -94 -106 -26 0
-102 70 -102 93 0 8 3 8 9 -1 4 -8 12 -14 17 -14 5 1 8 -5 6 -13 -1 -7 2 -16
8 -20 6 -4 7 1 3 11 -5 12 -3 15 6 9 10 -6 11 -3 2 13 -13 25 -14 55 -2 47 5
-3 12 -1 16 5 3 5 1 10 -4 10 -13 0 -14 10 -1 30 8 13 13 13 32 2 19 -11 18
-8 -5 12 -29 26 -47 26 -80 -3 -13 -11 -17 -24 -13 -46 l5 -30 -15 28 c-8 15
-12 32 -9 38 11 17 80 57 106 61 56 8 129 6 129 -3z m-2820 -53 c0 -2 -7 -7
-16 -10 -8 -3 -12 -2 -9 4 6 10 25 14 25 6z m6173 -85 c-4 -6 -53 41 -53 50 0
4 13 -4 28 -19 15 -15 26 -29 25 -31z m-6469 10 c4 -5 -4 -7 -16 -4 -17 3 -19
2 -9 -5 10 -7 5 -12 -21 -21 -19 -6 -43 -8 -53 -5 -13 5 -16 4 -11 -4 8 -14
-3 -15 -23 -3 -9 6 4 15 45 29 68 24 81 25 88 13z m6514 -27 c28 -2 33 -4 28
-13 -8 -12 37 -23 61 -15 15 5 16 4 3 -6 -12 -9 -10 -10 13 -5 21 4 27 3 21
-6 -5 -9 -1 -10 14 -7 12 4 22 2 22 -3 0 -5 11 -11 25 -15 14 -4 24 -8 21 -11
-6 -6 -172 45 -208 63 -16 8 -28 20 -28 27 0 7 3 8 8 2 4 -5 13 -10 20 -11z
m-6898 -22 c0 -5 -18 -14 -41 -21 -22 -7 -55 -20 -72 -30 -18 -10 -50 -24 -72
-31 -22 -7 -69 -26 -105 -42 -49 -21 -59 -24 -40 -9 23 19 132 68 260 117 65
26 70 27 70 16z m150 -12 c-8 -5 -19 -10 -25 -10 -5 0 -3 5 5 10 8 5 20 10 25
10 6 0 3 -5 -5 -10z m7175 -118 c55 -29 43 -27 -41 7 -38 16 -86 32 -105 36
-29 7 -31 9 -14 15 20 7 74 -12 160 -58z m-3900 -121 c3 -5 2 -12 -3 -15 -5
-3 -9 1 -9 9 0 17 3 19 12 6z"/>
<path d="M4998 9868 c-23 -29 -70 -79 -103 -111 -33 -32 -53 -57 -44 -54 12 4
22 -9 39 -51 48 -117 89 -162 148 -162 67 0 108 38 176 167 l28 51 -92 106
c-51 58 -96 106 -100 106 -5 0 -28 -23 -52 -52z m212 -166 c0 -7 -4 -10 -10
-7 -5 3 -10 -2 -10 -12 0 -26 -51 -105 -85 -131 -41 -32 -81 -28 -120 11 -65
65 -55 136 24 177 41 20 53 19 146 -15 11 -4 -6 9 -38 29 -56 35 -59 36 -88
20 -39 -20 -109 -90 -109 -109 0 -8 -4 -15 -10 -15 -5 0 -10 14 -10 31 0 24
16 48 78 115 l77 85 77 -83 c43 -46 78 -89 78 -96z"/>
<path d="M5013 9725 c-17 -7 -39 -25 -48 -38 -14 -22 -14 -31 -4 -66 25 -83
120 -77 165 11 17 32 17 38 4 38 -5 0 -10 -9 -10 -20 0 -31 -44 -70 -78 -70
-53 0 -93 70 -57 100 18 15 18 15 34 -27 7 -17 19 -34 27 -37 19 -7 18 3 -6
41 -23 38 -15 47 42 45 46 -2 50 12 7 27 -39 13 -37 13 -76 -4z"/>
<path d="M6720 8906 c0 -2 8 -10 18 -17 15 -13 16 -12 3 4 -13 16 -21 21 -21
13z"/>
<path d="M7090 8890 c19 -13 30 -13 30 0 0 6 -10 10 -22 10 -19 0 -20 -2 -8
-10z"/>
<path d="M6790 8846 c0 -2 8 -10 18 -17 15 -13 16 -12 3 4 -13 16 -21 21 -21
13z"/>
<path d="M7328 8823 c7 -3 16 -2 19 1 4 3 -2 6 -13 5 -11 0 -14 -3 -6 -6z"/>
<path d="M3139 8653 c-13 -16 -12 -17 4 -4 9 7 17 15 17 17 0 8 -8 3 -21 -13z"/>
<path d="M2735 8560 c10 -11 20 -20 23 -20 3 0 -3 9 -13 20 -10 11 -20 20 -23
20 -3 0 3 -9 13 -20z"/>
<path d="M7070 8486 c0 -3 9 -10 20 -16 11 -6 20 -8 20 -6 0 3 -9 10 -20 16
-11 6 -20 8 -20 6z"/>
<path d="M3670 8740 c-14 -11 -20 -20 -14 -20 6 0 19 9 29 20 23 25 17 25 -15
0z"/>
<path d="M4224 8924 c-18 -14 -18 -15 4 -4 12 6 22 13 22 15 0 8 -5 6 -26 -11z"/>
<path d="M4120 8920 c-9 -6 -10 -10 -3 -10 6 0 15 5 18 10 8 12 4 12 -15 0z"/>
<path d="M4003 8833 c-48 -35 -64 -54 -45 -53 7 1 107 90 100 90 -2 0 -27 -17
-55 -37z"/>
<path d="M5585 8585 c22 -8 49 -13 60 -13 11 0 -2 6 -30 14 -63 17 -84 16 -30
-1z"/>
<path d="M3890 8573 c-32 -13 -39 -29 -18 -42 15 -9 18 -10 13 0 -5 7 2 19 16
30 23 18 19 23 -11 12z"/>
<path d="M3890 8543 c0 -5 5 -15 10 -23 8 -12 10 -11 10 8 0 12 -4 22 -10 22
-5 0 -10 -3 -10 -7z"/>
<path d="M4255 7970 c-3 -5 -1 -10 4 -10 6 0 11 5 11 10 0 6 -2 10 -4 10 -3 0
-8 -4 -11 -10z"/>
<path d="M4380 7700 c-13 -8 -12 -10 3 -10 9 0 17 5 17 10 0 12 -1 12 -20 0z"/>
<path d="M7090 6370 c-6 -11 -8 -20 -6 -20 3 0 10 9 16 20 6 11 8 20 6 20 -3
0 -10 -9 -16 -20z"/>
<path d="M6975 6279 c-4 -6 -5 -12 -2 -15 2 -3 7 2 10 11 7 17 1 20 -8 4z"/>
<path d="M6780 6090 c0 -5 5 -10 11 -10 5 0 7 5 4 10 -3 6 -8 10 -11 10 -2 0
-4 -4 -4 -10z"/>
<path d="M8763 8925 c-3 -9 -3 -18 -1 -21 3 -3 8 4 11 16 6 23 -1 27 -10 5z"/>
<path d="M8750 8876 c0 -9 5 -16 10 -16 6 0 10 4 10 9 0 6 -4 13 -10 16 -5 3
-10 -1 -10 -9z"/>
<path d="M8750 8739 c0 -5 5 -7 10 -4 6 3 10 8 10 11 0 2 -4 4 -10 4 -5 0 -10
-5 -10 -11z"/>
<path d="M8801 8544 c0 -11 3 -14 6 -6 3 7 2 16 -1 19 -3 4 -6 -2 -5 -13z"/>
<path d="M7944 7831 c9 -62 39 -161 49 -161 20 0 17 37 -8 108 -33 93 -50 116
-41 53z"/>
<path d="M8981 7804 c0 -11 3 -14 6 -6 3 7 2 16 -1 19 -3 4 -6 -2 -5 -13z"/>
<path d="M7994 7656 c-56 -25 -46 -35 14 -14 31 12 59 22 61 24 11 10 -48 2
-75 -10z"/>
<path d="M7915 7480 c8 -13 65 -13 85 0 11 7 0 10 -38 10 -33 0 -51 -4 -47
-10z"/>
<path d="M7981 7279 c-1 -4 6 -26 15 -50 8 -24 30 -98 48 -164 25 -91 38 -121
51 -124 15 -2 17 2 12 29 -9 44 -124 326 -126 309z"/>
<path d="M8166 7130 c4 -14 8 -34 9 -45 0 -11 9 -46 20 -77 13 -42 24 -58 36
-58 17 0 16 6 -7 66 -27 72 -70 156 -58 114z"/>
<path d="M8143 6843 c4 -5 -6 -10 -21 -10 -74 0 -134 -61 -113 -116 32 -84
176 -81 218 5 17 34 6 86 -21 103 -29 18 -70 30 -63 18z m10 -35 c73 -38 55
-102 -33 -118 -22 -4 -38 -5 -35 -2 3 3 -2 13 -11 23 -10 11 -15 28 -12 43 3
14 1 23 -3 20 -13 -7 -11 -41 3 -67 10 -20 10 -21 -5 -8 -30 24 -17 114 13 96
8 -5 11 -4 6 3 -4 6 5 12 21 15 16 2 29 5 31 6 2 0 13 -4 25 -11z m64 -65 c-3
-10 -5 -4 -5 12 0 17 2 24 5 18 2 -7 2 -21 0 -30z"/>
<path d="M7569 5723 c-13 -16 -12 -17 4 -4 9 7 17 15 17 17 0 8 -8 3 -21 -13z"/>
<path d="M7546 5683 c-6 -14 -5 -15 5 -6 7 7 10 15 7 18 -3 3 -9 -2 -12 -12z"/>
<path d="M7405 5542 c-44 -43 -93 -88 -110 -100 -16 -12 -24 -22 -16 -22 8 0
60 45 115 100 56 55 99 100 96 100 -3 0 -41 -35 -85 -78z"/>
<path d="M6974 5178 l-29 -33 35 30 c19 17 37 31 39 33 2 1 0 2 -5 2 -6 0 -23
-15 -40 -32z"/>
<path d="M7160 5013 c0 -15 -64 -50 -185 -101 -92 -39 -157 -72 -114 -59 9 3
50 15 90 27 41 12 100 36 133 53 56 30 96 70 82 84 -3 3 -6 1 -6 -4z"/>
<path d="M6754 4789 c-32 -17 -63 -35 -69 -41 -13 -12 103 39 129 58 36 25 1
15 -60 -17z"/>
<path d="M6400 4550 c-8 -5 -10 -10 -5 -10 6 0 17 5 25 10 8 5 11 10 5 10 -5
0 -17 -5 -25 -10z"/>
<path d="M6313 4510 c-29 -17 -53 -33 -53 -35 0 -3 26 9 58 27 66 37 68 38 56
38 -5 0 -33 -14 -61 -30z"/>
<path d="M6230 4460 c-9 -6 -10 -10 -3 -10 6 0 15 5 18 10 8 12 4 12 -15 0z"/>
<path d="M7920 2435 c0 -9 31 -34 43 -35 4 0 7 7 7 15 0 8 -4 15 -9 15 -5 0
-16 3 -25 6 -9 3 -16 3 -16 -1z"/>
<path d="M9043 2340 c0 -25 2 -35 4 -22 2 12 2 32 0 45 -2 12 -4 2 -4 -23z"/>
<path d="M8045 2240 c-4 -7 -4 -209 1 -210 1 0 11 9 24 20 36 31 70 37 87 14
7 -10 12 -23 10 -28 -5 -14 -114 -56 -124 -47 -4 3 2 -6 15 -20 24 -27 36 -30
59 -16 7 5 31 9 53 10 37 1 39 3 33 27 -10 44 -24 64 -89 125 -51 48 -64 67
-64 90 l0 29 16 -22 c8 -12 23 -22 32 -22 13 0 14 -2 4 -9 -29 -18 258 -117
371 -128 69 -6 271 20 324 42 37 16 46 40 11 32 -73 -19 -211 -37 -273 -37
-151 0 -348 57 -432 126 -45 37 -49 39 -58 24z"/>
<path d="M8508 2193 c6 -2 18 -2 25 0 6 3 1 5 -13 5 -14 0 -19 -2 -12 -5z"/>
<path d="M7986 2181 c-4 -6 -2 -19 4 -30 5 -11 7 -27 4 -35 -3 -9 -1 -16 4
-16 6 0 9 17 8 40 -3 44 -10 57 -20 41z"/>
<path d="M8568 2183 c7 -3 16 -2 19 1 4 3 -2 6 -13 5 -11 0 -14 -3 -6 -6z"/>
<path d="M8823 2183 c9 -2 23 -2 30 0 6 3 -1 5 -18 5 -16 0 -22 -2 -12 -5z"/>
<path d="M8919 2062 c20 -59 35 -82 21 -31 -7 23 -6 35 1 40 8 5 8 8 0 13 -6
4 -11 4 -11 0 0 -4 -6 1 -14 12 -11 14 -10 5 3 -34z"/>
<path d="M8228 2043 c28 -31 52 -62 52 -70 0 -7 -21 -24 -47 -37 l-48 -24 30
-12 c92 -35 145 -44 208 -32 78 14 225 87 295 147 30 25 52 45 49 45 -3 0 -58
-13 -123 -30 -123 -31 -203 -37 -250 -20 -22 9 -25 8 -16 -2 5 -7 12 -26 14
-43 3 -27 6 -30 33 -26 17 1 59 14 94 27 71 27 74 28 67 15 -8 -13 -107 -57
-146 -66 -19 -4 -45 -13 -58 -21 -36 -23 -44 -9 -36 66 6 65 5 69 -17 80 -24
13 -24 13 -5 -9 11 -11 15 -21 9 -21 -12 0 -49 39 -46 49 2 6 -39 22 -87 34
-21 5 -17 -2 28 -50z"/>
<path d="M2583 8513 c9 -2 23 -2 30 0 6 3 -1 5 -18 5 -16 0 -22 -2 -12 -5z"/>
<path d="M2239 8293 c-13 -16 -12 -17 4 -4 16 13 21 21 13 21 -2 0 -10 -8 -17
-17z"/>
<path d="M1861 8424 c0 -11 3 -14 6 -6 3 7 2 16 -1 19 -3 4 -6 -2 -5 -13z"/>
<path d="M1571 8174 c0 -11 3 -14 6 -6 3 7 2 16 -1 19 -3 4 -6 -2 -5 -13z"/>
<path d="M2055 7410 c-3 -5 -1 -10 4 -10 6 0 11 5 11 10 0 6 -2 10 -4 10 -3 0
-8 -4 -11 -10z"/>
<path d="M1180 6559 c0 -5 5 -7 10 -4 6 3 10 8 10 11 0 2 -4 4 -10 4 -5 0 -10
-5 -10 -11z"/>
<path d="M1192 6455 c0 -16 2 -22 5 -12 2 9 2 23 0 30 -3 6 -5 -1 -5 -18z"/>
<path d="M1161 6404 c0 -11 3 -14 6 -6 3 7 2 16 -1 19 -3 4 -6 -2 -5 -13z"/>
<path d="M1185 6410 c-3 -5 -1 -10 4 -10 6 0 11 5 11 10 0 6 -2 10 -4 10 -3 0
-8 -4 -11 -10z"/>
<path d="M1182 6330 c0 -14 2 -19 5 -12 2 6 2 18 0 25 -3 6 -5 1 -5 -13z"/>
<path d="M3461 4708 c-2 -19 49 -115 70 -133 l24 -20 -22 25 c-12 14 -33 50
-46 80 -14 30 -26 52 -26 48z"/>
<path d="M1247 4553 c-5 -29 2 -155 9 -162 2 -2 4 39 4 92 0 99 -3 118 -13 70z"/>
<path d="M1246 4165 c-6 -17 2 -45 13 -45 4 0 7 14 7 30 0 32 -10 40 -20 15z"/>
<path d="M1250 4073 c0 -20 3 -33 7 -29 11 11 12 66 2 66 -5 0 -9 -16 -9 -37z"/>
<path d="M1251 3164 c0 -11 3 -14 6 -6 3 7 2 16 -1 19 -3 4 -6 -2 -5 -13z"/>
<path d="M5369 8413 c-13 -16 -12 -17 4 -4 9 7 17 15 17 17 0 8 -8 3 -21 -13z"/>
<path d="M7818 8084 c-39 -21 -35 -28 5 -8 37 19 44 24 31 24 -5 -1 -21 -8
-36 -16z"/>
<path d="M7924 8065 c-19 -14 -18 -14 4 -15 13 0 22 6 22 15 0 19 -1 19 -26 0z"/>
<path d="M7710 8020 c-55 -38 -151 -130 -136 -130 4 0 35 26 69 58 34 33 80
71 102 85 22 15 35 27 30 26 -6 0 -35 -17 -65 -39z"/>
<path d="M5967 6258 c-10 -11 -17 -22 -14 -24 2 -2 12 5 22 16 23 26 16 33 -8
8z"/>
<path d="M5940 6210 c0 -5 5 -10 11 -10 5 0 7 5 4 10 -3 6 -8 10 -11 10 -2 0
-4 -4 -4 -10z"/>
<path d="M4210 6181 c0 -6 4 -13 10 -16 6 -3 7 1 4 9 -7 18 -14 21 -14 7z"/>
<path d="M5373 7384 c10 -11 17 -25 17 -31 0 -5 9 -18 20 -28 35 -32 22 4 -17
43 -20 20 -29 28 -20 16z"/>
<path d="M5150 7366 c0 -2 8 -10 18 -17 15 -13 16 -12 3 4 -13 16 -21 21 -21
13z"/>
<path d="M5481 7197 c-14 -14 15 -48 34 -40 18 6 180 -81 225 -121 28 -25 31
-26 15 -6 -65 84 -88 101 -208 154 -40 17 -58 21 -66 13z"/>
<path d="M5450 7045 c0 -5 5 -17 10 -25 5 -8 10 -10 10 -5 0 6 -5 17 -10 25
-5 8 -10 11 -10 5z"/>
<path d="M5502 7028 c3 -7 26 -24 53 -38 26 -14 74 -50 106 -80 33 -31 59 -54
59 -53 0 2 -14 25 -31 52 -20 34 -51 64 -92 91 -61 40 -103 52 -95 28z"/>
<path d="M5663 6756 c2 -42 5 -52 15 -44 18 15 16 98 -2 98 -11 0 -14 -13 -13
-54z"/>
<path d="M5513 6715 c-6 -50 -14 -98 -18 -109 -14 -34 18 -13 39 26 18 33 19
39 5 104 l-15 69 -11 -90z"/>
<path d="M4539 6773 c-17 -20 -17 -129 -1 -159 6 -12 27 -31 46 -42 l34 -20
-24 51 c-18 39 -24 69 -24 120 0 68 -7 80 -31 50z"/>
<path d="M5874 6772 c3 -5 0 -13 -6 -15 -9 -4 -10 -6 -1 -6 17 -1 25 16 12 25
-7 4 -9 3 -5 -4z"/>
<path d="M5841 6724 c0 -11 3 -14 6 -6 3 7 2 16 -1 19 -3 4 -6 -2 -5 -13z"/>
<path d="M5860 6729 c0 -5 5 -7 10 -4 6 3 10 8 10 11 0 2 -4 4 -10 4 -5 0 -10
-5 -10 -11z"/>
<path d="M5670 6673 c-30 -47 -56 -120 -46 -130 2 -3 20 21 38 53 22 40 34 53
36 41 7 -37 22 -15 22 33 0 28 -5 50 -10 50 -6 0 -24 -21 -40 -47z"/>
<path d="M5865 6700 c-3 -6 1 -7 9 -4 18 7 21 14 7 14 -6 0 -13 -4 -16 -10z"/>
<path d="M2600 7459 c0 -5 5 -7 10 -4 6 3 10 8 10 11 0 2 -4 4 -10 4 -5 0 -10
-5 -10 -11z"/>
<path d="M1980 6491 c0 -6 4 -13 10 -16 6 -3 7 1 4 9 -7 18 -14 21 -14 7z"/>
<path d="M2020 6405 c0 -5 5 -17 10 -25 5 -8 10 -10 10 -5 0 6 -5 17 -10 25
-5 8 -10 11 -10 5z"/>
<path d="M5540 6221 c-7 -15 -7 -22 2 -27 7 -4 10 -4 6 1 -4 4 -3 16 3 26 5
11 7 19 5 19 -3 0 -10 -9 -16 -19z"/>
<path d="M5420 4885 c0 -6 19 -30 41 -55 l41 -45 -33 45 c-43 59 -49 66 -49
55z"/>
<path d="M5590 4683 c1 -11 60 -79 60 -69 0 5 -13 24 -30 43 -16 18 -30 30
-30 26z"/>
<path d="M5735 4510 c10 -11 20 -20 22 -20 2 0 -2 9 -9 20 -7 11 -17 20 -22
20 -5 0 -1 -9 9 -20z"/>
<path d="M4890 3706 c0 -2 8 -10 18 -17 15 -13 16 -12 3 4 -13 16 -21 21 -21
13z"/>
<path d="M5020 3575 c19 -19 36 -35 39 -35 3 0 -10 16 -29 35 -19 19 -36 35
-39 35 -3 0 10 -16 29 -35z"/>
<path d="M7108 1773 c7 -3 16 -2 19 1 4 3 -2 6 -13 5 -11 0 -14 -3 -6 -6z"/>
<path d="M6040 1760 c-8 -5 -10 -10 -5 -10 6 0 17 5 25 10 8 5 11 10 5 10 -5
0 -17 -5 -25 -10z"/>
<path d="M5263 1675 c0 -38 2 -53 4 -32 2 20 2 52 0 70 -2 17 -4 1 -4 -38z"/>
<path d="M6035 1729 c-4 -6 -13 -8 -21 -5 -8 3 -24 1 -36 -3 -20 -8 -18 -9 12
-7 33 2 90 25 63 26 -6 0 -15 -5 -18 -11z"/>
<path d="M5266 1081 c-3 -5 1 -11 9 -14 9 -4 12 -1 8 9 -6 16 -10 17 -17 5z"/>
<path d="M5300 1025 c0 -16 40 -78 46 -72 3 3 -6 23 -20 44 -14 20 -26 33 -26
28z"/>
<path d="M4750 4150 c6 -11 13 -20 16 -20 2 0 0 9 -6 20 -6 11 -13 20 -16 20
-2 0 0 -9 6 -20z"/>
<path d="M4766 1851 c-3 -5 1 -11 9 -15 8 -3 15 -1 15 4 0 13 -18 22 -24 11z"/>
<path d="M3962 1731 c-11 -7 -10 -10 3 -15 22 -8 22 -8 22 9 0 17 -6 18 -25 6z"/>
<path d="M5050 3880 c0 -11 7 -20 15 -20 8 0 15 9 15 20 0 11 -7 20 -15 20 -8
0 -15 -9 -15 -20z"/>
<path d="M1530 1946 c0 -2 8 -10 18 -17 15 -13 16 -12 3 4 -13 16 -21 21 -21
13z"/>
<path d="M8675 1778 c-46 -111 23 -190 75 -87 22 43 50 51 86 25 17 -13 18
-15 2 -21 -9 -4 -29 -26 -43 -50 -14 -24 -34 -47 -45 -50 -11 -3 -20 -10 -20
-15 0 -13 52 -47 115 -76 61 -28 86 -27 128 7 35 27 36 78 1 147 -22 44 -34
56 -87 82 -34 17 -82 35 -107 40 -39 8 -36 9 24 4 38 -3 77 -8 85 -11 10 -3 8
0 -3 8 -11 7 -55 13 -100 13 -45 1 -84 5 -88 11 -4 5 -14 -7 -23 -27z m110
-18 c25 -6 26 -8 7 -9 -42 -2 -83 -30 -80 -54 2 -14 -3 -23 -15 -25 -38 -8
-34 67 5 86 26 12 41 13 83 2z m151 -118 c22 -15 44 -74 34 -92 -19 -36 -73
-40 -107 -8 -25 24 -31 76 -11 96 13 13 67 16 84 4z"/>
<path d="M8890 1595 c0 -14 8 -29 20 -35 15 -8 21 -6 30 10 9 17 8 20 -11 20
-15 0 -19 5 -15 15 3 9 0 15 -9 15 -9 0 -15 -10 -15 -25z"/>
<path d="M8935 1398 c-3 -7 -1 -26 4 -43 9 -29 9 -29 10 13 1 41 -5 54 -14 30z"/>
<path d="M5115 989 c-9 -50 -41 -99 -63 -99 -10 0 -19 -6 -19 -14 0 -16 34
-10 59 11 18 16 43 104 35 125 -2 7 -8 -3 -12 -23z"/>
<path d="M5058 947 c-3 -19 -2 -25 4 -19 6 6 8 18 6 28 -3 14 -5 12 -10 -9z"/>
<path d="M1986 911 c-4 -5 3 -7 14 -4 23 6 26 13 6 13 -8 0 -17 -4 -20 -9z"/>
</g>
</svg>
