<?xml version="1.0" standalone="no"?>
<!DOCTYPE svg PUBLIC "-//W3C//DTD SVG 20010904//EN"
 "http://www.w3.org/TR/2001/REC-SVG-20010904/DTD/svg10.dtd">
<svg version="1.0" xmlns="http://www.w3.org/2000/svg"
 width="1024.000000pt" height="1024.000000pt" viewBox="0 0 1024.000000 1024.000000"
 preserveAspectRatio="xMidYMid meet">

<g transform="translate(0.000000,1024.000000) scale(0.100000,-0.100000)"
fill="#000000" stroke="none">
<path d="M5039 9788 c-88 -169 -223 -365 -307 -446 l-75 -74 34 -70 34 -70
-22 -18 -22 -18 30 -12 c48 -20 59 -37 59 -89 0 -97 -52 -240 -116 -318 -87
-106 -274 -229 -569 -373 -359 -176 -607 -243 -790 -211 -83 15 -113 30 -271
136 -144 97 -217 125 -326 125 -63 0 -69 -2 -63 -17 13 -35 45 -170 54 -234
13 -94 50 -237 76 -294 26 -59 45 -77 109 -106 l49 -21 -6 -177 c-9 -318 -73
-541 -200 -696 -53 -65 -155 -154 -208 -182 -97 -52 -180 -16 -193 83 l-7 49
-42 -40 c-79 -75 -216 -170 -346 -240 -72 -39 -131 -73 -131 -77 0 -4 69 -41
152 -84 136 -69 268 -147 268 -159 0 -3 -49 20 -109 50 -132 66 -310 136 -408
160 -40 9 -71 20 -68 25 2 4 37 17 77 30 78 24 296 130 364 177 52 35 100 78
142 126 53 62 36 64 -26 4 -104 -98 -331 -230 -522 -302 -41 -16 -79 -32 -83
-36 -5 -4 37 -21 94 -39 117 -36 305 -115 395 -165 91 -51 199 -139 214 -174
7 -17 16 -31 20 -31 4 0 10 26 14 57 4 31 15 76 25 99 17 36 26 44 62 54 60
16 92 7 168 -50 155 -114 258 -259 330 -465 43 -119 61 -210 61 -300 l0 -73
-98 -98 c-110 -111 -147 -172 -186 -306 -32 -110 -59 -342 -50 -425 3 -35 9
-63 13 -63 4 0 12 15 19 33 7 19 40 66 75 105 158 181 365 285 536 269 75 -6
138 -35 226 -101 145 -110 586 -496 748 -656 92 -91 172 -167 178 -169 6 -2
-3 -16 -20 -32 -42 -38 -39 -61 13 -103 24 -20 54 -56 67 -81 21 -39 22 -47
11 -79 -11 -31 -11 -40 8 -76 20 -39 20 -42 3 -105 -17 -63 -17 -65 4 -102 11
-21 23 -61 27 -90 4 -28 16 -72 27 -97 19 -44 19 -63 17 -898 -3 -828 -4 -854
-23 -885 -17 -28 -18 -36 -6 -81 11 -46 11 -53 -10 -94 -68 -129 9 -420 152
-573 63 -67 141 -125 169 -125 27 0 166 97 213 150 126 140 163 349 90 510
-27 60 -29 68 -17 100 18 51 17 75 -6 95 -20 18 -20 31 -20 890 0 780 2 874
16 886 25 20 41 60 49 118 6 41 15 62 43 93 l35 39 -21 45 c-27 56 -28 97 -1
140 16 27 19 43 14 78 -9 56 2 76 64 118 27 18 77 65 112 103 135 150 262 254
689 566 590 432 597 436 692 446 93 9 259 -28 368 -82 118 -59 265 -207 313
-314 27 -62 37 -38 37 97 0 166 -36 324 -105 462 -42 83 -79 133 -165 224
l-70 73 10 94 c11 109 47 257 83 346 58 142 256 372 367 426 68 33 171 40 211
14 36 -24 69 -88 76 -147 3 -27 7 -50 8 -50 2 0 34 31 71 68 83 82 137 120
253 177 91 45 287 114 384 136 32 7 54 16 50 20 -4 4 -44 22 -88 39 -207 82
-488 243 -582 333 -24 22 -45 38 -49 34 -13 -13 42 -103 99 -159 32 -32 108
-90 168 -130 86 -58 109 -78 109 -96 0 -38 -49 -51 -160 -45 -52 3 -100 6
-106 6 -7 0 -13 28 -16 71 -5 72 -30 139 -69 181 -10 11 -32 45 -48 74 l-29
54 -7 -47 c-5 -33 -16 -56 -38 -77 -28 -29 -35 -31 -88 -27 -42 3 -71 13 -113
38 -84 51 -211 173 -268 258 -116 172 -183 427 -176 671 l3 104 48 12 c27 7
61 21 75 32 37 27 178 303 161 314 -8 4 -18 1 -26 -9 -37 -49 9 171 57 273 16
33 27 61 26 62 -2 2 -43 -4 -92 -12 -118 -20 -194 -50 -339 -135 -66 -39 -144
-79 -173 -90 -178 -67 -459 -7 -826 176 -264 132 -443 251 -568 374 -70 69
-78 82 -99 150 -29 96 -31 184 -5 233 16 28 18 41 10 59 -16 34 1 82 43 125
l37 36 -35 26 c-60 44 -173 163 -237 249 -34 45 -91 141 -128 212 -37 72 -70
130 -74 130 -4 0 -32 -46 -61 -102z m221 -251 c27 -40 87 -114 135 -166 47
-52 84 -97 82 -100 -2 -3 -12 -25 -22 -48 -10 -24 -21 -43 -24 -43 -3 0 -6 18
-6 39 -1 52 -57 160 -115 221 -51 55 -156 110 -208 110 -31 0 -33 2 -28 28 2
15 7 59 11 97 13 158 9 156 71 38 30 -57 76 -137 104 -176z m-63 -36 c70 -32
189 -158 169 -178 -3 -4 -6 0 -6 7 0 7 -2 11 -5 8 -3 -2 2 -20 11 -38 14 -28
15 -40 4 -87 -13 -60 -72 -141 -130 -180 -71 -49 -203 -19 -282 63 -48 51 -68
101 -67 166 l2 53 7 -55 c4 -30 12 -67 18 -81 13 -33 70 -99 85 -99 6 0 0 12
-14 27 -13 14 -18 23 -10 18 17 -10 14 4 -23 90 -27 63 -33 125 -16 172 9 26
9 27 -5 9 -8 -11 -15 -24 -15 -30 0 -5 -3 -7 -6 -4 -17 18 62 111 121 141 41
22 111 21 162 -2z m158 -421 c-3 -5 -12 -10 -18 -10 -7 0 -6 4 3 10 19 12 23
12 15 0z m58 -90 c-7 -60 11 -155 42 -227 52 -116 208 -236 525 -403 287 -152
502 -240 683 -279 152 -33 437 -28 555 10 54 18 30 21 -58 9 -51 -7 -86 -8
-92 -2 -10 10 92 73 232 144 68 35 192 69 205 56 3 -2 -7 -34 -21 -69 -14 -35
-35 -92 -45 -125 -16 -53 -109 -214 -123 -214 -3 0 4 19 14 43 28 59 25 69
-22 101 -37 24 -50 27 -93 22 -469 -53 -611 -36 -910 108 -297 142 -707 396
-789 487 -69 76 -120 187 -124 268 -3 58 8 121 22 121 3 0 2 -22 -1 -50z m-63
-41 c0 -15 -5 -40 -10 -55 -16 -41 4 -87 63 -148 29 -30 83 -86 121 -125 90
-94 206 -180 391 -290 231 -137 508 -269 691 -329 87 -29 250 -60 260 -50 3 3
-36 16 -86 28 -101 25 -115 36 -24 19 38 -7 129 -9 256 -6 187 5 197 5 214
-14 16 -17 16 -22 4 -29 -12 -7 -12 -12 -2 -22 6 -6 12 -21 12 -32 0 -20 -57
-116 -69 -116 -3 0 -18 -10 -32 -22 -14 -13 -34 -28 -44 -34 -24 -13 -39 -68
-31 -113 3 -23 0 -44 -12 -63 -35 -59 -138 -107 -200 -92 -52 13 -142 65 -188
109 l-46 44 5 -42 6 -42 -16 35 c-11 25 -14 56 -11 111 l4 75 -55 11 c-113 21
-535 234 -901 453 -107 64 -243 144 -301 178 -58 34 -113 70 -122 80 -16 18
-15 21 23 62 57 61 84 123 88 201 5 78 -7 107 -80 192 l-49 57 33 1 c18 1 44
4 58 8 32 10 50 -4 50 -40z m-142 -31 c112 -69 122 -203 19 -267 -36 -22 -107
-39 -144 -33 -18 3 -21 8 -17 39 3 27 -1 42 -15 57 -34 36 -64 115 -57 149 l6
31 -36 -40 c-31 -34 -33 -35 -14 -7 26 41 69 75 83 66 6 -3 7 -1 3 5 -10 16
51 32 99 26 21 -3 54 -14 73 -26z m-391 -30 c-3 -8 -6 -5 -6 6 -1 11 2 17 5
13 3 -3 4 -12 1 -19z m-17 -65 c-22 -67 -60 -133 -102 -179 -41 -45 -176 -154
-233 -189 -43 -27 -21 -8 67 58 90 68 199 181 227 234 10 21 24 57 31 81 7 23
15 40 18 38 2 -3 -2 -22 -8 -43z m150 -120 c24 -54 62 -98 102 -119 36 -19
122 -18 159 2 34 17 48 12 30 -10 -21 -25 -81 -48 -127 -48 -45 0 -115 29
-115 47 0 15 -31 45 -40 39 -13 -8 -28 31 -23 57 5 19 3 21 -5 9 -8 -11 -10
-4 -8 28 0 23 2 42 4 42 1 0 12 -21 23 -47z m-137 -163 c20 -16 31 -18 51 -10
14 5 26 7 26 4 0 -4 6 -2 13 3 17 15 43 8 89 -22 26 -17 38 -31 34 -41 -5 -12
-1 -14 17 -9 21 6 21 6 -3 -15 -99 -82 -566 -357 -851 -500 -103 -53 -309
-142 -376 -164 -72 -24 -101 -17 -48 11 32 17 37 23 23 28 -14 6 -17 21 -17
86 l0 79 37 20 c48 25 36 25 -22 0 -66 -28 -220 -67 -296 -76 l-64 -6 59 -28
c73 -33 184 -129 207 -179 18 -39 23 -106 9 -115 -5 -3 -11 11 -15 32 -3 20
-14 54 -24 76 l-17 39 0 -39 c0 -23 -8 -50 -20 -65 -21 -28 -94 -55 -96 -35
-1 6 -2 38 -3 71 -1 68 -27 115 -76 140 -40 21 -109 19 -133 -2 -11 -10 -17
-12 -13 -5 11 19 -4 14 -39 -12 -37 -29 -65 -81 -65 -123 0 -74 99 -163 198
-179 48 -8 54 -20 15 -28 -62 -14 -169 42 -208 108 -36 62 -35 134 4 191 16
24 24 42 16 39 -19 -8 -28 13 -14 37 8 16 8 20 -1 14 -12 -8 -9 32 6 69 7 18
2 18 -85 14 -61 -3 -88 -1 -81 6 18 18 10 28 -17 22 l-28 -6 25 15 c33 19 138
19 264 0 138 -21 168 -19 289 15 255 71 719 291 923 436 66 47 100 50 110 8 3
-13 12 -28 20 -35 8 -6 12 -15 9 -19 -7 -11 26 -37 55 -44 19 -4 17 -2 -7 9
-39 18 -57 41 -22 29 57 -20 124 -3 144 36 20 38 19 58 -5 98 -15 25 -26 32
-51 32 -16 0 -40 -5 -52 -11 -21 -10 -21 -10 -3 5 27 22 78 20 109 -4z m-22
-20 c25 -14 25 -64 -1 -90 -24 -24 -29 -24 -58 -4 -26 18 -29 60 -5 86 18 20
36 23 64 8z m1114 -160 c3 -5 1 -10 -4 -10 -6 0 -11 5 -11 10 0 6 2 10 4 10 3
0 8 -4 11 -10z m-3083 -81 c69 -15 123 -43 258 -134 61 -41 128 -79 148 -84
111 -30 270 -19 426 29 37 12 70 20 72 17 6 -5 -124 -43 -211 -61 -38 -8 -101
-16 -140 -17 -97 -3 -281 10 -308 22 -21 9 58 5 123 -7 25 -4 25 -4 2 6 -12 5
-62 14 -110 20 -105 13 -185 34 -231 62 -30 19 -111 128 -111 150 0 11 19 10
82 -3z m1208 -59 c-19 -11 -39 -19 -45 -19 -5 0 6 8 25 19 19 11 40 19 45 19
6 0 -6 -8 -25 -19z m-70 -30 c-8 -5 -19 -10 -25 -10 -5 0 -3 5 5 10 8 5 20 10
25 10 6 0 3 -5 -5 -10z m1263 -59 c117 -57 654 -360 902 -510 250 -151 375
-257 432 -366 45 -85 157 -429 182 -555 39 -205 45 -257 45 -405 1 -160 -7
-195 -44 -192 -19 1 -20 8 -20 117 0 239 -42 474 -127 710 -44 123 -158 360
-174 360 -12 0 16 -86 75 -230 163 -399 228 -790 177 -1070 -60 -337 -246
-705 -465 -925 -161 -161 -325 -262 -561 -345 -122 -43 -533 -160 -562 -160
-76 0 -380 83 -550 151 -346 137 -668 400 -849 694 l-18 30 24 -20 c21 -17 22
-17 10 -2 -11 15 -11 20 -1 26 10 7 10 15 -4 42 -19 40 -10 29 72 -88 220
-312 537 -541 941 -677 309 -105 417 -102 767 17 215 74 317 118 429 186 132
78 247 172 329 266 92 106 137 175 209 325 100 207 162 419 188 645 11 99 13
289 2 264 -4 -10 -15 -15 -27 -12 -50 10 -85 11 -85 2 0 -23 -29 -6 -32 19 -2
15 -4 -34 -4 -108 -2 -231 -37 -386 -129 -575 -153 -316 -388 -557 -681 -700
-106 -51 -349 -130 -463 -149 -161 -27 -320 -15 -506 39 -323 94 -657 361
-836 667 -41 69 -112 239 -123 293 -6 30 -6 30 7 6 14 -23 18 -22 30 11 4 12
2 15 -9 11 -7 -3 -14 0 -14 7 0 6 5 8 10 5 20 -13 9 12 -16 36 l-26 24 7 -35
c4 -19 4 -32 1 -29 -4 3 -13 39 -20 80 -70 365 24 724 276 1056 115 153 295
307 486 417 151 87 411 178 548 192 l63 7 -6 253 c-5 190 -3 254 5 254 7 0 67
-27 135 -59z m-1313 39 c-8 -5 -19 -10 -25 -10 -5 0 -3 5 5 10 8 5 20 10 25
10 6 0 3 -5 -5 -10z m-50 -20 c-8 -5 -19 -10 -25 -10 -5 0 -3 5 5 10 8 5 20
10 25 10 6 0 3 -5 -5 -10z m-65 -25 c-16 -8 -37 -14 -45 -14 -8 0 1 7 20 14
46 18 64 17 25 0z m-344 -354 c74 -75 -14 -176 -110 -126 -33 16 -41 33 -41
81 0 75 93 103 151 45z m-484 -466 c-8 -247 -53 -387 -164 -502 -32 -33 -39
-38 -15 -11 97 109 155 311 169 588 10 173 17 120 10 -75z m4278 -105 c46
-176 143 -350 248 -446 55 -50 200 -155 256 -186 35 -19 81 -104 81 -150 0
-25 -4 -28 -33 -28 -31 0 -34 3 -50 53 -34 107 -81 162 -240 281 -148 111
-192 169 -243 318 -34 101 -62 241 -68 343 l-6 90 19 -105 c10 -58 26 -134 36
-170z m-55 -15 c30 -130 114 -339 156 -386 20 -22 18 -26 -20 -33 -93 -18
-186 -87 -229 -172 -18 -35 -46 -167 -51 -239 -2 -27 -4 -58 -5 -68 -1 -11 -8
-17 -18 -15 -10 2 -22 -7 -28 -20 -10 -18 -13 7 -18 135 -9 248 -53 496 -127
707 -23 69 -24 77 -7 71 16 -7 113 89 197 194 10 12 90 61 100 61 5 0 11 8 11
18 1 9 7 -32 15 -93 7 -60 18 -132 24 -160z m-358 194 c39 -11 76 -18 84 -15
8 3 14 2 14 -3 0 -28 -111 -12 -161 23 -31 21 -20 20 63 -5z m-3634 -103 c26
-13 64 -26 85 -30 20 -4 37 -10 37 -15 0 -9 31 -8 48 3 15 9 5 -19 -32 -92
-36 -71 -91 -257 -119 -408 -23 -119 -35 -211 -53 -404 -4 -41 -10 -67 -13
-57 -6 16 -8 15 -21 -4 -8 -12 -23 -31 -33 -43 -17 -20 -18 -20 -13 -1 9 32
116 581 116 591 0 5 -4 3 -9 -5 -7 -10 -18 -5 -50 24 -22 21 -41 44 -41 51 0
8 -3 14 -7 14 -15 0 -54 93 -54 130 -1 8 -3 22 -6 30 -25 69 49 240 104 240 8
0 35 -11 61 -24z m638 -5 c0 -11 -5 -19 -11 -18 -5 1 -9 -9 -7 -23 2 -19 0
-22 -8 -10 -5 8 -10 10 -10 4 0 -16 25 -35 34 -26 5 4 -20 -38 -55 -93 -116
-184 -210 -409 -259 -615 -15 -64 -25 -147 -30 -255 -4 -88 -8 -133 -10 -100
-4 94 -4 98 -17 102 -9 3 -13 -18 -16 -74 -2 -43 -3 -8 -1 77 5 238 59 453
170 677 44 90 59 111 74 108 13 -3 17 1 13 11 -3 7 -10 11 -16 7 -6 -3 -7 -1
-3 6 5 8 12 9 20 2 8 -7 17 -6 26 1 13 8 12 9 -2 5 -9 -3 -18 0 -21 6 -6 17 3
38 14 32 5 -4 6 0 4 8 -4 10 99 187 109 187 1 0 2 -9 2 -19z m4359 -658 c86
-58 305 -171 382 -198 l66 -23 -49 -7 c-174 -26 -493 -180 -588 -286 -32 -35
-36 -37 -36 -17 0 32 102 125 191 174 41 22 121 62 178 88 87 40 111 47 143
42 45 -7 48 -3 11 17 -159 82 -355 218 -423 293 l-35 38 50 -41 c28 -22 77
-58 110 -80z m-718 75 c65 -31 176 -138 207 -201 35 -70 34 -88 -11 -112 -25
-14 -49 -40 -73 -82 -46 -81 -74 -109 -135 -141 -73 -37 -157 -36 -221 4 -92
56 -144 156 -144 275 0 214 191 344 377 257z m-4499 -17 c22 -11 53 -36 70
-56 28 -31 32 -43 32 -93 0 -33 -8 -74 -19 -97 -16 -37 -18 -38 -25 -17 -11
33 -23 27 -30 -17 -8 -53 -36 -71 -106 -71 -76 0 -132 36 -165 105 -33 69 -41
118 -21 134 19 16 21 48 4 53 -14 5 63 60 107 76 39 15 105 7 153 -17z m-706
-36 c6 -29 -22 -52 -74 -60 l-33 -5 50 45 c28 24 51 45 51 45 1 0 4 -11 6 -25z
m5717 -44 c28 -39 45 -110 37 -153 l-7 -36 -74 -4 c-61 -2 -75 0 -75 12 -1 26
-40 104 -67 133 l-27 27 45 0 c29 0 57 8 84 25 51 31 59 31 84 -4z m-5485 -69
l-37 -62 -41 7 c-73 11 -76 13 -61 51 16 36 47 52 103 52 20 0 44 4 52 10 24
15 22 6 -16 -58z m-184 -3 c-12 -22 -24 -63 -27 -90 -4 -33 -12 -53 -23 -59
-25 -13 -29 12 -15 81 13 67 38 109 65 109 20 0 20 0 0 -41z m646 -331 c4 -7
4 -10 0 -6 -4 3 -24 -5 -43 -18 -25 -17 -48 -24 -77 -23 l-41 1 48 8 c26 5 59
18 75 29 33 25 29 24 38 9z m531 -155 c-3 -10 -5 -4 -5 12 0 17 2 24 5 18 2
-7 2 -21 0 -30z m-40 -35 c-3 -8 -6 -5 -6 6 -1 11 2 17 5 13 3 -3 4 -12 1 -19z
m50 -25 c-3 -10 -5 -4 -5 12 0 17 2 24 5 18 2 -7 2 -21 0 -30z m10 -45 c-3 -8
-6 -5 -6 6 -1 11 2 17 5 13 3 -3 4 -12 1 -19z m-220 -487 c19 -58 52 -140 74
-183 22 -43 35 -78 30 -78 -5 0 -11 6 -14 13 -3 6 -28 65 -56 129 -28 64 -59
153 -71 197 -21 82 -26 122 -7 61 5 -19 25 -82 44 -139z m-241 -78 c-5 -5 -46
116 -45 131 0 6 11 -20 25 -58 13 -38 22 -71 20 -73z m4064 -24 c0 -49 -3 -58
-32 -85 -20 -19 -29 -23 -25 -11 6 15 -7 22 -35 18 -5 0 27 98 59 179 10 27
32 -41 33 -101z m110 -129 c79 -56 178 -202 204 -300 3 -14 -3 -5 -14 19 -66
142 -209 281 -292 281 -25 0 -14 15 17 23 26 6 54 -2 85 -23z m-4233 -7 c2 -6
-20 -22 -50 -36 -70 -32 -132 -88 -169 -154 -40 -72 -47 -67 -8 5 42 79 115
161 164 183 43 19 57 20 63 2z m3927 -9 c25 -9 19 -59 -10 -93 -34 -41 -89
-43 -124 -6 -29 31 -45 31 -140 3 -74 -21 -77 -23 -190 -137 -185 -187 -516
-427 -758 -550 -156 -78 -281 -127 -429 -167 -57 -15 -103 -32 -103 -38 1 -6
9 -21 18 -32 18 -21 20 -21 95 -7 50 9 83 11 94 5 14 -8 13 -12 -13 -25 -16
-8 -53 -20 -82 -28 l-53 -13 7 -80 c6 -71 5 -79 -8 -65 -8 8 -17 37 -20 64
-11 116 -68 172 -206 203 -117 27 -163 35 -137 23 18 -9 17 -10 -8 -10 -38 -1
-76 -29 -123 -91 -21 -28 -40 -46 -42 -40 -6 18 39 80 84 114 l43 33 -87 18
c-434 86 -958 430 -1142 751 -28 47 -35 53 -87 67 -80 22 -218 47 -260 47 -20
0 -32 4 -28 10 9 14 60 13 216 -7 135 -16 137 -17 154 -47 115 -201 392 -450
669 -600 174 -94 333 -149 536 -185 63 -12 161 -32 217 -46 121 -29 150 -26
328 35 420 142 957 496 1141 750 67 94 57 89 224 115 58 10 123 21 145 25 54
11 61 11 79 4z m-3739 -101 c15 -27 37 -63 48 -82 12 -19 16 -31 9 -27 -12 7
-73 107 -85 139 -12 31 1 18 28 -30z m4057 8 l33 -30 -38 9 c-34 7 -39 6 -46
-13 -8 -20 -9 -20 -25 11 -16 32 -16 33 6 42 34 13 35 13 70 -19z m-102 -11
c28 -28 26 -64 -5 -78 -76 -35 -127 18 -73 75 26 28 52 29 78 3z m-4090 -40
c23 -23 24 -29 10 -64 -16 -43 -90 -26 -90 20 0 9 -5 12 -11 8 -8 -4 -9 1 -4
16 6 17 4 21 -6 14 -12 -6 -12 -5 0 9 19 24 76 22 101 -3z m3945 -136 c22 -8
29 -11 15 -8 -89 20 -297 11 -350 -16 -8 -4 -28 -10 -45 -13 -24 -5 -22 -3 12
13 102 46 270 57 368 24z m-3805 -8 c0 -3 -54 -22 -175 -61 -11 -3 3 6 30 21
42 23 66 31 138 43 4 0 7 -1 7 -3z m3877 -12 c-3 -3 -12 -4 -19 -1 -8 3 -5 6
6 6 11 1 17 -2 13 -5z m97 -35 c34 -17 73 -40 86 -51 14 -11 -9 -2 -50 19 -41
22 -86 45 -100 51 -14 6 -19 11 -12 11 8 1 42 -13 76 -30z m-2971 -547 c20
-14 36 -27 33 -29 -2 -2 -28 12 -58 33 -97 69 -82 66 25 -4z m901 -165 c53
-41 79 -98 71 -156 -14 -107 -41 -130 -145 -121 -77 6 -109 24 -147 81 -31 47
-43 143 -21 169 42 50 71 62 139 58 54 -3 73 -9 103 -31z m61 -347 c-60 -87
-155 -121 -239 -86 -50 21 -52 36 -3 18 80 -29 192 12 242 87 11 16 21 28 24
26 2 -3 -9 -23 -24 -45z m-489 -138 c14 -8 12 -10 -11 -16 -21 -5 -38 0 -74
24 -26 16 -53 30 -59 30 -7 0 -12 4 -12 9 0 9 121 -27 156 -47z m510 33 c-19
-14 -17 -15 17 -15 35 0 37 -1 27 -21 -16 -29 -128 -79 -194 -86 -51 -5 -54
-4 -50 14 3 12 42 37 107 70 108 55 124 61 93 38z m-394 -165 c115 -13 213 -4
331 29 52 14 67 15 71 5 5 -14 -37 -36 -101 -53 -74 -20 -247 -16 -353 9 -122
28 -200 52 -200 61 0 4 33 -4 74 -16 40 -13 120 -29 178 -35z m413 -170 c-7
-21 -70 -57 -137 -77 -68 -20 -172 -20 -220 1 -41 17 -78 59 -78 87 0 17 9 19
68 20 41 0 60 3 48 8 -13 5 14 13 86 24 58 9 127 25 154 35 l48 19 18 -50 c10
-28 16 -58 13 -67z m-627 18 c0 -56 -1 -60 -14 -43 -8 10 -14 24 -14 30 0 14
20 75 25 75 2 0 3 -28 3 -62z m572 -179 c0 -25 -6 -32 -35 -45 -47 -19 -84
-19 -81 2 1 9 11 23 21 30 14 11 15 14 4 15 -14 1 56 26 79 28 7 1 12 -11 12
-30z m-503 -45 c-7 -7 -57 18 -57 28 0 5 14 1 31 -7 17 -9 29 -19 26 -21z
m443 -214 c0 -88 -3 -160 -8 -160 -4 0 -17 6 -28 14 -27 19 -76 26 -91 14 -9
-7 -15 -5 -19 5 -10 27 0 235 12 247 11 11 93 37 122 39 9 1 12 -37 12 -159z
m-420 24 c0 -57 -4 -104 -9 -104 -10 0 -21 84 -21 169 0 55 2 62 15 51 12 -10
15 -36 15 -116z m0 -236 c0 -65 -2 -71 -15 -57 -20 20 -23 92 -6 113 7 9 15
16 17 16 2 0 4 -32 4 -72z m405 39 c56 -42 -59 -156 -170 -169 -30 -3 -30 -3
-33 52 l-2 55 62 37 c66 39 112 47 143 25z m5 -1490 c-19 -24 -45 -38 -87 -47
-31 -7 -32 -6 -37 29 -3 20 -8 194 -12 386 -4 193 -8 346 -10 340 -1 -5 -5
-23 -9 -40 -7 -30 -7 -30 -19 -7 -10 20 -12 14 -14 -45 -2 -37 -5 -69 -7 -72
-3 -2 -5 151 -5 340 l0 344 54 23 c29 13 75 38 102 56 l49 33 5 -661 c4 -576
3 -663 -10 -679z m-420 671 c0 -573 -2 -651 -15 -638 -12 13 -13 78 -4 500 6
267 8 554 4 638 -5 107 -3 152 4 152 8 0 11 -189 11 -652z m83 -765 c49 -25
13 -28 -39 -3 -54 27 -114 81 -114 104 0 12 17 2 61 -34 33 -27 74 -58 92 -67z
m381 81 c11 -30 6 -42 -41 -87 -54 -53 -135 -96 -192 -104 -40 -6 -41 -5 -41
25 0 17 -6 33 -12 36 -7 3 -1 3 13 0 36 -7 167 58 215 107 42 43 49 46 58 23z
m-524 -164 c-5 -36 -10 -90 -11 -120 l-2 -55 -7 50 c-9 54 -4 110 12 163 15
50 18 34 8 -38z m530 26 c21 -26 40 -119 40 -197 0 -94 -20 -161 -69 -225 -44
-59 -153 -144 -184 -144 -18 0 -19 2 -7 10 12 8 13 10 1 10 -8 0 10 17 39 38
54 37 106 101 112 136 2 13 -8 25 -32 39 -57 32 -103 77 -132 130 -38 67 -36
81 10 95 21 6 73 36 117 67 44 30 83 55 86 55 4 0 12 -6 19 -14z"/>
<path d="M5449 8511 c-34 -34 -36 -59 -9 -93 31 -40 72 -53 108 -34 34 17 58
72 48 110 -13 51 -102 62 -147 17z m85 -12 c32 -25 34 -64 5 -79 -42 -23 -99
48 -69 85 17 20 32 19 64 -6z"/>
<path d="M6870 7820 c-12 -8 -9 -10 12 -10 62 0 125 -99 100 -156 -13 -27 -66
-54 -107 -54 -15 0 -40 14 -62 33 -32 30 -37 41 -41 92 -4 52 -2 60 19 76 13
10 19 19 13 19 -19 0 -86 -72 -105 -114 -29 -64 -25 -100 16 -140 42 -42 126
-72 177 -62 20 3 54 20 76 36 33 24 45 41 57 84 27 93 -11 173 -94 196 -44 12
-42 12 -61 0z"/>
<path d="M4946 8637 c3 -10 9 -15 12 -12 3 3 0 11 -7 18 -10 9 -11 8 -5 -6z"/>
<path d="M5016 8565 c10 -8 23 -15 28 -15 6 0 1 7 -10 15 -10 8 -23 15 -28 15
-6 0 -1 -7 10 -15z"/>
<path d="M4907 7584 c-187 -40 -407 -138 -566 -251 -274 -197 -460 -466 -561
-813 -31 -106 -39 -344 -16 -460 60 -294 221 -573 441 -763 257 -222 567 -350
850 -350 236 1 557 119 785 291 188 142 315 292 413 488 101 201 136 327 144
514 14 368 -117 693 -371 925 -210 191 -381 291 -641 375 -191 61 -336 74
-478 44z m317 -58 c179 -35 401 -127 550 -228 305 -207 468 -435 546 -762 24
-100 39 -293 22 -282 -7 4 -12 1 -12 -6 0 -17 -54 -78 -69 -78 -6 0 -11 -8
-12 -17 0 -11 -3 -13 -6 -5 -2 6 -9 10 -13 7 -5 -3 -7 -12 -4 -20 4 -10 0 -12
-15 -8 -12 3 -21 3 -21 0 0 -31 -38 -187 -62 -255 -41 -117 -138 -303 -157
-302 -3 0 -14 7 -23 14 -16 12 -14 21 35 117 52 104 106 256 126 357 6 29 11
119 11 199 0 137 1 148 22 170 31 33 17 38 -49 20 -32 -9 -139 -26 -238 -37
-99 -12 -298 -39 -442 -61 -144 -21 -268 -39 -274 -39 -29 0 5 -13 71 -26 40
-9 99 -24 131 -34 32 -10 57 -15 54 -11 -5 8 241 53 295 54 19 0 46 -3 59 -7
l23 -8 -33 -35 c-24 -24 -27 -31 -11 -22 12 8 22 17 22 22 0 4 5 5 11 2 6 -4
-15 -33 -50 -70 -34 -35 -61 -72 -61 -82 0 -10 12 -38 26 -63 15 -25 55 -98
90 -163 35 -65 84 -144 109 -176 25 -31 45 -63 45 -70 0 -12 -39 19 -276 225
-76 66 -195 166 -264 221 -69 56 -152 128 -185 162 -33 34 -63 61 -67 61 -11
0 29 -108 63 -168 21 -37 27 -57 20 -66 -5 -6 -12 -79 -15 -161 -7 -176 -11
-206 -33 -222 -19 -15 -57 -17 -48 -4 3 5 1 12 -4 15 -5 4 -11 -4 -13 -16 -9
-53 -20 224 -16 425 1 119 0 217 -4 217 -47 0 -482 71 -758 125 -218 42 -260
48 -260 36 0 -5 -17 -5 -40 1 -45 12 -51 23 -16 32 18 4 29 19 42 53 74 207
182 376 312 494 86 77 241 176 334 214 114 47 277 90 290 77 19 -19 0 -39 -44
-46 -68 -11 -246 -73 -307 -108 -234 -132 -377 -289 -483 -532 -27 -61 -53
-118 -58 -127 -5 -9 -7 -19 -4 -22 13 -12 293 28 414 60 54 14 122 25 158 25
l64 -1 -5 117 c-3 64 -10 131 -15 148 -12 40 -13 40 112 -15 111 -49 120 -48
144 14 8 22 33 85 54 140 61 154 72 216 69 393 l-3 152 35 0 c19 0 69 -7 111
-14z m-199 -1282 c-151 -138 -365 -307 -309 -243 27 30 39 69 43 141 1 24 11
32 74 62 39 18 107 44 150 57 43 12 80 26 83 31 3 4 8 8 12 8 4 0 -20 -25 -53
-56z m-295 -535 c-51 -6 -94 -6 -110 0 -18 7 6 9 85 9 l110 -1 -85 -8z m669
-1 c-2 -2 -21 -19 -42 -37 -20 -19 -37 -30 -37 -24 0 16 51 63 68 63 8 0 13
-1 11 -2z m154 -5 c-13 -2 -33 -2 -45 0 -13 2 -3 4 22 4 25 0 35 -2 23 -4z
m-323 -168 c-7 -8 -17 -12 -22 -9 -5 3 -1 12 9 19 22 17 30 11 13 -10z"/>
<path d="M5305 7245 c17 -8 74 -35 128 -59 227 -104 403 -265 518 -475 34 -62
67 -92 53 -48 -27 88 -122 235 -213 331 -112 117 -231 190 -389 240 -92 29
-150 35 -97 11z"/>
<path d="M4720 6792 c0 -6 9 -35 21 -64 12 -29 28 -75 36 -102 21 -69 49 -107
124 -167 77 -62 149 -112 154 -107 1 1 -32 44 -74 95 -43 51 -115 147 -161
215 -94 139 -100 147 -100 130z"/>
<path d="M5334 6564 c-32 -38 -88 -105 -124 -149 l-65 -79 45 24 c44 25 111
99 177 197 54 80 34 84 -33 7z"/>
<path d="M6191 6174 c0 -11 3 -14 6 -6 3 7 2 16 -1 19 -3 4 -6 -2 -5 -13z"/>
<path d="M3485 6460 c3 -5 8 -10 11 -10 2 0 4 5 4 10 0 6 -5 10 -11 10 -5 0
-7 -4 -4 -10z"/>
<path d="M3460 6270 c-6 -11 -7 -20 -2 -20 6 0 12 9 15 20 3 11 3 20 1 20 -2
0 -8 -9 -14 -20z"/>
<path d="M7160 6537 c-59 -94 -46 -214 32 -302 44 -51 99 -76 163 -76 64 0
108 18 161 68 21 21 42 36 45 35 4 0 6 6 5 16 0 9 4 16 9 15 6 0 11 20 12 45
1 38 -1 43 -9 26 -21 -45 -133 -74 -209 -54 -103 27 -159 97 -159 200 0 62
-22 74 -50 27z"/>
<path d="M2914 5174 c-18 -14 -18 -15 4 -4 12 6 22 13 22 15 0 8 -5 6 -26 -11z"/>
<path d="M7175 5100 c3 -5 8 -10 11 -10 2 0 4 5 4 10 0 6 -5 10 -11 10 -5 0
-7 -4 -4 -10z"/>
<path d="M2930 924 c0 -8 5 -12 10 -9 6 4 8 11 5 16 -9 14 -15 11 -15 -7z"/>
<path d="M3401 831 c-11 -7 -11 -9 0 -14 12 -5 -31 -11 -53 -9 -3 1 -11 -4
-16 -11 -8 -9 1 -13 39 -14 28 -1 49 3 49 9 0 5 7 8 15 4 8 -3 15 -1 15 4 0 5
-8 11 -17 13 -17 4 -17 5 0 6 10 0 15 6 12 11 -8 12 -25 13 -44 1z"/>
<path d="M3562 804 c-5 -8 -15 -16 -23 -17 -8 -2 -20 -7 -28 -11 -10 -6 -12
-5 -7 2 4 7 2 12 -3 12 -6 0 -11 -8 -11 -18 0 -10 -5 -23 -11 -29 -14 -14 13
-24 32 -12 8 5 10 9 5 9 -5 0 -1 9 9 20 10 11 26 20 37 20 14 0 17 -5 12 -24
-3 -13 -1 -27 5 -30 13 -9 14 -16 2 -35 -8 -12 -11 -12 -25 1 -10 10 -25 13
-43 10 -19 -4 -22 -7 -10 -10 9 -2 17 -8 17 -13 0 -5 8 -9 18 -9 14 0 15 -2 2
-10 -13 -8 -13 -10 2 -10 11 0 15 -5 12 -15 -5 -11 3 -17 25 -21 25 -5 31 -12
32 -33 1 -17 3 -20 6 -9 4 16 6 16 19 4 8 -8 14 -25 14 -38 0 -18 -2 -20 -10
-8 -8 13 -10 13 -10 -2 0 -9 6 -19 13 -21 6 -3 -5 -6 -27 -6 -30 -1 -37 -4
-32 -16 3 -8 1 -15 -4 -15 -6 0 -10 -17 -9 -37 0 -31 2 -34 9 -18 l9 20 1 -20
c1 -12 4 -15 7 -7 4 10 8 10 19 1 11 -9 14 -8 14 7 0 16 2 17 10 4 8 -11 9 -8
4 12 -5 23 -3 26 15 21 14 -3 23 0 27 11 3 9 10 13 15 10 5 -3 9 2 9 11 0 9 4
14 8 11 5 -3 20 1 35 9 25 13 27 12 33 -11 3 -13 2 -30 -4 -37 -5 -7 -6 -21
-1 -32 11 -29 11 -57 -1 -50 -5 3 -10 1 -10 -4 0 -6 -10 -11 -22 -11 -13 0
-32 -7 -42 -15 -11 -8 -14 -15 -8 -15 7 0 12 -7 12 -15 0 -17 -43 -31 -61 -19
-7 4 -9 3 -6 -4 9 -14 -3 -43 -14 -36 -5 3 -20 -6 -34 -20 -14 -15 -29 -26
-33 -27 -4 0 -15 -2 -26 -4 -28 -5 -46 5 -46 26 0 10 -5 19 -11 19 -5 0 -8 4
-5 8 2 4 -25 8 -62 9 -54 1 -68 4 -77 19 -15 27 -24 32 -63 32 -19 0 -37 4
-41 8 -9 14 -161 17 -161 5 0 -6 -7 -11 -15 -11 -9 0 -20 -12 -26 -27 -7 -20
-12 -24 -18 -14 -7 11 -9 11 -13 0 -3 -8 -20 -14 -39 -15 -19 -1 -71 -4 -116
-8 -57 -5 -83 -4 -83 3 0 6 -16 11 -35 11 -44 0 -47 -20 -2 -21 17 0 26 -3 20
-6 -15 -6 -17 -33 -3 -33 6 0 10 -7 10 -16 0 -9 6 -14 13 -11 6 2 22 0 35 -4
16 -6 30 -4 45 6 20 14 20 15 3 15 -23 0 -15 10 11 14 10 2 16 7 15 12 -2 5
-8 8 -13 7 -5 -2 -9 1 -9 6 0 11 80 11 103 -1 10 -5 15 -13 12 -19 -4 -5 -2
-9 3 -9 5 0 13 -20 19 -45 5 -24 7 -42 3 -40 -10 6 -18 -16 -13 -33 3 -6 9
-10 14 -7 5 4 6 -1 3 -9 -4 -11 -20 -16 -48 -17 -22 -1 -32 -3 -21 -6 49 -12
27 -18 -63 -17 l-97 1 85 -7 c47 -3 75 -7 63 -8 -13 -1 -23 -6 -23 -12 0 -6
73 -10 200 -10 134 0 200 3 200 11 0 5 5 7 10 4 6 -3 10 -1 10 4 0 6 9 11 20
11 11 0 20 5 20 10 0 6 10 10 22 10 21 0 21 0 2 15 -18 14 -17 15 11 13 17 -1
36 1 43 6 7 4 12 3 12 -3 0 -5 10 -12 23 -14 12 -2 3 -5 -21 -6 -29 -1 -42 -5
-40 -13 2 -6 11 -13 19 -16 12 -3 12 -2 0 6 -10 7 -3 10 25 10 l38 0 -33 -14
c-18 -8 -41 -14 -50 -14 -14 0 -14 -2 -1 -10 19 -13 920 -11 920 1 0 5 -8 9
-17 10 -16 0 -16 1 -2 7 14 6 15 9 3 20 -8 7 -14 9 -14 5 0 -14 -114 -37 -118
-24 -2 6 -13 11 -25 11 -18 0 -19 -2 -7 -11 11 -8 9 -9 -10 -3 -24 7 -46 10
-83 13 -10 0 -15 6 -12 11 3 6 -1 10 -10 10 -11 0 -14 6 -9 24 6 27 -23 46
-38 24 -5 -8 -7 2 -5 24 1 23 7 38 15 38 7 0 10 5 7 10 -4 6 -11 8 -16 5 -5
-4 -9 -1 -9 4 0 6 7 11 16 11 13 0 14 3 5 14 -10 11 -4 23 29 56 34 34 47 41
70 38 16 -3 32 0 34 6 2 6 5 5 5 -2 1 -7 8 -20 16 -29 8 -8 12 -19 9 -25 -4
-6 1 -6 13 1 11 6 23 7 27 4 3 -3 6 -1 6 5 0 7 6 11 13 9 6 -1 11 4 10 11 -2
6 6 12 17 12 11 0 20 5 20 11 0 6 8 8 19 4 13 -4 20 0 24 16 3 11 10 18 16 14
6 -3 11 -2 11 3 0 15 -35 21 -55 9 -10 -5 -15 -5 -12 0 3 5 -15 8 -41 6 -26
-1 -71 -2 -101 -2 -49 -1 -52 -2 -40 -18 7 -10 9 -15 5 -11 -5 4 -16 2 -24 -5
-13 -10 -15 -9 -9 5 3 10 0 24 -8 32 -8 8 -15 30 -15 49 0 29 -4 35 -25 39
-14 3 -25 1 -25 -4 0 -5 -4 -7 -10 -3 -13 8 -140 -6 -135 -16 3 -4 -3 -15 -12
-25 -17 -17 -18 -17 -21 9 -3 28 20 62 33 49 4 -4 4 4 0 17 -5 16 -4 21 4 17
6 -4 11 -2 11 3 0 6 -4 11 -10 11 -5 0 -10 6 -10 14 0 9 7 12 23 9 17 -4 19
-3 7 6 -8 5 -25 8 -36 5 -12 -3 -25 -1 -28 5 -9 13 -46 15 -46 2 0 -5 -18 -11
-40 -13 -40 -3 -48 5 -41 45 1 5 -3 6 -9 2 -6 -3 -7 0 -4 10 4 8 1 22 -6 30
-17 21 -7 19 18 -4 12 -10 18 -21 14 -26 -4 -4 12 -5 36 -1 33 4 42 2 42 -9 0
-8 9 -15 20 -15 19 0 25 10 20 39 -1 11 2 10 15 -3 9 -9 21 -16 26 -16 5 0 9
-5 9 -11 0 -5 -4 -7 -10 -4 -5 3 -10 2 -10 -4 0 -6 10 -10 23 -9 37 1 48 -2
42 -11 -8 -14 31 -23 66 -16 27 6 30 10 25 33 -4 18 -3 22 2 14 7 -11 10 -10
15 3 4 9 3 13 -3 10 -6 -3 -10 3 -10 15 0 12 -4 19 -9 16 -4 -3 -17 1 -27 9
-10 8 -26 15 -34 15 -17 0 -56 40 -52 53 1 5 -2 6 -8 2 -6 -4 -10 5 -11 22 0
27 -1 27 -9 6 -5 -13 -12 -23 -15 -23 -4 0 -3 5 1 12 4 7 3 8 -4 4 -18 -11
-14 -34 6 -39 9 -2 -3 -4 -27 -4 -50 -1 -85 22 -60 38 8 5 22 6 32 3 16 -5 17
-3 5 15 -12 20 -13 20 -30 1 -31 -33 -53 -12 -51 48 1 14 -23 16 -32 2 -3 -5
-2 -10 3 -10 5 0 9 -6 9 -14 0 -7 -10 -13 -21 -12 -13 1 -20 8 -20 19 1 13 -4
16 -25 11 -20 -4 -23 -3 -11 5 13 10 13 12 0 21 -21 13 -28 12 -38 -6z m263
-174 c3 -6 -1 -7 -9 -4 -18 7 -21 14 -7 14 6 0 13 -4 16 -10z m-18 -147 c-3
-10 -5 -4 -5 12 0 17 2 24 5 18 2 -7 2 -21 0 -30z m-310 -319 c-1 -1 -15 0
-30 3 -19 4 -25 8 -16 13 10 7 53 -9 46 -16z m40 6 c3 -10 2 -11 -4 -4 -4 6
-15 14 -23 17 -11 5 -9 6 4 4 11 -1 21 -9 23 -17z m459 -97 c-11 -11 -17 4 -9
23 7 18 8 18 11 1 2 -10 1 -21 -2 -24z m-999 -29 c-3 -3 -12 -4 -19 -1 -8 3
-5 6 6 6 11 1 17 -2 13 -5z m283 -8 c0 -11 -19 -15 -25 -6 -3 5 1 10 9 10 9 0
16 -2 16 -4z"/>
<path d="M3735 810 c-3 -5 -1 -10 4 -10 6 0 11 5 11 10 0 6 -2 10 -4 10 -3 0
-8 -4 -11 -10z"/>
<path d="M3822 760 c0 -14 2 -19 5 -12 2 6 2 18 0 25 -3 6 -5 1 -5 -13z"/>
<path d="M4331 648 c-1 -13 5 -17 22 -14 12 3 26 5 30 5 5 1 5 6 2 11 -4 7
-12 7 -25 0 -13 -7 -20 -6 -23 3 -3 7 -6 5 -6 -5z"/>
<path d="M4240 590 c-9 -6 -10 -10 -3 -10 6 0 15 5 18 10 8 12 4 12 -15 0z"/>
<path d="M4301 534 c0 -11 3 -14 6 -6 3 7 2 16 -1 19 -3 4 -6 -2 -5 -13z"/>
<path d="M3941 494 c0 -11 3 -14 6 -6 3 7 2 16 -1 19 -3 4 -6 -2 -5 -13z"/>
<path d="M4364 349 c12 -8 25 -8 40 -1 18 9 16 11 -19 11 -33 0 -37 -1 -21
-10z"/>
<path d="M6446 305 c4 -8 14 -15 23 -16 11 0 9 -3 -6 -9 -33 -13 -29 -16 26
-16 40 -1 49 2 48 15 -1 19 -37 27 -37 9 0 -6 -8 -1 -19 10 -21 25 -43 29 -35
7z"/>
<path d="M2118 303 c6 -2 18 -2 25 0 6 3 1 5 -13 5 -14 0 -19 -2 -12 -5z"/>
<path d="M2965 290 c-3 -5 -1 -10 4 -10 6 0 11 5 11 10 0 6 -2 10 -4 10 -3 0
-8 -4 -11 -10z"/>
<path d="M2470 275 c0 -15 38 -40 47 -31 4 3 12 1 19 -5 8 -7 14 -7 19 1 3 5
26 10 51 10 24 0 44 3 44 8 0 4 -24 7 -54 8 -30 0 -53 -3 -50 -8 7 -11 -8 -10
-26 2 -13 9 -13 10 0 10 13 0 13 1 0 10 -22 15 -50 12 -50 -5z"/>
<path d="M6120 260 c-30 -6 -31 -8 -8 -9 14 0 33 -4 42 -7 11 -4 16 -1 16 10
0 9 -3 15 -7 15 -5 -1 -24 -5 -43 -9z"/>
<path d="M6180 259 c0 -9 9 -19 20 -22 11 -3 18 -1 14 4 -3 5 0 9 5 9 6 0 11
-5 11 -11 0 -5 5 -7 10 -4 6 3 10 13 10 21 0 16 -36 19 -46 3 -4 -8 -9 -7 -15
2 -7 11 -9 11 -9 -2z"/>
<path d="M5700 243 c0 -28 -35 -50 -44 -28 -9 25 -26 17 -26 -14 0 -16 6 -31
15 -35 8 -3 15 -1 15 3 0 5 7 11 15 15 18 7 47 -3 40 -14 -9 -14 34 -18 53 -4
11 7 39 17 63 20 24 4 38 9 31 12 -6 2 -12 12 -12 22 0 15 -6 17 -40 13 -28
-4 -40 -2 -40 7 0 8 -9 10 -27 6 -17 -5 -29 -3 -34 6 -6 9 -9 6 -9 -9z"/>
<path d="M5953 225 c0 -22 2 -30 4 -17 2 12 2 30 0 40 -3 9 -5 -1 -4 -23z"/>
<path d="M5978 253 c7 -3 16 -2 19 1 4 3 -2 6 -13 5 -11 0 -14 -3 -6 -6z"/>
<path d="M9875 140 c-8 -13 25 -13 45 0 12 8 9 10 -12 10 -15 0 -30 -4 -33
-10z"/>
<path d="M2885 110 c-4 -6 3 -10 14 -10 25 0 27 6 6 13 -8 4 -17 2 -20 -3z"/>
<path d="M4103 53 c15 -2 37 -2 50 0 12 2 0 4 -28 4 -27 0 -38 -2 -22 -4z"/>
<path d="M4180 45 c0 -8 8 -15 18 -14 10 0 12 3 4 6 -6 2 -10 9 -6 14 3 5 0 9
-5 9 -6 0 -11 -7 -11 -15z"/>
<path d="M4258 53 c7 -3 16 -2 19 1 4 3 -2 6 -13 5 -11 0 -14 -3 -6 -6z"/>
<path d="M2500 29 c0 -5 -10 -14 -22 -19 -22 -8 -22 -9 4 -9 17 -1 28 5 31 17
4 16 5 16 6 0 1 -14 10 -18 43 -18 31 0 39 3 31 11 -6 6 -23 12 -37 12 -14 0
-24 3 -22 6 3 4 -4 8 -15 8 -10 1 -19 -3 -19 -8z"/>
<path d="M2736 25 c-23 -23 -21 -25 29 -25 25 0 45 5 45 10 0 6 -8 10 -18 10
-10 0 -23 5 -29 11 -7 7 -15 5 -27 -6z"/>
<path d="M3368 33 c7 -3 16 -2 19 1 4 3 -2 6 -13 5 -11 0 -14 -3 -6 -6z"/>
<path d="M5507 20 c3 -11 9 -20 14 -20 11 0 11 3 3 24 -9 23 -23 20 -17 -4z"/>
<path d="M5694 26 c-4 -10 -12 -13 -27 -7 -12 4 -38 6 -57 5 -19 -1 -43 -3
-52 -3 -10 -1 -18 -5 -18 -9 0 -5 38 -9 85 -11 80 -2 85 -1 85 19 0 23 -8 26
-16 6z"/>
<path d="M5720 22 c0 -14 9 -18 40 -18 27 -1 40 4 40 12 0 7 -6 11 -14 8 -8
-3 -17 -1 -21 5 -11 18 -45 13 -45 -7z"/>
<path d="M6426 25 c-10 -8 -23 -12 -27 -9 -5 3 -9 1 -9 -5 0 -12 121 -13 140
-1 11 7 4 10 -22 10 -24 0 -38 5 -38 13 0 9 -3 8 -9 -2 -5 -8 -10 -9 -12 -3
-3 7 -11 5 -23 -3z"/>
<path d="M6870 29 c0 -5 -9 -9 -20 -9 -11 0 -20 -4 -20 -10 0 -5 23 -10 50
-10 29 0 50 5 50 11 0 5 -4 7 -10 4 -5 -3 -10 -2 -10 3 0 5 -9 12 -20 15 -11
3 -20 1 -20 -4z"/>
<path d="M9970 27 c0 -7 9 -13 20 -13 11 0 20 4 20 9 0 5 10 5 23 2 17 -5 19
-4 7 4 -21 15 -70 14 -70 -2z"/>
<path d="M1856 21 c-4 -7 -5 -15 -2 -18 9 -9 19 4 14 18 -4 11 -6 11 -12 0z"/>
<path d="M2313 23 c-47 -9 -21 -24 37 -22 33 1 60 6 60 11 0 4 -8 8 -17 8 -10
0 -27 2 -38 4 -11 2 -30 2 -42 -1z"/>
<path d="M4330 15 c0 -8 2 -15 4 -15 2 0 6 7 10 15 3 8 1 15 -4 15 -6 0 -10
-7 -10 -15z"/>
<path d="M6010 25 c0 -6 -28 -10 -65 -9 -39 0 -62 -3 -57 -8 5 -5 39 -8 75 -6
56 3 65 5 57 18 -5 8 -10 11 -10 5z"/>
<path d="M9870 15 c0 -12 8 -15 35 -12 37 4 61 17 29 15 -11 -1 -29 2 -41 6
-18 6 -23 3 -23 -9z"/>
<path d="M1880 10 c0 -5 5 -10 10 -10 6 0 10 5 10 10 0 6 -4 10 -10 10 -5 0
-10 -4 -10 -10z"/>
<path d="M1910 10 c0 -5 5 -10 10 -10 6 0 10 5 10 10 0 6 -4 10 -10 10 -5 0
-10 -4 -10 -10z"/>
<path d="M4395 10 c3 -5 8 -10 11 -10 2 0 4 5 4 10 0 6 -5 10 -11 10 -5 0 -7
-4 -4 -10z"/>
<path d="M5460 8 c0 -4 9 -8 20 -8 11 0 20 4 20 8 0 4 -9 8 -20 8 -11 0 -20
-4 -20 -8z"/>
<path d="M5850 10 c0 -5 5 -10 10 -10 6 0 10 5 10 10 0 6 -4 10 -10 10 -5 0
-10 -4 -10 -10z"/>
<path d="M6170 10 c0 -5 5 -10 11 -10 5 0 7 5 4 10 -3 6 -8 10 -11 10 -2 0 -4
-4 -4 -10z"/>
<path d="M6730 10 c0 -5 5 -10 11 -10 5 0 7 5 4 10 -3 6 -8 10 -11 10 -2 0 -4
-4 -4 -10z"/>
<path d="M7250 8 c0 -4 14 -8 30 -8 17 0 30 4 30 8 0 5 -13 9 -30 9 -16 0 -30
-4 -30 -9z"/>
<path d="M7416 8 c7 -11 74 -10 74 2 0 5 -18 9 -40 8 -21 -1 -37 -5 -34 -10z"/>
<path d="M7610 10 c0 -5 5 -10 10 -10 6 0 10 5 10 10 0 6 -4 10 -10 10 -5 0
-10 -4 -10 -10z"/>
<path d="M7640 11 c0 -6 9 -9 20 -8 11 1 20 5 20 9 0 4 -9 8 -20 8 -11 0 -20
-4 -20 -9z"/>
<path d="M9805 10 c3 -5 10 -10 16 -10 5 0 9 5 9 10 0 6 -7 10 -16 10 -8 0
-12 -4 -9 -10z"/>
</g>
</svg>
