<?xml version="1.0" standalone="no"?>
<!DOCTYPE svg PUBLIC "-//W3C//DTD SVG 20010904//EN"
 "http://www.w3.org/TR/2001/REC-SVG-20010904/DTD/svg10.dtd">
<svg version="1.0" xmlns="http://www.w3.org/2000/svg"
 width="1024.000000pt" height="1024.000000pt" viewBox="0 0 1024.000000 1024.000000"
 preserveAspectRatio="xMidYMid meet">

<g transform="translate(0.000000,1024.000000) scale(0.100000,-0.100000)"
fill="#000000" stroke="none">
<path d="M388 10234 c-3 -2 -70 -5 -149 -6 -79 0 -155 -5 -169 -9 -14 -4 -19
-8 -12 -8 7 -1 10 -6 7 -11 -4 -6 -1 -17 5 -25 8 -9 12 -43 11 -87 -1 -39 1
-69 5 -65 3 3 6 26 7 51 0 48 10 58 26 28 15 -29 26 -347 12 -356 -7 -5 -11 4
-11 27 0 19 -6 37 -13 40 -9 3 -13 -5 -13 -28 0 -19 3 -32 6 -30 3 2 10 -16
16 -40 5 -24 7 -42 3 -39 -5 2 -8 -36 -8 -86 0 -50 -3 -107 -6 -128 l-5 -37
15 38 c8 22 14 49 14 60 -1 12 2 42 7 67 4 25 8 147 8 272 l1 227 23 6 c21 5
22 8 10 22 -9 12 -9 15 0 9 8 -5 12 0 13 16 0 22 1 22 8 3 8 -19 8 -19 15 3 7
22 9 22 25 8 10 -9 22 -13 26 -9 5 5 3 0 -4 -9 -12 -16 -11 -18 13 -16 14 1
28 9 31 16 3 9 13 12 25 9 11 -3 20 -1 20 4 0 5 5 9 11 9 5 0 8 -4 5 -9 -4 -5
4 -7 16 -3 14 3 19 1 14 -6 -7 -12 42 -42 69 -42 8 0 15 -8 15 -17 0 -11 3
-14 8 -7 4 6 26 21 48 32 38 20 59 21 290 22 391 3 556 -1 575 -11 10 -5 36
-9 58 -9 23 0 41 -4 41 -10 0 -5 5 -10 11 -10 5 0 7 5 4 10 -3 6 -1 10 4 10 6
0 11 -4 11 -9 0 -5 42 -9 93 -11 122 -3 140 -4 155 -13 6 -5 12 -5 12 0 0 4
22 6 50 5 27 -2 50 -8 50 -13 0 -14 28 -11 33 4 4 10 6 10 6 0 1 -9 16 -13 44
-12 39 1 40 2 12 9 -23 6 -12 8 45 10 41 1 89 3 105 5 61 7 193 6 302 -2 62
-4 114 -4 116 0 1 5 27 11 57 13 136 9 183 16 169 25 -10 6 -3 9 23 9 37 0 58
14 36 24 -7 3 8 4 34 3 27 -1 48 -6 48 -11 0 -5 18 -6 39 -2 27 4 41 2 44 -7
3 -6 6 -2 6 11 1 18 7 22 31 22 17 0 30 4 30 9 0 5 13 11 30 13 24 4 27 2 19
-9 -9 -10 -7 -13 8 -13 10 0 25 9 33 19 7 11 17 18 22 15 4 -3 21 -7 37 -9 25
-3 28 0 23 17 -4 16 -2 19 8 13 9 -5 11 -4 6 3 -5 9 -367 12 -1435 12 -786 -1
-1431 -3 -1433 -6z m2829 -20 c-3 -3 -12 -4 -19 -1 -8 3 -5 6 6 6 11 1 17 -2
13 -5z m-180 -30 c-3 -3 -12 -4 -19 -1 -8 3 -5 6 6 6 11 1 17 -2 13 -5z
m-2910 -50 c-3 -3 -12 -4 -19 -1 -8 3 -5 6 6 6 11 1 17 -2 13 -5z m33 -14 c0
-5 -8 -10 -17 -10 -15 0 -16 2 -3 10 19 12 20 12 20 0z m2281 -28 c-7 -2 -18
1 -23 6 -8 8 -4 9 13 5 13 -4 18 -8 10 -11z"/>
<path d="M3275 10231 c-3 -5 -1 -12 5 -16 5 -3 10 1 10 9 0 18 -6 21 -15 7z"/>
<path d="M7877 10234 c-3 -4 -27 -6 -52 -6 -26 1 -43 -3 -40 -8 3 -5 -8 -4
-25 2 -17 5 -34 8 -37 4 -4 -3 0 -6 8 -6 11 0 11 -2 -1 -10 -13 -8 -12 -10 3
-10 20 0 23 -16 5 -23 -7 -3 -1 -6 14 -6 35 -1 59 -11 52 -22 -3 -5 0 -9 6 -9
6 0 8 -4 5 -10 -4 -7 3 -7 20 0 34 13 46 13 43 -2 -2 -8 15 -12 50 -13 30 -1
57 -6 60 -11 4 -5 57 -11 117 -12 61 -2 126 -6 145 -9 19 -2 91 -6 160 -8 147
-4 160 -6 160 -17 0 -4 8 -8 18 -8 14 0 15 2 2 10 -10 7 15 10 80 11 52 1 169
3 260 5 299 8 543 5 690 -6 188 -15 190 -15 190 -44 0 -26 16 -36 58 -36 15 0
34 -5 42 -11 12 -8 11 -9 -5 -5 -11 3 -27 1 -35 -5 -13 -9 -12 -10 3 -5 12 4
17 0 17 -14 0 -10 9 -22 20 -25 13 -4 20 -15 20 -30 0 -15 7 -26 20 -30 11 -4
20 -15 20 -26 0 -11 -4 -17 -10 -14 -5 3 -10 3 -10 0 0 -3 13 -11 29 -16 27
-10 30 -16 37 -67 4 -31 4 -145 0 -254 -5 -155 -4 -197 6 -201 10 -4 10 -8 -2
-16 -11 -8 -11 -11 -2 -11 7 0 12 -6 11 -12 -1 -7 -1 -273 0 -591 1 -383 4
-576 11 -572 6 3 10 2 10 -4 0 -5 -6 -12 -12 -14 -10 -4 -10 -6 0 -6 6 -1 12
-11 13 -23 0 -22 1 -22 9 -3 7 17 9 15 9 -12 1 -18 6 -33 11 -33 6 0 10 -7 10
-15 0 -8 -4 -15 -10 -15 -5 0 -10 -7 -10 -15 0 -8 4 -15 9 -15 4 0 8 -48 9
-107 0 -62 5 -109 11 -113 6 -3 19 -32 29 -65 17 -51 20 -55 24 -32 3 15 2 27
-2 27 -13 0 5 73 19 78 8 3 11 0 7 -7 -4 -6 0 -11 10 -11 15 0 15 2 2 23 -10
14 -12 31 -7 49 4 15 5 29 2 32 -9 8 -4 119 5 125 5 3 9 58 10 121 0 71 -3
107 -8 95 -6 -13 -9 11 -10 70 -2 50 -1 95 0 100 23 109 24 116 13 123 -10 7
-20 119 -27 335 -2 48 -6 90 -9 94 -3 3 -6 -3 -6 -13 -1 -38 -22 -198 -26
-203 -5 -5 -8 49 -5 87 1 12 -3 22 -9 22 -6 0 -11 11 -11 24 0 13 -6 27 -12
29 -10 4 -10 6 0 6 8 1 10 6 6 13 -9 14 -12 27 -19 85 -3 24 -5 46 -6 50 -4
22 2 90 9 100 4 6 23 14 44 18 30 6 37 4 41 -12 4 -16 5 -16 6 2 1 11 8 32 15
47 9 18 13 48 11 85 -2 32 -6 105 -10 163 -3 58 -10 116 -15 130 -12 35 -21
110 -12 110 4 0 8 73 9 163 3 192 11 270 28 304 8 14 11 32 8 41 -4 10 -2 13
5 8 14 -9 14 -9 3 32 -5 17 -6 32 -1 32 14 0 4 35 -11 35 -8 0 -19 3 -24 7
-14 9 -2289 10 -2298 2z m2264 -164 c5 0 9 -7 9 -15 0 -25 -27 -17 -32 10 -3
13 -2 27 1 31 3 3 7 -1 9 -10 2 -9 8 -16 13 -16z m-5 -62 c-3 -13 -5 -32 -6
-43 -2 -14 -4 -11 -9 10 -4 17 -3 36 2 43 14 18 17 15 13 -10z m-9 -120 c-3
-8 -6 -5 -6 6 -1 11 2 17 5 13 3 -3 4 -12 1 -19z m0 -350 c-2 -24 -4 -5 -4 42
0 47 2 66 4 43 2 -24 2 -62 0 -85z m3 -243 c-4 -23 -6 -18 -8 23 -2 32 -8 52
-15 52 -7 0 -6 4 3 10 12 8 16 3 20 -23 3 -17 3 -45 0 -62z m57 -897 c-3 -7
-5 -2 -5 12 0 14 2 19 5 13 2 -7 2 -19 0 -25z m-20 -70 c-3 -7 -5 -2 -5 12 0
14 2 19 5 13 2 -7 2 -19 0 -25z m-31 -324 c-15 -14 -16 -13 -16 6 0 12 5 18
10 15 6 -3 11 4 11 17 l2 23 4 -23 c2 -12 -3 -29 -11 -38z m42 -54 c-7 -11
-15 -15 -17 -9 -2 6 3 15 10 20 20 12 21 11 7 -11z"/>
<path d="M7510 10221 c0 -6 5 -13 10 -16 6 -3 10 1 10 9 0 9 -4 16 -10 16 -5
0 -10 -4 -10 -9z"/>
<path d="M7558 10219 c-9 -6 -4 -9 15 -9 24 0 27 -3 22 -20 -6 -18 -2 -19 50
-18 31 1 58 5 61 10 3 5 2 8 -3 7 -18 -4 -92 14 -88 21 7 11 -41 18 -57 9z"/>
<path d="M7630 10219 c0 -3 13 -6 30 -5 16 1 30 4 30 9 0 4 -13 6 -30 5 -16
-1 -30 -5 -30 -9z"/>
<path d="M20 10209 c0 -5 5 -7 10 -4 6 3 10 8 10 11 0 2 -4 4 -10 4 -5 0 -10
-5 -10 -11z"/>
<path d="M7440 10211 c0 -6 3 -10 8 -9 4 0 15 -2 25 -7 17 -7 36 0 26 9 -11
12 -59 17 -59 7z"/>
<path d="M7377 10198 c2 -5 13 -8 23 -8 10 0 21 3 23 8 3 4 -8 7 -23 7 -15 0
-26 -3 -23 -7z"/>
<path d="M7550 10191 c0 -5 9 -7 20 -4 11 3 20 7 20 9 0 2 -9 4 -20 4 -11 0
-20 -4 -20 -9z"/>
<path d="M21 9931 c0 -134 1 -242 3 -240 7 8 12 365 6 424 -4 35 -8 -42 -9
-184z"/>
<path d="M447 10079 c7 -7 15 -10 18 -7 3 3 -2 9 -12 12 -14 6 -15 5 -6 -5z"/>
<path d="M1833 10063 c9 -2 25 -2 35 0 9 3 1 5 -18 5 -19 0 -27 -2 -17 -5z"/>
<path d="M2368 10033 c7 -3 16 -2 19 1 4 3 -2 6 -13 5 -11 0 -14 -3 -6 -6z"/>
<path d="M2275 10000 c3 -5 13 -10 21 -10 8 0 14 5 14 10 0 6 -9 10 -21 10
-11 0 -17 -4 -14 -10z"/>
<path d="M2188 9953 c7 -3 16 -2 19 1 4 3 -2 6 -13 5 -11 0 -14 -3 -6 -6z"/>
<path d="M297 9931 c-4 -17 -3 -21 5 -13 5 5 8 16 6 23 -3 8 -7 3 -11 -10z"/>
<path d="M2161 9934 c0 -11 3 -14 6 -6 3 7 2 16 -1 19 -3 4 -6 -2 -5 -13z"/>
<path d="M5067 9885 c-34 -38 -68 -64 -115 -86 -37 -17 -74 -34 -82 -38 -22
-11 -58 -68 -70 -110 -5 -20 -10 -70 -10 -112 0 -67 4 -85 34 -145 l35 -68
-20 -25 c-47 -60 -294 -259 -439 -354 -175 -113 -685 -375 -765 -392 l-30 -7
23 19 c13 11 63 39 110 63 89 44 484 299 497 321 5 6 -12 0 -36 -15 -88 -55
-558 -283 -686 -333 -143 -57 -383 -132 -583 -183 -186 -48 -470 -126 -602
-167 l-118 -36 0 -1043 c0 -622 4 -1104 10 -1196 30 -431 118 -788 320 -1293
185 -464 439 -854 832 -1275 269 -289 518 -514 1033 -935 187 -153 352 -289
367 -303 l28 -26 0 -307 c0 -313 -7 -396 -44 -482 -21 -50 -74 -105 -133 -139
-48 -27 -52 -32 -41 -51 25 -48 132 -204 161 -234 28 -30 30 -36 28 -106 -3
-89 21 -159 87 -262 49 -76 142 -193 190 -239 l30 -28 39 42 c73 81 172 214
202 270 36 68 55 158 47 224 -5 46 -3 52 28 86 19 21 53 71 76 111 23 41 51
86 61 101 10 15 19 29 19 32 0 2 -23 19 -51 37 -58 37 -122 112 -138 161 -22
72 -31 203 -31 476 0 158 3 296 6 307 3 11 64 63 136 115 72 52 185 135 252
184 518 381 966 817 1298 1266 304 411 532 868 717 1433 97 295 205 812 241
1152 16 152 29 745 30 1372 l0 562 -32 9 c-18 5 -98 30 -178 55 -80 25 -246
68 -370 97 -596 137 -585 134 -813 245 -87 42 -163 75 -169 73 -5 -2 15 -20
46 -41 55 -37 73 -67 39 -67 -10 0 -74 27 -143 60 -69 33 -114 52 -101 41 16
-12 22 -24 18 -35 -5 -12 -2 -16 10 -14 10 2 18 -1 18 -7 0 -5 4 -16 9 -23 5
-8 -8 -5 -33 7 -23 12 -41 19 -41 16 0 -7 236 -125 473 -236 150 -71 206 -92
272 -104 120 -21 297 -67 478 -125 88 -28 218 -64 289 -81 l131 -31 -6 -737
c-4 -405 -11 -790 -17 -856 -15 -193 -75 -566 -131 -825 -81 -377 -123 -510
-284 -910 -207 -516 -387 -815 -736 -1219 -337 -391 -492 -539 -909 -864 -127
-99 -429 -316 -487 -351 -9 -5 -13 1 -13 22 0 26 16 41 163 145 174 125 451
341 637 497 141 119 352 335 570 584 91 104 196 223 234 265 176 192 371 576
602 1183 94 247 146 425 203 693 28 132 59 272 67 310 50 226 55 284 65 915 6
333 7 709 3 836 l-6 231 -157 51 c-322 106 -607 181 -746 197 -48 6 -96 26
-255 107 -107 56 -190 97 -185 91 14 -13 316 -180 351 -194 16 -6 52 -13 79
-15 77 -8 261 -57 543 -146 278 -87 332 -109 332 -136 4 -423 -3 -1358 -10
-1485 -23 -391 -139 -912 -315 -1403 -155 -435 -339 -846 -460 -1029 -61 -91
-379 -467 -583 -689 -138 -149 -280 -282 -449 -419 -209 -169 -660 -507 -677
-507 -3 0 -6 67 -6 148 l0 148 129 104 c494 402 723 608 914 819 139 154 366
429 419 508 80 117 321 744 456 1183 66 212 178 677 167 688 -2 3 -7 -7 -11
-22 -3 -14 -13 -26 -21 -26 -8 0 -11 5 -7 11 3 6 1 15 -5 19 -7 4 -15 22 -18
41 -3 19 -6 39 -7 44 -1 6 -5 15 -9 22 -4 6 -3 14 2 17 5 3 6 26 3 51 -3 30
-1 45 7 45 6 0 11 8 11 18 0 10 3 22 7 26 4 4 8 17 9 29 1 12 5 33 8 47 3 14
8 37 11 51 4 15 15 35 26 45 10 9 19 23 19 31 0 7 6 13 14 13 8 0 16 5 18 12
9 25 28 -5 28 -44 0 -23 2 -39 4 -37 14 14 38 594 39 948 l2 405 -30 17 c-31
18 -52 25 -420 124 -293 79 -375 113 -736 300 -214 111 -323 163 -335 158 -10
-4 -15 -2 -11 4 3 5 0 10 -8 10 -28 0 -15 -15 49 -57 45 -29 64 -47 63 -61 -2
-24 -5 -24 -77 5 -33 14 -58 20 -54 15 3 -6 -2 -10 -12 -8 -11 1 -32 -3 -49
-10 -16 -7 -38 -13 -47 -14 -10 -1 -18 -4 -18 -7 0 -3 -15 -7 -32 -8 -18 -1
-51 -4 -73 -6 -136 -16 -137 -16 -170 19 -34 37 -85 55 -85 30 0 -9 -9 -15
-21 -15 -19 0 -20 2 -8 17 12 15 12 16 -4 10 -10 -4 -28 -2 -39 4 -16 9 -19 8
-15 -3 2 -7 9 -12 15 -11 6 2 9 -3 6 -10 -3 -8 17 -34 43 -58 46 -43 55 -69
33 -92 -11 -12 -80 26 -118 65 -38 40 -52 97 -30 119 8 8 13 19 11 25 -3 10
15 139 33 234 l7 35 -23 -28 c-29 -36 -70 -164 -77 -242 -4 -49 -1 -71 16
-109 14 -33 16 -45 6 -36 -7 6 -22 31 -31 56 -27 72 -15 151 60 379 4 11 -7
-9 -24 -45 -36 -76 -90 -250 -90 -291 0 -16 -4 -29 -10 -29 -18 0 -10 -31 13
-50 26 -22 19 -32 -35 -49 -29 -10 -55 -10 -115 0 -148 23 -138 17 -135 85 3
48 -5 86 -44 209 -60 191 -96 321 -101 365 -5 39 9 69 97 213 30 49 56 84 58
77 2 -6 -21 -51 -52 -99 -66 -104 -89 -155 -83 -185 4 -21 4 -21 6 1 2 35 344
332 383 333 4 0 10 -10 14 -22 11 -37 70 -121 111 -159 33 -32 83 -57 83 -42
0 3 -29 36 -65 74 -75 80 -89 104 -126 219 -21 65 -32 85 -45 83 -9 -1 -47 -4
-84 -8 -52 -5 -69 -3 -78 8 -10 12 -6 15 28 21 22 3 40 10 40 14 0 14 -43 47
-93 73 -27 13 -64 41 -83 62 -29 31 -34 44 -34 85 0 29 6 56 16 68 14 18 15
18 3 -5 -27 -57 12 -154 72 -181 29 -12 151 -10 147 4 -2 4 -24 10 -50 12 -54
3 -103 26 -118 53 -25 48 6 136 52 145 25 5 70 13 133 22 48 7 108 -14 124
-44 10 -19 9 -19 -27 -7 -41 15 -86 10 -103 -11 -9 -11 -15 -10 -36 6 -62 49
-146 -8 -127 -86 12 -46 86 -73 113 -40 9 11 6 12 -14 8 -33 -6 -65 22 -65 58
0 29 27 60 52 60 19 0 48 -32 48 -54 0 -23 29 -78 49 -93 9 -7 33 -13 53 -13
77 0 117 41 119 122 0 33 2 38 9 23 14 -31 11 -83 -5 -115 -20 -39 -70 -67
-152 -86 l-70 -15 26 -30 c23 -27 31 -29 92 -29 65 0 67 -1 72 -27 3 -16 22
-50 43 -76 30 -39 39 -45 46 -33 5 9 22 23 39 31 l29 16 -40 50 c-22 28 -40
55 -40 60 0 5 14 35 32 65 27 49 31 66 32 133 1 118 -48 231 -102 231 -41 0
-123 52 -180 114 -28 31 -52 56 -54 55 -2 0 -25 -24 -51 -54z m108 -180 l30
-13 -27 -1 c-15 -1 -39 -6 -53 -13 -19 -9 -31 -8 -49 2 -14 7 -37 10 -53 6
-26 -6 -26 -5 7 14 41 22 102 25 145 5z m93 -111 c40 -27 22 -88 -28 -97 l-25
-4 27 -2 c18 -1 33 8 47 25 23 30 26 27 10 -9 -22 -48 -83 -60 -124 -24 -30
25 -38 84 -16 111 17 21 80 21 109 0z m-312 -347 c-19 -67 -74 -138 -158 -207
-65 -53 -140 -117 -193 -164 -27 -25 -28 -26 -5 -15 55 27 199 130 262 188 36
34 69 57 72 52 7 -10 -19 -43 -101 -134 -58 -63 -83 -105 -92 -152 -5 -25 -26
-43 -121 -107 -212 -142 -461 -272 -740 -385 -223 -91 -316 -131 -520 -223
-107 -49 -208 -92 -225 -95 l-30 -7 25 15 c14 7 24 19 22 25 -1 7 3 12 9 12 6
0 9 7 5 15 -3 8 -1 15 4 15 6 0 10 5 10 11 0 5 15 23 33 40 l32 30 -50 -16
c-27 -8 -122 -31 -210 -51 -88 -19 -216 -53 -285 -76 -130 -42 -294 -118 -272
-125 9 -4 12 -87 13 -371 1 -588 17 -1506 28 -1642 26 -305 62 -470 156 -725
203 -547 273 -714 363 -865 89 -149 238 -371 282 -420 17 -19 6 0 -25 44 -32
43 -64 95 -71 115 -8 20 -27 60 -41 89 -22 44 -25 57 -15 72 10 16 9 18 -3 14
-8 -4 -15 -1 -15 5 0 6 5 11 10 11 7 0 7 6 1 19 -6 10 -8 21 -5 24 3 3 -11 29
-30 59 -44 65 -109 227 -166 408 -24 74 -70 207 -103 295 -76 202 -121 348
-141 456 -16 88 -61 451 -71 579 -16 217 -24 738 -15 1025 9 311 20 528 26
522 2 -1 5 -223 8 -492 5 -514 19 -922 36 -1040 6 -38 19 -167 30 -285 24
-259 43 -342 154 -675 46 -137 100 -304 121 -369 58 -188 113 -322 161 -389
102 -146 155 -229 209 -332 32 -61 73 -129 92 -152 52 -65 839 -791 971 -896
37 -29 121 -92 187 -139 66 -47 140 -104 165 -126 44 -39 44 -40 48 -114 l4
-75 -91 88 c-49 48 -104 97 -121 109 l-31 22 25 -36 c13 -20 42 -58 65 -85 49
-58 53 -82 14 -79 -30 2 -378 273 -593 462 -275 240 -777 759 -919 949 -84
113 -183 272 -242 389 -40 79 -153 359 -169 419 -7 24 -43 121 -80 214 -113
281 -155 423 -195 659 -48 286 -50 349 -50 1370 l0 960 150 63 c174 73 277
106 505 163 96 24 202 58 255 81 85 39 231 101 448 191 54 22 96 42 95 44 -6
6 -345 -123 -578 -220 -47 -19 -140 -47 -208 -61 -207 -44 -358 -94 -632 -209
l-85 -35 0 -988 c0 -1078 -1 -1047 61 -1413 53 -310 86 -407 346 -1035 89
-214 232 -473 335 -607 102 -133 268 -313 528 -573 268 -268 459 -440 795
-714 286 -234 380 -316 380 -332 0 -25 -303 200 -595 443 -435 360 -867 797
-1106 1115 -201 269 -311 477 -501 958 -120 300 -158 420 -198 613 -81 399
-92 621 -86 1739 l4 846 74 28 c40 15 102 40 138 57 97 44 266 96 446 136 88
20 168 36 177 36 10 0 25 4 35 9 29 15 288 120 587 237 387 152 799 390 1045
606 77 67 108 107 125 162 4 14 9 16 16 9 8 -8 6 -27 -5 -66z m242 -2 c25 -8
13 -66 -19 -96 -41 -39 -68 -44 -135 -28 -69 17 -71 35 -3 31 l51 -4 -4 56 -3
56 50 -6 c28 -3 56 -7 63 -9z m-124 -200 c-25 -19 -40 -19 -24 0 7 8 20 15 28
15 13 0 12 -3 -4 -15z m-314 -322 c0 -18 -5 -23 -130 -107 -169 -114 -478
-274 -771 -400 -96 -41 -263 -115 -372 -165 -261 -119 -335 -145 -504 -175
-138 -25 -235 -54 -280 -84 l-23 -14 1 -577 c0 -317 4 -645 8 -729 l7 -153 54
-54 54 -54 2 -73 c3 -87 34 -304 74 -513 80 -416 119 -629 133 -720 20 -126
75 -306 127 -410 21 -44 64 -108 94 -142 35 -40 74 -103 109 -175 71 -145 117
-215 203 -309 93 -101 302 -301 520 -495 282 -251 309 -273 498 -415 218 -164
206 -154 206 -168 0 -15 -25 -2 -110 59 -36 26 -97 63 -135 83 -81 40 -199
126 -301 218 -189 171 -559 516 -645 600 -144 142 -190 203 -268 360 -48 95
-88 160 -122 197 -69 76 -110 162 -170 359 -28 92 -68 216 -90 275 -61 167
-195 662 -203 748 -3 41 -11 147 -16 234 -6 88 -16 166 -22 173 -10 13 -29 93
-22 93 2 0 17 -11 33 -25 26 -24 29 -34 35 -113 20 -268 39 -402 71 -517 19
-66 50 -182 70 -259 37 -143 84 -280 92 -272 3 3 -2 26 -11 53 -19 58 -52 219
-101 483 -19 107 -47 253 -61 323 -14 71 -28 167 -31 215 -6 82 -8 90 -44 136
-22 27 -43 65 -48 85 -22 82 -33 358 -36 903 -2 317 -6 582 -10 587 -6 11 107
72 179 97 21 8 102 26 178 39 155 28 201 45 479 173 107 49 268 122 359 162
361 159 760 366 885 458 42 31 55 32 55 5z m-250 -308 c0 -2 -10 -9 -22 -15
-22 -11 -22 -10 -4 4 21 17 26 19 26 11z m2900 -102 c36 -13 130 -46 208 -73
165 -55 192 -71 101 -58 -101 14 -187 44 -304 109 -60 33 -101 57 -90 54 11
-4 49 -18 85 -32z m-2561 -60 c-15 -41 -39 -69 -85 -103 -43 -31 -47 -32 -62
-15 -16 16 -15 18 8 33 45 30 119 104 126 126 7 21 7 21 14 1 4 -11 4 -30 -1
-42z m-79 7 c-6 -11 -13 -20 -16 -20 -2 0 0 9 6 20 6 11 13 20 16 20 2 0 0 -9
-6 -20z m570 -165 c25 -4 49 -11 54 -16 6 -5 -6 -31 -27 -64 -21 -30 -54 -92
-76 -138 -22 -48 -46 -87 -57 -91 -40 -15 -141 -17 -209 -2 -38 8 -60 15 -47
15 22 1 21 3 -17 79 -21 42 -60 105 -86 140 -47 63 -49 75 -10 85 29 7 421 1
475 -8z m-487 -187 c41 -65 68 -98 81 -98 13 0 16 -5 12 -17 -9 -21 14 -193
27 -210 7 -10 -5 -13 -54 -12 -61 1 -62 1 -27 11 43 11 42 9 6 153 -23 89 -48
144 -112 243 -58 92 -63 103 -27 62 17 -19 59 -79 94 -132z m797 107 c0 -8 -7
-15 -15 -15 -19 0 -169 -69 -163 -75 2 -3 21 3 41 13 23 11 65 19 112 21 84 3
99 -11 34 -30 -39 -12 -40 -13 -17 -25 13 -7 39 -38 58 -70 52 -86 81 -99 215
-99 61 0 125 4 144 9 26 6 32 5 29 -5 -9 -27 -81 -41 -215 -42 -122 -2 -133 0
-162 21 -17 12 -31 18 -31 13 0 -20 81 -52 143 -57 59 -6 191 7 233 22 18 7
18 7 1 -14 -16 -18 -81 -54 -157 -86 -28 -12 -140 -119 -140 -134 0 -5 32 22
71 60 39 38 73 67 76 65 2 -3 -21 -36 -51 -74 -67 -83 -114 -170 -152 -283
-15 -47 -30 -78 -31 -69 -2 9 5 40 17 69 11 29 19 55 16 57 -2 2 -16 -28 -31
-66 -29 -73 -43 -86 -52 -50 -4 15 -8 17 -13 8 -7 -10 -14 -10 -39 0 l-30 13
55 109 c75 151 138 246 198 301 l51 48 -60 -24 c-33 -13 -68 -26 -77 -29 -10
-4 -18 -15 -18 -26 0 -11 -12 -53 -27 -93 -33 -87 -42 -68 -18 34 31 126 -2
278 -69 319 -19 11 -25 19 -15 19 9 0 29 -9 45 -21 l29 -21 -28 26 c-39 36
-100 36 -142 0 l-30 -26 38 21 c48 26 56 26 90 -2 26 -21 55 -87 37 -87 -4 0
-3 -13 3 -30 7 -20 14 -25 19 -17 4 7 7 -1 6 -18 -1 -16 2 -59 6 -95 l7 -65
-29 76 c-34 92 -53 123 -90 146 -15 9 -29 18 -31 20 -3 2 8 17 24 33 34 35 22
38 -48 13 -72 -26 -104 -84 -108 -197 -2 -47 -3 -48 -32 -42 -16 3 -89 6 -162
6 l-133 0 0 43 c1 27 -9 61 -26 95 -15 30 -26 55 -24 55 2 1 60 1 131 -1 120
-3 127 -4 117 -22 -5 -10 -16 -46 -24 -79 l-14 -60 30 -6 c16 -4 31 -5 34 -2
2 2 11 41 19 86 19 109 42 156 109 221 42 40 78 63 143 91 97 41 123 46 123
24z m-1026 -54 c70 -33 168 -111 140 -111 -6 0 -15 5 -21 11 -6 6 -21 9 -34 7
-21 -3 -17 -7 31 -38 30 -19 58 -35 63 -36 4 -1 10 -2 14 -3 4 0 2 -6 -5 -13
-9 -9 -16 -8 -29 4 -27 23 -87 40 -117 32 -15 -3 -38 -21 -51 -38 -44 -57 -55
-108 -54 -240 1 -123 15 -123 18 1 0 34 6 84 12 112 16 77 83 170 106 148 3
-4 -9 -23 -26 -43 -18 -20 -30 -42 -27 -50 3 -8 1 -14 -4 -14 -14 0 -38 -93
-50 -197 -12 -105 -4 -152 40 -246 25 -54 26 -59 9 -67 -25 -14 -25 -15 -44
38 -10 26 -40 92 -68 147 -63 123 -138 203 -244 258 -40 21 -73 36 -73 34 0
-2 30 -24 68 -48 37 -23 97 -72 133 -108 54 -55 77 -88 129 -193 57 -114 69
-158 42 -158 -4 0 -34 54 -66 121 -50 104 -70 133 -141 207 -56 59 -108 102
-164 135 -69 41 -82 53 -91 85 -18 66 -14 72 30 47 16 -9 55 -14 105 -15 106
0 156 24 204 97 19 29 37 51 39 48 11 -10 -34 -97 -66 -128 -49 -46 -99 -61
-201 -60 -99 1 -89 -12 15 -20 120 -9 170 -40 261 -162 31 -41 44 -52 39 -35
-3 14 -6 36 -6 50 0 16 -3 21 -8 13 -6 -9 -23 2 -57 37 -45 46 -48 51 -32 63
16 11 13 13 -20 13 -21 1 -51 7 -68 14 l-30 14 25 3 c90 14 94 17 130 105 18
46 37 88 42 94 5 6 6 19 2 28 -5 12 0 16 17 17 l24 1 -24 7 c-14 4 -27 13 -29
20 -3 10 0 12 14 7 43 -18 48 -18 29 -3 -11 9 -26 17 -32 17 -19 0 -16 30 3
30 9 0 53 -17 98 -39z m167 -138 c13 -16 12 -17 -3 -4 -10 7 -18 15 -18 17 0
8 8 3 21 -13z m1944 -221 c-20 -61 -20 -61 18 -53 61 14 96 40 127 94 23 39
30 46 30 29 0 -31 -23 -83 -60 -136 l-30 -45 42 -13 c100 -30 176 -159 148
-251 -17 -58 -37 -84 -85 -112 -58 -35 -108 -33 -146 4 -32 32 -30 53 5 68 16
8 29 7 49 -3 35 -19 61 -3 81 47 39 96 -47 179 -187 179 -150 0 -405 -99 -584
-226 -61 -44 -75 -65 -51 -80 8 -5 9 -2 5 9 -7 20 13 23 31 5 6 -6 33 -15 59
-20 73 -13 76 -14 106 -26 78 -33 123 -56 129 -66 4 -6 11 -11 15 -12 22 -2
141 -68 183 -101 34 -27 107 -79 131 -95 50 -32 135 -127 163 -182 17 -34 29
-74 30 -100 1 -41 2 -43 21 -30 42 30 37 12 -10 -38 -28 -29 -40 -44 -27 -33
l23 19 -7 -29 c-10 -39 -33 -97 -47 -113 -8 -11 -12 -11 -19 0 -6 8 -8 -7 -4
-42 4 -49 3 -53 -9 -35 -39 55 -42 58 -92 62 -29 3 -59 0 -69 -6 -16 -10 -15
-10 9 -5 21 5 27 3 27 -11 0 -9 -4 -13 -10 -10 -5 3 -10 1 -10 -5 0 -13 -48
-60 -101 -100 -18 -14 -46 -38 -62 -55 -29 -30 -29 -30 -23 -5 3 15 -2 9 -14
-15 -21 -44 -45 -148 -55 -239 -5 -40 -10 -55 -16 -45 -5 8 -9 24 -9 35 0 40
-41 153 -64 181 -35 40 -86 37 -162 -10 -32 -20 -81 -44 -107 -53 -26 -9 -46
-18 -44 -20 2 -3 17 0 32 6 16 6 35 8 42 6 8 -3 11 -1 8 4 -3 6 -4 10 -1 10 3
0 10 -10 17 -21 7 -13 7 -19 1 -15 -6 4 -11 -2 -12 -11 -1 -43 -5 -63 -10 -63
-7 0 -8 -9 -11 -55 -1 -13 -5 -22 -10 -19 -5 3 -9 -13 -9 -35 0 -29 -4 -41
-14 -41 -9 0 -12 -7 -9 -20 3 -11 0 -20 -6 -20 -6 0 -11 -10 -11 -21 0 -32
-22 -99 -32 -99 -5 0 -6 -4 -3 -10 3 -5 2 -10 -2 -10 -11 0 -37 -86 -29 -98 3
-5 -1 -15 -9 -22 -8 -7 -13 -16 -10 -20 7 -11 -15 -80 -25 -80 -6 0 -10 -16
-10 -35 0 -19 -5 -35 -11 -35 -5 0 -8 -4 -4 -10 6 -9 -10 -44 -32 -68 -7 -7
-13 -31 -13 -53 0 -21 -4 -39 -9 -39 -5 0 -12 -18 -16 -40 -4 -22 -11 -40 -16
-40 -4 0 -6 -6 -3 -14 3 -8 1 -17 -5 -21 -6 -3 -11 -17 -11 -30 0 -12 -7 -26
-16 -29 -11 -4 -14 -13 -11 -27 4 -15 0 -23 -14 -26 -10 -3 -19 -10 -19 -15 0
-5 6 -6 13 -2 8 6 8 3 -2 -9 -7 -9 -11 -23 -7 -32 3 -8 0 -14 -7 -12 -7 1 -11
-6 -11 -15 1 -10 -2 -18 -8 -18 -5 0 -7 -4 -4 -8 3 -5 -4 -19 -15 -31 -11 -12
-17 -26 -14 -31 3 -6 3 -10 -2 -10 -4 0 -14 -15 -22 -32 -8 -18 -22 -43 -33
-54 -10 -12 -18 -25 -16 -30 1 -5 -3 -19 -10 -32 -7 -12 -10 -27 -7 -32 4 -6
1 -9 -6 -8 -7 2 -13 -2 -14 -9 0 -6 -3 -15 -7 -19 -5 -4 -8 -16 -8 -26 0 -10
-16 -34 -35 -52 -19 -19 -35 -41 -35 -50 0 -9 -7 -16 -16 -16 -14 0 -15 -2 -3
-17 10 -12 10 -15 1 -9 -8 5 -18 -4 -30 -24 -9 -17 -25 -41 -34 -52 -10 -11
-15 -25 -12 -29 3 -5 -2 -9 -10 -9 -9 0 -15 -3 -14 -7 0 -5 -2 -15 -5 -23 -4
-8 -8 -46 -10 -85 -8 -173 -6 330 3 700 24 1029 32 1605 27 1928 -1 21 5 42
12 46 8 6 15 47 20 122 6 79 9 97 11 59 1 -30 5 -46 7 -35 6 24 23 37 41 30 7
-3 10 0 7 5 -3 6 1 10 10 10 11 0 15 5 11 15 -4 13 -2 13 14 5 13 -7 21 -7 25
0 4 6 16 8 27 4 14 -4 18 -2 14 5 -4 7 1 11 13 11 12 0 21 -4 21 -10 0 -5 7
-10 15 -10 11 0 4 -15 -21 -50 -50 -69 -36 -63 17 8 53 71 154 187 236 272
l63 66 -49 69 c-42 60 -47 73 -38 92 6 13 16 23 22 23 7 0 44 -31 82 -69 l68
-70 55 36 c30 19 138 76 240 126 102 50 208 108 237 130 58 43 105 109 134
189 32 86 34 86 37 4 2 -52 -2 -94 -13 -124z m-3342 51 c35 -67 84 -96 262
-157 195 -66 341 -136 488 -235 l104 -69 12 31 c6 18 18 41 26 51 14 19 15 19
35 1 24 -22 25 -36 5 -75 -9 -17 -11 -30 -6 -30 6 0 8 -7 5 -15 -4 -10 17 -40
58 -83 35 -37 79 -87 97 -110 19 -23 38 -39 44 -35 6 3 7 2 4 -4 -4 -6 14 -37
39 -69 53 -68 74 -91 50 -52 -23 36 -4 45 28 13 14 -14 31 -25 38 -25 9 0 9 3
-2 10 -19 12 -8 13 24 0 23 -8 25 -7 29 23 2 18 5 -5 5 -50 1 -46 -2 -83 -7
-83 -5 0 -15 -2 -23 -5 -8 -3 -24 13 -41 40 -38 60 -44 57 -9 -5 l27 -50 48 6
47 7 0 -40 c0 -34 -6 -44 -45 -76 -25 -21 -50 -47 -56 -58 -6 -11 9 -1 33 23
l43 43 7 -975 c9 -1113 7 -1469 -6 -1425 -5 17 -20 45 -34 64 -14 19 -20 31
-12 26 9 -5 11 -4 6 3 -4 7 -14 12 -22 12 -8 0 -14 6 -14 14 0 7 -7 19 -15 26
-8 7 -15 21 -15 31 0 10 -6 22 -14 26 -7 4 -19 25 -25 46 -7 20 -19 44 -28 52
-8 8 -10 15 -4 15 6 0 11 5 11 11 0 5 -4 8 -9 4 -9 -5 -27 34 -22 44 2 2 -1 7
-6 10 -15 10 -53 95 -53 117 0 12 -3 24 -7 28 -4 3 -8 12 -9 19 -2 7 -10 32
-19 56 -9 25 -17 57 -18 73 -1 15 -8 30 -14 33 -7 2 -13 19 -13 37 0 31 -13
93 -27 128 -3 8 -7 31 -9 50 -2 19 -7 42 -10 50 -4 8 -8 28 -9 44 -2 16 -7 31
-13 35 -5 3 -12 22 -15 41 -9 60 -18 95 -28 104 -5 6 -9 24 -9 41 0 18 -3 35
-7 38 -3 4 -7 17 -8 30 -3 44 -39 207 -45 207 -4 0 -7 6 -8 13 0 6 -4 46 -7
87 -3 41 -7 83 -9 92 -2 9 1 19 8 22 6 2 0 5 -14 6 -14 1 -19 4 -12 7 17 7 15
32 -3 39 -8 4 -12 10 -9 15 3 5 9 7 14 4 12 -8 6 23 -8 37 -7 7 -12 18 -12 26
0 7 -4 10 -10 7 -5 -3 -10 0 -10 7 0 15 -75 88 -90 88 -6 0 -10 5 -10 10 0 6
-18 19 -40 29 -22 10 -37 21 -33 24 3 4 -1 7 -10 7 -10 0 -17 8 -17 20 0 11
-4 20 -8 20 -13 0 3 -102 20 -135 34 -62 116 -126 218 -169 8 -3 -6 -4 -33 -2
-28 2 -80 20 -131 44 -73 36 -88 40 -116 32 -18 -5 -41 -17 -51 -26 -18 -16
-51 -105 -64 -172 -4 -18 -9 -32 -11 -30 -2 2 -8 36 -13 74 -16 111 -48 197
-102 279 -65 97 -124 139 -194 140 -47 0 -51 -2 -64 -32 -20 -46 -27 -41 -23
16 5 60 -14 99 -76 164 -26 26 -41 47 -35 47 7 0 15 -5 18 -10 10 -16 96 -57
135 -64 l35 -6 -29 14 c-19 9 -24 15 -15 18 11 4 12 9 2 29 -15 29 -7 66 29
134 27 52 115 159 152 185 12 8 34 27 50 42 16 16 33 28 37 28 5 0 9 8 9 18 0
13 2 14 9 3 7 -11 10 -9 15 7 4 12 17 24 29 28 12 4 24 9 27 13 12 15 71 51
116 70 86 38 113 55 107 64 -3 6 -1 7 6 3 11 -7 63 29 70 49 2 6 7 9 12 8 5
-2 9 1 9 6 0 22 30 17 60 -10 17 -16 30 -24 28 -17 -9 27 -159 131 -278 192
-150 77 -267 115 -375 123 -95 6 -154 -7 -197 -46 -26 -24 -31 -35 -31 -74 0
-83 55 -132 112 -99 28 16 31 16 50 -2 28 -25 26 -47 -5 -77 -50 -47 -158 -21
-218 54 -24 29 -31 50 -34 97 -7 100 47 181 145 215 43 15 43 18 14 97 -14 39
-21 79 -20 125 l1 68 13 -41 c7 -22 20 -54 28 -71z m1959 -109 c74 -23 -112
-31 -377 -15 -109 6 -109 7 -50 14 33 5 67 9 75 11 29 4 334 -4 352 -10z m77
-56 c70 -22 0 -28 -314 -27 -337 1 -365 8 -145 34 127 15 401 11 459 -7z m-29
-87 c78 -27 86 -34 66 -54 -15 -14 -21 -14 -74 4 -63 22 -218 38 -192 20 8 -6
30 -11 49 -11 31 0 171 -36 171 -44 0 -2 -145 -4 -321 -5 -177 0 -320 2 -317
4 2 2 60 11 128 20 162 20 178 24 159 36 -19 12 -182 12 -174 0 3 -5 1 -12 -4
-16 -13 -7 -35 35 -24 45 18 18 136 29 298 26 146 -2 179 -6 235 -25z m-42
-120 c26 -7 26 -8 -13 -16 -37 -7 -38 -9 -15 -15 23 -7 22 -8 -10 -9 -47 -2
-20 -21 30 -21 18 0 30 -3 25 -7 -6 -5 -119 -7 -252 -5 -229 3 -243 4 -243 22
0 24 64 43 215 64 40 5 229 -4 263 -13z m-220 -1181 c2 -564 -2 -1286 -8
-1605 -6 -319 -14 -1112 -17 -1762 l-6 -1183 30 0 31 0 7 478 c5 268 2 1282
-5 2317 -6 1012 -9 2050 -5 2308 l8 468 36 -3 36 -3 -1 -1110 c-1 -1003 -15
-2691 -33 -3990 -4 -269 -6 -492 -4 -494 12 -17 15 74 24 600 5 327 14 794 19
1039 18 784 30 1586 44 2778 8 640 16 1166 20 1169 3 4 9 4 12 1 6 -7 -20
-2146 -36 -2958 -11 -592 -27 -1550 -36 -2158 -5 -385 -9 -465 -21 -478 -8 -7
-10 -14 -4 -14 19 0 12 -17 -9 -23 -22 -6 -18 -37 5 -37 8 0 16 -20 20 -52 8
-58 52 -161 85 -195 11 -13 40 -33 63 -45 l42 -23 -32 -3 c-18 -2 -41 2 -52 7
-34 19 -62 12 -103 -25 -96 -86 -207 -85 -291 4 -23 24 -25 31 -14 40 11 9 19
6 40 -17 38 -43 121 -60 180 -37 24 9 54 28 67 41 l24 25 -22 68 c-12 37 -22
77 -22 90 0 21 -4 22 -87 23 l-88 1 62 12 c73 15 91 26 41 26 -19 0 -76 3
-126 6 l-92 7 0 -29 c0 -42 -45 -133 -87 -176 -20 -21 -35 -39 -32 -41 2 -2
38 -24 81 -50 143 -88 207 -98 309 -47 35 18 79 44 97 57 21 16 39 22 53 18
11 -4 19 -10 17 -15 -5 -13 -193 -149 -222 -160 -18 -7 -33 -7 -44 0 -9 5 -12
10 -7 10 6 0 -26 18 -70 40 -44 22 -104 58 -133 80 -29 22 -55 40 -58 40 -3 0
4 -14 16 -30 24 -33 98 -86 203 -144 l67 -38 46 22 c25 13 79 53 120 91 54 50
81 69 101 69 27 0 27 0 -17 -46 -58 -59 -155 -128 -203 -143 -46 -15 -84 -8
-128 25 -19 14 -56 37 -84 51 -27 14 -78 53 -113 86 -45 44 -65 58 -71 49 -6
-10 -10 -10 -19 1 -9 10 -1 24 39 63 88 85 130 206 98 278 -9 20 -9 29 1 41
13 15 13 19 -5 2220 -3 347 -10 862 -15 1145 -12 601 -9 2163 3 2050 5 -41 9
-473 11 -960 1 -487 6 -946 10 -1020 24 -448 54 -3394 35 -3416 -13 -16 -2
-96 15 -106 21 -15 133 -9 146 7 11 13 8 15 -16 16 l-29 1 35 16 35 17 -40 3
-40 4 35 18 35 19 -60 1 c-33 1 -69 6 -80 11 -15 7 -11 8 19 5 21 -3 51 -2 67
1 l29 6 0 791 c0 435 -7 1106 -15 1491 -15 720 -21 3296 -8 3309 4 4 25 6 48
4 l40 -3 3 -1025z m-190 -582 c-1 -865 -5 -1433 -9 -1263 -3 171 -5 693 -3
1160 2 468 4 1036 4 1263 0 226 2 412 5 412 3 0 4 -708 3 -1572z m535 1554
c-6 -4 -13 -30 -16 -57 l-3 -50 -2 58 c-2 48 1 57 16 57 11 0 13 -3 5 -8z
m-763 -9 c0 -5 -12 -9 -27 -10 -19 -1 -22 1 -12 8 17 11 39 12 39 2z m1033
-28 c-7 -21 -56 -45 -85 -44 -20 1 -20 2 -3 6 40 9 74 25 79 39 3 8 8 14 10
14 3 0 3 -7 -1 -15z m-1133 -5 c-8 -5 -19 -10 -25 -10 -5 0 -3 5 5 10 8 5 20
10 25 10 6 0 3 -5 -5 -10z m-53 -22 c-16 -10 -75 -10 -80 0 -3 4 17 7 43 7 27
0 43 -3 37 -7z m1063 2 c8 -5 11 -10 5 -10 -5 0 -17 5 -25 10 -8 5 -10 10 -5
10 6 0 17 -5 25 -10z m-903 -102 c-2 -18 -4 -6 -4 27 0 33 2 48 4 33 2 -15 2
-42 0 -60z m-154 -23 c-3 -9 -8 -14 -10 -11 -3 3 -2 9 2 15 9 16 15 13 8 -4z
m20 -35 c3 -11 1 -18 -4 -14 -5 3 -9 12 -9 20 0 20 7 17 13 -6z m1768 -857
c13 -16 12 -17 -3 -4 -10 7 -18 15 -18 17 0 8 8 3 21 -13z m-691 -1463 c0 -5
-5 -10 -11 -10 -5 0 -7 5 -4 10 3 6 8 10 11 10 2 0 4 -4 4 -10z m-1009 -2007
c13 -16 12 -17 -3 -4 -17 13 -22 21 -14 21 2 0 10 -8 17 -17z m529 -1242 c0
-16 5 -53 12 -81 11 -47 10 -52 -9 -72 -14 -13 -39 -22 -70 -25 l-49 -5 4 93
c2 52 6 96 8 98 4 5 65 19 87 20 12 1 17 -7 17 -28z m-269 -167 c12 -14 11
-16 -5 -13 -11 2 -21 10 -24 17 -5 17 13 15 29 -4z m275 -306 c29 -18 54 -36
54 -40 0 -4 -19 -18 -42 -30 -30 -15 -38 -23 -26 -26 9 -2 26 2 37 7 29 16 32
14 19 -14 -9 -20 -21 -26 -62 -32 -46 -6 -48 -7 -23 -14 16 -4 36 -5 44 -2 11
4 14 1 11 -13 -3 -15 -10 -18 -33 -16 -23 3 -34 -2 -52 -24 l-22 -28 -21 26
c-11 15 -29 30 -40 33 -31 10 -24 27 10 23 44 -4 39 14 -11 38 -43 21 -129 40
-129 29 0 -18 54 -108 77 -130 31 -28 65 -36 43 -10 -16 20 0 19 28 -1 13 -9
22 -25 22 -42 0 -15 -4 -22 -8 -16 -4 6 -23 16 -42 23 -58 19 -130 121 -144
206 l-7 40 25 -30 c23 -29 27 -30 103 -29 63 1 79 4 81 17 3 13 -3 15 -32 10
-35 -5 -35 -5 -33 26 2 27 6 32 37 37 19 3 40 7 45 9 24 8 40 3 91 -27z m-21
-228 c-19 -36 -35 -46 -45 -29 -12 18 26 70 45 63 13 -5 13 -10 0 -34z m-69
-88 c-12 -12 -18 8 -10 35 l8 28 4 -28 c2 -16 1 -31 -2 -35z"/>
<path d="M5196 9564 c-4 -15 -5 -28 -3 -31 3 -2 8 8 11 22 5 18 12 25 21 21 8
-3 15 -1 15 4 0 23 -38 9 -44 -16z"/>
<path d="M3159 4185 c5 -11 17 -29 26 -40 l16 -20 -10 20 c-5 11 -17 29 -26
40 l-16 20 10 -20z"/>
<path d="M3200 4113 c0 -11 69 -130 70 -120 0 11 -59 127 -65 127 -3 0 -5 -3
-5 -7z"/>
<path d="M5291 8064 c-24 -17 -66 -17 -308 2 -111 9 -123 3 -86 -39 15 -17 55
-74 88 -125 44 -69 64 -92 81 -92 20 0 21 2 9 43 -15 51 -34 131 -32 133 5 4
161 -22 160 -26 -4 -22 -26 -99 -33 -117 -20 -49 10 -19 55 53 26 42 67 96 91
121 24 25 44 49 44 54 0 15 -44 10 -69 -7z m-101 -40 c0 -8 5 -14 10 -14 6 0
10 7 10 15 0 8 9 15 20 15 20 0 20 0 -2 -30 -12 -16 -24 -30 -27 -30 -3 0 -57
12 -120 27 -128 31 -121 40 25 35 65 -3 84 -7 84 -18z"/>
<path d="M5483 7913 c-27 -5 -71 -59 -106 -129 -25 -50 -53 -171 -45 -196 3
-7 10 21 16 61 18 108 64 191 135 242 22 16 36 28 31 28 -5 -1 -19 -4 -31 -6z"/>
<path d="M5010 7724 c0 -6 14 -23 30 -39 17 -16 30 -24 30 -19 0 6 -13 23 -30
39 -16 16 -30 24 -30 19z"/>
<path d="M5690 7650 l0 -29 47 16 c26 9 43 18 38 19 -88 24 -85 25 -85 -6z"/>
<path d="M5060 7631 c0 -17 29 -33 52 -28 20 4 20 4 -4 6 -18 0 -28 7 -28 16
0 8 -4 15 -10 15 -5 0 -10 -4 -10 -9z"/>
<path d="M5689 7390 c-23 -39 -39 -73 -36 -76 3 -3 18 18 33 48 15 29 33 63
42 76 8 12 12 22 9 22 -4 0 -25 -32 -48 -70z"/>
<path d="M4590 7925 c7 -8 22 -15 34 -15 18 0 17 2 -8 15 -36 19 -42 19 -26 0z"/>
<path d="M4522 7773 c-19 -66 -25 -120 -13 -139 9 -16 10 -12 11 23 0 23 5 65
11 93 13 61 7 76 -9 23z"/>
<path d="M6040 7101 c0 -5 5 -13 10 -16 6 -3 10 -2 10 4 0 5 -4 13 -10 16 -5
3 -10 2 -10 -4z"/>
<path d="M5904 6987 c-33 -34 -79 -87 -103 -117 -38 -48 -36 -47 18 12 44 47
66 65 80 61 19 -5 101 14 101 24 0 17 -24 83 -30 83 -4 0 -34 -28 -66 -63z"/>
<path d="M5518 6673 c7 -3 16 -2 19 1 4 3 -2 6 -13 5 -11 0 -14 -3 -6 -6z"/>
<path d="M5440 6597 c0 -1 21 -20 48 -42 43 -35 45 -36 17 -6 -26 29 -65 58
-65 48z"/>
<path d="M6550 6130 c-6 -11 -8 -20 -6 -20 3 0 10 9 16 20 6 11 8 20 6 20 -3
0 -10 -9 -16 -20z"/>
<path d="M6410 6120 c-6 -11 -16 -17 -22 -14 -7 4 -8 3 -4 -5 4 -6 12 -9 17
-6 11 7 32 45 25 45 -3 0 -10 -9 -16 -20z"/>
<path d="M6193 6043 c-10 -14 -44 -44 -77 -65 -32 -21 -55 -38 -50 -38 19 0
113 70 134 100 12 16 19 30 16 30 -3 0 -13 -12 -23 -27z"/>
<path d="M4156 7033 c-6 -14 -5 -15 5 -6 7 7 10 15 7 18 -3 3 -9 -2 -12 -12z"/>
<path d="M4257 7023 c-11 -10 -8 -35 3 -28 6 3 38 -20 72 -52 l62 -58 -63 73
c-69 78 -65 75 -74 65z"/>
<path d="M4241 6964 c0 -11 3 -14 6 -6 3 7 2 16 -1 19 -3 4 -6 -2 -5 -13z"/>
<path d="M4434 6827 c21 -26 40 -47 43 -47 7 0 -56 78 -70 87 -6 4 6 -14 27
-40z"/>
<path d="M4495 6746 c10 -14 19 -26 22 -26 7 0 -17 39 -28 46 -6 3 -3 -5 6
-20z"/>
<path d="M3559 6394 c-5 -18 0 -25 30 -38 29 -13 32 -14 17 -1 -11 8 -23 15
-27 15 -4 0 -9 10 -11 23 -3 22 -3 22 -9 1z"/>
<path d="M3630 6336 c0 -2 8 -10 18 -17 15 -13 16 -12 3 4 -13 16 -21 21 -21
13z"/>
<path d="M3711 6263 c24 -29 58 -78 76 -110 25 -44 34 -53 39 -40 10 28 -4 64
-28 71 -13 3 -33 21 -46 39 -12 18 -36 47 -54 63 -21 20 -17 12 13 -23z"/>
<path d="M3952 6280 c0 -14 2 -19 5 -12 2 6 2 18 0 25 -3 6 -5 1 -5 -13z"/>
<path d="M5123 1513 c9 -2 23 -2 30 0 6 3 -1 5 -18 5 -16 0 -22 -2 -12 -5z"/>
<path d="M5208 763 c6 -2 18 -2 25 0 6 3 1 5 -13 5 -14 0 -19 -2 -12 -5z"/>
<path d="M2011 9913 c1 -4 1 -17 -1 -28 l-1 -20 -9 20 c-8 18 -9 18 -9 2 -1
-22 18 -41 42 -43 12 -1 17 6 17 23 0 19 -4 24 -16 19 -12 -4 -15 -2 -11 9 4
8 2 17 -4 20 -5 4 -9 3 -8 -2z"/>
<path d="M106 9892 c-2 -4 -1 -14 5 -22 7 -12 9 -10 9 8 0 23 -5 28 -14 14z"/>
<path d="M62 9815 c0 -16 2 -22 5 -12 2 9 2 23 0 30 -3 6 -5 -1 -5 -18z"/>
<path d="M8450 9824 c0 -8 5 -12 10 -9 6 3 10 10 10 16 0 5 -4 9 -10 9 -5 0
-10 -7 -10 -16z"/>
<path d="M1970 9820 c-9 -6 -10 -10 -3 -10 6 0 15 5 18 10 8 12 4 12 -15 0z"/>
<path d="M252 9798 c-14 -14 -15 -37 -3 -57 6 -9 10 0 13 28 2 22 3 41 3 41
-1 0 -6 -5 -13 -12z"/>
<path d="M1921 9784 c0 -11 3 -14 6 -6 3 7 2 16 -1 19 -3 4 -6 -2 -5 -13z"/>
<path d="M1901 9764 c0 -11 3 -14 6 -6 3 7 2 16 -1 19 -3 4 -6 -2 -5 -13z"/>
<path d="M1853 9724 c-19 -20 -16 -38 3 -20 8 9 14 20 12 25 -2 5 -9 3 -15 -5z"/>
<path d="M91 9664 c0 -11 3 -14 6 -6 3 7 2 16 -1 19 -3 4 -6 -2 -5 -13z"/>
<path d="M162 9645 c0 -16 2 -22 5 -12 2 9 2 23 0 30 -3 6 -5 -1 -5 -18z"/>
<path d="M213 9649 c-7 -7 -13 -20 -13 -28 0 -14 1 -14 10 -1 8 12 10 9 10
-12 0 -21 -4 -26 -16 -21 -14 5 -16 1 -12 -28 3 -20 0 -46 -8 -61 -10 -20 -11
-28 -3 -28 8 0 8 -4 -1 -15 -7 -9 -14 -25 -16 -38 -2 -12 -6 -35 -9 -50 -3
-15 -2 -33 2 -40 7 -11 14 17 26 98 2 11 8 19 15 18 14 -3 15 6 3 26 -9 14 4
48 22 62 4 3 7 34 5 68 -2 50 -5 60 -15 50z"/>
<path d="M23 9555 c0 -22 2 -30 4 -17 2 12 2 30 0 40 -3 9 -5 -1 -4 -23z"/>
<path d="M61 9564 c0 -11 3 -14 6 -6 3 7 2 16 -1 19 -3 4 -6 -2 -5 -13z"/>
<path d="M92 9560 c0 -14 2 -19 5 -12 2 6 2 18 0 25 -3 6 -5 1 -5 -13z"/>
<path d="M92 9500 c0 -14 2 -19 5 -12 2 6 2 18 0 25 -3 6 -5 1 -5 -13z"/>
<path d="M23 9435 c0 -44 2 -61 4 -37 2 23 2 59 0 80 -2 20 -4 1 -4 -43z"/>
<path d="M8772 9470 c0 -14 2 -19 5 -12 2 6 2 18 0 25 -3 6 -5 1 -5 -13z"/>
<path d="M8812 9420 c0 -14 2 -19 5 -12 2 6 2 18 0 25 -3 6 -5 1 -5 -13z"/>
<path d="M5175 9420 c-3 -6 1 -7 9 -4 18 7 21 14 7 14 -6 0 -13 -4 -16 -10z"/>
<path d="M8866 9423 c-3 -3 -1 -12 6 -20 8 -11 7 -12 -6 -7 -11 4 -16 1 -16
-11 0 -9 4 -14 9 -11 9 6 26 -22 23 -36 -1 -5 4 -8 12 -8 24 0 24 45 0 73 -12
14 -25 23 -28 20z m39 -43 c3 -5 1 -10 -4 -10 -6 0 -11 5 -11 10 0 6 2 10 4
10 3 0 8 -4 11 -10z"/>
<path d="M5098 9403 c7 -3 16 -2 19 1 4 3 -2 6 -13 5 -11 0 -14 -3 -6 -6z"/>
<path d="M24 9255 c0 -55 1 -76 3 -47 2 29 2 74 0 100 -2 26 -3 2 -3 -53z"/>
<path d="M8948 9308 c2 -10 8 -15 13 -12 14 8 11 31 -5 31 -8 0 -11 -8 -8 -19z"/>
<path d="M91 9304 c0 -11 3 -14 6 -6 3 7 2 16 -1 19 -3 4 -6 -2 -5 -13z"/>
<path d="M5282 9253 c3 -27 13 -66 23 -88 20 -40 89 -115 108 -115 5 0 -2 10
-17 21 -52 41 -117 177 -102 215 3 8 0 14 -6 14 -7 0 -9 -17 -6 -47z"/>
<path d="M81 9184 c0 -11 3 -14 6 -6 3 7 2 16 -1 19 -3 4 -6 -2 -5 -13z"/>
<path d="M23 9070 c0 -47 2 -66 4 -42 2 23 2 61 0 85 -2 23 -4 4 -4 -43z"/>
<path d="M5230 9075 c7 -9 15 -13 17 -11 7 7 -7 26 -19 26 -6 0 -6 -6 2 -15z"/>
<path d="M5150 9039 c-93 -57 -242 -186 -266 -231 -22 -42 -18 -68 35 -231 27
-84 52 -165 55 -180 l7 -29 62 8 c34 4 87 6 118 5 l57 -1 37 102 c20 57 52
142 71 191 37 94 43 164 20 206 -14 25 -147 179 -156 180 -3 1 -21 -9 -40 -20z
m62 -95 c29 -25 58 -52 63 -58 6 -7 17 -15 27 -18 32 -13 31 -63 -2 -181 -18
-61 -36 -116 -41 -121 -5 -6 -9 -20 -9 -32 0 -27 -21 -45 -62 -53 -26 -5 -33
-12 -33 -30 0 -14 -11 -32 -27 -44 -26 -19 -27 -19 -59 -1 -44 26 -58 69 -31
96 23 24 46 15 37 -13 -7 -20 9 -49 26 -49 5 0 9 12 9 28 0 20 8 32 31 44 17
10 27 23 24 29 -5 7 -13 5 -24 -5 -34 -31 -71 -13 -71 35 0 15 5 31 11 35 7 4
2 15 -15 31 -31 29 -34 68 -6 83 13 7 20 21 20 40 0 17 4 30 9 30 5 0 11 11
14 25 3 18 -1 29 -14 36 -11 5 -19 15 -19 21 0 6 -7 20 -17 30 -14 16 -14 18
0 18 9 0 18 8 21 18 6 18 52 51 73 52 7 0 36 -21 65 -46z m-148 -129 c8 -30 1
-45 -20 -45 -19 0 -35 41 -22 58 17 20 35 14 42 -13z m-75 -77 c10 -25 -1 -44
-18 -34 -14 9 -14 56 -1 56 6 0 15 -10 19 -22z m44 -132 c10 -25 -18 -38 -37
-18 -9 10 -13 22 -9 25 12 12 41 7 46 -7z"/>
<path d="M5134 8924 c3 -9 6 -29 6 -45 0 -27 1 -28 25 -17 30 13 32 38 7 61
-24 22 -46 22 -38 1z"/>
<path d="M5258 8833 c7 -3 16 -2 19 1 4 3 -2 6 -13 5 -11 0 -14 -3 -6 -6z"/>
<path d="M5140 8813 c0 -11 38 -49 43 -42 2 2 -7 15 -20 28 -13 13 -23 20 -23
14z"/>
<path d="M5204 8749 c-3 -6 -1 -16 5 -22 8 -8 11 -5 11 11 0 24 -5 28 -16 11z"/>
<path d="M5144 8718 l-19 -23 23 19 c12 11 22 21 22 23 0 8 -8 2 -26 -19z"/>
<path d="M5144 8656 c4 -12 2 -23 -6 -28 -8 -5 -3 -7 14 -6 29 2 30 -1 -11 48
-2 3 -1 -4 3 -14z"/>
<path d="M5235 8600 c3 -5 8 -10 11 -10 2 0 4 5 4 10 0 6 -5 10 -11 10 -5 0
-7 -4 -4 -10z"/>
<path d="M6095 8806 c22 -20 44 -36 48 -36 7 0 91 -36 110 -47 4 -2 7 -2 7 1
0 2 -30 21 -67 41 -38 21 -84 46 -103 57 l-35 20 40 -36z"/>
<path d="M10192 8560 c0 -14 2 -19 5 -12 2 6 2 18 0 25 -3 6 -5 1 -5 -13z"/>
<path d="M6087 8424 c3 -8 8 -12 11 -10 3 3 10 -1 16 -8 17 -22 551 -300 651
-339 124 -49 234 -80 437 -122 202 -42 248 -56 345 -102 69 -34 72 -36 82 -81
13 -55 28 -370 37 -762 l7 -275 25 -21 c14 -12 33 -44 42 -75 17 -53 18 -39
24 536 4 325 9 623 11 663 5 88 10 83 -160 142 -97 33 -418 119 -447 120 -4 0
-4 -10 1 -23 5 -14 5 -30 0 -40 -11 -19 6 -30 59 -42 18 -4 31 -9 28 -12 -9
-9 -338 78 -451 119 -60 22 -248 110 -417 194 -172 86 -305 147 -301 138z"/>
<path d="M4970 8335 c0 -2 4 -15 10 -30 l10 -26 107 3 c103 3 108 4 111 26 3
17 -2 22 -18 22 -16 0 -20 -4 -16 -15 6 -17 -37 -19 -134 -5 l-55 7 69 2 c38
0 67 3 65 5 -6 5 -149 16 -149 11z"/>
<path d="M5012 8222 c4 -19 46 -28 87 -16 l26 7 -25 7 c-71 20 -92 20 -88 2z"/>
<path d="M5170 8210 c20 -13 33 -13 25 0 -3 6 -14 10 -23 10 -15 0 -15 -2 -2
-10z"/>
<path d="M10212 8080 c0 -14 2 -19 5 -12 2 6 2 18 0 25 -3 6 -5 1 -5 -13z"/>
<path d="M22 8020 c0 -14 2 -19 5 -12 2 6 2 18 0 25 -3 6 -5 1 -5 -13z"/>
<path d="M20 7795 c0 -109 3 -196 6 -192 7 7 6 378 -1 385 -3 3 -5 -84 -5
-193z"/>
<path d="M143 7725 c0 -27 2 -38 4 -22 2 15 2 37 0 50 -2 12 -4 0 -4 -28z"/>
<path d="M7594 7751 c-11 -12 -10 -476 3 -891 l8 -245 6 325 c7 403 -2 826
-17 811z"/>
<path d="M7394 6216 c-10 -8 -17 -16 -14 -19 3 -2 14 4 24 14 23 22 18 25 -10
5z"/>
<path d="M7455 5863 c-9 -43 -21 -86 -26 -95 -5 -10 -29 -96 -54 -192 -46
-179 -130 -441 -215 -671 -26 -71 -78 -218 -114 -325 -66 -194 -179 -445 -233
-517 -119 -160 -479 -569 -613 -696 -90 -86 -331 -294 -624 -538 -147 -122
-183 -156 -175 -163 13 -12 632 508 808 679 125 122 382 403 516 565 127 154
155 206 298 550 236 570 357 944 433 1344 27 142 26 184 -1 59z"/>
<path d="M7641 5738 c-2 -28 -46 -64 -94 -76 -50 -13 -61 -24 -71 -67 -18 -78
-135 -458 -188 -613 -33 -96 -57 -176 -54 -179 3 -4 6 1 6 10 0 9 5 19 12 23
7 4 8 3 4 -4 -4 -6 4 -22 16 -34 13 -13 23 -26 23 -30 0 -3 3 -9 6 -13 4 -3
-2 -29 -13 -57 -10 -28 -17 -52 -15 -54 4 -4 23 40 109 251 100 244 278 814
265 848 -3 7 -6 5 -6 -5z m-330 -971 c-10 -9 -11 -8 -5 6 3 10 9 15 12 12 3
-3 0 -11 -7 -18z"/>
<path d="M85 4489 c-4 -6 -5 -12 -2 -15 2 -3 7 2 10 11 7 17 1 20 -8 4z"/>
<path d="M181 4264 c0 -11 3 -14 6 -6 3 7 2 16 -1 19 -3 4 -6 -2 -5 -13z"/>
<path d="M164 4212 c2 -21 21 -19 23 3 l3 20 -9 -20 c-6 -16 -9 -17 -13 -5 -3
8 -4 9 -4 2z"/>
<path d="M10135 4061 c-3 -5 -1 -12 5 -16 5 -3 10 1 10 9 0 18 -6 21 -15 7z"/>
<path d="M272 4040 c0 -14 2 -19 5 -12 2 6 2 18 0 25 -3 6 -5 1 -5 -13z"/>
<path d="M141 4010 c0 -8 4 -22 9 -30 12 -18 12 -2 0 25 -6 13 -9 15 -9 5z"/>
<path d="M10174 3962 c-8 -7 -14 -15 -14 -17 0 -6 60 16 64 24 8 13 -37 7 -50
-7z"/>
<path d="M10145 3920 c-3 -5 -1 -10 4 -10 6 0 11 5 11 10 0 6 -2 10 -4 10 -3
0 -8 -4 -11 -10z"/>
<path d="M98 3891 c-5 -18 -8 -51 -8 -73 0 -25 -5 -41 -15 -44 -8 -4 -16 -18
-16 -33 -1 -19 -3 -16 -9 14 -4 22 -5 46 -3 55 4 13 4 13 -5 0 -8 -11 -12 1
-15 45 -2 33 -4 -125 -5 -352 -1 -226 1 -414 5 -416 5 -3 7 140 6 316 -1 194
1 313 7 301 11 -28 30 -40 30 -19 0 9 -5 13 -10 10 -6 -3 -10 -2 -10 4 0 5 5
11 10 13 6 2 12 13 13 26 0 12 5 22 9 22 4 0 4 -33 1 -72 -5 -75 3 -92 12 -23
2 21 8 41 12 44 5 3 6 53 3 111 -4 79 -7 97 -12 71z m-61 -143 c-3 -8 -6 -5
-6 6 -1 11 2 17 5 13 3 -3 4 -12 1 -19z"/>
<path d="M158 3872 c-3 -9 -2 -38 2 -62 7 -45 8 -44 9 18 1 62 -3 77 -11 44z"/>
<path d="M10141 3867 c0 -10 -8 -20 -16 -23 -10 -4 -15 -21 -15 -53 0 -35 -3
-43 -11 -31 -9 12 -10 10 -6 -8 4 -15 0 -25 -9 -29 -10 -4 -14 -23 -14 -67 0
-52 -3 -64 -21 -76 -47 -33 -70 -65 -66 -92 2 -16 0 -28 -5 -28 -4 0 -8 -11
-8 -24 0 -14 -4 -28 -10 -31 -5 -3 -10 -15 -10 -26 0 -10 -4 -19 -9 -19 -10 0
-24 -34 -46 -112 -23 -81 -48 -104 -79 -73 -8 8 -23 15 -33 15 -15 0 -16 2 -3
10 9 6 10 10 3 10 -6 0 -14 -4 -18 -9 -7 -12 35 -52 46 -45 5 3 6 -2 3 -10 -3
-9 -11 -16 -18 -16 -6 0 -6 -4 3 -9 9 -6 20 -2 33 11 11 11 24 16 31 11 8 -5
5 -9 -10 -11 -13 -2 -23 -8 -23 -13 0 -6 6 -7 13 -3 10 6 10 4 0 -7 -7 -7 -13
-21 -13 -31 0 -10 -7 -18 -16 -18 -8 0 -13 -3 -11 -7 3 -5 -1 -14 -9 -20 -8
-8 -15 -9 -19 -3 -9 15 -25 12 -25 -5 0 -8 -4 -15 -8 -15 -5 0 -9 -7 -9 -15 0
-13 15 -19 38 -17 3 1 6 -6 6 -14 0 -17 -23 -19 -30 -1 -4 9 -7 9 -14 0 -7
-10 -13 -10 -29 2 -16 13 -17 16 -4 25 12 9 10 10 -10 6 -23 -5 -23 -5 3 7 27
13 27 27 1 27 -22 0 -35 -36 -24 -64 6 -18 6 -26 -1 -26 -6 0 -8 -4 -4 -9 3
-6 -4 -15 -15 -21 -17 -9 -20 -8 -20 9 0 11 5 22 10 24 6 3 5 4 -2 3 -7 -1
-15 -17 -19 -35 -5 -25 -4 -31 7 -27 8 3 14 1 14 -4 0 -6 11 -10 25 -10 21 0
25 -5 25 -29 0 -17 -4 -33 -10 -36 -5 -3 -10 -15 -10 -26 0 -10 -4 -19 -10
-19 -5 0 -10 -6 -10 -13 0 -7 -9 -23 -20 -35 -11 -12 -20 -26 -20 -32 0 -6 -5
-8 -12 -4 -6 4 -8 3 -5 -3 7 -11 -42 -88 -76 -117 -13 -12 -29 -30 -35 -41 -8
-14 -11 -15 -12 -5 0 10 -5 7 -16 -8 -8 -12 -22 -22 -30 -22 -8 0 -14 -9 -14
-21 0 -12 -7 -27 -15 -33 -8 -6 -16 -24 -17 -39 -2 -25 -4 -26 -15 -11 -11 15
-13 16 -19 1 -3 -9 -3 -20 0 -26 4 -5 -2 -16 -12 -23 -11 -7 -22 -23 -26 -35
-4 -11 -18 -24 -32 -27 -17 -5 -24 -12 -20 -21 3 -9 -1 -15 -10 -15 -9 0 -12
-5 -8 -12 4 -7 3 -8 -4 -4 -14 8 -64 -42 -56 -55 3 -5 -1 -9 -8 -9 -20 -1 -54
-33 -62 -58 -4 -12 -14 -22 -22 -22 -9 0 -14 -7 -12 -17 2 -12 -4 -18 -17 -18
-11 0 -20 -7 -20 -15 0 -8 -8 -14 -18 -14 -10 1 -16 -3 -14 -9 4 -12 -74 -97
-90 -97 -10 0 -53 -37 -145 -125 -43 -42 -65 -55 -87 -55 -16 0 -33 -4 -36
-10 -3 -6 1 -7 9 -4 18 7 20 -9 6 -41 -8 -18 -9 -18 -10 5 l-2 25 -7 -25 c-5
-18 -15 -26 -35 -28 -33 -4 -48 13 -39 45 3 14 1 23 -7 23 -6 0 -9 -4 -6 -9 3
-5 -2 -8 -11 -7 -9 0 -23 -10 -30 -24 -7 -14 -13 -21 -13 -16 0 5 -10 -2 -23
-15 -42 -44 -110 -98 -117 -94 -4 3 -19 -6 -33 -19 -14 -13 -42 -29 -62 -36
-19 -6 -35 -15 -35 -20 0 -4 -16 -15 -35 -24 -19 -9 -37 -21 -40 -26 -4 -6
-11 -8 -16 -5 -5 4 -9 0 -9 -8 0 -8 -17 -22 -37 -33 -21 -10 -40 -22 -43 -25
-9 -11 -55 -33 -63 -31 -4 1 -19 -9 -33 -23 -14 -14 -30 -23 -35 -19 -5 3 -8
0 -7 -8 2 -7 -5 -12 -14 -12 -10 1 -18 -2 -18 -7 0 -5 -9 -9 -19 -9 -12 0 -18
-7 -17 -17 0 -11 -7 -19 -19 -19 -11 -1 -33 -3 -50 -4 -16 -1 -24 -4 -18 -7
23 -9 -15 -35 -55 -38 -20 -2 -52 -7 -71 -11 -24 -5 -32 -3 -27 5 4 6 2 11 -4
11 -7 0 -10 -14 -8 -37 2 -24 -2 -38 -11 -41 -8 -3 -11 0 -7 6 3 6 2 13 -3 16
-5 3 -11 -3 -14 -14 -3 -13 -11 -18 -20 -14 -10 4 -15 -1 -14 -13 2 -14 -6
-19 -35 -21 -25 -2 -38 -8 -38 -18 0 -8 -7 -15 -15 -15 -8 -1 -18 -2 -22 -3
-5 -1 -28 -6 -53 -10 -24 -5 -50 -16 -57 -25 -10 -13 -12 -13 -13 -2 0 11 -3
11 -13 -3 -10 -13 -18 -15 -37 -7 -18 7 -20 10 -7 10 9 1 17 7 17 14 0 8 4 7
10 -3 8 -13 10 -12 10 3 0 10 -3 17 -7 15 -5 -3 -23 -10 -41 -17 -25 -10 -31
-16 -20 -23 8 -5 2 -6 -16 -2 -24 6 -28 4 -23 -9 4 -10 0 -16 -11 -16 -9 0
-28 -2 -42 -4 -14 -2 -17 -2 -7 0 9 2 17 9 17 14 0 5 7 9 15 9 8 0 15 5 15 10
0 6 7 10 16 10 8 0 12 5 9 10 -3 6 -15 10 -26 10 -10 0 -19 5 -19 11 0 6 -7 8
-16 5 -13 -5 -15 -2 -11 14 3 11 1 20 -4 20 -5 0 -9 -17 -9 -38 0 -38 -1 -38
-32 -34 -18 3 -37 11 -41 19 -7 11 -12 11 -23 2 -7 -6 -21 -9 -29 -5 -8 3 -15
1 -15 -4 0 -6 -6 -9 -12 -7 -7 1 -14 -8 -16 -20 -4 -26 -6 -27 -32 -13 -16 8
-18 6 -15 -15 3 -28 -22 -35 -31 -10 -5 12 -10 13 -32 1 -15 -7 -33 -11 -39
-9 -7 3 -13 0 -13 -5 0 -5 -11 -13 -25 -16 -18 -5 -25 -13 -25 -29 0 -22 -3
-24 -62 -22 -55 2 -64 5 -89 33 -30 33 -44 39 -54 22 -3 -5 0 -7 8 -4 8 3 18
1 22 -5 4 -7 -6 -11 -26 -11 -26 0 -30 -3 -26 -19 4 -17 2 -18 -13 -8 -10 6
-17 14 -14 18 2 4 -3 10 -12 13 -12 4 -15 2 -10 -9 7 -19 -30 -21 -38 -2 -3 6
-3 2 0 -10 3 -14 1 -23 -6 -23 -6 0 -8 -5 -4 -12 5 -8 2 -9 -9 -5 -15 6 -21
-3 -19 -24 1 -4 -8 -9 -18 -12 -15 -4 -20 0 -20 15 0 10 4 17 9 13 5 -3 13 0
16 6 5 7 0 10 -11 7 -11 -2 -20 -13 -22 -25 -3 -19 -6 -21 -29 -12 -15 5 -38
7 -52 4 -14 -3 -46 -8 -71 -10 -115 -13 -162 -24 -154 -36 3 -5 0 -9 -7 -9 -8
0 -8 -4 1 -15 11 -13 8 -15 -14 -15 -14 0 -26 -5 -26 -11 0 -7 -9 -9 -21 -6
-11 3 -22 0 -25 -7 -5 -14 -36 -18 -131 -18 -48 -1 -60 -4 -56 -14 3 -8 -1
-14 -10 -14 -9 0 -28 -11 -43 -25 -14 -13 -29 -23 -33 -22 -4 1 -23 -15 -44
-35 -36 -37 -55 -49 -42 -28 9 15 -2 12 -19 -6 -9 -8 -16 -11 -16 -5 0 6 -5
11 -11 11 -5 0 -7 -4 -4 -10 6 -9 -8 -14 -27 -11 -5 0 -8 -4 -8 -9 0 -6 -15
-10 -34 -10 -18 0 -48 -3 -65 -6 -28 -6 -32 -10 -27 -30 5 -20 2 -24 -28 -30
-19 -3 -40 -3 -47 2 -7 4 -10 3 -5 -4 3 -6 2 -13 -4 -17 -6 -4 -8 -11 -4 -17
4 -5 -3 -8 -16 -6 -16 2 -24 -3 -26 -15 -1 -11 2 -15 9 -10 7 4 6 -1 -2 -10
-7 -9 -17 -14 -22 -11 -5 3 -6 -1 -3 -9 3 -8 0 -18 -5 -22 -6 -3 -9 -11 -6
-16 4 -5 2 -9 -4 -9 -5 0 -12 -8 -15 -18 -3 -9 -19 -23 -36 -30 -16 -8 -29
-17 -29 -20 3 -19 -2 -23 -15 -13 -8 6 -18 11 -22 10 -27 -5 -65 3 -78 16 -8
8 -24 15 -36 15 -19 0 -21 4 -15 27 6 27 6 27 -9 8 -15 -20 -15 -20 -9 3 3 13
2 22 -3 20 -5 -2 -11 2 -13 7 -2 6 -11 15 -20 22 -9 7 -13 13 -9 13 7 0 -17
32 -50 66 -8 8 -9 14 -3 14 6 0 11 7 11 15 0 9 -9 15 -24 15 -13 0 -26 7 -30
15 -3 8 -16 15 -28 15 -19 0 -20 2 -8 10 13 8 12 10 -3 10 -10 0 -16 4 -13 8
3 5 -13 30 -34 56 -22 27 -40 54 -40 62 0 8 -5 14 -11 14 -6 0 -9 7 -5 15 4
11 -1 15 -18 15 -14 0 -27 -6 -29 -12 -4 -10 -6 -10 -6 0 -1 6 -7 12 -15 12
-8 0 -16 5 -18 11 -3 9 -9 9 -24 1 -11 -6 -26 -7 -35 -2 -9 5 -65 12 -125 15
-141 8 -134 7 -134 16 0 5 -6 6 -13 3 -7 -2 -31 2 -52 9 -22 8 -46 12 -54 9
-8 -3 -11 0 -7 6 4 7 -12 10 -46 10 -29 -1 -66 5 -83 12 -16 7 -38 12 -47 11
-10 -1 -18 3 -18 10 0 7 -10 9 -25 7 -14 -3 -25 -1 -25 3 0 5 -7 9 -15 9 -8 0
-15 4 -15 9 0 5 -9 7 -20 4 -14 -4 -20 0 -20 11 0 13 -6 15 -27 10 -21 -6 -25
-4 -21 8 5 13 -2 15 -43 12 -29 -3 -49 0 -49 6 0 6 -11 8 -25 4 -28 -7 -116
16 -109 28 3 4 -2 5 -10 2 -8 -3 -30 1 -48 10 -18 9 -49 17 -68 20 -49 6 -92
27 -86 43 3 7 1 13 -3 13 -5 0 -12 -6 -14 -12 -4 -10 -6 -10 -6 -1 -1 7 -8 10
-16 6 -9 -3 -15 -2 -14 3 4 24 -3 30 -30 26 -16 -2 -32 1 -35 7 -4 6 -19 11
-34 11 -15 0 -34 4 -42 10 -9 6 -17 5 -22 -3 -6 -9 -8 -9 -8 1 0 7 -4 11 -9 8
-5 -3 -11 1 -15 9 -3 8 -15 15 -26 15 -18 0 -25 10 -21 33 2 12 -27 8 -32 -5
-5 -13 -7 -9 -7 18 0 4 16 8 35 10 22 2 35 -1 35 -9 0 -7 9 -18 20 -25 22 -14
25 -10 11 16 -5 9 -12 24 -15 33 -7 26 -73 71 -106 74 -17 1 -34 6 -38 10 -4
5 0 5 8 1 8 -4 7 -1 -4 8 -12 10 -16 21 -12 33 6 15 5 16 -6 5 -7 -7 -13 -20
-13 -30 0 -9 -9 -18 -20 -19 -18 -3 -19 -2 -2 5 15 6 16 10 5 18 -7 6 -21 14
-31 17 -10 4 -16 11 -13 15 3 5 -4 8 -14 8 -11 -1 -18 4 -17 9 1 6 6 9 10 7 5
-1 6 2 2 8 -9 14 -42 13 -48 -2 -8 -22 13 -49 51 -65 l37 -16 -40 -12 c-43
-13 -72 -5 -82 21 -5 13 -7 13 -14 2 -7 -10 -9 -9 -9 5 0 10 -5 15 -10 12 -5
-3 -10 -2 -10 3 0 5 -6 9 -12 9 -19 0 -88 43 -88 55 0 5 -5 6 -10 3 -6 -3 -10
0 -10 8 0 7 -11 23 -25 35 -14 12 -25 28 -25 34 0 18 -47 74 -55 67 -3 -4 6
-19 20 -33 14 -14 25 -34 23 -43 -2 -10 7 -22 22 -30 16 -8 19 -13 9 -13 -9 0
-24 9 -34 20 -10 11 -22 20 -27 20 -5 0 -25 11 -44 24 -23 16 -31 26 -22 29 7
3 3 6 -9 6 -13 1 -23 6 -23 11 0 6 -3 9 -7 9 -18 -3 -30 2 -49 18 -44 39 -104
83 -128 94 -14 7 -26 16 -26 21 0 4 -8 8 -17 8 -15 0 -16 2 -3 10 12 8 11 10
-6 10 -24 0 -48 23 -36 34 4 4 0 6 -8 4 -8 -2 -14 2 -13 8 1 7 -6 10 -17 7
-12 -3 -22 1 -26 11 -3 9 -10 14 -14 11 -5 -3 -20 6 -33 19 -14 14 -28 22 -31
19 -3 -4 -6 6 -6 20 0 18 -5 27 -16 27 -17 0 -64 47 -64 65 0 6 -7 1 -15 -9
-8 -11 -18 -16 -22 -11 -5 4 -2 10 5 12 13 5 17 24 4 22 -20 -3 -32 2 -32 16
0 8 -5 15 -10 15 -6 0 -9 3 -9 8 3 19 -2 25 -11 12 -8 -13 -10 -13 -10 2 0 19
-16 26 -47 20 -27 -5 -21 -20 15 -33 21 -8 23 -12 12 -19 -10 -7 -5 -8 18 -5
23 2 32 0 29 -8 -2 -7 5 -28 16 -47 10 -19 16 -32 11 -27 -4 4 -17 1 -28 -7
-29 -19 -66 -4 -66 27 0 34 -42 71 -70 62 -15 -5 -20 -4 -16 4 4 6 3 11 -3 11
-17 0 -111 104 -111 123 0 4 -4 6 -9 2 -5 -3 -27 13 -48 36 -21 23 -53 55 -72
73 -92 85 -131 126 -131 136 0 5 -4 10 -10 10 -5 0 -10 5 -10 11 0 6 -7 17
-15 26 -8 8 -13 19 -10 24 4 5 -1 9 -10 9 -8 0 -19 8 -22 17 -4 10 -22 33 -40
51 -18 18 -31 37 -28 43 4 5 1 9 -4 9 -6 0 -11 8 -11 19 0 10 -6 24 -14 30 -8
7 -18 26 -21 42 -5 20 -13 29 -26 29 -11 0 -19 7 -19 16 0 8 -6 22 -13 29 -29
34 -37 45 -37 55 0 6 -5 16 -10 23 -39 46 -50 61 -50 68 0 4 -11 19 -25 33
-14 14 -25 32 -25 41 0 8 -4 15 -9 15 -5 0 -13 9 -16 20 -3 11 -13 20 -21 20
-9 0 -12 5 -8 12 4 6 0 16 -8 22 -9 6 -18 20 -20 31 -2 11 -10 19 -17 17 -7
-1 -10 2 -7 7 4 5 2 12 -4 16 -5 3 -10 18 -10 33 0 21 -2 24 -10 12 -8 -13
-10 -12 -10 3 0 9 -4 17 -10 17 -5 0 -10 5 -10 11 0 5 5 7 10 4 5 -3 10 -1 10
4 0 6 -4 11 -10 11 -5 0 -10 11 -10 25 0 14 -4 25 -9 25 -5 0 -7 -17 -4 -39 3
-23 1 -41 -6 -45 -7 -5 -11 2 -11 19 0 20 -4 26 -14 22 -10 -4 -13 -1 -10 7 3
7 -2 19 -10 26 -9 7 -13 16 -10 21 3 5 0 9 -6 9 -6 0 -8 5 -5 10 3 6 -5 14
-19 20 -14 5 -26 15 -26 21 0 9 3 9 14 0 11 -9 14 -2 20 36 4 30 2 51 -5 57
-8 8 -10 4 -7 -16 3 -16 1 -28 -4 -28 -5 0 -6 -4 -3 -10 3 -5 1 -10 -4 -10 -6
0 -11 9 -11 19 0 18 -25 35 -38 27 -4 -2 -8 11 -9 29 -2 19 2 37 7 40 6 3 9
18 9 33 l-1 27 -8 -30 -9 -30 1 35 c0 67 -3 77 -15 40 -11 -34 -11 -34 -15 -8
-3 26 -31 48 -33 25 0 -7 -4 -3 -9 8 -8 18 -9 18 -10 -5 -7 -84 -6 -89 20 -95
14 -4 26 -2 28 4 13 38 23 -19 13 -70 0 -3 -12 -4 -25 -2 -18 4 -22 10 -18 26
3 13 1 18 -6 13 -6 -3 -13 -2 -16 3 -11 17 -45 0 -41 -20 2 -10 -1 -19 -6 -19
-13 0 -2 -76 16 -105 6 -11 10 -46 9 -80 -1 -33 -3 -84 -4 -112 -1 -29 -6 -55
-11 -59 -5 -3 -7 -9 -4 -14 9 -15 -23 -19 -35 -4 -14 16 -40 19 -40 3 0 -5 -4
-8 -9 -5 -4 3 -7 -17 -7 -45 1 -32 7 -54 16 -60 10 -6 11 -9 3 -9 -9 0 -10 -7
-2 -27 6 -16 10 -29 10 -30 -4 -13 1 -23 10 -21 6 2 13 -8 15 -22 3 -14 9 -26
14 -28 5 -2 6 -10 3 -19 -4 -9 -2 -14 3 -11 13 8 28 -12 32 -42 2 -14 9 -29
16 -35 7 -5 11 -16 9 -22 -3 -7 2 -13 11 -13 9 0 16 -5 16 -11 0 -5 5 -7 12
-3 8 5 9 2 5 -9 -4 -11 -1 -17 9 -17 8 0 13 -4 10 -9 -3 -5 1 -14 9 -21 8 -7
15 -18 15 -25 0 -8 4 -15 9 -17 6 -1 12 -15 15 -30 2 -15 16 -38 30 -51 14
-14 26 -32 26 -41 0 -9 5 -16 10 -16 6 0 10 -8 10 -18 0 -10 4 -22 9 -27 8 -9
37 -57 66 -113 7 -13 24 -36 39 -52 14 -17 26 -35 26 -41 0 -5 5 -7 10 -4 6 3
10 1 10 -5 0 -6 16 -26 35 -44 19 -19 35 -33 35 -31 0 2 11 -7 25 -21 14 -14
25 -29 25 -34 0 -6 5 -10 10 -10 6 0 10 -6 10 -14 0 -8 12 -17 27 -21 30 -7
52 -31 53 -56 0 -10 12 -20 27 -24 32 -8 52 -32 53 -63 0 -12 3 -21 7 -21 23
4 33 -3 33 -21 0 -12 9 -30 20 -42 10 -12 17 -25 14 -29 -2 -4 1 -11 7 -15 8
-4 9 -3 5 4 -4 7 -3 12 2 12 14 0 52 -49 51 -68 0 -13 -2 -12 -9 5 -9 23 -30
32 -30 14 0 -16 68 -63 82 -58 8 4 5 8 -9 12 -13 4 -23 11 -23 17 0 19 82 -44
93 -72 4 -11 6 -11 6 -2 1 11 3 11 14 0 7 -7 15 -17 16 -23 1 -5 11 -13 22
-17 10 -4 19 -13 19 -19 0 -8 -5 -7 -17 2 -9 8 -14 9 -10 2 4 -6 2 -13 -5 -15
-6 -2 5 -12 26 -22 20 -9 34 -21 31 -26 -3 -4 8 -11 25 -15 18 -4 27 -11 23
-18 -4 -6 -1 -8 9 -5 8 4 21 2 29 -3 12 -7 12 -9 0 -9 -11 0 -11 -3 -1 -15 9
-11 15 -12 20 -5 5 7 11 6 20 -5 8 -9 9 -15 2 -15 -6 0 -16 -10 -23 -21 -9
-17 -8 -20 2 -13 8 4 29 7 49 5 42 -4 65 -33 61 -77 -1 -18 3 -36 11 -40 16
-11 78 -12 71 -1 -2 4 0 7 5 7 5 0 12 -19 15 -41 4 -30 15 -51 39 -73 40 -39
68 -73 51 -62 -7 4 -13 3 -13 -3 0 -5 5 -13 10 -16 6 -3 10 -18 10 -32 0 -14
8 -32 18 -39 20 -15 56 -19 47 -5 -3 6 3 8 15 6 11 -2 22 0 25 5 9 14 35 0 35
-19 0 -17 45 -67 58 -65 4 1 6 -2 4 -7 -1 -5 4 -8 10 -7 8 2 12 -8 11 -27 -2
-25 -1 -27 6 -10 9 19 10 18 12 -5 1 -14 3 -32 4 -40 1 -8 -2 -20 -6 -25 -4
-6 -6 -23 -5 -38 2 -15 0 -27 -3 -27 -3 0 -6 -11 -6 -24 0 -13 3 -22 7 -19 5
2 8 -1 8 -6 0 -6 7 -11 15 -11 10 0 15 -10 15 -30 0 -16 4 -30 9 -30 5 0 8 -8
7 -17 -4 -25 42 -100 65 -106 12 -3 18 -10 15 -16 -4 -5 -2 -12 4 -16 5 -3 10
-10 10 -15 0 -10 -19 -8 -38 4 -21 13 -42 -13 -42 -51 0 -19 -4 -32 -9 -29 -5
3 -24 3 -42 -1 -33 -7 -33 -7 -9 -13 15 -4 -21 -10 -90 -15 -96 -7 -108 -10
-70 -15 24 -4 54 -5 65 -3 15 3 14 1 -4 -7 -13 -6 -33 -8 -44 -4 -12 4 -55 6
-96 6 -42 -1 -125 3 -186 8 -81 6 -112 5 -117 -3 -7 -11 -13 4 -9 26 2 13 -17
7 -23 -8 -3 -8 -1 -15 4 -15 6 0 10 -5 10 -11 0 -6 -10 -9 -22 -8 -13 1 -36
-2 -53 -6 -26 -7 -27 -9 -10 -16 13 -5 6 -6 -17 -3 -24 4 -38 2 -38 -5 0 -7
-29 -9 -85 -7 -47 2 -88 0 -91 -5 -3 -5 -20 -9 -37 -9 -25 0 -28 -3 -17 -10
10 -7 4 -8 -20 -3 -19 4 -44 7 -55 6 -119 -9 -415 -11 -415 -3 0 5 -18 10 -40
10 -22 0 -40 4 -40 9 0 5 -18 12 -40 16 -22 4 -40 10 -40 15 0 4 -12 7 -27 7
-40 -1 -73 12 -73 29 0 8 -6 14 -14 14 -8 0 -18 9 -21 20 -3 11 -10 20 -15 20
-5 0 -12 9 -15 20 -4 11 -16 31 -29 43 -28 28 -45 72 -49 122 -2 22 -8 50 -15
61 -6 12 -14 41 -18 65 -4 24 -11 47 -17 50 -5 4 -10 20 -11 37 0 17 -4 28 -7
26 -7 -4 -16 73 -27 241 -6 91 -8 96 -15 55 -6 -34 -10 -41 -18 -30 -6 10 -9
-8 -7 -57 2 -40 7 -73 12 -73 11 0 -1 -59 -16 -77 -15 -18 -24 -6 -31 39 -4
24 -1 38 7 40 8 2 6 9 -6 21 -17 16 -18 15 -18 -28 0 -44 -11 -58 -26 -33 -6
9 -10 5 -15 -12 -6 -22 -7 -21 -8 10 -1 20 4 41 11 48 8 8 8 12 1 12 -7 0 -11
56 -10 178 0 97 2 166 4 153 4 -19 7 -21 14 -10 7 11 9 11 9 -3 0 -10 -5 -18
-11 -18 -8 0 -8 -4 -1 -13 6 -7 13 -51 15 -97 3 -77 3 -74 5 30 1 82 -2 120
-10 129 -10 11 -10 13 -1 7 9 -5 13 0 13 13 0 12 -4 21 -10 21 -5 0 -10 19
-11 43 0 34 -2 38 -10 22 -8 -16 -8 -14 -5 11 3 17 1 44 -4 60 -4 17 -8 -254
-9 -637 l-1 -666 47 -2 c257 -7 694 -4 697 4 3 6 5 6 5 -1 1 -7 16 -9 45 -4
25 4 52 3 60 -2 11 -6 16 -5 16 4 0 8 3 9 8 3 10 -15 975 -16 984 -1 6 8 8 7
8 -1 0 -9 942 -12 4163 -11 2289 0 4168 3 4174 5 7 3 11 8 9 12 -2 3 -7 130
-10 281 -4 151 -8 289 -11 306 -2 18 -6 76 -10 130 -3 55 -9 115 -13 134 -10
43 -13 96 -16 382 -3 232 -11 321 -27 297 -5 -8 -9 -34 -10 -59 -1 -42 -16
-110 -18 -82 -1 6 -5 12 -10 12 -5 0 -8 -8 -6 -17 2 -10 4 -27 5 -38 l1 -20 9
20 c5 12 8 -45 7 -145 -1 -152 -1 -157 -6 -58 -3 58 -10 110 -14 115 -5 4 -8
-5 -7 -22 3 -50 -2 -53 -10 -5 -8 48 -3 71 11 49 6 -11 9 -10 14 3 8 19 -15
79 -27 72 -4 -2 -7 35 -7 83 0 49 -1 111 -2 138 -1 44 -2 46 -9 20 -7 -26 -8
-23 -8 20 0 36 2 45 8 30 8 -18 9 -18 10 5 1 23 2 23 10 5 8 -18 9 -17 9 8 1
16 5 26 10 23 5 -3 9 0 8 7 -2 60 13 82 35 52 5 -6 8 -4 9 5 0 10 3 8 9 -5 6
-15 9 -8 10 30 2 44 3 47 10 20 5 -20 8 9 9 82 1 104 -1 114 -21 135 -24 24
-37 88 -19 88 5 0 10 8 11 18 0 9 2 98 5 197 2 99 5 189 5 200 1 11 -3 63 -8
115 -5 59 -4 110 2 134 7 28 6 41 -2 44 -6 2 -8 10 -5 18 3 8 1 14 -4 14 -19
0 -33 -95 -33 -218 0 -86 -3 -122 -10 -112 -7 10 -10 -15 -10 -80 0 -65 -3
-90 -10 -80 -9 14 -13 -11 -14 -87 0 -13 -3 -23 -6 -23 -3 0 -6 -27 -8 -60 -2
-33 1 -60 6 -60 5 0 9 -8 9 -17 -1 -58 4 -78 13 -63 8 12 10 10 10 -8 0 -14
-4 -21 -11 -16 -8 4 -7 0 1 -15 6 -12 9 -27 6 -34 -3 -9 -5 -9 -5 1 -1 6 -5
12 -9 12 -5 0 -8 -24 -8 -52 1 -54 -11 -78 -38 -78 -12 0 -16 -10 -16 -35 0
-21 5 -35 13 -35 9 0 9 -2 -1 -9 -15 -9 -14 -91 1 -91 6 0 7 -33 2 -87 -10
-99 -10 -169 0 -230 7 -43 -9 -113 -26 -113 -5 0 -9 -7 -9 -15 0 -8 6 -14 12
-13 10 2 12 -38 10 -177 -1 -98 -7 -182 -12 -185 -5 -3 -9 -44 -10 -90 -2
-111 -2 -112 10 -105 5 3 9 -27 9 -80 -1 -47 -5 -82 -10 -79 -5 3 -9 -2 -9
-10 0 -9 -4 -16 -9 -16 -5 0 -9 -15 -8 -32 0 -97 -4 -139 -13 -133 -6 4 -10
-8 -10 -28 0 -30 -4 -36 -41 -50 -23 -9 -38 -21 -34 -27 4 -6 -4 -10 -19 -10
-17 0 -26 -6 -26 -16 0 -13 -17 -15 -125 -12 -69 2 -126 0 -128 -4 -3 -10
-122 -28 -202 -30 l-70 -1 55 -7 55 -7 -57 -1 c-31 -1 -58 2 -60 7 -1 5 -23
12 -47 14 -23 2 -46 9 -50 15 -8 13 -49 23 -118 29 -46 4 -53 8 -54 26 -1 22
-1 22 -7 0 -5 -17 -11 -20 -22 -13 -10 6 -11 10 -2 10 6 0 12 4 12 9 0 10 -79
3 -95 -9 -5 -4 -31 -13 -57 -21 -27 -7 -48 -19 -48 -26 0 -20 -34 -24 -150
-21 -82 2 -110 6 -110 16 0 7 -4 10 -10 7 -5 -3 -10 -1 -10 4 0 6 -4 11 -10
11 -5 0 -7 -7 -4 -15 7 -17 12 -16 -246 -17 -384 -1 -470 2 -470 16 0 8 -10
12 -27 11 -44 -3 -49 -5 -35 -14 9 -5 -7 -10 -45 -13 -59 -6 -81 -1 -82 17 0
6 -10 13 -23 17 -13 3 -17 6 -10 7 7 1 12 15 12 34 0 17 -4 27 -8 21 -5 -9
-11 -8 -20 2 -7 8 -9 14 -5 14 4 0 2 5 -4 11 -8 8 -6 16 8 30 10 10 19 26 19
34 0 9 12 28 28 43 37 37 55 88 39 113 -6 10 -15 19 -20 19 -4 0 -6 4 -3 8 3
5 -9 6 -26 4 -31 -5 -48 9 -47 38 0 10 3 8 9 -5 9 -20 9 -20 9 0 1 14 8 21 20
21 11 0 17 -4 15 -8 -3 -4 -1 -8 5 -8 5 0 11 5 13 11 2 6 17 12 32 12 15 0 23
3 17 6 -7 5 -4 13 9 24 11 9 20 13 20 8 0 -5 9 -11 20 -14 11 -3 20 -1 20 4 0
5 11 9 23 9 14 0 24 6 24 15 0 8 -4 15 -9 15 -4 0 -8 -4 -8 -10 0 -5 -6 -10
-12 -10 -16 0 67 80 85 81 6 1 15 1 20 0 4 0 7 5 7 12 0 6 19 22 43 35 42 22
73 29 63 14 -2 -4 12 -6 32 -3 31 3 34 5 17 12 -16 7 -14 8 10 6 20 -1 29 2
27 11 -2 10 5 12 28 7 23 -5 32 -3 36 10 5 13 8 14 15 3 7 -10 9 -9 9 5 0 15
11 22 33 18 4 0 7 3 7 8 0 5 15 14 33 22 17 7 36 19 40 26 4 7 15 13 22 13 8
0 15 5 15 10 0 6 5 10 11 10 6 0 17 6 24 12 32 29 41 34 50 31 10 -3 67 41 66
51 -3 22 2 28 9 11 8 -18 9 -17 9 8 1 16 5 26 10 23 9 -6 7 29 -5 59 -8 19 -7
19 10 3 9 -10 19 -18 22 -18 7 0 -1 25 -11 32 -5 4 4 8 20 8 23 0 27 -3 15
-10 -13 -8 -13 -10 2 -10 9 0 18 6 21 13 4 9 7 9 18 0 16 -15 33 -17 24 -3 -3
6 -1 10 4 10 6 0 11 11 11 25 0 14 5 25 10 25 6 0 10 9 10 20 0 15 7 20 24 20
14 0 31 9 39 20 14 21 14 21 20 1 3 -13 -1 -21 -12 -24 -11 -3 -9 -5 7 -6 14
-1 22 5 22 14 0 10 7 15 18 13 11 -2 18 4 20 19 2 13 -1 23 -7 23 -5 0 -9 9
-8 20 1 22 17 26 34 9 8 -8 13 -2 18 21 5 25 11 31 26 27 10 -3 19 -1 19 5 0
5 4 6 10 3 6 -3 7 1 4 9 -4 11 0 16 12 16 12 0 15 3 8 8 -7 5 -3 15 13 30 12
12 23 20 23 16 0 -4 11 5 25 20 14 15 29 25 34 21 5 -3 15 20 22 50 8 36 15
51 21 43 4 -7 8 -8 8 -3 0 12 24 45 58 80 12 13 22 31 22 40 0 9 5 13 10 10 6
-3 10 -1 10 4 0 6 9 11 20 11 21 0 38 40 25 59 -4 7 5 11 24 11 24 0 31 4 31
20 0 11 5 20 10 20 6 0 10 -9 10 -20 0 -14 7 -20 21 -20 12 0 17 4 14 11 -11
16 4 59 20 59 8 0 14 3 14 8 -1 4 2 26 6 50 7 38 14 45 41 41 12 -1 24 26 24
54 0 18 12 40 35 63 19 19 35 39 35 45 0 6 4 8 9 5 5 -3 11 11 15 32 3 22 19
53 38 74 46 52 68 81 68 91 0 4 5 5 12 1 6 -4 8 -3 5 4 -9 14 3 43 14 36 5 -3
9 4 9 14 0 21 85 114 95 104 3 -4 3 2 -1 12 -5 13 -4 17 3 13 6 -4 14 0 17 9
3 8 10 12 16 9 6 -3 7 1 4 10 -4 10 -2 15 7 13 9 -2 14 5 13 20 -1 16 4 22 21
22 16 0 24 -9 32 -35 7 -22 7 -35 1 -35 -5 0 -6 -4 -3 -10 3 -5 1 -10 -4 -10
-6 0 -9 -10 -7 -22 3 -13 5 -30 6 -38 0 -12 4 -11 15 4 8 11 15 16 15 12 0 -5
6 -3 14 3 11 9 17 8 29 -3 12 -12 18 -13 40 -1 14 7 28 11 31 7 3 -3 6 0 6 7
0 8 7 11 15 7 9 -3 15 0 15 10 0 8 -4 13 -9 9 -5 -3 -12 -1 -16 5 -3 5 -1 10
4 10 6 0 11 7 11 15 0 8 5 15 10 15 6 0 10 5 10 12 0 6 -3 9 -6 5 -8 -8 -34
18 -34 33 0 6 -4 8 -10 5 -5 -3 -10 3 -10 14 0 14 5 19 15 15 8 -4 15 -10 15
-15 0 -5 4 -9 8 -9 19 0 65 140 55 166 -3 8 -1 14 4 14 5 0 9 9 9 19 0 11 -3
18 -7 15 -4 -2 -10 10 -14 27 -9 41 -36 73 -47 56 -10 -16 -9 40 2 73 7 23 8
23 9 4 1 -30 31 -41 31 -11 0 18 -2 19 -11 7 -8 -11 -9 -5 -5 25 3 22 6 53 6
69 0 25 2 27 16 15 8 -7 13 -21 11 -30 -3 -11 0 -17 7 -16 6 1 10 -4 9 -10 -4
-16 9 -17 25 -1 9 9 12 9 13 -2 1 -8 5 -4 9 10 8 24 8 23 9 -7 1 -18 5 -33 10
-33 8 0 24 37 22 53 -1 4 3 7 7 7 5 0 9 30 9 68 0 37 1 84 3 105 3 46 -19 105
-31 85 -6 -9 -9 -3 -10 17 0 23 -2 26 -8 12 -5 -15 -9 -12 -19 17 -12 32 -13
116 -2 116 3 0 7 14 8 30 1 17 -3 30 -9 30 -8 0 -7 6 2 17 10 11 10 14 2 9 -7
-4 -13 -3 -13 2 0 6 8 13 17 16 10 4 13 10 8 14 -6 4 -11 12 -11 17 -1 6 -5
31 -8 58 -5 33 -4 47 5 47 7 0 8 4 2 13 -5 6 -10 24 -12 39 -2 22 3 30 21 37
13 5 30 17 38 27 14 18 14 18 -7 1 -21 -18 -21 -18 -26 0 -4 17 -5 17 -6 0z
m-74 -479 c-2 -18 -4 -4 -4 32 0 36 2 50 4 33 2 -18 2 -48 0 -65z m40 70 c-3
-8 -6 -5 -6 6 -1 11 2 17 5 13 3 -3 4 -12 1 -19z m-60 -75 c-3 -10 -5 -4 -5
12 0 17 2 24 5 18 2 -7 2 -21 0 -30z m22 -180 c1 -18 -2 -33 -6 -33 -5 0 -9
24 -10 53 -1 36 1 46 7 32 5 -11 9 -35 9 -52z m-9499 -70 c0 -14 -3 -23 -7
-19 -10 10 -11 46 -1 46 4 0 8 -12 8 -27z m9467 -40 c-3 -10 -5 -4 -5 12 0 17
2 24 5 18 2 -7 2 -21 0 -30z m0 -39 c-3 -3 -12 -4 -19 -1 -8 3 -5 6 6 6 11 1
17 -2 13 -5z m-9308 -59 c0 -5 -4 -3 -9 5 -5 8 -9 22 -9 30 0 16 17 -16 18
-35z m8981 -88 c0 -14 -6 -24 -15 -24 -21 0 -27 25 -7 36 23 14 22 14 22 -12z
m-9290 -17 c0 -5 -2 -10 -4 -10 -3 0 -8 5 -11 10 -3 6 -1 10 4 10 6 0 11 -4
11 -10z m9450 -229 c0 -38 -1 -39 -24 -28 -13 7 -22 15 -19 20 3 4 12 2 20 -4
12 -11 14 -10 13 2 -3 22 -1 49 5 49 3 0 5 -18 5 -39z m100 -11 c0 -5 -7 -10
-16 -10 -8 0 -12 5 -9 10 3 6 10 10 16 10 5 0 9 -4 9 -10z m-563 -245 c0 -8
-4 -15 -9 -15 -4 0 -8 7 -8 15 0 8 4 15 8 15 5 0 9 -7 9 -15z m720 -97 c-2
-13 -4 -5 -4 17 -1 22 1 32 4 23 2 -10 2 -28 0 -40z m-20 -25 c-3 -10 -5 -2
-5 17 0 19 2 27 5 18 2 -10 2 -26 0 -35z m24 -200 c-5 -34 -6 -35 -9 -10 -2
15 -8 25 -13 22 -5 -3 -6 1 -3 9 12 33 30 17 25 -21z m26 -65 c-3 -8 -6 -5 -6
6 -1 11 2 17 5 13 3 -3 4 -12 1 -19z m23 -27 c0 -17 -18 -21 -24 -6 -3 9 0 15
9 15 8 0 15 -4 15 -9z m-8485 -142 c11 -17 -1 -21 -15 -4 -8 9 -8 15 -2 15 6
0 14 -5 17 -11z m6935 -229 c0 -5 -5 -10 -11 -10 -5 0 -7 5 -4 10 3 6 8 10 11
10 2 0 4 -4 4 -10z m-7170 -280 c38 -36 27 -40 -12 -5 -26 22 -34 35 -24 35 2
0 18 -13 36 -30z m8627 -2 c-3 -8 -6 -5 -6 6 -1 11 2 17 5 13 3 -3 4 -12 1
-19z m-7262 -158 c3 -5 1 -10 -4 -10 -6 0 -11 5 -11 10 0 6 2 10 4 10 3 0 8
-4 11 -10z m109 -29 c17 -18 24 -31 17 -35 -6 -4 -11 -1 -11 7 0 20 -25 28
-41 14 -11 -10 -11 -9 -1 4 9 12 9 18 0 27 -7 7 -8 12 -2 12 6 0 23 -13 38
-29z m31 19 c3 -6 -1 -7 -9 -4 -18 7 -21 14 -7 14 6 0 13 -4 16 -10z m4755
-24 c0 -10 -32 -36 -43 -36 -7 0 -6 4 3 10 11 7 11 10 2 10 -7 0 -10 5 -7 10
6 10 45 15 45 6z m-6053 -38 c-3 -7 -5 -2 -5 12 0 14 2 19 5 13 2 -7 2 -19 0
-25z m53 -14 c0 -2 -7 -4 -15 -4 -8 0 -15 4 -15 10 0 5 7 7 15 4 8 -4 15 -8
15 -10z m8447 -16 c-3 -7 -5 -2 -5 12 0 14 2 19 5 13 2 -7 2 -19 0 -25z
m-7230 16 c-3 -3 -12 -4 -19 -1 -8 3 -5 6 6 6 11 1 17 -2 13 -5z m-1147 -80
c0 -3 -7 -1 -15 6 -8 7 -15 17 -15 22 0 5 7 3 15 -6 8 -8 15 -18 15 -22z m117
-116 c-3 -8 -6 -5 -6 6 -1 11 2 17 5 13 3 -3 4 -12 1 -19z m4273 -138 c0 -5
-17 -11 -37 -11 l-38 -2 35 -6 c22 -4 29 -9 20 -12 -21 -8 -51 -5 -74 8 -17 9
-12 12 35 21 30 5 55 10 57 11 1 0 2 -3 2 -9z m-146 -45 c-4 -8 -8 -15 -10
-15 -2 0 -4 7 -4 15 0 8 4 15 10 15 5 0 7 -7 4 -15z m31 5 c3 -5 1 -10 -4 -10
-6 0 -11 5 -11 10 0 6 2 10 4 10 3 0 8 -4 11 -10z m1690 -70 c-3 -5 -11 -10
-16 -10 -6 0 -7 5 -4 10 3 6 11 10 16 10 6 0 7 -4 4 -10z m-5486 -419 c9 -12
21 -17 34 -13 11 3 18 1 14 -4 -9 -15 -67 -16 -67 -2 0 9 -3 8 -10 -2 -6 -9
-10 -10 -10 -3 0 6 5 15 11 19 8 4 7 9 -2 15 -11 7 -11 9 1 9 9 0 22 -8 29
-19z m106 -1 c4 -6 10 -8 15 -5 5 3 12 0 16 -6 4 -7 3 -9 -4 -5 -6 3 -13 2
-17 -3 -7 -12 -45 -10 -45 2 0 5 7 7 15 3 8 -3 15 -1 15 3 0 5 -6 12 -12 14
-10 4 -10 6 -1 6 6 1 15 -4 18 -9z m7553 -25 c-3 -3 -9 2 -12 12 -6 14 -5 15
5 6 7 -7 10 -15 7 -18z m-2405 -32 c-7 -2 -19 -2 -25 0 -7 3 -2 5 12 5 14 0
19 -2 13 -5z m284 1 c-3 -3 -12 -4 -19 -1 -8 3 -5 6 6 6 11 1 17 -2 13 -5z
m-5760 -20 c-3 -3 -12 -4 -19 -1 -8 3 -5 6 6 6 11 1 17 -2 13 -5z m5991 -1
c-53 -2 -143 -2 -200 0 -57 1 -13 3 97 3 110 0 156 -2 103 -3z m1535 0 c-7 -2
-19 -2 -25 0 -7 3 -2 5 12 5 14 0 19 -2 13 -5z m-8706 -109 c-3 -3 -12 -4 -19
-1 -8 3 -5 6 6 6 11 1 17 -2 13 -5z m216 -21 c-7 -2 -19 -2 -25 0 -7 3 -2 5
12 5 14 0 19 -2 13 -5z m54 1 c-3 -3 -12 -4 -19 -1 -8 3 -5 6 6 6 11 1 17 -2
13 -5z m40 0 c-3 -3 -12 -4 -19 -1 -8 3 -5 6 6 6 11 1 17 -2 13 -5z m100 0
c-3 -3 -12 -4 -19 -1 -8 3 -5 6 6 6 11 1 17 -2 13 -5z m40 0 c-3 -3 -12 -4
-19 -1 -8 3 -5 6 6 6 11 1 17 -2 13 -5z"/>
<path d="M61 3804 c0 -11 3 -14 6 -6 3 7 2 16 -1 19 -3 4 -6 -2 -5 -13z"/>
<path d="M386 3753 c-6 -14 -5 -15 5 -6 7 7 10 15 7 18 -3 3 -9 -2 -12 -12z"/>
<path d="M138 3650 c-7 -41 1 -200 11 -217 3 -7 5 38 3 100 -4 141 -6 161 -14
117z"/>
<path d="M421 3664 c0 -11 3 -14 6 -6 3 7 2 16 -1 19 -3 4 -6 -2 -5 -13z"/>
<path d="M505 3499 c-4 -6 -5 -12 -2 -15 2 -3 7 2 10 11 7 17 1 20 -8 4z"/>
<path d="M146 3382 c-3 -5 -1 -30 4 -58 l8 -49 -1 58 c-1 59 -2 63 -11 49z"/>
<path d="M562 3350 c0 -19 2 -27 5 -17 2 9 2 25 0 35 -3 9 -5 1 -5 -18z"/>
<path d="M9805 3299 c-4 -6 -4 -13 -1 -16 3 -4 -2 -16 -11 -27 -10 -12 -11
-16 -4 -9 7 6 19 9 25 7 6 -2 12 5 13 16 1 12 -2 18 -9 14 -7 -4 -8 -2 -4 5 4
6 11 9 16 6 5 -3 11 -1 15 5 3 5 -3 10 -14 10 -11 0 -23 -5 -26 -11z"/>
<path d="M655 3200 c3 -5 8 -10 11 -10 2 0 4 5 4 10 0 6 -5 10 -11 10 -5 0 -7
-4 -4 -10z"/>
<path d="M152 3145 c0 -16 2 -22 5 -12 2 9 2 23 0 30 -3 6 -5 -1 -5 -18z"/>
<path d="M667 3159 c7 -7 15 -10 18 -7 3 3 -2 9 -12 12 -14 6 -15 5 -6 -5z"/>
<path d="M9800 3080 c-13 -8 -12 -10 3 -10 9 0 17 5 17 10 0 12 -1 12 -20 0z"/>
<path d="M9704 3063 c4 -8 2 -13 -6 -13 -8 0 -6 -5 5 -11 26 -15 34 -2 12 19
-10 9 -15 11 -11 5z"/>
<path d="M81 3034 c0 -11 3 -14 6 -6 3 7 2 16 -1 19 -3 4 -6 -2 -5 -13z"/>
<path d="M26 2975 c8 -37 14 -45 14 -19 0 10 -5 26 -10 34 -8 11 -9 7 -4 -15z"/>
<path d="M81 2984 c0 -11 3 -14 6 -6 3 7 2 16 -1 19 -3 4 -6 -2 -5 -13z"/>
<path d="M158 2989 c-1 -8 -2 -50 -2 -94 -1 -66 -4 -79 -16 -77 -12 3 -13 1
-2 -9 6 -7 12 -21 12 -31 0 -10 5 -18 11 -18 5 0 7 5 4 10 -3 6 -3 16 1 22 8
13 6 199 -2 207 -2 2 -5 -2 -6 -10z"/>
<path d="M10080 2879 c0 -5 5 -7 10 -4 6 3 10 8 10 11 0 2 -4 4 -10 4 -5 0
-10 -5 -10 -11z"/>
<path d="M21 2621 c0 -79 2 -142 5 -139 8 9 12 218 4 252 -4 18 -8 -32 -9
-113z"/>
<path d="M152 2730 c0 -14 2 -19 5 -12 2 6 2 18 0 25 -3 6 -5 1 -5 -13z"/>
<path d="M80 2607 c0 -20 4 -38 9 -41 4 -3 6 11 4 31 -5 50 -13 55 -13 10z"/>
<path d="M10210 2494 c0 -8 5 -12 10 -9 6 4 8 11 5 16 -9 14 -15 11 -15 -7z"/>
<path d="M149 2490 c-1 -8 -1 -26 -1 -39 1 -14 -3 -30 -8 -37 -8 -8 -4 -13 10
-17 19 -5 21 -1 19 39 -3 45 -17 84 -20 54z"/>
<path d="M10091 2404 c0 -11 3 -14 6 -6 3 7 2 16 -1 19 -3 4 -6 -2 -5 -13z"/>
<path d="M10031 2154 c0 -11 3 -14 6 -6 3 7 2 16 -1 19 -3 4 -6 -2 -5 -13z"/>
<path d="M1567 2059 c7 -7 15 -10 18 -7 3 3 -2 9 -12 12 -14 6 -15 5 -6 -5z"/>
<path d="M1650 1979 c0 -5 5 -7 10 -4 6 3 10 8 10 11 0 2 -4 4 -10 4 -5 0 -10
-5 -10 -11z"/>
<path d="M1687 1949 c6 -22 23 -26 23 -5 0 8 -6 16 -14 19 -10 4 -12 0 -9 -14z"/>
<path d="M1755 1790 c-3 -5 1 -10 9 -10 9 0 16 5 16 10 0 6 -4 10 -9 10 -6 0
-13 -4 -16 -10z"/>
<path d="M8623 1776 c-10 -11 -9 -16 5 -21 9 -3 13 -3 9 1 -4 4 -2 13 4 21 15
17 -2 16 -18 -1z"/>
<path d="M8588 1739 c-4 -10 1 -15 13 -16 12 -1 19 5 19 15 0 13 -2 14 -9 3
-7 -11 -9 -11 -13 0 -3 10 -6 10 -10 -2z"/>
<path d="M10184 1715 c-3 -8 -1 -27 4 -42 10 -27 10 -26 11 15 1 43 -5 54 -15
27z"/>
<path d="M2280 1609 c0 -22 27 -32 34 -13 4 9 2 12 -5 8 -6 -4 -15 0 -20 7 -7
11 -9 11 -9 -2z"/>
<path d="M2341 1578 c-1 -21 4 -28 17 -28 11 0 13 3 6 8 -7 4 -14 16 -17 27
-4 15 -5 14 -6 -7z"/>
<path d="M140 1453 c0 -61 -3 -83 -10 -73 -8 13 -10 12 -10 -2 0 -10 7 -18 15
-18 12 0 15 17 15 90 0 50 -2 90 -5 90 -3 0 -5 -39 -5 -87z"/>
<path d="M2426 1505 c4 -8 11 -15 18 -15 6 0 4 -5 -4 -10 -9 -6 -10 -10 -3
-10 6 0 19 -3 29 -7 15 -6 15 -2 -5 25 -23 33 -45 43 -35 17z"/>
<path d="M32 1480 c0 -19 2 -27 5 -17 2 9 2 25 0 35 -3 9 -5 1 -5 -18z"/>
<path d="M2436 1395 c10 -8 23 -15 28 -15 6 0 1 7 -10 15 -10 8 -23 15 -28 15
-6 0 -1 -7 10 -15z"/>
<path d="M2646 1368 c3 -4 9 -8 15 -8 5 0 9 4 9 8 0 5 -7 9 -15 9 -8 0 -12 -4
-9 -9z"/>
<path d="M144 1255 c0 -55 1 -76 3 -47 2 29 2 74 0 100 -2 26 -3 2 -3 -53z"/>
<path d="M8801 1314 c0 -11 3 -14 6 -6 3 7 2 16 -1 19 -3 4 -6 -2 -5 -13z"/>
<path d="M61 1234 c0 -11 3 -14 6 -6 3 7 2 16 -1 19 -3 4 -6 -2 -5 -13z"/>
<path d="M2737 1209 c7 -7 15 -10 18 -7 3 3 -2 9 -12 12 -14 6 -15 5 -6 -5z"/>
<path d="M3060 1160 c8 -5 11 -10 6 -10 -5 0 -3 -7 4 -15 7 -8 9 -15 4 -15 -4
0 3 -11 16 -25 17 -18 34 -25 62 -25 25 0 37 4 33 10 -4 6 -15 8 -25 5 -10 -3
-30 0 -44 7 l-27 12 23 14 c13 7 15 11 6 8 -12 -3 -24 3 -34 19 -9 14 -21 25
-28 25 -6 0 -4 -5 4 -10z"/>
<path d="M7571 1134 c0 -11 3 -14 6 -6 3 7 2 16 -1 19 -3 4 -6 -2 -5 -13z"/>
<path d="M3135 1100 c3 -5 11 -10 16 -10 6 0 7 5 4 10 -3 6 -11 10 -16 10 -6
0 -7 -4 -4 -10z"/>
<path d="M7495 1090 c-16 -7 -17 -9 -3 -9 9 -1 20 4 23 9 7 11 7 11 -20 0z"/>
<path d="M140 1045 c-7 -86 -7 -95 1 -95 5 0 9 7 9 15 0 8 5 15 11 15 8 0 8 4
1 13 -6 7 -12 30 -15 52 l-4 40 -3 -40z"/>
<path d="M3215 1070 c3 -5 8 -10 11 -10 2 0 4 5 4 10 0 6 -5 10 -11 10 -5 0
-7 -4 -4 -10z"/>
<path d="M108 1020 c-7 -24 -3 -38 8 -28 3 4 4 17 2 30 l-3 23 -7 -25z"/>
<path d="M3354 1018 c-4 -7 -3 -8 4 -4 7 4 12 2 12 -3 0 -6 5 -11 10 -11 15 0
12 17 -5 23 -8 4 -17 1 -21 -5z"/>
<path d="M82 895 l0 -80 9 58 c5 33 4 67 -1 80 -6 16 -9 -1 -8 -58z"/>
<path d="M6830 966 c0 -9 30 -14 35 -6 4 6 -3 10 -14 10 -12 0 -21 -2 -21 -4z"/>
<path d="M59 853 c0 -21 -2 -52 -5 -70 -2 -18 1 -35 6 -38 6 -4 10 22 10 69 0
76 -9 109 -11 39z"/>
<path d="M3578 863 c6 -2 18 -2 25 0 6 3 1 5 -13 5 -14 0 -19 -2 -12 -5z"/>
<path d="M6360 839 c0 -5 5 -7 10 -4 6 3 10 8 10 11 0 2 -4 4 -10 4 -5 0 -10
-5 -10 -11z"/>
<path d="M1960 821 c0 -5 5 -13 10 -16 6 -3 10 -2 10 4 0 5 -4 13 -10 16 -5 3
-10 2 -10 -4z"/>
<path d="M6235 810 l-30 -8 33 -1 c17 0 32 4 32 9 0 6 -1 9 -2 9 -2 -1 -16 -5
-33 -9z"/>
<path d="M6168 793 c6 -2 18 -2 25 0 6 3 1 5 -13 5 -14 0 -19 -2 -12 -5z"/>
<path d="M121 734 c0 -11 3 -14 6 -6 3 7 2 16 -1 19 -3 4 -6 -2 -5 -13z"/>
<path d="M10002 650 c0 -14 2 -19 5 -12 2 6 2 18 0 25 -3 6 -5 1 -5 -13z"/>
<path d="M9942 625 c4 -4 3 -14 -2 -20 -8 -9 -6 -14 5 -19 19 -7 21 29 3 40
-7 4 -10 4 -6 -1z"/>
<path d="M10000 556 c0 -9 5 -16 10 -16 6 0 10 4 10 9 0 6 -4 13 -10 16 -5 3
-10 -1 -10 -9z"/>
<path d="M9976 447 c3 -10 9 -15 12 -12 3 3 0 11 -7 18 -10 9 -11 8 -5 -6z"/>
<path d="M7838 183 c6 -2 18 -2 25 0 6 3 1 5 -13 5 -14 0 -19 -2 -12 -5z"/>
<path d="M8238 183 c18 -2 45 -2 60 0 15 2 0 4 -33 4 -33 0 -45 -2 -27 -4z"/>
<path d="M8640 180 c19 -13 30 -13 30 0 0 6 -10 10 -22 10 -19 0 -20 -2 -8
-10z"/>
<path d="M8688 173 c6 -2 18 -2 25 0 6 3 1 5 -13 5 -14 0 -19 -2 -12 -5z"/>
<path d="M1740 160 c25 -8 107 -13 99 -6 -2 2 -31 6 -64 9 -37 3 -51 2 -35 -3z"/>
</g>
</svg>
