<?xml version="1.0" standalone="no"?>
<!DOCTYPE svg PUBLIC "-//W3C//DTD SVG 20010904//EN"
 "http://www.w3.org/TR/2001/REC-SVG-20010904/DTD/svg10.dtd">
<svg version="1.0" xmlns="http://www.w3.org/2000/svg"
 width="1024.000000pt" height="1024.000000pt" viewBox="0 0 1024.000000 1024.000000"
 preserveAspectRatio="xMidYMid meet">

<g transform="translate(0.000000,1024.000000) scale(0.100000,-0.100000)"
fill="#000000" stroke="none">
<path d="M0 6854 c0 -3220 1 -3386 18 -3381 137 43 515 133 653 157 63 10 168
28 234 39 164 27 392 58 560 76 290 30 442 46 498 54 31 4 57 6 57 3 0 -2 -22
-29 -48 -60 -136 -161 -164 -198 -194 -259 -23 -47 -33 -84 -36 -127 -3 -56 0
-66 34 -124 21 -35 56 -76 79 -93 163 -121 190 -138 410 -256 111 -60 369
-186 589 -287 196 -90 533 -221 696 -270 281 -84 377 -111 570 -160 227 -57
453 -96 710 -120 204 -19 321 -25 710 -32 334 -6 372 -4 765 41 223 25 432 91
690 217 137 67 374 210 445 268 25 20 52 40 60 42 21 8 185 140 249 202 80 77
111 123 111 166 0 53 -114 409 -167 520 -17 36 -63 151 -63 157 0 8 79 -11
186 -43 62 -18 129 -38 150 -43 196 -47 577 -196 866 -338 70 -35 130 -63 134
-63 22 0 394 -237 494 -315 207 -161 346 -352 416 -572 24 -76 28 -105 29
-208 0 -115 -1 -123 -32 -185 -36 -73 -60 -103 -118 -145 -22 -17 -42 -33 -45
-36 -9 -12 -173 -95 -235 -119 -33 -12 -91 -35 -130 -50 -103 -41 -635 -220
-652 -220 -8 0 -29 -6 -46 -14 -36 -16 -119 -42 -257 -81 -52 -15 -133 -40
-180 -55 -47 -15 -161 -49 -255 -75 -93 -26 -206 -58 -250 -71 -130 -38 -593
-152 -685 -169 -47 -8 -157 -28 -245 -45 -88 -17 -207 -35 -265 -40 -58 -6
-150 -17 -205 -25 -251 -38 -735 -74 -1105 -84 -675 -17 -1284 7 -1620 64 -80
14 -197 32 -260 40 -133 18 -246 40 -345 65 -38 10 -90 21 -115 25 -140 22
-637 156 -920 248 -297 97 -774 312 -1030 465 -19 11 -69 40 -110 63 -132 74
-387 244 -480 319 -25 20 -53 41 -64 47 -10 5 -44 31 -75 57 -31 25 -84 69
-118 97 l-63 50 0 -1086 0 -1085 4720 0 4720 0 0 80 0 80 320 0 320 0 0 -80 0
-80 80 0 80 0 0 5120 0 5120 -1857 0 c-1021 0 -1853 -4 -1847 -8 71 -63 223
-209 474 -456 468 -461 558 -542 825 -740 66 -49 135 -101 154 -115 18 -14 52
-39 75 -55 22 -17 72 -55 111 -85 38 -31 77 -60 86 -66 9 -5 45 -32 81 -60 36
-27 107 -82 159 -122 92 -70 125 -97 266 -215 140 -116 300 -283 377 -393 44
-63 156 -244 156 -251 0 -2 23 -46 51 -96 46 -82 132 -246 228 -433 44 -86
180 -371 241 -505 29 -63 64 -140 78 -170 14 -30 42 -93 64 -138 21 -46 38
-88 38 -92 0 -4 -11 -10 -25 -13 -21 -4 -41 10 -113 77 -149 138 -192 174
-347 290 -318 237 -605 405 -1000 581 -77 35 -201 92 -276 128 -119 57 -401
183 -624 279 -38 16 -98 43 -131 59 -70 33 -74 34 -74 16 0 -19 -77 -176 -104
-212 -12 -16 -37 -57 -56 -90 -52 -94 -225 -356 -365 -555 -40 -58 -91 -132
-111 -165 -21 -33 -41 -61 -45 -63 -4 -2 -18 -33 -30 -70 -12 -37 -26 -71 -31
-77 -6 -6 -8 42 -6 128 2 102 0 137 -9 137 -28 0 -35 -42 -28 -159 8 -149 30
-266 111 -586 64 -256 110 -448 121 -513 3 -18 10 -35 14 -38 5 -3 9 -13 9
-23 0 -21 110 -391 138 -468 11 -28 17 -54 14 -57 -3 -3 0 -6 6 -6 7 0 12 -10
12 -23 0 -13 6 -29 13 -36 10 -11 9 -13 -5 -8 -10 4 -18 2 -18 -3 0 -6 6 -10
13 -10 9 0 8 -3 -2 -9 -7 -5 -11 -14 -7 -19 4 -6 8 -48 11 -93 2 -44 6 -84 9
-87 3 -3 -2 -11 -12 -19 -9 -8 -12 -12 -7 -9 7 3 11 -19 10 -62 0 -37 3 -77 7
-89 4 -13 3 -23 -3 -25 -11 -4 -15 -106 -5 -116 4 -3 -2 -14 -11 -25 -10 -11
-13 -18 -8 -14 15 8 17 -75 3 -84 -9 -6 -8 -12 3 -25 12 -16 12 -17 -1 -9 -13
8 -13 7 0 -11 8 -10 20 -23 25 -27 6 -5 2 -6 -9 -3 -15 5 -17 2 -13 -14 3 -11
1 -20 -5 -20 -6 0 -7 -8 -3 -17 11 -27 13 -113 3 -113 -5 0 -6 -5 -3 -10 10
-16 13 -140 4 -146 -5 -3 -5 -13 0 -23 12 -21 3 -61 -13 -61 -8 0 -8 -3 0 -8
14 -9 27 -45 14 -37 -6 3 -10 0 -10 -7 0 -24 -374 -318 -405 -318 -3 0 -21
-11 -38 -24 -18 -13 -71 -44 -119 -69 -83 -43 -88 -44 -88 -24 0 44 -12 48
-75 27 -33 -10 -73 -22 -89 -25 -15 -3 -26 -8 -24 -11 3 -2 29 1 57 7 29 6 55
9 58 6 8 -8 23 -789 18 -927 l-5 -125 -34 -7 c-95 -20 -249 -38 -323 -38 -76
0 -83 2 -84 20 -1 11 -3 25 -4 30 -1 6 -3 219 -4 475 -1 399 -3 465 -16 465
-7 0 -18 -8 -24 -17 -9 -17 -40 -18 -428 -18 -539 0 -664 12 -1138 106 -265
52 -496 118 -550 157 -16 11 -16 13 -2 9 19 -7 25 17 7 28 -8 5 -7 11 0 20 7
8 9 19 5 25 -4 6 -1 18 6 26 10 12 9 13 -5 8 -9 -3 -16 -11 -16 -17 0 -6 -3
-7 -7 -4 -3 4 1 15 9 24 15 17 31 63 22 63 -3 0 -9 -10 -14 -22 -7 -17 -8 -12
-4 22 2 24 10 48 17 52 8 5 6 8 -7 8 -16 0 -17 2 -5 17 10 11 10 14 2 9 -8 -4
-13 -1 -13 9 0 9 5 13 10 10 6 -3 10 1 10 10 0 9 -5 13 -11 9 -8 -4 -8 0 0 15
9 16 9 21 0 21 -7 0 -4 9 7 22 10 12 13 18 6 14 -6 -4 -12 -2 -12 3 0 6 8 11
18 11 16 1 16 1 -1 11 -12 7 -15 15 -9 22 11 14 12 48 1 42 -12 -8 -17 33 -6
44 10 10 17 30 19 56 1 6 -2 20 -6 33 -5 16 -4 22 5 20 7 -2 15 5 17 16 2 10
0 16 -5 13 -5 -3 -9 3 -10 13 -1 11 3 22 8 26 6 4 6 11 -2 20 -8 10 -9 22 -2
37 5 12 6 36 2 52 -11 47 -10 77 1 70 6 -4 8 -11 5 -16 -3 -5 0 -6 8 -3 8 3
36 -15 64 -40 49 -44 72 -51 53 -16 -5 10 -32 94 -60 186 l-50 168 82 84 c74
74 157 141 176 142 10 1 55 40 51 44 -2 3 -65 9 -139 14 -148 11 -167 16 -167
38 0 8 6 13 13 10 8 -3 11 0 7 9 -3 8 -9 12 -14 9 -15 -9 -10 3 9 22 16 17 16
17 -5 12 -13 -3 -23 -2 -23 3 0 5 8 9 18 9 15 1 15 2 -2 15 -11 8 -15 15 -9
15 6 0 13 11 15 25 4 18 2 23 -6 16 -8 -7 -12 -4 -13 10 -1 11 1 18 5 15 4 -2
7 9 7 25 1 18 -4 28 -10 25 -7 -2 -12 2 -12 10 0 7 4 11 9 8 4 -3 8 2 8 11 0
9 -4 13 -10 10 -15 -9 -12 5 5 22 12 11 13 18 4 29 -6 7 -7 19 -2 26 11 18 11
81 -1 90 -6 4 -5 13 3 22 11 13 11 19 1 31 -11 13 -10 14 3 9 9 -3 18 -13 20
-22 2 -10 3 2 3 25 -1 32 -4 39 -14 31 -7 -6 -15 -8 -19 -4 -3 3 0 6 7 6 7 0
10 3 7 7 -4 3 1 12 11 20 10 9 11 11 2 7 -13 -7 -13 -5 -2 9 8 9 11 21 7 28
-6 8 -10 7 -16 -2 -6 -10 -9 -8 -9 7 0 14 8 24 23 28 18 5 20 8 7 16 -8 5 -11
10 -6 10 5 0 2 8 -5 17 -10 11 -10 14 -1 9 6 -4 12 -2 12 3 0 6 -4 11 -8 11
-4 0 -8 9 -9 20 -1 11 2 18 7 15 6 -3 7 1 4 10 -4 8 0 23 7 32 10 12 10 15 2
9 -7 -4 -13 -3 -13 3 0 5 4 12 9 15 13 8 7 36 -10 47 -11 7 -11 9 -1 9 9 0 13
11 11 34 -2 19 2 40 8 47 11 15 10 46 -3 57 -4 4 -4 -1 -1 -10 7 -20 -18 -45
-28 -28 -4 6 -1 9 7 8 7 -2 12 2 11 9 -2 7 2 24 7 39 8 19 7 31 -2 43 -12 14
-11 14 5 2 17 -14 21 -10 17 23 -1 12 2 16 11 11 8 -5 10 -4 5 3 -4 7 -14 12
-22 12 -8 0 -12 5 -9 10 4 6 3 16 -2 23 -13 17 -10 40 6 45 9 3 11 0 6 -8 -5
-9 -4 -11 4 -6 9 6 9 11 -1 23 -14 18 -19 43 -11 57 11 17 12 57 2 51 -5 -3
-6 1 -3 9 3 9 10 14 14 11 4 -3 10 2 14 10 3 8 1 15 -5 15 -6 0 -7 5 -3 12 12
18 11 58 -1 58 -5 0 -4 4 4 9 12 8 12 12 2 25 -8 10 -11 26 -6 43 11 44 13
127 2 140 -5 8 -3 20 7 34 14 20 14 23 0 34 -15 10 -15 13 1 28 15 16 15 17
-1 17 -13 0 -14 3 -5 14 9 11 8 17 -3 29 -14 13 -14 16 -1 27 11 9 15 9 15 1
0 -6 4 -11 9 -11 5 0 4 11 -2 24 -7 13 -14 23 -17 21 -3 -2 -12 0 -20 6 -12 7
-12 9 3 9 10 0 15 5 12 10 -4 6 -10 8 -16 5 -5 -3 8 25 28 62 62 114 211 405
235 458 12 28 156 316 319 640 266 530 421 823 522 985 137 221 266 427 287
459 75 115 185 275 233 339 87 117 271 306 360 371 45 33 94 69 108 80 15 11
98 63 185 115 88 53 166 100 174 105 10 6 -1126 10 -3122 10 l-3138 1 0 -3386z
m3830 -428 c0 -3 -4 -8 -10 -11 -5 -3 -10 -1 -10 4 0 6 5 11 10 11 6 0 10 -2
10 -4z m-20 -606 c0 -5 -5 -10 -11 -10 -5 0 -7 5 -4 10 3 6 8 10 11 10 2 0 4
-4 4 -10z m-80 -1970 c0 -5 -5 -10 -11 -10 -5 0 -7 5 -4 10 3 6 8 10 11 10 2
0 4 -4 4 -10z m-3 -136 c-3 -3 -12 -4 -19 -1 -8 3 -5 6 6 6 11 1 17 -2 13 -5z"/>
<path d="M5769 8671 c-92 -185 -165 -305 -194 -321 -18 -9 -74 -14 -194 -14
-94 -1 -167 -4 -163 -8 4 -3 41 -34 82 -68 68 -56 220 -198 220 -205 0 -2 -7
-37 -14 -79 -18 -90 -56 -201 -96 -274 -22 -41 -25 -51 -11 -40 136 99 190
135 267 175 l91 47 119 -77 c66 -43 141 -99 168 -125 42 -40 48 -43 42 -22
-29 100 -57 219 -71 300 -16 92 -16 95 3 110 11 8 45 35 76 59 31 25 65 49 75
55 56 32 141 90 141 95 0 4 -39 12 -87 19 -49 6 -95 13 -103 15 -8 2 -59 11
-112 21 -93 17 -97 19 -108 50 -48 130 -100 287 -100 300 0 25 -15 19 -31 -13z"/>
<path d="M3835 6230 c-3 -5 -1 -10 4 -10 6 0 11 5 11 10 0 6 -2 10 -4 10 -3 0
-8 -4 -11 -10z"/>
<path d="M5202 6214 c-5 -11 -28 -75 -51 -143 -23 -68 -59 -163 -80 -210 -21
-47 -44 -104 -51 -126 -7 -22 -15 -43 -19 -47 -5 -6 -108 -18 -364 -44 -26 -2
-87 2 -134 11 -48 8 -89 12 -92 9 -9 -9 130 -131 339 -297 98 -78 105 -85 104
-117 -2 -63 -95 -473 -115 -512 -12 -23 4 -24 22 -2 11 14 147 105 377 253 62
41 86 49 96 33 3 -5 45 -33 93 -62 162 -99 257 -163 301 -204 l45 -41 -7 50
c-4 28 -14 77 -23 110 -8 33 -30 134 -49 225 l-34 165 22 19 c13 10 43 35 68
56 154 132 357 290 371 290 5 0 9 4 9 9 0 5 -20 6 -45 4 -50 -6 -326 12 -453
29 -47 6 -92 18 -103 27 -20 17 -90 190 -161 396 -22 66 -44 124 -48 129 -5 4
-13 0 -18 -10z"/>
<path d="M3814 5871 c21 -23 26 -26 26 -11 0 5 -10 15 -22 21 -23 12 -23 12
-4 -10z"/>
<path d="M3810 5659 c0 -5 5 -7 10 -4 6 3 10 8 10 11 0 2 -4 4 -10 4 -5 0 -10
-5 -10 -11z"/>
<path d="M6366 4910 c-3 -8 -21 -66 -41 -127 -20 -62 -57 -161 -84 -220 l-48
-108 -94 -6 c-93 -7 -301 -18 -349 -19 -27 -1 -29 2 36 -46 67 -49 281 -223
293 -238 12 -14 12 -27 -2 -94 -9 -42 -21 -97 -26 -122 -5 -25 -21 -88 -36
-140 -15 -52 -30 -106 -33 -120 l-5 -25 29 25 c16 14 51 46 79 72 65 61 85 76
200 153 l97 64 61 -49 c34 -27 73 -55 87 -62 14 -7 61 -51 104 -98 75 -81 101
-126 161 -267 25 -60 39 -54 15 6 -22 57 -45 142 -70 256 -9 44 -31 132 -48
195 -16 63 -33 135 -36 160 l-6 45 66 55 c75 62 101 83 203 158 39 30 71 58
71 63 0 5 -28 10 -62 11 -35 0 -74 2 -88 3 -292 19 -291 19 -315 64 -8 17 -43
113 -76 213 -34 101 -65 190 -69 198 -8 13 -9 13 -14 0z"/>
<path d="M3731 3771 c-8 -5 -9 -11 -3 -15 5 -3 12 1 16 9 6 17 6 18 -13 6z"/>
<path d="M5445 1971 l-50 -7 65 -5 c135 -11 365 -8 430 5 62 13 53 14 -165 13
-126 0 -252 -3 -280 -6z"/>
</g>
</svg>
