<?xml version="1.0" standalone="no"?>
<!DOCTYPE svg PUBLIC "-//W3C//DTD SVG 20010904//EN"
 "http://www.w3.org/TR/2001/REC-SVG-20010904/DTD/svg10.dtd">
<svg version="1.0" xmlns="http://www.w3.org/2000/svg"
 width="1024.000000pt" height="1024.000000pt" viewBox="0 0 1024.000000 1024.000000"
 preserveAspectRatio="xMidYMid meet">

<g transform="translate(0.000000,1024.000000) scale(0.100000,-0.100000)"
fill="#000000" stroke="none">
<path d="M0 5120 l0 -5120 5120 0 5120 0 0 5120 0 5120 -5120 0 -5120 0 0
-5120z m6125 4960 c69 -19 109 -43 113 -68 2 -12 8 -22 14 -22 5 0 7 -7 4 -16
-3 -8 -2 -12 4 -9 5 3 13 -12 16 -35 4 -22 10 -40 15 -40 5 0 9 -5 9 -11 0
-14 26 -39 40 -39 6 0 9 -4 5 -9 -5 -9 20 -22 39 -20 5 0 13 -5 17 -13 7 -11
11 -10 19 2 5 8 10 10 10 5 0 -13 60 -49 61 -38 1 4 1 13 0 18 -1 6 5 2 12 -7
7 -9 26 -20 43 -24 16 -4 34 -10 39 -14 6 -4 26 -10 47 -14 20 -4 39 -13 42
-21 3 -8 10 -15 16 -15 6 0 8 5 5 11 -9 13 32 -9 61 -34 11 -9 32 -16 45 -15
18 2 25 -2 27 -19 2 -13 10 -23 18 -23 9 0 12 5 8 12 -5 7 -3 8 5 4 7 -5 16
-19 22 -33 5 -13 13 -22 18 -18 5 3 13 0 16 -6 4 -6 18 -8 30 -5 13 3 27 2 30
-4 3 -5 0 -7 -8 -4 -8 3 -18 1 -21 -4 -3 -6 6 -9 23 -8 22 2 28 -2 26 -14 -2
-9 3 -17 10 -17 8 0 11 5 8 11 -4 6 3 3 15 -8 12 -10 19 -22 17 -27 -3 -4 4
-10 15 -14 11 -3 20 -10 20 -15 0 -5 7 -6 17 -3 12 5 14 3 8 -8 -8 -12 -6 -12
8 -1 14 12 17 10 23 -12 3 -14 13 -26 21 -26 8 0 11 -4 8 -10 -3 -6 1 -7 9 -4
9 4 16 1 16 -6 0 -7 7 -10 16 -6 9 4 27 -5 44 -22 43 -40 53 -47 75 -50 11 -2
22 -8 23 -13 2 -5 12 -9 21 -9 10 0 24 -11 31 -25 7 -14 16 -25 20 -25 4 0 20
-11 35 -24 16 -14 32 -23 37 -20 4 3 8 0 8 -6 0 -6 4 -9 9 -5 5 3 12 -3 16
-14 3 -11 13 -22 21 -25 9 -3 12 -11 8 -18 -5 -8 0 -9 14 -6 21 6 27 -1 23
-31 -2 -7 2 -10 8 -7 5 4 12 2 16 -4 3 -5 15 -10 26 -10 10 0 19 -5 19 -11 0
-5 5 -7 10 -4 6 3 13 -1 16 -9 3 -9 10 -16 15 -16 14 0 119 -106 119 -120 0
-9 4 -9 13 -2 8 7 18 6 31 -4 11 -8 14 -14 8 -14 -7 0 -12 -7 -12 -16 0 -9 8
-14 18 -13 32 3 43 -1 36 -12 -5 -8 -9 -8 -14 1 -5 8 -9 8 -13 -3 -3 -8 3 -23
13 -32 11 -10 17 -22 14 -26 -3 -5 2 -6 12 -2 32 12 -2 -29 -125 -152 -66 -65
-118 -121 -115 -124 2 -2 17 7 32 20 50 45 76 64 68 51 -5 -8 16 3 45 24 37
25 48 30 34 14 -39 -45 -241 -223 -290 -256 l-50 -33 -80 25 c-70 22 -93 25
-185 22 -96 -4 -112 -7 -183 -41 -159 -74 -365 -225 -497 -363 -130 -136 -192
-247 -241 -429 -12 -44 -32 -102 -46 -128 -13 -27 -22 -51 -20 -54 6 -5 74 83
134 172 50 74 73 96 73 70 0 -79 -49 -233 -92 -288 -14 -18 -18 -18 -109 13
-412 142 -697 260 -741 308 -66 72 -132 246 -140 371 -9 127 27 245 96 314 59
59 86 106 86 148 0 57 -31 85 -119 109 -98 27 -139 50 -188 103 -34 37 -42 54
-48 100 -8 61 -1 118 22 190 17 53 40 70 113 81 86 13 143 72 171 177 13 50
15 43 -45 169 -32 68 -140 172 -208 200 l-56 23 5 51 5 51 -92 100 c-50 55
-95 101 -99 103 -5 1 -16 -10 -26 -25 -10 -15 -47 -58 -82 -95 -47 -50 -63
-75 -64 -98 -1 -16 -2 -40 -3 -52 -1 -16 -21 -36 -72 -69 -86 -57 -140 -116
-184 -204 -78 -153 -37 -278 107 -330 67 -24 87 -49 109 -135 27 -105 4 -211
-58 -266 -50 -46 -135 -93 -157 -87 -52 13 -101 -44 -101 -117 0 -51 11 -72
67 -133 76 -82 88 -120 88 -277 -1 -122 -4 -142 -28 -206 -65 -171 -158 -291
-268 -347 -56 -28 -353 -137 -373 -137 -22 0 -75 106 -105 213 -39 136 -71
200 -158 312 -174 225 -472 451 -658 499 -81 22 -176 20 -260 -4 -38 -11 -73
-20 -77 -20 -11 0 -209 161 -318 258 -149 133 -421 394 -416 399 2 3 20 8 40
13 37 8 23 19 271 -199 44 -38 130 -97 121 -83 -4 8 2 16 16 21 13 6 19 10 14
10 -5 1 1 10 14 21 13 12 30 18 37 16 7 -3 13 -1 13 5 0 6 5 7 10 4 5 -3 10
-2 10 4 0 5 -6 12 -12 15 -7 4 -3 4 10 2 19 -4 21 -2 11 10 -9 11 -8 14 5 14
9 0 19 7 22 15 4 8 10 12 15 9 5 -3 9 0 9 5 0 6 7 11 15 11 8 0 15 5 15 10 0
6 9 10 20 10 14 0 20 7 20 21 0 12 4 17 11 14 5 -4 18 0 27 8 22 19 67 33 58
18 -4 -6 -3 -11 3 -11 5 0 13 5 16 10 3 6 1 10 -4 10 -6 0 -11 5 -11 11 0 7 9
9 21 6 13 -4 19 -1 16 6 -5 14 18 39 27 30 3 -4 6 1 6 10 0 9 2 17 4 17 2 0
12 3 22 7 12 4 15 3 10 -5 -4 -7 -1 -12 9 -12 12 0 15 6 10 23 -4 15 -3 18 3
8 12 -17 54 3 46 23 -3 7 2 16 11 20 9 3 13 2 10 -3 -9 -16 9 -20 23 -5 7 8 8
14 3 14 -6 0 -8 6 -5 14 3 9 12 12 21 9 10 -4 14 -2 10 4 -3 5 9 16 28 23 19
8 35 20 35 28 0 8 6 12 14 9 8 -3 20 1 27 9 9 11 15 12 25 3 9 -8 14 -8 14 -1
0 6 9 14 20 17 11 4 17 11 14 17 -5 7 -1 9 9 5 10 -4 17 -1 17 6 0 8 4 6 10
-3 5 -8 10 -10 10 -4 0 7 18 19 41 28 22 9 38 20 35 25 -3 5 4 11 15 14 12 3
18 10 14 16 -3 7 0 8 9 5 11 -4 16 0 16 11 0 9 4 14 9 10 5 -3 13 0 17 6 4 8
9 7 15 -2 7 -11 9 -10 9 4 0 9 6 16 13 15 6 -2 11 2 10 8 -1 7 14 15 35 19 20
4 40 11 43 17 9 14 111 48 123 41 5 -3 6 -1 2 5 -4 7 -1 12 8 12 9 0 16 -6 16
-12 0 -9 3 -10 8 -2 4 6 17 16 30 23 12 7 20 17 16 22 -4 7 10 8 40 5 25 -3
46 -2 46 2 0 10 51 32 61 26 5 -3 9 0 9 5 0 6 7 11 15 11 8 0 15 -5 15 -11 0
-5 4 -8 10 -4 5 3 7 11 4 19 -3 7 2 13 11 13 8 0 15 -5 15 -11 0 -6 4 -5 9 2
4 7 17 14 28 15 12 0 19 6 16 13 -2 7 5 15 17 19 19 6 21 13 18 50 -1 24 0 41
4 39 4 -2 6 11 5 30 -1 19 -5 32 -9 29 -5 -2 -8 7 -8 21 0 14 -4 26 -10 26 -5
0 -10 13 -10 29 0 17 -4 32 -10 36 -5 3 -1 14 10 25 11 11 20 27 20 36 0 8 5
12 10 9 6 -3 10 1 10 10 0 9 4 14 9 11 13 -8 42 4 36 14 -3 5 3 9 12 9 20 0
47 5 108 20 52 12 156 19 390 27 105 3 215 7 245 8 30 2 125 7 210 11 85 4
156 9 158 10 2 2 193 2 425 1 312 -2 435 -6 472 -16z m-5024 -130 c57 -16 102
-51 127 -100 40 -79 25 -166 -37 -225 -27 -25 -40 -30 -80 -29 -59 2 -132 36
-171 80 -34 39 -45 72 -37 112 l5 27 -24 -30 c-13 -16 -24 -36 -24 -44 0 -8
-3 -12 -6 -8 -12 11 19 82 50 116 17 18 49 41 71 51 l40 17 -33 7 c-24 6 -44
2 -77 -14 -25 -12 -45 -26 -45 -31 0 -6 -4 -7 -10 -4 -19 12 -10 35 20 50 63
32 165 43 231 25z m8206 -16 c35 -11 65 -25 68 -33 5 -12 3 -12 -11 0 -15 12
-14 9 2 -21 15 -27 19 -56 19 -130 0 -83 -3 -101 -25 -140 -31 -55 -89 -90
-145 -89 l-40 2 41 6 c42 7 87 36 112 72 8 11 11 23 8 26 -3 4 -6 2 -6 -4 0
-6 -7 -13 -15 -17 -13 -4 -14 -2 -5 14 14 27 -11 27 -54 1 -102 -62 -201 -9
-228 122 -10 49 -10 61 5 92 18 39 65 72 114 81 36 7 116 -17 145 -43 25 -23
35 -8 12 18 -29 33 -77 49 -146 49 -75 0 -132 -24 -171 -69 -33 -39 -36 -32
-4 10 56 77 178 96 324 53z m-388 -109 c-6 -21 -8 -51 -5 -66 3 -19 1 -29 -10
-33 -18 -7 -29 -2 -60 26 -20 18 -24 18 -50 5 -39 -20 -90 -75 -103 -110 -6
-16 -11 -48 -11 -72 0 -36 5 -48 30 -68 17 -14 30 -32 30 -40 0 -12 -198 -204
-280 -271 l-25 -21 20 24 c11 13 20 26 20 30 0 3 4 5 8 3 5 -1 6 1 3 6 -3 5
17 35 45 68 27 32 68 83 91 112 l41 53 1 112 c1 99 4 117 25 153 13 24 40 51
62 64 35 19 171 70 176 66 1 -1 -2 -19 -8 -41z m499 -60 l1 -20 -9 20 c-5 11
-8 34 -8 50 l0 30 8 -30 c4 -16 8 -39 8 -50z m-8056 -5 c29 -17 29 -19 10 -29
-18 -9 -20 -18 -17 -65 4 -49 1 -60 -29 -103 -40 -59 -122 -123 -157 -123 -15
0 -41 3 -58 6 l-32 7 65 43 c100 67 156 162 158 267 1 54 2 56 16 36 8 -11 28
-29 44 -39z m3762 -1 c31 -28 56 -59 56 -69 0 -9 -27 -46 -59 -81 l-59 -64
-35 33 c-19 19 -46 55 -60 80 -21 39 -24 51 -14 69 14 26 85 83 103 83 7 0 38
-23 68 -51z m-3595 -15 c64 -58 87 -101 102 -194 10 -59 20 -83 54 -129 51
-70 185 -204 273 -275 37 -29 77 -65 90 -78 23 -25 23 -25 3 -31 -49 -12 -202
104 -451 340 l-95 90 33 37 c17 20 35 48 38 61 11 44 -6 97 -42 133 -44 44
-78 92 -66 92 6 0 33 -21 61 -46z m7351 -44 c-20 -13 -33 -13 -25 0 3 6 14 10
23 10 15 0 15 -2 2 -10z m-90 -35 c-10 -12 -10 -22 -2 -39 9 -20 8 -26 -6 -32
-9 -4 -21 -6 -27 -5 -5 2 1 -9 14 -23 14 -14 19 -26 12 -26 -7 0 0 -16 16 -37
l28 -38 -46 40 c-78 68 -86 116 -26 154 38 25 54 27 37 6z m-7896 -85 c6 -9 1
-5 -11 8 -13 13 -23 28 -23 35 0 7 6 3 12 -8 6 -11 16 -27 22 -35z m4305 -52
c2 -48 -76 -118 -131 -118 -12 0 -37 14 -55 32 -35 34 -41 48 -20 48 37 0 118
34 153 64 42 37 52 32 53 -26z m-3746 11 c16 -18 16 -19 -12 -33 -17 -9 -38
-34 -51 -60 -23 -49 -91 -106 -125 -106 -11 0 -30 -7 -43 -15 -18 -13 -29 -14
-63 -5 -49 14 -46 19 56 95 39 28 90 75 113 103 39 47 46 51 75 45 18 -3 40
-14 50 -24z m7488 14 c13 -16 12 -17 -3 -4 -10 7 -18 15 -18 17 0 8 8 3 21
-13z m-3975 -51 c-4 -3 -14 2 -24 12 -16 18 -16 18 6 6 13 -6 21 -14 18 -18z
m4066 -34 c7 -3 10 -9 6 -13 -4 -4 -26 12 -50 35 -35 35 -36 37 -6 12 20 -16
42 -32 50 -34z m-155 -15 c-3 -10 -5 -4 -5 12 0 17 2 24 5 18 2 -7 2 -21 0
-30z m-3551 -20 c4 -14 0 -45 -9 -71 -14 -46 -16 -47 -53 -46 -22 0 -80 6
-130 13 -71 10 -110 11 -174 2 -113 -15 -134 -14 -85 5 22 9 90 19 150 23 122
8 150 19 210 78 34 34 43 38 63 30 12 -6 25 -21 28 -34z m3773 1 c-13 -7 -28
-9 -33 -4 -15 15 3 28 30 22 l27 -5 -24 -13z m-7625 -38 c74 -115 341 -395
731 -764 380 -360 373 -355 393 -348 9 3 4 -5 -13 -19 -16 -14 -35 -25 -42
-25 -7 0 -88 71 -181 158 -203 189 -529 492 -784 730 -103 96 -194 185 -202
197 -14 22 -13 27 17 74 17 27 35 50 39 50 4 1 23 -23 42 -53z m5719 28 c9 -4
17 -10 17 -15 0 -14 -10 -11 -38 12 -15 12 -20 19 -12 15 8 -3 23 -9 33 -12z
m-5398 -278 c61 -55 113 -107 117 -116 3 -9 73 -79 154 -156 237 -221 539
-522 532 -529 -8 -8 -257 224 -593 555 -439 431 -481 474 -495 500 -7 14 30
-15 81 -65 52 -49 144 -135 204 -189z m6770 56 c-105 -103 -290 -277 -410
-387 -121 -110 -293 -271 -382 -358 -89 -88 -167 -157 -174 -155 -12 4 367
375 560 549 148 133 368 338 486 451 55 53 102 94 105 91 3 -3 -81 -89 -185
-191z m276 171 c8 -9 31 -28 51 -43 l37 -27 -92 -65 c-176 -124 -467 -365
-609 -503 -125 -122 -315 -302 -483 -457 l-50 -46 -24 19 -24 20 114 112 c63
62 215 207 339 322 124 115 333 316 466 447 133 131 246 238 251 238 6 0 17
-8 24 -17z m-3376 -58 c4 -53 -11 -111 -36 -136 -27 -27 -64 -24 -149 11 -40
16 -90 35 -112 41 -34 9 -214 13 -273 6 -11 -1 -21 5 -23 14 -10 52 241 71
387 29 43 -12 71 -37 71 -64 0 -15 3 -17 11 -9 17 17 43 5 28 -13 -9 -11 -7
-14 10 -14 21 0 61 32 61 49 0 10 -50 74 -62 79 -5 2 -8 9 -8 16 0 23 25 37
59 34 31 -3 34 -5 36 -43z m3731 -13 c13 -26 7 -72 -10 -72 -6 0 -28 11 -48
25 -36 24 -36 25 -22 55 9 16 12 35 8 42 -4 7 8 3 27 -8 19 -11 39 -30 45 -42z
m203 11 c-33 -39 -150 -60 -163 -28 -4 12 5 15 47 15 29 1 66 7 82 15 41 18
50 18 34 -2z m-4709 2 c0 -3 -9 -14 -20 -25 -33 -33 -36 -67 -9 -96 19 -21 31
-25 57 -20 19 3 30 1 27 -5 -4 -5 -21 -9 -40 -9 -40 0 -75 37 -75 80 0 27 33
80 51 80 5 0 9 -2 9 -5z m-3707 -27 c44 -11 45 -33 1 -34 -41 -1 -119 23 -134
42 -12 13 -7 14 41 9 30 -4 71 -11 92 -17z m197 17 c0 -7 -43 -46 -64 -57 -10
-6 -3 6 15 25 31 33 49 44 49 32z m144 -134 c47 -54 185 -190 308 -302 123
-111 396 -374 608 -583 299 -295 386 -387 386 -406 0 -14 7 -86 14 -161 21
-215 -6 -296 -120 -358 -54 -30 -55 -30 -22 -31 115 -1 191 57 257 195 24 51
52 95 61 99 13 5 42 -18 113 -86 241 -233 401 -390 401 -393 0 -2 -18 -9 -40
-15 -22 -6 -46 -21 -54 -33 -18 -28 -70 -269 -91 -417 -9 -63 -18 -171 -22
-240 -5 -105 -8 -126 -22 -127 -9 -1 -47 -4 -86 -8 -186 -16 -355 -74 -458
-157 -113 -91 -170 -108 -206 -62 -61 78 -68 231 -14 345 58 124 146 178 291
180 63 0 72 2 52 11 -37 15 -168 3 -220 -20 -93 -41 -165 -145 -195 -283 -7
-35 -14 -54 -14 -43 -1 31 -34 26 -42 -6 -6 -22 -7 -20 -8 10 -1 45 20 123 48
178 27 53 91 116 156 153 62 35 33 39 -40 5 -77 -35 -153 -112 -215 -216 -55
-93 -117 -158 -171 -182 -30 -13 -42 -35 -13 -24 31 12 93 18 118 12 17 -4 28
-16 33 -34 l7 -27 6 25 c5 20 9 12 19 -37 14 -71 44 -114 102 -143 79 -41 248
-13 327 53 83 69 181 137 233 162 76 35 96 31 24 -5 -147 -75 -294 -212 -350
-327 -50 -103 -64 -153 -71 -258 -8 -108 11 -193 58 -272 62 -102 351 -407
421 -445 75 -40 196 -9 245 62 42 63 23 163 -38 195 -62 32 -156 5 -205 -59
-42 -55 -72 -50 -149 23 -69 67 -127 166 -151 256 -21 83 -19 225 5 319 47
184 157 321 325 408 46 23 82 45 80 49 -5 8 51 34 92 43 l31 7 7 -68 c14 -140
54 -402 80 -517 88 -394 275 -793 527 -1128 48 -64 88 -119 88 -123 0 -4 -94
-104 -209 -223 -115 -120 -240 -253 -277 -297 -38 -43 -118 -131 -178 -194
-259 -273 -718 -837 -914 -1124 -53 -79 -84 -97 -95 -57 -5 19 -7 19 -34 -7
-16 -16 -50 -43 -76 -61 -55 -37 -82 -88 -73 -136 5 -25 -1 -41 -29 -80 -19
-27 -35 -56 -35 -64 0 -17 -21 -35 -65 -58 -25 -13 -27 -13 -11 0 10 8 15 19
11 25 -3 6 -3 11 2 11 4 0 8 16 9 35 0 19 -3 35 -8 35 -4 0 -8 10 -7 23 0 12
-2 43 -5 70 -2 26 -1 45 4 42 4 -2 10 6 12 20 3 14 1 25 -5 25 -6 0 -2 6 9 14
11 8 15 18 10 23 -5 4 -11 2 -13 -4 -3 -7 -9 -13 -14 -13 -6 0 -6 8 1 19 7 13
7 22 0 26 -5 3 -10 14 -10 25 0 13 -5 17 -19 13 -16 -4 -20 1 -23 29 -2 26 -7
33 -22 31 -25 -2 -50 28 -33 39 8 5 5 13 -11 23 -12 9 -19 21 -16 27 4 7 2 8
-4 4 -7 -4 -16 2 -21 16 -5 13 -39 51 -75 85 -61 59 -64 65 -56 93 5 16 5 30
0 30 -4 0 -10 -9 -13 -21 -3 -12 -10 -18 -16 -14 -6 3 -9 11 -6 16 4 5 -6 14
-21 19 -19 8 -25 15 -21 30 3 11 1 23 -4 26 -5 3 -9 -3 -9 -13 -1 -17 -1 -17
-15 1 -8 10 -12 23 -9 27 3 5 0 9 -6 9 -7 0 -10 6 -8 12 5 15 -18 41 -30 34
-5 -3 -8 10 -7 29 1 30 -1 32 -18 23 -10 -5 -20 -8 -20 -6 -1 2 -11 14 -22 28
-11 14 -16 22 -11 18 12 -10 31 13 33 39 l2 22 -20 -20 c-20 -20 -21 -20 -34
-2 -8 10 -15 28 -15 41 0 15 -4 21 -12 16 -8 -5 -9 -2 -4 11 4 12 0 22 -14 32
-12 8 -19 21 -16 29 3 8 -1 14 -9 14 -19 0 -19 8 0 27 15 15 12 33 -5 33 -5 0
-6 -8 -3 -17 4 -10 -5 -4 -20 14 -15 17 -25 38 -22 46 4 8 -4 21 -19 31 -26
16 -38 44 -13 30 11 -7 0 7 -51 65 -21 24 -26 36 -23 55 1 5 -4 4 -12 -2 -14
-12 -27 -7 -27 10 0 5 5 6 10 3 6 -4 10 7 9 27 -1 31 -1 32 -9 8 l-8 -25 -1
29 c-1 21 -5 27 -16 22 -10 -3 -17 3 -21 19 -3 13 -12 29 -20 36 -8 6 -14 22
-14 35 0 12 -7 30 -16 39 -9 9 -14 24 -11 36 4 16 3 18 -8 9 -9 -8 -14 -6 -19
5 -3 9 -10 13 -16 10 -14 -9 -12 8 3 24 10 11 9 12 -2 6 -17 -10 -32 14 -25
39 5 14 2 18 -9 13 -8 -3 -18 0 -21 8 -3 10 0 12 11 8 15 -6 15 -4 0 17 -9 14
-17 35 -17 47 0 13 -6 23 -12 23 -9 0 -8 4 2 11 10 7 11 12 3 15 -25 11 -65
52 -59 62 3 6 -1 18 -10 26 -9 9 -11 16 -4 16 6 0 8 5 5 10 -3 6 -17 7 -29 4
-16 -4 -25 0 -29 10 -4 10 -1 13 9 9 10 -3 14 2 14 18 0 19 -2 21 -10 9 -9
-14 -11 -13 -14 9 -2 15 -16 26 -16 12 0 -9 -4 -9 -14 1 -10 9 -11 15 -2 20 8
6 8 8 -1 8 -7 0 -10 6 -8 13 2 6 0 28 -4 47 -5 19 -9 29 -10 23 -2 -31 -17 -9
-20 29 -1 22 -6 49 -11 59 -12 22 -13 32 -2 25 5 -3 2 28 -6 69 -8 41 -18 72
-23 70 -4 -3 -10 -1 -14 5 -3 5 -1 10 4 10 6 0 11 8 11 18 0 14 -2 15 -10 2
-5 -8 -10 -10 -10 -4 0 6 3 14 7 18 14 13 11 35 -3 29 -11 -4 -14 2 -14 23 1
16 -2 49 -5 74 -4 25 -8 54 -9 65 -2 11 -5 27 -8 35 -3 8 -10 32 -16 52 -8 31
-7 36 5 31 9 -3 1 8 -16 26 -31 32 -39 51 -21 51 6 0 10 5 10 11 0 5 -5 7 -10
4 -6 -3 -10 5 -10 19 0 13 -6 27 -12 29 -10 4 -9 8 2 16 8 6 10 11 4 11 -7 0
-12 6 -11 13 1 40 -4 61 -12 49 -6 -11 -10 -10 -15 3 -3 10 -1 24 6 32 10 12
9 18 -5 28 -9 7 -17 18 -17 26 0 11 2 11 11 -1 8 -11 9 -8 4 15 -4 17 -9 52
-11 80 -3 27 -9 52 -15 56 -7 4 -5 8 5 12 12 5 13 11 3 37 -9 24 -9 35 2 53
13 20 13 21 -2 9 -15 -13 -16 -9 -10 35 3 29 1 58 -6 71 -8 15 -8 23 0 27 7 5
8 26 4 59 -5 39 -4 48 5 36 10 -12 11 -11 5 5 -4 11 -8 45 -9 75 0 30 -5 61
-9 68 -5 7 -2 14 7 18 9 3 16 10 16 16 0 5 -3 7 -8 5 -4 -3 -12 0 -18 7 -8 8
-7 15 2 24 10 9 14 9 17 -1 6 -14 10 23 7 76 -1 21 3 37 9 37 6 0 11 9 11 20
0 11 4 20 9 20 6 0 8 9 6 20 -2 11 0 20 6 20 5 0 8 6 7 13 -2 6 3 11 10 9 6
-1 12 3 12 9 0 7 -10 9 -28 5 -25 -6 -26 -5 -8 9 13 9 19 27 19 49 0 19 4 33
9 30 4 -3 8 2 8 10 0 9 6 16 13 16 8 0 7 4 -3 10 -14 9 -12 12 6 9 13 -2 23
26 18 46 -4 11 -3 17 1 13 17 -16 35 23 35 74 0 38 -3 49 -10 38 -7 -11 -10
-12 -10 -2 0 8 9 16 20 19 13 4 20 14 20 31 0 16 12 36 32 54 25 22 29 31 19
37 -10 7 -9 9 3 14 11 4 16 19 16 42 0 20 4 34 9 30 12 -7 33 29 23 39 -3 4
-1 11 6 15 7 4 23 39 35 77 17 53 26 68 40 66 10 -2 17 3 17 13 0 8 -8 16 -17
16 -17 1 -17 2 0 6 9 2 17 13 17 24 0 12 7 19 20 19 13 0 20 7 20 20 0 11 5
20 11 20 5 0 7 5 4 10 -3 6 2 11 12 11 17 1 17 2 1 6 -10 2 -18 9 -18 14 0 6
4 8 8 5 15 -9 34 11 35 38 1 14 8 28 15 31 6 2 12 14 12 25 0 11 5 20 10 20 6
0 10 9 10 21 0 11 4 18 9 15 9 -6 24 30 22 52 -2 14 26 17 31 2 2 -6 9 0 17
12 13 20 12 22 -1 11 -8 -7 -17 -11 -20 -8 -10 10 4 55 17 55 8 0 15 10 17 23
2 14 9 21 21 21 20 -2 23 12 5 19 -9 3 -7 7 6 12 11 5 21 3 26 -5 15 -24 20 7
8 50 -3 8 -3 12 -1 7 9 -14 23 5 23 31 0 21 2 24 10 12 6 -10 10 -11 10 -2 0
6 6 11 13 10 6 -2 11 3 9 10 -3 15 10 16 26 0 10 -9 16 -8 30 6 16 18 16 18
-4 8 -24 -13 -34 -7 -34 20 0 11 7 18 20 18 11 0 20 -4 20 -10 0 -5 7 -7 15
-4 14 6 13 8 -2 20 -17 12 -16 13 7 15 14 1 28 1 31 1 4 -1 5 7 2 17 -2 9 4
24 13 32 16 12 17 12 11 -4 -4 -11 -3 -16 3 -12 6 3 10 15 10 26 0 25 26 54
35 39 3 -5 3 -15 -1 -22 -5 -7 -3 -8 5 -3 7 4 11 15 8 24 -2 9 2 22 10 29 7 7
10 19 7 25 -5 8 -3 8 7 0 19 -18 24 -16 38 13 7 17 17 24 27 20 8 -3 12 -2 9
3 -3 6 3 14 12 20 10 6 12 11 6 11 -23 0 -14 18 17 37 17 9 30 22 30 29 0 6
12 16 28 23 22 10 25 10 15 0 -17 -17 -16 -30 1 -23 8 3 16 18 18 32 2 15 8
27 13 26 6 -1 16 6 23 15 11 14 11 14 5 -3 -4 -13 -3 -17 5 -12 7 4 12 14 12
22 0 8 5 14 11 14 5 0 8 4 4 9 -3 5 3 12 14 16 11 3 22 12 25 20 3 8 15 15 26
15 12 0 20 7 20 18 0 10 10 24 22 32 11 8 30 25 41 37 11 12 24 20 29 17 5 -3
7 0 6 8 -2 7 3 12 10 11 6 -2 12 3 12 11 0 8 14 16 33 20 18 3 38 15 44 26 11
16 10 18 -2 14 -11 -5 -13 -2 -9 10 3 9 10 16 16 16 5 0 7 4 3 9 -3 6 10 13
30 17 28 5 35 11 35 30 0 13 -4 24 -10 24 -5 0 -7 6 -4 14 3 8 0 17 -5 21 -6
3 -9 10 -6 15 3 5 -6 25 -20 46 -14 21 -28 48 -31 61 -4 13 -10 23 -15 23 -5
0 -9 5 -9 10 0 6 -10 21 -22 34 -13 13 -51 55 -84 92 -58 65 -88 101 -229 275
-33 41 -83 99 -111 129 -29 30 -70 78 -93 105 -22 28 -57 69 -77 93 -20 23
-34 42 -31 42 3 0 44 -44 91 -99z m7635 -8 c-13 -14 -77 -80 -142 -147 -65
-67 -149 -161 -187 -211 -38 -49 -88 -112 -111 -138 -50 -57 -74 -98 -56 -94
7 1 11 -6 11 -16 -1 -11 4 -16 15 -15 12 2 15 -4 13 -24 -2 -20 2 -28 13 -28
8 0 15 -4 15 -10 0 -5 7 -10 15 -10 8 0 15 -9 15 -20 0 -11 5 -20 10 -20 6 0
10 5 10 12 0 6 3 8 6 5 4 -4 2 -12 -4 -20 -7 -8 -7 -18 -2 -27 8 -13 10 -12
10 3 0 19 15 23 26 5 4 -7 3 -8 -4 -4 -7 4 -12 4 -12 0 0 -10 50 -54 62 -54 5
0 8 -7 4 -15 -3 -9 0 -15 10 -15 8 0 12 -4 9 -10 -3 -5 4 -10 16 -10 17 0 20
-5 17 -25 -4 -17 -1 -25 8 -25 8 0 14 -5 14 -11 0 -5 4 -7 10 -4 5 3 15 -5 21
-19 7 -14 16 -23 22 -19 6 4 8 -2 4 -16 -4 -18 -2 -21 14 -16 10 4 20 2 20 -4
1 -6 2 -15 3 -20 0 -6 11 -19 24 -31 12 -11 22 -30 22 -41 0 -11 4 -18 9 -15
4 3 17 -2 27 -10 19 -15 19 -15 -1 -9 -17 5 -17 3 5 -18 44 -42 66 -73 63 -84
-2 -6 1 -14 7 -18 7 -4 9 2 6 19 -3 14 0 28 5 31 5 4 9 -2 9 -12 0 -15 2 -16
10 -3 6 9 10 10 10 3 0 -6 -5 -15 -10 -18 -6 -4 -8 -19 -6 -33 2 -15 5 -31 5
-37 1 -5 5 -4 10 4 7 10 13 11 30 2 11 -7 21 -16 21 -21 0 -14 -13 -12 -29 3
-8 6 -6 0 4 -15 9 -16 21 -28 25 -28 4 0 12 -10 19 -22 6 -13 10 -16 7 -7 -2
9 2 16 9 16 7 0 11 -6 8 -14 -3 -7 2 -13 11 -13 9 0 16 -4 16 -10 0 -5 5 -9
12 -7 6 1 16 -15 22 -35 6 -20 14 -40 19 -44 4 -4 7 -14 7 -22 0 -9 16 -30 35
-48 29 -26 35 -39 35 -71 0 -21 -6 -45 -12 -52 -11 -11 -10 -12 0 -7 7 5 24 5
36 2 20 -5 25 -14 30 -58 9 -70 8 -74 -14 -70 -11 2 -20 -2 -20 -8 0 -6 7 -10
16 -8 10 2 19 -3 22 -11 3 -9 0 -11 -8 -6 -9 6 -11 4 -5 -5 6 -10 11 -9 21 5
7 10 11 22 8 26 -3 5 0 9 6 9 9 0 10 -17 5 -59 -6 -54 -5 -61 14 -73 27 -17
29 -43 2 -29 -17 10 -18 9 -7 -14 6 -13 13 -20 14 -15 7 18 29 10 40 -14 8
-18 7 -28 -3 -42 -11 -16 -10 -22 11 -47 13 -15 21 -34 18 -42 -4 -8 -1 -15 6
-15 6 0 9 -4 6 -9 -4 -5 -2 -11 3 -13 5 -1 12 -16 16 -33 5 -23 4 -26 -4 -15
-6 8 -11 10 -11 4 0 -5 5 -15 12 -22 8 -8 8 -15 -2 -27 -10 -12 -10 -15 4 -15
10 0 15 -4 11 -10 -3 -5 -11 -8 -18 -6 -7 1 -9 1 -4 -1 4 -3 5 -8 2 -13 -3 -5
4 -11 15 -15 11 -4 18 -10 15 -15 -3 -5 -1 -11 5 -15 5 -3 10 -17 10 -31 0
-16 6 -24 17 -24 14 0 14 -2 -2 -20 -17 -18 -17 -24 -4 -63 7 -23 21 -51 31
-61 19 -21 24 -41 8 -31 -5 3 -10 -3 -10 -14 0 -12 7 -21 15 -21 8 0 14 -3 14
-7 -1 -5 -1 -15 1 -23 1 -11 4 -9 10 5 7 15 9 9 9 -26 1 -32 6 -49 16 -53 9
-3 15 -18 15 -40 0 -19 6 -37 13 -39 9 -4 8 -8 -3 -16 -12 -9 -11 -11 10 -12
19 -1 20 -3 6 -6 -10 -3 -23 0 -29 6 -17 17 -26 13 -20 -7 3 -14 11 -18 29
-14 19 3 23 1 18 -12 -3 -9 -10 -13 -15 -11 -4 3 -8 -20 -7 -52 1 -31 3 -52 6
-45 5 17 32 15 32 -3 0 -8 5 -15 10 -15 16 0 11 18 -9 32 -11 8 -22 27 -25 43
-4 17 -3 24 0 18 3 -7 13 -13 21 -13 9 0 13 -6 9 -15 -3 -8 2 -19 11 -24 9 -5
17 -15 19 -24 1 -8 5 -25 9 -37 5 -15 4 -20 -4 -16 -7 5 -9 1 -5 -8 3 -9 10
-13 15 -10 11 6 11 -1 0 -48 -6 -26 -5 -39 3 -43 8 -3 7 -7 -1 -11 -7 -3 -13
-13 -12 -22 0 -11 2 -12 6 -4 10 26 23 10 23 -29 0 -22 -3 -38 -7 -36 -5 3 -8
-5 -8 -18 0 -13 3 -21 7 -19 4 3 7 -4 7 -13 6 -157 10 -198 21 -201 9 -3 9 -6
-1 -13 -10 -6 -8 -9 8 -9 12 0 25 -4 28 -10 3 -6 -1 -7 -9 -4 -11 4 -16 0 -17
-12 0 -18 -1 -17 -9 1 -9 20 -9 20 -9 0 -1 -11 7 -31 16 -44 9 -14 12 -21 6
-18 -21 13 -20 -18 1 -34 18 -15 21 -28 21 -88 0 -50 -4 -71 -12 -71 -17 0
-17 -19 0 -25 17 -7 13 -125 -5 -137 -10 -6 -9 -12 6 -23 11 -8 14 -15 8 -15
-8 0 -10 -13 -7 -37 3 -27 2 -34 -5 -23 -8 12 -10 11 -10 -6 0 -12 -6 -27 -14
-33 -14 -12 -10 -64 5 -55 5 3 7 10 4 15 -4 5 -1 9 4 9 16 0 13 -16 -5 -35
-17 -16 -12 -65 6 -65 6 0 10 -8 9 -17 0 -11 -3 -13 -6 -5 -2 6 -12 12 -21 11
-11 0 -12 -2 -4 -6 6 -2 12 -17 13 -31 0 -23 2 -24 8 -8 7 18 8 18 14 2 5 -12
0 -19 -16 -26 -12 -5 -16 -9 -9 -9 6 -1 12 -5 12 -11 0 -5 -7 -7 -14 -4 -11 4
-15 -2 -14 -23 2 -52 -2 -74 -13 -68 -7 5 -8 -5 -4 -29 5 -26 3 -43 -9 -61
-11 -16 -14 -34 -10 -51 5 -18 3 -25 -4 -20 -6 4 -13 -14 -17 -46 -6 -41 -10
-48 -16 -33 -6 16 -8 14 -8 -12 -1 -17 4 -33 10 -35 12 -4 -6 -45 -25 -59 -4
-4 -3 -10 3 -13 6 -4 11 -23 11 -42 0 -31 -8 -39 -33 -35 -4 1 -3 -7 3 -18 13
-26 13 -68 -1 -77 -6 -3 -9 -18 -6 -32 3 -15 -1 -32 -9 -40 -11 -10 -12 -18
-4 -27 8 -10 8 -15 -1 -21 -8 -5 -9 -3 -4 6 5 9 4 11 -3 6 -7 -4 -12 -18 -12
-31 0 -27 -15 -41 -24 -23 -3 7 -4 0 -2 -16 4 -33 -12 -78 -25 -70 -5 3 -9 -2
-9 -10 0 -8 5 -18 11 -22 8 -4 7 -9 -2 -14 -7 -5 -14 -17 -15 -27 -2 -9 -7
-19 -13 -21 -6 -2 -7 -12 -1 -28 8 -19 6 -24 -6 -24 -9 0 -12 -5 -8 -12 5 -8
2 -9 -10 -5 -14 6 -15 4 -5 -14 8 -16 8 -19 0 -15 -6 4 -14 -1 -17 -11 -3 -10
-12 -31 -21 -46 -8 -15 -12 -35 -9 -43 3 -7 1 -14 -4 -14 -6 0 -9 -3 -9 -8 3
-20 -3 -30 -23 -37 -14 -4 -18 -8 -10 -12 17 -7 15 -24 -3 -17 -11 5 -15 -1
-15 -20 0 -14 5 -26 10 -26 6 0 10 -4 10 -10 0 -5 -6 -7 -14 -4 -8 3 -14 -1
-13 -8 1 -32 -4 -49 -13 -43 -5 3 -10 3 -11 -2 0 -4 -2 -19 -3 -32 -2 -14 -9
-27 -16 -29 -10 -4 -10 -6 0 -12 17 -10 3 -30 -21 -30 -12 0 -19 -7 -19 -19 0
-11 -4 -22 -9 -26 -5 -3 -12 -19 -16 -35 -4 -17 -11 -28 -16 -24 -5 3 -9 -2
-9 -10 0 -8 -12 -24 -26 -35 -15 -12 -22 -21 -15 -21 6 0 11 -7 11 -16 0 -8
-4 -13 -9 -10 -5 3 -12 -4 -15 -17 -7 -21 -7 -21 -16 -2 -8 19 -9 19 -9 -2 -1
-12 -5 -23 -10 -25 -8 -3 -12 -16 -21 -73 -1 -5 -5 -1 -10 10 -7 17 -9 14 -9
-13 -1 -18 -5 -31 -10 -28 -5 3 -22 -1 -37 -9 -21 -11 -24 -15 -11 -15 10 0
16 -4 12 -10 -3 -5 -13 -6 -22 -3 -11 4 -14 3 -9 -6 6 -8 -4 -10 -36 -6 -24 3
-37 3 -31 -1 7 -3 14 -4 15 -2 7 6 36 -27 31 -36 -3 -4 -9 -2 -14 5 -7 11 -9
9 -9 -6 0 -16 -2 -17 -9 -5 -6 8 -7 18 -5 22 3 4 -3 8 -12 8 -10 0 -15 -3 -11
-6 8 -9 -21 -64 -34 -64 -6 0 -7 -4 -4 -10 3 -5 2 -10 -4 -10 -7 0 -7 -8 -1
-25 6 -16 6 -25 0 -25 -6 0 -10 9 -10 21 0 27 -33 22 -38 -6 -2 -11 -9 -24
-14 -30 -7 -7 -8 -3 -3 13 4 15 -17 0 -67 -49 -40 -39 -85 -76 -100 -81 -16
-6 -28 -14 -28 -20 0 -12 -26 -39 -37 -37 -4 1 -15 1 -23 -1 -11 -1 -9 -4 5
-10 16 -7 13 -9 -17 -9 -31 -1 -36 -4 -31 -18 5 -15 3 -16 -8 -6 -15 15 -33
17 -24 4 3 -5 1 -12 -5 -16 -6 -4 -8 -11 -5 -16 4 -5 -3 -9 -15 -9 -12 0 -19
4 -15 10 3 5 -7 3 -22 -5 -15 -8 -40 -15 -56 -15 -20 0 -30 -7 -37 -25 -5 -14
-12 -25 -15 -25 -4 0 -3 5 0 10 3 5 1 10 -4 10 -18 0 -26 -5 -23 -12 3 -11
-12 -10 -24 2 -13 13 -44 3 -44 -14 0 -8 -2 -8 -8 0 -6 11 -96 5 -106 -7 -2
-2 -1 -24 3 -49 5 -38 10 -45 31 -48 53 -7 90 -25 121 -59 27 -31 30 -42 26
-76 -6 -45 -35 -79 -145 -168 -88 -71 -196 -125 -293 -145 -102 -21 -115 -13
-32 19 114 45 318 190 392 280 32 39 15 57 -53 57 -44 0 -57 -4 -77 -26 -57
-61 -323 -226 -296 -183 9 14 8 25 -5 51 -28 58 -556 661 -808 922 -63 66
-108 116 -100 111 29 -17 -77 100 -260 289 -102 105 -178 185 -169 179 9 -7
20 -9 24 -5 5 4 5 1 0 -7 -6 -10 -4 -12 5 -6 9 6 11 4 5 -5 -5 -9 -4 -11 4 -6
8 5 5 16 -9 37 -20 27 -19 34 3 30 15 -3 -27 52 -143 185 -19 22 -9 13 24 -20
32 -34 122 -133 200 -221 150 -171 242 -273 452 -505 275 -304 719 -842 781
-947 14 -24 30 -43 36 -43 26 0 120 63 182 121 77 73 86 106 34 136 -17 10
-78 76 -137 148 -428 519 -852 1022 -1315 1559 -114 132 -220 258 -236 281
l-29 41 101 151 c198 293 315 559 412 928 130 500 139 1016 24 1497 -17 70
-29 134 -27 141 2 8 95 102 208 208 348 328 317 301 340 287 11 -7 23 -24 26
-38 36 -162 113 -250 220 -250 l36 0 -52 28 c-80 41 -95 67 -95 165 0 76 3 89
49 191 42 95 47 111 36 131 -8 15 -10 40 -6 72 7 46 14 55 164 203 184 182
480 454 712 656 311 270 415 362 444 393 17 17 32 31 35 31 2 0 -6 -12 -20
-27z m-110 -49 c-18 -20 -92 -80 -164 -134 -201 -152 -440 -368 -788 -711
l-318 -314 1 -57 c0 -41 -9 -79 -30 -132 -31 -79 -49 -167 -51 -251 l-1 -50
-10 45 c-11 54 -3 167 18 246 17 66 13 94 -11 74 -12 -10 -15 -9 -15 4 0 10 4
25 9 34 21 40 643 655 871 862 63 58 139 128 168 155 59 55 331 263 346 264 6
1 -6 -15 -25 -35z m-7319 -40 c89 -70 890 -867 949 -944 19 -25 -87 74 -235
220 -282 278 -632 614 -746 715 -63 57 -77 75 -60 75 4 0 46 -30 92 -66z
m3645 52 c19 -8 35 -19 35 -24 0 -5 3 -24 6 -41 l7 -31 -102 0 c-55 0 -101 3
-101 6 0 3 12 28 28 55 24 43 31 49 60 49 18 0 48 -7 67 -14z m-31 -155 c5 -1
5 -41 2 -91 -8 -99 4 -185 34 -236 l18 -31 -58 -2 c-63 -2 -67 1 -87 59 -15
42 -17 228 -3 265 10 26 43 45 70 39 8 -1 19 -3 24 -3z m2786 -141 c0 -5 -5
-10 -11 -10 -5 0 -7 5 -4 10 3 6 8 10 11 10 2 0 4 -4 4 -10z m-2507 -286 c20
-4 37 -11 37 -17 0 -13 -696 -3 -730 11 -28 12 624 17 693 6z m85 -67 c22 -17
14 -65 -14 -83 -22 -15 -67 -18 -347 -21 -177 -2 -362 0 -412 5 l-90 9 120 2
c491 9 704 18 719 30 41 34 21 36 -347 39 -199 1 -380 6 -402 9 l-40 7 30 7
c46 10 768 7 783 -4z m-925 -47 c3 -11 1 -18 -4 -14 -5 3 -9 12 -9 20 0 20 7
17 13 -6z m-1440 -143 c171 -85 432 -289 534 -417 71 -89 66 -90 -25 -2 -149
143 -225 194 -357 239 -135 46 -269 41 -396 -14 -35 -15 -63 -22 -68 -17 -10
12 -44 104 -40 109 18 16 128 35 205 35 93 0 225 -29 296 -66 16 -8 32 -14 34
-11 9 8 -162 87 -226 104 -94 25 -229 23 -299 -5 -51 -20 -55 -20 -67 -4 -7 9
-14 20 -14 25 0 13 21 7 26 -8 4 -8 10 -15 15 -15 5 0 9 7 9 15 0 8 -4 15 -10
15 -5 0 -10 4 -10 9 0 8 81 39 145 55 11 3 51 3 88 2 58 -3 83 -11 160 -49z
m4226 37 c36 -9 83 -25 103 -35 l38 -19 -21 -21 -21 -21 -64 21 c-126 41 -253
23 -452 -65 -29 -13 -50 -19 -47 -15 6 11 219 135 266 155 45 20 118 20 198 0z
m-1979 -104 c-47 -134 -38 -276 26 -447 13 -35 22 -63 19 -63 -12 0 -77 146
-90 202 -29 124 -13 264 41 356 14 24 27 42 29 40 2 -2 -9 -42 -25 -88z m-688
-20 c16 -41 23 -82 26 -158 3 -91 1 -114 -23 -190 -30 -95 -84 -211 -109 -231
-9 -7 2 24 23 70 64 136 84 229 79 373 -3 108 -7 127 -31 173 -15 29 -27 56
-27 60 1 18 41 -46 62 -97z m639 68 c-44 -78 -54 -133 -47 -272 3 -72 9 -151
12 -176 l5 -45 -20 30 c-12 17 -33 67 -48 113 -41 131 -25 230 56 340 39 52
70 60 42 10z m-270 1 c-27 -22 -44 -21 -49 4 -3 14 4 17 35 17 l38 -1 -24 -20z
m-307 -36 c44 -60 60 -119 60 -208 -1 -69 -34 -198 -57 -220 -7 -7 -8 -4 -3 9
3 10 13 59 22 108 22 129 2 247 -56 329 -12 16 -17 29 -11 29 6 0 26 -21 45
-47z m418 -15 c-22 -29 -61 -91 -88 -138 -53 -92 -66 -89 -45 10 18 85 99 180
154 180 14 0 10 -10 -21 -52z m2398 14 c0 -15 -28 -47 -35 -40 -8 8 13 48 25
48 6 0 10 -4 10 -8z m-200 -21 c61 -19 62 -20 38 -94 -12 -37 -26 -67 -31 -67
-5 0 -22 11 -39 25 -51 43 -154 68 -267 63 -92 -3 -103 -6 -196 -51 -156 -76
-239 -143 -378 -307 -21 -25 -35 -38 -31 -30 20 41 90 135 141 190 68 74 262
222 281 215 7 -3 23 0 34 6 11 6 71 24 132 40 92 24 125 29 196 25 47 -2 101
-9 120 -15z m269 -27 c-18 -20 -60 -58 -91 -86 -47 -40 -58 -46 -58 -30 0 36
45 86 105 118 79 42 86 41 44 -2z m-5033 6 c13 0 26 -5 30 -12 4 -7 3 -8 -4
-4 -8 4 -10 2 -6 -8 3 -8 11 -13 18 -10 15 6 50 -42 41 -56 -3 -6 -2 -10 3
-10 5 0 12 -9 15 -20 3 -11 4 -20 2 -20 -2 0 -36 37 -76 83 -40 45 -67 76 -59
70 8 -7 24 -13 36 -13z m-751 -10 c-3 -5 -12 -10 -18 -10 -7 0 -6 4 3 10 19
12 23 12 15 0z m1408 -94 c35 -10 29 -11 -65 -12 -124 0 -198 -20 -262 -69
-55 -42 -64 -23 -11 24 88 77 203 96 338 57z m3887 3 c54 -12 122 -57 149 -99
l15 -25 -24 22 c-14 12 -52 34 -85 49 -50 23 -77 28 -167 32 -103 4 -109 3
-172 -26 -73 -34 -90 -35 -23 -1 105 55 204 70 307 48z m-5460 -59 c0 -5 -8
-10 -17 -10 -15 0 -16 2 -3 10 19 12 20 12 20 0z m1651 0 c90 -25 245 -157
327 -280 l37 -55 6 -145 c6 -150 15 -186 60 -236 19 -20 19 -21 -15 -31 -31
-9 -41 -8 -78 13 -24 14 -139 72 -257 130 l-215 105 -130 131 c-130 131 -140
145 -38 55 107 -93 316 -214 506 -292 89 -37 130 -42 59 -8 -64 32 -314 189
-374 235 -61 47 -198 162 -262 218 l-39 36 26 31 c36 43 81 70 147 87 63 17
189 20 240 6z m3802 -30 c70 -26 141 -78 145 -106 2 -16 -26 -45 -118 -122
-181 -150 -293 -221 -488 -308 -45 -21 -81 -39 -79 -40 2 -2 52 12 113 31 132
42 326 135 414 200 l65 47 -78 -79 c-100 -101 -152 -133 -325 -193 -78 -27
-167 -63 -198 -80 -84 -44 -115 -39 -94 16 6 15 12 94 14 175 l3 147 34 57
c76 128 209 241 317 272 67 19 203 11 275 -17z m-4423 -173 c24 -129 23 -158
-14 -272 l-22 -70 4 105 c3 74 -1 129 -12 187 -16 75 -15 118 1 177 9 32 19 2
43 -127z m4673 83 c-3 -12 -8 -19 -11 -16 -5 6 5 36 12 36 2 0 2 -9 -1 -20z
m-1990 -269 c128 -96 316 -178 727 -317 206 -70 442 -150 525 -178 l150 -51
13 -40 c21 -62 68 -278 88 -405 27 -161 27 -578 1 -765 -32 -232 -109 -551
-130 -538 -5 3 -6 -4 -2 -17 5 -15 4 -20 -4 -16 -7 4 -9 1 -5 -8 3 -8 -1 -25
-9 -37 -9 -12 -13 -28 -10 -37 5 -11 3 -13 -6 -7 -10 5 -11 2 -7 -13 4 -11 1
-26 -7 -34 -7 -7 -12 -20 -10 -28 3 -12 2 -12 -6 1 -12 18 60 244 74 231 5 -4
5 -2 2 5 -4 6 7 69 24 139 40 170 77 409 88 576 9 128 1 427 -14 513 -18 110
-39 212 -67 326 l-30 127 -532 177 c-292 98 -576 198 -631 222 -156 69 -260
140 -404 278 -98 94 -145 151 -136 165 4 6 60 -40 127 -102 66 -62 152 -137
191 -167z m3635 254 c-3 -3 -9 2 -12 12 -6 14 -5 15 5 6 7 -7 10 -15 7 -18z
m-6198 -45 c0 -8 -9 -28 -20 -45 l-20 -30 -1 25 c-1 14 -1 28 0 33 0 4 2 23 4
42 l2 35 17 -23 c10 -12 18 -29 18 -37z m2244 8 c27 -45 198 -208 291 -278
101 -74 216 -138 325 -180 47 -18 296 -104 554 -191 258 -87 471 -161 475
-165 3 -3 6 -9 6 -12 1 -4 8 -21 18 -38 19 -38 61 -237 78 -379 7 -55 12 -197
12 -315 0 -248 -26 -459 -87 -705 -36 -145 -84 -293 -85 -263 -1 11 -6 15 -16
12 -9 -4 -15 0 -15 10 0 10 -6 13 -15 10 -9 -4 -15 0 -15 10 0 9 -7 16 -16 16
-10 0 -14 6 -10 15 3 8 2 15 -3 15 -4 0 -31 -55 -60 -122 -62 -146 -90 -200
-91 -175 0 20 -20 23 -38 5 -7 -7 11 40 39 103 119 269 214 628 240 909 22
236 -1 569 -48 702 -15 41 -22 50 -57 62 -23 8 -207 69 -411 135 -601 197
-758 263 -975 412 -64 43 -121 79 -127 79 -6 0 -35 -18 -64 -41 -30 -23 -43
-30 -29 -18 14 13 37 33 51 44 25 20 26 24 32 173 3 91 2 152 -4 152 -5 0 -9
-4 -9 -10 0 -10 -57 -65 -68 -65 -14 0 -32 -17 -27 -25 3 -4 -3 -14 -13 -21
-15 -13 -16 -12 -3 4 19 24 2 21 -28 -5 -14 -13 17 20 69 73 52 53 97 97 100
97 3 1 14 -12 24 -30z m4071 -78 c3 -5 2 -10 -4 -10 -5 0 -13 5 -16 10 -3 6
-2 10 4 10 5 0 13 -4 16 -10z m-1748 -98 c9 -12 13 -25 10 -28 -6 -6 -67 79
-67 93 0 8 28 -23 57 -65z m-2384 30 c-3 -12 -12 -22 -20 -22 -11 0 -12 -4 -2
-22 11 -21 11 -22 -4 -9 -10 7 -17 9 -17 3 0 -5 -7 -12 -14 -15 -11 -4 -13 -1
-9 10 7 18 0 15 -57 -26 -19 -13 -28 -18 -20 -9 19 20 144 118 147 114 1 -1 0
-12 -4 -24z m-2179 -3 c-7 -12 -65 -42 -70 -36 -9 9 48 56 62 50 8 -3 11 -9 8
-14z m6393 -71 c20 -22 10 -24 -11 -2 -9 8 -15 27 -15 42 l2 27 4 -25 c3 -14
12 -33 20 -42z m-5429 -84 c15 -25 51 -84 80 -131 29 -47 51 -87 50 -88 -2 -1
-15 -5 -30 -9 -22 -5 -32 0 -59 31 -42 48 -76 125 -85 191 -8 66 7 69 44 6z
m1222 27 c0 -5 -7 -11 -15 -15 -15 -5 -20 5 -8 17 9 10 23 9 23 -2z m4270 -61
c0 -5 -2 -10 -4 -10 -3 0 -8 5 -11 10 -3 6 -1 10 4 10 6 0 11 -4 11 -10z
m-4155 -135 c38 -26 102 -65 142 -87 84 -46 98 -61 21 -22 -34 17 -48 21 -40
11 25 -30 317 -166 507 -236 105 -38 301 -105 436 -148 l247 -78 6 -49 c31
-227 24 -676 -14 -936 -51 -346 -160 -629 -355 -920 -119 -178 -200 -275 -360
-435 -204 -204 -404 -358 -605 -469 l-65 -35 -120 86 c-226 161 -330 248 -506
423 -169 168 -266 283 -371 438 -27 40 -46 77 -43 82 3 6 1 10 -5 10 -6 0 -8
5 -4 12 4 6 3 8 -4 4 -13 -8 -96 139 -87 154 4 6 1 9 -6 8 -18 -4 -93 171
-139 325 -46 155 -93 379 -116 562 -18 143 -25 518 -11 645 l8 76 67 17 c98
25 652 208 762 252 146 57 327 146 418 204 85 55 167 136 155 154 -7 12 -9 13
82 -48z m1612 -68 l-118 -114 -40 11 c-35 9 -54 26 -30 26 6 0 43 26 83 59 69
55 191 131 213 131 6 0 -43 -51 -108 -113z m-3245 6 c21 -14 35 -29 33 -33 -3
-5 5 -17 18 -27 39 -30 44 -48 8 -27 -26 15 -204 153 -221 171 -10 10 124 -60
162 -84z m69 -50 c13 -15 12 -15 -8 -4 -24 12 -29 21 -14 21 5 0 15 -7 22 -17z
m5792 -28 c-7 -21 -13 -19 -13 6 0 11 4 18 10 14 5 -3 7 -12 3 -20z m-8503
-125 c0 -5 -5 -10 -11 -10 -5 0 -7 5 -4 10 3 6 8 10 11 10 2 0 4 -4 4 -10z
m8596 -77 c-7 -7 -36 22 -36 36 0 6 9 2 21 -10 11 -11 18 -23 15 -26z m-2866
-219 c5 -5 17 -52 27 -104 26 -138 25 -572 -1 -715 -95 -519 -288 -957 -583
-1325 -95 -118 -297 -325 -427 -436 -203 -176 -533 -392 -578 -381 -38 10
-301 189 -432 294 -145 117 -298 264 -411 393 -100 115 -244 305 -256 338 -5
13 -22 42 -38 65 -37 54 -153 286 -191 383 -67 168 -132 431 -177 714 -14 93
-18 174 -18 418 0 327 -1 321 54 322 20 0 23 -3 17 -27 -4 -16 -9 -136 -12
-268 -5 -193 -3 -267 11 -380 49 -409 167 -802 311 -1042 221 -369 463 -632
839 -916 221 -167 304 -219 332 -212 39 9 253 143 368 230 202 152 469 419
620 620 307 409 479 880 515 1404 12 186 -6 428 -45 599 -4 17 0 25 17 31 27
10 45 8 58 -5z m2940 -144 c0 -5 -4 -10 -10 -10 -5 0 -10 5 -10 10 0 6 5 10
10 10 6 0 10 -4 10 -10z m-6080 -515 c6 -77 14 -162 17 -190 6 -55 112 -484
137 -554 9 -24 14 -46 12 -48 -5 -6 -87 245 -115 352 -41 154 -72 419 -69 575
1 47 3 67 5 45 1 -22 7 -103 13 -180z m6220 105 c0 -5 -4 -10 -10 -10 -5 0
-10 5 -10 10 0 6 5 10 10 10 6 0 10 -4 10 -10z m-6713 -26 c-3 -3 -12 -4 -19
-1 -8 3 -5 6 6 6 11 1 17 -2 13 -5z m-50 -10 c-3 -3 -12 -4 -19 -1 -8 3 -5 6
6 6 11 1 17 -2 13 -5z m-60 -89 c-39 -27 -50 -43 -18 -25 44 23 29 7 -30 -32
-82 -55 -157 -131 -204 -207 -36 -58 -58 -84 -35 -42 24 45 29 68 15 68 -8 0
-11 -5 -8 -10 3 -6 1 -7 -5 -3 -6 4 -18 -6 -27 -24 -8 -16 -18 -30 -21 -30
-13 0 45 87 86 130 47 48 254 200 274 200 6 0 -6 -11 -27 -25z m-2467 -189 c0
-3 -4 -8 -10 -11 -5 -3 -10 -1 -10 4 0 6 5 11 10 11 6 0 10 -2 10 -4z m3270
-661 c0 -5 -5 -3 -10 5 -5 8 -10 20 -10 25 0 6 5 3 10 -5 5 -8 10 -19 10 -25z
m3001 -16 c-5 -13 -10 -19 -10 -12 -1 15 10 45 15 40 3 -2 0 -15 -5 -28z
m-3626 -199 c40 -44 13 -119 -50 -140 -51 -17 -85 6 -85 58 1 77 90 132 135
82z m6695 -454 c0 -3 -4 -8 -10 -11 -5 -3 -10 -1 -10 4 0 6 5 11 10 11 6 0 10
-2 10 -4z m-3434 -486 c98 -118 304 -354 599 -690 109 -124 259 -295 334 -380
75 -85 242 -269 371 -410 372 -404 380 -413 380 -425 0 -6 -13 -18 -29 -28
-30 -18 -61 -23 -61 -9 0 8 -124 152 -269 312 -48 52 -166 187 -262 300 -97
113 -259 295 -360 405 -101 110 -285 315 -409 455 -124 140 -278 310 -342 378
l-118 124 32 39 c17 22 35 38 39 37 4 -2 47 -50 95 -108z m-2346 7 c0 -8 -213
-262 -349 -417 -41 -47 -168 -184 -282 -305 -227 -241 -325 -354 -533 -610
-76 -93 -168 -201 -205 -239 l-66 -70 55 45 c30 24 97 86 149 138 65 65 96 89
101 81 5 -7 6 -19 3 -27 -6 -15 21 -8 46 11 10 7 9 1 -3 -19 -15 -24 -10 -21
26 15 24 25 55 54 68 65 14 10 -42 -47 -123 -127 -82 -81 -146 -152 -142 -157
3 -6 1 -11 -6 -11 -7 0 -10 -3 -7 -6 4 -3 -4 -21 -17 -41 -39 -56 -65 -138
-65 -203 0 -57 -1 -60 -32 -76 -39 -20 -107 -15 -192 15 -83 29 -125 73 -141
149 -9 41 18 45 33 4 13 -39 93 -79 186 -94 119 -18 117 10 -7 80 -69 40 -76
46 -66 64 23 44 261 328 501 600 86 98 207 240 269 315 139 170 669 794 718
846 l36 38 22 -28 c13 -15 23 -32 23 -36z m2156 -239 c140 -143 623 -652 819
-863 169 -182 602 -679 738 -848 43 -54 47 -63 47 -113 0 -46 3 -54 19 -54 15
0 18 5 14 23 -4 21 -4 22 11 3 9 -11 12 -22 7 -25 -4 -3 -18 -26 -31 -50 -18
-36 -21 -55 -17 -99 3 -29 13 -64 22 -78 13 -21 23 -24 76 -24 35 0 73 -7 90
-16 42 -21 79 -102 79 -172 0 -46 -4 -58 -29 -83 -22 -21 -38 -29 -63 -28
l-33 1 37 8 c20 3 46 18 57 31 24 28 28 94 8 102 -8 3 -24 26 -35 51 -27 56
-45 66 -122 66 -57 0 -65 3 -95 33 -27 27 -34 44 -40 90 -4 31 -11 54 -17 51
-5 -3 -15 0 -23 6 -12 10 -15 10 -15 1 0 -17 -30 14 -30 31 -1 9 -5 7 -14 -4
-7 -10 -23 -18 -35 -18 -12 0 -21 -6 -21 -16 0 -14 -1 -14 -16 0 -14 15 -17
14 -34 -6 -16 -20 -20 -21 -36 -8 -18 14 -18 14 -5 -2 12 -17 12 -19 -5 -17
-4 0 -11 -5 -15 -13 -7 -10 -9 -10 -9 0 0 7 -5 10 -10 7 -6 -4 -8 -10 -5 -15
3 -4 -2 -11 -11 -14 -8 -3 -12 -2 -9 4 3 6 1 10 -4 10 -10 0 -15 -14 -12 -32
0 -5 -3 -8 -9 -8 -5 0 -10 5 -10 10 0 6 -8 5 -20 -2 -14 -9 -16 -15 -7 -21 7
-5 -3 -7 -25 -5 -22 2 -36 0 -35 -7 1 -5 -20 -11 -48 -13 -35 -2 -45 -6 -35
-12 11 -7 6 -10 -17 -10 -20 0 -33 -5 -33 -13 0 -9 -12 -12 -37 -10 -31 2 -33
1 -13 -5 22 -7 23 -9 7 -15 -27 -10 -49 -9 -42 3 4 7 -2 7 -18 1 -14 -6 -28
-7 -32 -3 -5 4 -5 -3 -2 -16 4 -18 3 -21 -8 -12 -9 8 -14 8 -17 0 -2 -6 -23
-14 -46 -17 -31 -4 -42 -10 -38 -19 4 -11 -7 -14 -49 -14 -63 0 -109 -15 -99
-31 4 -7 1 -10 -7 -7 -8 3 -13 13 -13 22 1 9 -2 16 -7 16 -5 0 -9 -7 -9 -15 0
-8 -6 -15 -12 -15 -9 0 -8 -4 2 -10 13 -8 12 -10 -2 -10 -11 0 -18 7 -18 18 0
10 -3 13 -8 7 -4 -6 -17 -10 -29 -9 -12 1 -20 -3 -17 -7 3 -5 -8 -9 -25 -9
-44 0 -116 -30 -99 -42 9 -6 2 -8 -22 -7 -60 2 -68 0 -50 -11 12 -8 9 -10 -13
-10 -16 0 -36 -4 -46 -9 -9 -5 -23 -6 -31 -1 -8 5 -27 1 -49 -11 -21 -11 -61
-19 -98 -21 -35 -1 -63 -7 -63 -13 0 -5 -5 -3 -10 5 -8 12 -10 12 -10 1 0 -9
-4 -10 -12 -4 -9 6 -21 5 -37 -3 -21 -11 -22 -13 -5 -17 13 -3 10 -5 -9 -6
-16 0 -37 4 -48 9 -16 9 -19 7 -19 -12 0 -21 -5 -23 -49 -24 -33 -1 -55 -7
-67 -19 -12 -11 -19 -14 -22 -6 -6 17 -22 13 -22 -5 0 -9 -5 -12 -12 -8 -22
14 -73 12 -90 -3 -10 -9 -24 -13 -33 -9 -10 3 -13 2 -10 -4 4 -6 -13 -19 -37
-30 -33 -14 -47 -28 -58 -55 -7 -19 -18 -35 -22 -35 -5 0 -7 -4 -4 -9 4 -5 2
-11 -2 -13 -5 -1 -22 -41 -37 -88 -48 -148 -94 -242 -168 -345 -47 -67 -123
-145 -139 -145 -4 0 -19 -12 -33 -27 l-25 -28 20 40 c24 47 26 98 5 119 -20
20 -47 9 -43 -18 4 -30 -9 -46 -39 -46 -15 0 -23 3 -20 7 4 3 0 14 -9 24 -15
17 -13 20 26 46 144 97 189 184 143 280 -26 56 -64 67 -225 66 -76 0 -136 3
-133 7 17 28 202 39 265 17 l35 -13 -3 981 c-2 668 0 977 7 970 6 -6 12 -55
14 -110 2 -55 3 33 3 195 l-1 294 40 27 c22 14 119 78 215 141 210 139 349
242 467 348 48 43 90 79 93 79 3 1 64 -59 136 -131z m-1901 62 c110 -100 260
-213 432 -326 l175 -115 -7 -392 c-7 -399 -16 -713 -34 -1162 -6 -137 -15
-389 -22 -559 -12 -339 -11 -326 -35 -411 -20 -68 -16 -95 21 -149 14 -21 20
-34 13 -29 -7 4 -19 8 -26 9 -55 9 -158 148 -211 285 -18 46 -42 105 -52 131
-10 26 -19 54 -19 63 0 9 -7 23 -15 31 -8 8 -12 21 -9 29 4 10 -3 13 -30 11
-20 -2 -39 0 -41 5 -3 4 -22 3 -43 -3 -59 -16 -91 -16 -84 0 4 11 1 12 -14 5
-24 -13 -97 -15 -89 -4 3 5 -4 7 -15 4 -15 -4 -18 -9 -10 -18 9 -11 7 -12 -9
-8 -27 7 -27 17 2 30 18 8 13 10 -28 9 -53 -2 -79 -12 -70 -27 8 -12 -2 -11
-26 2 -11 5 -17 14 -14 20 4 5 -4 9 -17 9 -19 0 -20 -2 -8 -11 12 -8 9 -9 -10
-3 -14 4 -47 8 -75 10 -173 11 -208 14 -213 18 -10 10 -43 6 -37 -4 10 -16 -3
-12 -48 17 -24 15 -36 19 -28 10 8 -10 9 -17 3 -17 -6 0 -14 5 -17 10 -9 15
-62 12 -68 -4 -3 -8 -12 -14 -19 -12 -22 3 -39 17 -33 27 4 5 -3 9 -15 9 -12
0 -18 -4 -15 -10 3 -5 -1 -10 -10 -10 -9 0 -14 4 -11 8 3 5 -11 7 -30 5 -26
-2 -35 1 -31 11 4 10 -5 11 -45 4 -36 -7 -54 -6 -62 2 -8 9 -4 10 15 5 17 -4
30 -2 34 6 5 8 4 10 -3 5 -7 -4 -12 -4 -12 1 0 9 -67 8 -91 -2 -10 -4 -19 0
-22 9 -4 9 -14 16 -24 16 -15 0 -15 2 -4 9 17 11 53 -8 44 -23 -4 -5 -1 -6 6
-1 9 5 8 11 -6 24 -13 11 -33 15 -68 14 -91 -5 -99 -5 -103 6 -2 6 -8 9 -13 5
-8 -5 -14 17 -10 39 1 5 -3 6 -8 3 -5 -4 -8 -15 -6 -26 2 -12 -2 -20 -10 -20
-9 0 -12 8 -10 21 3 13 0 19 -8 16 -7 -3 -11 -10 -9 -16 1 -6 -2 -11 -8 -11
-5 0 -10 5 -10 11 0 5 -4 8 -9 5 -15 -10 -69 5 -90 25 -22 21 -51 25 -51 8 0
-6 7 -8 18 -4 14 5 15 4 4 -7 -11 -11 -15 -10 -25 2 -18 22 -57 36 -99 34 -21
0 -36 3 -35 9 1 6 -12 11 -30 13 -18 1 -40 4 -49 8 -12 4 -15 2 -10 -9 4 -11
-1 -15 -17 -15 -20 0 -19 -3 12 -30 23 -20 28 -30 18 -30 -10 0 -14 -6 -11
-15 14 -35 -114 -30 -160 6 -66 52 -52 163 29 238 33 31 53 41 77 41 50 0 63
-13 37 -36 -19 -17 -49 -65 -49 -78 0 -2 8 -6 18 -9 24 -5 66 17 84 45 22 34
48 117 48 153 0 62 26 121 73 166 57 56 64 82 40 156 -15 45 -17 68 -10 103
13 71 45 108 592 690 241 257 761 822 848 923 32 37 61 67 63 67 2 0 29 -23
59 -50z m2275 -290 c0 -15 -5 -12 -26 11 -19 22 -19 22 4 10 12 -6 22 -16 22
-21z m-2862 -47 c-13 -16 -36 -44 -49 -63 -13 -19 -31 -42 -39 -51 -8 -9 -26
-30 -40 -48 -14 -17 -30 -31 -36 -31 -6 0 -47 -38 -92 -85 -44 -47 -83 -85
-87 -85 -7 0 172 196 294 323 64 65 100 95 49 40z m-2648 -13 c0 -5 -4 -10
-10 -10 -5 0 -10 5 -10 10 0 6 5 10 10 10 6 0 10 -4 10 -10z m35 -60 c3 -5 1
-10 -4 -10 -6 0 -11 5 -11 10 0 6 2 10 4 10 3 0 8 -4 11 -10z m5586 -97 c13
-16 12 -17 -3 -4 -10 7 -18 15 -18 17 0 8 8 3 21 -13z m-1511 -1163 c0 -610
-4 -1110 -8 -1110 -5 0 -16 6 -26 13 -17 12 -18 70 -17 1102 1 846 4 1091 14
1097 38 24 37 45 37 -1102z m-1850 915 c-24 -25 -46 -45 -49 -45 -3 0 15 20
39 45 24 25 46 45 49 45 3 0 -15 -20 -39 -45z m-190 -318 c0 -2 -15 -16 -32
-33 l-33 -29 29 33 c28 30 36 37 36 29z m5846 -114 c-10 -11 -37 -12 -30 -2 3
5 12 9 21 9 9 0 13 -3 9 -7z m-7125 -304 c-9 -22 -10 -22 -10 -3 -1 11 2 24 6
27 12 12 14 0 4 -24z m54 -77 c-3 -3 -11 0 -18 7 -9 10 -8 11 6 5 10 -3 15 -9
12 -12z m3192 -324 c-1 -51 -3 -10 -3 92 0 102 2 143 3 93 2 -51 2 -135 0
-185z m-2779 128 c44 -30 106 -62 138 -71 63 -18 167 -24 202 -12 36 13 26
-11 -11 -27 -25 -10 -36 -23 -45 -53 -18 -61 -31 -68 -105 -53 -68 13 -144 42
-194 74 -46 30 -73 83 -73 145 0 28 2 51 3 51 2 0 40 -24 85 -54z m6123 -130
c41 -138 38 -190 -16 -253 -34 -40 -166 -118 -187 -111 -7 3 9 19 34 36 60 41
124 115 139 159 14 44 7 97 -22 168 -18 44 -20 57 -10 69 22 26 40 6 62 -68z
m-6752 61 c-2 -1 -13 -9 -24 -17 -19 -14 -19 -14 -6 3 7 9 18 17 24 17 6 0 8
-1 6 -3z m493 -79 c18 -14 19 -17 4 -12 -17 7 -18 6 -2 -18 18 -28 129 -68
185 -68 19 0 74 -8 123 -17 70 -13 88 -20 88 -34 0 -10 3 -24 6 -33 5 -12 -2
-11 -32 5 -21 10 -58 19 -81 19 -37 0 -50 -6 -87 -40 -24 -22 -57 -68 -74
-103 -41 -83 -42 -42 -2 73 16 47 26 87 22 91 -4 3 -33 16 -65 29 -63 25 -96
57 -133 134 l-25 51 25 -30 c14 -16 35 -37 48 -47z m6146 -10 c22 -22 14 -81
-15 -115 -28 -32 -38 -36 -80 -34 -30 1 -29 12 6 63 15 24 36 55 45 71 18 30
26 33 44 15z m-6470 -18 c-20 -11 -63 -22 -95 -25 -52 -4 -54 -3 -18 5 22 5
60 15 85 23 62 21 71 19 28 -3z m6754 7 c35 -1 80 2 101 6 48 10 42 -5 -13
-33 -24 -12 -59 -20 -89 -20 -42 0 -56 5 -83 30 l-33 30 27 -6 c15 -3 55 -7
90 -7z m151 -84 c-15 -26 -29 -58 -30 -69 -4 -52 75 -87 149 -65 54 17 59 7 9
-18 -74 -38 -157 -21 -205 41 -26 35 -35 78 -16 78 20 0 87 51 101 76 7 14 15
21 17 15 2 -5 -9 -32 -25 -58z m-6687 -73 c-37 -39 -161 -161 -276 -271 -233
-223 -256 -248 -327 -369 -27 -47 -80 -134 -117 -195 -70 -114 -169 -312 -163
-328 1 -5 27 20 57 55 30 35 100 113 155 173 127 139 263 302 440 525 147 186
377 430 406 430 25 0 30 -13 18 -51 -15 -50 -12 -200 5 -241 23 -53 74 -89
149 -102 69 -13 39 -35 -50 -37 -58 -2 -79 8 -121 55 -48 55 -64 139 -43 229
8 34 7 36 -7 25 -24 -20 -78 -143 -111 -254 -65 -217 -144 -432 -181 -496
-103 -173 -272 -292 -565 -398 -49 -18 -132 -52 -183 -77 -51 -25 -95 -44 -97
-41 -6 5 185 418 256 553 137 261 192 330 419 529 229 200 360 329 360 353 0
28 12 36 29 19 13 -13 6 -23 -53 -86z m-342 5 c37 -16 88 -13 131 7 15 7 13 4
-5 -11 -33 -28 -94 -44 -133 -36 -38 8 -107 45 -107 57 0 5 9 4 20 -2 24 -13
26 -2 3 30 -17 24 -17 24 18 -3 19 -14 52 -33 73 -42z m6851 13 c-12 -43 -78
-129 -144 -190 -63 -58 -223 -172 -259 -185 -30 -11 -44 -25 -32 -33 20 -13
-56 -52 -92 -48 l-33 4 34 19 c130 76 411 322 477 416 30 44 60 54 49 17z
m-6765 -114 c-17 -20 -145 -94 -162 -94 -7 1 -2 7 12 15 l25 14 -25 2 c-16 1
-10 4 18 10 24 4 65 22 90 38 55 35 59 36 42 15z m7010 -76 c48 0 69 6 113 31
30 17 57 28 60 24 4 -3 7 -2 7 4 0 6 7 14 16 17 12 4 10 -1 -6 -24 -31 -44
-100 -99 -136 -109 -63 -17 -174 21 -255 88 -55 46 -26 50 61 8 66 -32 91 -39
140 -39z m278 -93 c-7 -21 -19 -40 -27 -43 -18 -6 -11 53 15 125 l19 52 3 -47
c2 -26 -3 -65 -10 -87z m-7709 101 c-2 -2 -20 -6 -39 -10 -25 -4 -31 -3 -20 4
14 9 69 15 59 6z m7290 -65 c65 -33 135 -71 154 -84 74 -50 217 -191 265 -260
46 -66 221 -405 237 -459 9 -30 86 -170 91 -166 2 2 -1 20 -6 39 -5 19 -11 48
-13 64 -8 45 -34 102 -78 164 -21 31 -64 117 -95 191 -74 177 -106 226 -230
345 -98 95 -120 125 -91 125 6 0 23 6 37 13 54 28 55 28 52 -18 -5 -52 20
-105 49 -105 31 0 86 26 97 47 10 16 12 16 21 -10 6 -16 11 -33 11 -38 0 -5 5
-9 11 -9 8 0 7 -5 -2 -16 -10 -12 -25 -14 -73 -9 -34 4 -70 9 -81 12 -34 9 78
-67 115 -78 38 -12 84 -76 153 -214 78 -156 140 -351 116 -366 -8 -5 -8 -8 0
-13 6 -4 11 -22 11 -40 0 -19 11 -76 24 -127 14 -52 23 -95 21 -97 -6 -6 -172
196 -220 268 -80 123 -234 298 -697 796 -27 28 -48 57 -48 64 0 13 28 39 43
40 4 0 61 -27 126 -59z m-7252 33 c-3 -3 -12 -4 -19 -1 -8 3 -5 6 6 6 11 1 17
-2 13 -5z m-126 -116 c13 -49 57 -102 73 -89 16 13 86 43 86 36 0 -2 -14 -12
-31 -20 -16 -9 -40 -26 -51 -37 -23 -23 -69 -28 -91 -10 -8 7 -15 34 -16 68
-2 62 10 142 17 109 2 -11 8 -37 13 -57z m5524 42 c3 -5 2 -10 -4 -10 -5 0
-13 5 -16 10 -3 6 -2 10 4 10 5 0 13 -4 16 -10z m1829 -435 c84 -126 166 -245
182 -264 33 -40 181 -137 348 -230 63 -35 138 -81 166 -103 28 -21 56 -35 63
-32 7 4 9 4 5 -1 -4 -4 10 -20 31 -36 64 -46 59 -55 -6 -11 -33 23 -129 77
-212 122 -169 89 -155 81 -304 176 -105 66 -111 72 -192 184 -45 63 -116 174
-158 245 -41 72 -100 170 -131 219 -31 49 -56 94 -56 99 0 18 108 -132 264
-368z m-6105 338 c-29 -77 -88 -132 -192 -178 -48 -21 -56 -29 -76 -75 -12
-29 -21 -64 -20 -78 3 -32 -9 -72 -21 -72 -16 0 -48 50 -54 85 -13 66 49 137
123 141 77 4 183 80 221 160 24 49 35 59 19 17z m546 7 c-3 -5 -14 -10 -23 -9
-14 0 -13 2 3 9 27 11 27 11 20 0z m-1898 -59 c9 -15 7 -28 -13 -71 -13 -28
-25 -64 -25 -78 -2 -24 -2 -25 -6 -4 -3 14 -11 22 -21 20 -27 -5 -20 60 12
110 29 47 36 50 53 23z m2370 -27 c-3 -3 -12 -4 -19 -1 -8 3 -5 6 6 6 11 1 17
-2 13 -5z m-1372 -44 c3 -5 -12 -47 -34 -92 -69 -141 -113 -333 -80 -353 5 -4
29 -8 52 -10 23 -2 49 -4 57 -4 8 -1 -10 -11 -40 -23 -45 -17 -101 -27 -213
-37 -4 -1 -27 -32 -51 -69 -73 -114 -208 -215 -360 -268 -75 -26 -83 -27 -156
-16 -77 11 -93 10 -160 -10 -27 -9 -31 -12 -17 -17 15 -5 4 -16 -50 -53 -90
-61 -297 -194 -323 -208 -21 -11 -21 -11 -6 18 25 49 100 107 275 211 140 84
184 105 285 136 299 92 458 204 543 380 l43 90 0 -47 c0 -26 -4 -58 -10 -72
-11 -30 -8 -31 55 -15 40 10 44 14 39 34 -12 49 38 339 75 438 10 27 11 27 40
12 16 -8 33 -19 36 -25z m1420 30 c-3 -5 -12 -10 -18 -10 -7 0 -6 4 3 10 19
12 23 12 15 0z m5705 -62 c0 -8 32 -45 71 -83 39 -39 81 -88 94 -110 30 -51
49 -149 41 -211 -3 -27 -6 -60 -6 -74 -1 -30 -51 72 -110 221 -20 53 -56 124
-79 157 -22 34 -41 73 -41 87 0 14 -7 40 -16 58 l-16 32 31 -32 c17 -18 31
-38 31 -45z m-8080 -250 c-11 -37 -56 -136 -99 -220 -44 -84 -98 -196 -121
-248 -55 -126 -122 -262 -127 -257 -7 7 42 127 90 223 54 108 138 306 197 464
37 99 43 127 45 205 1 51 8 103 16 120 13 27 14 19 17 -95 2 -102 -1 -136 -18
-192z m2695 282 c3 -5 1 -10 -4 -10 -6 0 -11 5 -11 10 0 6 2 10 4 10 3 0 8 -4
11 -10z m1902 -26 c-3 -3 -12 -4 -19 -1 -8 3 -5 6 6 6 11 1 17 -2 13 -5z
m2380 -36 c34 -20 63 -69 63 -105 0 -10 13 -43 30 -73 33 -62 38 -98 14 -107
-33 -13 -55 29 -64 123 l-8 88 -46 41 c-65 57 -59 77 11 33z m240 -153 c63
-161 82 -186 185 -254 80 -52 224 -178 215 -188 -3 -2 -36 19 -73 48 -38 29
-113 81 -166 115 -64 41 -103 74 -113 95 l-17 31 -30 -36 c-56 -68 -117 -83
-165 -42 l-28 24 67 -5 c65 -6 66 -5 81 23 35 70 26 173 -27 306 l-25 63 24
-30 c14 -16 46 -84 72 -150z m-3262 -140 c31 -30 33 -86 5 -132 -21 -36 -48
-48 -30 -14 24 46 3 89 -57 120 -49 25 -95 1 -73 -38 10 -19 61 -52 77 -51 18
2 12 -29 -6 -35 -27 -8 -58 10 -81 48 -27 44 -25 64 11 98 42 39 117 42 154 4z
m3672 -120 c21 -42 1 -19 -26 30 -13 22 -15 31 -6 20 9 -11 23 -33 32 -50z
m-6559 15 c-30 -41 -58 -58 -107 -66 -47 -8 -57 9 -16 28 14 6 25 15 25 20 0
4 10 8 23 8 12 0 36 9 52 19 43 28 49 25 23 -9z m7162 -20 c24 -47 24 -50 6
-50 -18 0 -22 6 -30 53 -9 48 -2 47 24 -3z m64 -189 c26 -67 56 -144 68 -169
25 -56 52 -129 84 -232 l23 -75 -23 29 c-33 40 -109 224 -140 337 -14 52 -35
120 -46 151 -18 52 -26 98 -16 87 3 -2 25 -60 50 -128z m-7628 -40 c-21 -40
-73 -80 -133 -103 -33 -13 -42 -14 -28 -4 74 54 120 97 143 136 23 38 27 42
30 23 2 -12 -4 -35 -12 -52z m6748 53 c3 -8 2 -12 -4 -9 -6 3 -10 10 -10 16 0
14 7 11 14 -7z m145 -44 c111 -75 124 -81 301 -124 204 -49 247 -65 363 -135
87 -53 213 -151 193 -151 -3 0 -38 21 -78 47 -40 25 -118 68 -173 94 -85 41
-126 54 -274 83 -136 27 -190 43 -255 74 -91 44 -176 116 -176 150 0 12 2 22
5 22 3 0 46 -27 94 -60z m-86 -56 c30 -35 36 -54 10 -33 -23 20 -73 90 -72
103 0 6 8 0 17 -14 9 -13 29 -39 45 -56z m-3628 -6 c30 -13 32 -24 7 -32 -20
-7 -82 20 -82 35 0 13 44 11 75 -3z m14 -137 c11 -7 9 -10 -8 -16 -15 -4 -20
-12 -17 -22 4 -9 -1 -21 -11 -28 -15 -11 -20 -9 -36 18 -18 30 -18 31 -1 44
20 15 53 17 73 4z"/>
<path d="M4989 9751 c-16 -16 -29 -33 -29 -38 0 -14 101 -123 110 -118 4 3 11
21 15 41 3 20 13 48 22 61 18 27 8 45 -38 69 -39 20 -46 18 -80 -15z"/>
<path d="M1930 8220 c0 -5 5 -10 10 -10 6 0 10 5 10 10 0 6 -4 10 -10 10 -5 0
-10 -4 -10 -10z"/>
<path d="M1455 7811 c-6 -11 9 -23 19 -14 9 9 7 23 -3 23 -6 0 -12 -4 -16 -9z"/>
<path d="M1120 7454 c0 -8 5 -12 10 -9 6 3 10 10 10 16 0 5 -4 9 -10 9 -5 0
-10 -7 -10 -16z"/>
<path d="M1090 7379 c0 -5 5 -7 10 -4 6 3 10 8 10 11 0 2 -4 4 -10 4 -5 0 -10
-5 -10 -11z"/>
<path d="M610 4461 c0 -6 4 -13 10 -16 6 -3 7 1 4 9 -7 18 -14 21 -14 7z"/>
<path d="M631 4334 c0 -11 3 -14 6 -6 3 7 2 16 -1 19 -3 4 -6 -2 -5 -13z"/>
<path d="M782 4055 c0 -16 2 -22 5 -12 2 9 2 23 0 30 -3 6 -5 -1 -5 -18z"/>
<path d="M840 3935 c0 -5 5 -17 10 -25 5 -8 10 -10 10 -5 0 6 -5 17 -10 25 -5
8 -10 11 -10 5z"/>
<path d="M881 3864 c0 -11 3 -14 6 -6 3 7 2 16 -1 19 -3 4 -6 -2 -5 -13z"/>
<path d="M1180 3321 c0 -6 5 -13 10 -16 6 -3 10 1 10 9 0 9 -4 16 -10 16 -5 0
-10 -4 -10 -9z"/>
<path d="M1341 3041 c-8 -5 -9 -11 -3 -15 14 -8 43 4 36 15 -7 11 -15 11 -33
0z"/>
<path d="M1560 2790 c0 -11 4 -20 9 -20 5 0 7 9 4 20 -3 11 -7 20 -9 20 -2 0
-4 -9 -4 -20z"/>
<path d="M9105 7750 c-3 -5 -1 -10 4 -10 6 0 11 5 11 10 0 6 -2 10 -4 10 -3 0
-8 -4 -11 -10z"/>
<path d="M9127 7733 c-4 -3 -7 -11 -7 -17 0 -6 5 -5 12 2 6 6 9 14 7 17 -3 3
-9 2 -12 -2z"/>
<path d="M9246 7575 c4 -8 11 -15 16 -15 6 0 5 6 -2 15 -7 8 -14 15 -16 15 -2
0 -1 -7 2 -15z"/>
<path d="M9287 7423 c-4 -3 -7 -11 -7 -17 0 -6 5 -5 12 2 6 6 9 14 7 17 -3 3
-9 2 -12 -2z"/>
<path d="M9396 7131 c-3 -5 1 -11 9 -15 15 -6 29 7 18 18 -9 9 -21 8 -27 -3z"/>
<path d="M9501 6754 c0 -11 3 -14 6 -6 3 7 2 16 -1 19 -3 4 -6 -2 -5 -13z"/>
<path d="M7674 6618 c56 -37 119 -107 147 -163 56 -114 49 -285 -14 -352 -30
-33 -38 -28 -21 12 7 19 14 44 14 56 0 16 5 20 19 16 14 -3 18 -1 14 9 -3 8
-9 11 -14 8 -5 -3 -9 12 -9 33 0 50 -23 146 -49 203 -57 130 -133 180 -265
179 -45 0 -89 -4 -99 -8 -11 -4 19 -7 66 -7 102 -1 159 -24 212 -87 60 -70
102 -211 91 -305 -7 -59 -18 -85 -50 -121 -55 -60 -112 -48 -227 49 -123 104
-208 139 -339 140 l-65 0 34 -29 c19 -16 48 -32 65 -35 62 -12 169 -72 266
-151 54 -44 98 -84 97 -90 0 -5 3 -25 7 -43 5 -20 4 -38 -3 -46 -6 -7 -8 -17
-4 -22 19 -23 -31 30 -111 118 -88 97 -185 178 -261 216 -40 19 -128 42 -165
42 -39 0 -19 -17 34 -29 57 -13 155 -66 196 -107 l25 -25 -45 25 c-50 28 -173
76 -193 76 -6 0 29 -22 80 -48 156 -82 215 -143 298 -310 74 -149 91 -272 60
-424 -25 -120 -64 -207 -115 -257 -85 -83 -95 -91 -129 -101 -40 -11 -47 -8
-55 26 -16 61 -71 104 -133 104 -69 0 -132 -75 -119 -143 17 -89 83 -137 189
-137 83 0 124 18 169 72 18 21 78 87 133 146 199 212 251 293 281 433 19 92
10 164 -41 306 -19 54 -35 103 -35 108 0 6 35 10 84 10 78 0 88 2 127 30 51
36 97 108 98 153 1 21 6 32 14 30 6 -1 23 4 36 11 15 9 46 12 89 9 l64 -4 -33
29 c-81 69 -122 113 -176 190 -91 129 -160 192 -233 211 -23 6 -24 5 -6 -6z
m-161 -829 c20 -41 38 -94 41 -119 4 -32 3 -39 -3 -25 -7 13 -10 15 -10 5 0
-14 15 -131 22 -173 2 -9 0 -49 -4 -87 -9 -85 -45 -154 -115 -220 -39 -38 -44
-40 -25 -13 40 59 91 178 106 248 19 91 19 173 -1 260 -9 39 -16 80 -16 93 0
12 -6 22 -14 22 -8 0 -14 4 -14 9 0 5 -29 53 -65 108 l-65 98 64 -66 c42 -44
76 -92 99 -140z m67 18 c0 -7 7 -25 16 -42 24 -47 44 -134 43 -190 -1 -45 -3
-39 -24 60 -13 61 -31 129 -39 153 -8 24 -11 40 -6 37 6 -3 10 -12 10 -18z
m-480 -707 c25 -13 60 -72 60 -100 0 -77 -118 -77 -150 0 -21 50 7 94 68 109
2 1 12 -3 22 -9z"/>
<path d="M7532 5690 c0 -14 2 -19 5 -12 2 6 2 18 0 25 -3 6 -5 1 -5 -13z"/>
<path d="M9583 6446 c4 -10 7 -22 7 -27 0 -5 4 -9 9 -9 12 0 2 38 -12 47 -7 4
-8 0 -4 -11z"/>
<path d="M9616 6395 c-3 -8 -1 -15 4 -15 6 0 10 7 10 15 0 8 -2 15 -4 15 -2 0
-6 -7 -10 -15z"/>
<path d="M9762 5450 c0 -14 2 -19 5 -12 2 6 2 18 0 25 -3 6 -5 1 -5 -13z"/>
<path d="M6960 3095 c19 -19 36 -35 39 -35 3 0 -10 16 -29 35 -19 19 -36 35
-39 35 -3 0 10 -16 29 -35z"/>
<path d="M9031 3047 c-13 -21 -12 -21 5 -5 10 10 16 20 13 22 -3 3 -11 -5 -18
-17z"/>
<path d="M7554 8125 c-38 -36 -26 -39 14 -4 18 16 28 29 23 29 -6 0 -22 -11
-37 -25z"/>
<path d="M2650 8143 c0 -5 9 -18 20 -28 11 -10 20 -14 20 -8 0 5 -9 18 -20 28
-11 10 -20 14 -20 8z"/>
<path d="M6700 7040 c8 -5 22 -9 30 -9 10 0 8 3 -5 9 -27 12 -43 12 -25 0z"/>
<path d="M4965 7213 c-101 -65 -168 -100 -293 -152 -151 -64 -483 -177 -722
-245 l-185 -53 -8 -44 c-13 -71 -1 -579 17 -704 95 -658 246 -990 636 -1399
151 -158 451 -401 628 -510 11 -6 12 224 6 1286 -3 711 -9 1420 -13 1576 l-6
283 -60 -38z m-345 -429 c24 -65 25 -104 6 -169 l-15 -47 74 7 c87 8 131 -3
166 -42 l24 -26 -40 26 c-22 15 -53 27 -70 27 -27 -1 -28 -2 -10 -12 51 -29
99 -75 116 -112 19 -41 27 -156 11 -156 -5 0 -16 18 -26 40 -23 52 -96 115
-158 136 -66 22 -145 14 -212 -22 -94 -49 -174 -74 -234 -74 -118 0 -250 64
-263 128 -4 17 -5 32 -3 32 2 0 34 -16 71 -35 199 -103 395 -46 489 143 24 49
28 70 28 144 1 99 12 102 46 12z m98 -400 c38 -19 59 -38 79 -71 44 -76 32
-138 -42 -216 -42 -44 -40 -55 7 -37 66 26 135 116 169 220 6 16 8 -5 6 -61
-2 -73 -6 -91 -28 -125 -36 -54 -109 -92 -199 -103 -58 -8 -78 -15 -101 -37
-57 -55 -58 -143 -3 -244 63 -116 152 -158 232 -110 64 39 30 140 -49 140 -32
0 -40 -25 -16 -49 18 -18 -18 -42 -52 -34 -60 14 -65 38 -18 89 44 48 102 56
167 22 82 -42 101 -129 44 -197 -49 -59 -155 -66 -241 -16 -53 32 -119 119
-159 209 -16 36 -32 66 -35 66 -4 0 -29 -16 -54 -36 -26 -19 -44 -31 -41 -26
7 12 -70 42 -92 36 -9 -3 8 8 39 25 90 48 88 40 79 276 -3 80 -1 96 22 145 43
92 130 158 209 160 14 0 49 -12 77 -26z m-476 -601 c-6 -2 -10 -9 -6 -14 3 -5
-14 -9 -38 -8 l-43 1 40 13 c39 12 73 19 47 8z m241 -116 c39 -58 133 -146
219 -205 130 -89 205 -266 169 -398 -21 -80 -104 -133 -204 -134 -71 0 -125
25 -164 77 -23 30 -28 46 -28 94 0 42 5 63 18 76 16 16 17 16 17 -12 1 -45 32
-106 74 -143 31 -27 45 -32 87 -32 62 0 81 10 110 56 66 108 -12 309 -173 440
-64 53 -190 188 -158 170 8 -5 -2 9 -22 30 l-38 40 27 -1 c22 0 35 -11 66 -58z"/>
<path d="M4555 6336 c-71 -32 -115 -111 -115 -203 1 -60 24 -230 32 -239 3 -2
13 8 23 23 32 51 69 84 138 125 115 67 157 164 107 246 -34 56 -118 78 -185
48z"/>
<path d="M5526 6801 c-14 -26 -28 -70 -31 -97 -6 -47 -5 -51 40 -104 55 -63
81 -83 72 -54 -3 11 -18 48 -32 83 -23 55 -26 75 -23 142 2 44 2 79 1 79 -2 0
-14 -22 -27 -49z"/>
<path d="M5303 6548 c-18 -18 -47 -64 -65 -103 -30 -63 -33 -79 -33 -162 0
-50 -3 -86 -7 -80 -4 7 -24 54 -45 104 -21 51 -42 93 -47 93 -16 0 1 -128 23
-173 50 -103 134 -166 241 -181 45 -6 45 -5 20 11 -83 56 -150 165 -150 243 0
67 24 139 70 208 22 33 40 62 40 66 0 14 -18 4 -47 -26z"/>
<path d="M5436 6461 c-5 -7 2 -11 17 -11 42 0 132 -37 193 -78 150 -102 288
-116 401 -38 45 31 112 110 102 120 -2 3 -24 -9 -49 -25 -111 -74 -224 -77
-370 -9 -88 42 -102 45 -191 48 -63 3 -99 0 -103 -7z"/>
<path d="M5393 6360 c-33 -20 -53 -48 -53 -74 0 -12 7 -12 46 6 61 27 122 20
177 -18 63 -45 77 -82 77 -197 l0 -98 -30 22 c-16 12 -27 25 -25 28 2 4 -4 7
-13 7 -9 1 -26 4 -37 8 -11 4 -3 -2 17 -13 20 -12 60 -44 88 -72 28 -28 54
-48 58 -45 3 4 8 51 10 105 5 116 -11 184 -60 257 -60 89 -181 129 -255 84z"/>
<path d="M5093 6096 c5 -49 12 -65 39 -94 18 -19 47 -43 63 -53 36 -23 26 -25
-15 -4 -15 8 -39 29 -53 46 l-24 31 -7 -103 c-9 -137 -27 -1819 -20 -1830 10
-17 31 -9 120 47 230 143 515 399 689 618 273 344 447 733 479 1076 l5 55 -11
-55 c-6 -30 -13 -49 -15 -42 -3 6 -11 12 -19 12 -9 0 -13 3 -11 8 3 4 -10 8
-29 9 -21 1 -32 -2 -28 -9 4 -6 -2 -6 -15 1 -11 6 -32 9 -45 7 -15 -3 -27 1
-30 10 -3 8 -12 14 -21 14 -8 0 -15 4 -15 10 0 5 -10 9 -22 9 -13 -1 -30 1
-39 5 -10 4 -20 3 -23 -2 -3 -5 -26 -6 -53 -2 -26 4 -53 6 -59 3 -7 -2 -15 0
-19 6 -4 8 -12 8 -26 1 -11 -6 -25 -8 -31 -4 -6 4 -9 3 -6 -2 3 -5 -1 -15 -9
-23 -13 -12 -14 -11 -9 7 5 16 3 20 -11 17 -10 -2 -26 -4 -35 -4 -36 -2 -16
-18 73 -59 85 -38 107 -62 58 -62 -16 0 -19 -7 -19 -49 0 -27 -7 -64 -15 -82
l-14 -34 -1 28 c-1 64 -62 128 -186 193 -53 27 -74 45 -92 77 -27 48 -58 84
-85 99 -11 5 -65 16 -122 23 -133 18 -193 44 -252 109 l-46 51 6 -59z m433
-233 c66 -99 14 -255 -105 -315 -121 -62 -239 -17 -256 96 -8 54 12 99 58 126
57 35 119 21 171 -40 31 -37 24 -60 -24 -80 -28 -12 -34 -11 -58 7 -19 15 -26
28 -24 47 2 19 -1 24 -13 20 -8 -3 -12 -11 -8 -17 4 -6 0 -8 -10 -4 -14 5 -17
0 -17 -32 0 -64 60 -102 128 -80 78 25 121 94 122 196 0 34 -5 74 -10 88 -9
23 -8 26 7 23 10 -2 27 -17 39 -35z m361 -25 c-3 -8 -6 -5 -6 6 -1 11 2 17 5
13 3 -3 4 -12 1 -19z m-174 -110 c15 -8 16 -11 3 -29 -31 -45 -168 -180 -255
-252 -52 -43 -101 -88 -111 -100 -65 -83 -89 -214 -51 -275 26 -41 77 -72 117
-72 66 0 136 74 149 156 9 63 25 39 25 -38 0 -121 -55 -184 -160 -182 -94 2
-162 41 -203 119 -32 59 -31 202 1 262 38 73 77 108 143 132 85 32 165 113
215 220 l37 79 36 -5 c20 -3 44 -10 54 -15z m6 -80 c-2 -2 -20 -16 -39 -33
l-35 -30 29 33 c17 17 34 32 40 32 5 0 7 -1 5 -2z"/>
<path d="M5752 5940 c0 -14 2 -19 5 -12 2 6 2 18 0 25 -3 6 -5 1 -5 -13z"/>
<path d="M6371 5934 c0 -11 3 -14 6 -6 3 7 2 16 -1 19 -3 4 -6 -2 -5 -13z"/>
<path d="M3970 5183 c0 -6 8 -17 18 -24 16 -13 16 -13 2 6 -8 11 -16 22 -17
24 -2 2 -3 0 -3 -6z"/>
<path d="M3950 5160 c6 -11 13 -20 16 -20 2 0 0 9 -6 20 -6 11 -13 20 -16 20
-2 0 0 -9 6 -20z"/>
<path d="M3976 5117 c3 -10 9 -15 12 -12 3 3 0 11 -7 18 -10 9 -11 8 -5 -6z"/>
<path d="M3996 5077 c3 -10 9 -15 12 -12 3 3 0 11 -7 18 -10 9 -11 8 -5 -6z"/>
<path d="M5161 2824 c0 -11 3 -14 6 -6 3 7 2 16 -1 19 -3 4 -6 -2 -5 -13z"/>
<path d="M5174 1875 c0 -60 1 -84 3 -52 2 32 2 81 0 110 -2 29 -3 3 -3 -58z"/>
<path d="M7498 1943 c7 -3 16 -2 19 1 4 3 -2 6 -13 5 -11 0 -14 -3 -6 -6z"/>
<path d="M6925 1700 c-3 -5 -1 -10 4 -10 6 0 11 5 11 10 0 6 -2 10 -4 10 -3 0
-8 -4 -11 -10z"/>
<path d="M2467 1699 c7 -7 15 -10 18 -7 3 3 -2 9 -12 12 -14 6 -15 5 -6 -5z"/>
<path d="M2775 1593 c-16 -12 -16 -14 -3 -10 10 3 20 2 23 -3 4 -6 12 -10 18
-10 8 0 9 2 1 8 -6 4 -13 12 -15 19 -3 8 -10 7 -24 -4z"/>
<path d="M3805 1424 c9 -9 18 -14 21 -11 9 9 -6 27 -22 27 -13 0 -13 -2 1 -16z"/>
<path d="M1100 600 c-9 -6 -10 -10 -3 -10 6 0 15 5 18 10 8 12 4 12 -15 0z"/>
<path d="M8700 1471 c0 -12 55 -58 89 -75 19 -9 36 -10 61 -4 l34 10 -24 19
c-58 44 -160 76 -160 50z"/>
</g>
</svg>
