<?xml version="1.0" encoding="utf-8"?>
<!-- Generator: Adobe Illustrator 27.7.0, SVG Export Plug-In . SVG Version: 6.00 Build 0)  -->
<svg version="1.1" id="Layer_1" xmlns="http://www.w3.org/2000/svg" xmlns:xlink="http://www.w3.org/1999/xlink" x="0px" y="0px"
	 viewBox="0 0 24 24" style="enable-background:new 0 0 24 24;" xml:space="preserve">
<style type="text/css">
	.st0{fill:none;stroke:#000000;stroke-width:0.2;stroke-miterlimit:10;}
	.st1{fill:url(#SVGID_1_);stroke:#000000;stroke-width:0.2;stroke-miterlimit:10;}
	
		.st2{fill:url(#SVGID_00000129195947218144970390000010133038213809555335_);stroke:#000000;stroke-width:0.25;stroke-miterlimit:10;}
	
		.st3{fill:url(#SVGID_00000150072527321885557760000006640842447483040665_);stroke:#000000;stroke-width:0.25;stroke-miterlimit:10;}
	.st4{opacity:0.67;}
	.st5{fill:none;stroke:#7B4FA0;stroke-miterlimit:10;}
	.st6{fill:none;stroke:#000000;stroke-miterlimit:10;}
</style>
<g>
	<g>
		<polyline class="st0" points="7.18,2.46 7.12,2.17 8.23,2.08 8.96,0.81 8.9,0.56 9.48,0.44 9.68,0.96 9.42,1.08 8.68,2.34 
			9.1,3.3 8.93,3.39 		"/>
		
			<radialGradient id="SVGID_1_" cx="10.1413" cy="13.0597" r="4.2018" gradientTransform="matrix(1.3696 0.7837 -0.5172 0.9039 -2.202 -11.4699)" gradientUnits="userSpaceOnUse">
			<stop  offset="0" style="stop-color:#FFFFFF"/>
			<stop  offset="1" style="stop-color:#000000"/>
		</radialGradient>
		<polygon class="st1" points="8.04,2.95 6.93,3.36 1.91,13.66 8.21,3.99 		"/>
	</g>
	<g>
		
			<linearGradient id="SVGID_00000104704049291697050780000015752829122367226802_" gradientUnits="userSpaceOnUse" x1="2.5386" y1="8.6124" x2="19.216" y2="15.4069">
			<stop  offset="0" style="stop-color:#54297A"/>
			<stop  offset="0.7648" style="stop-color:#4E4F51"/>
			<stop  offset="1" style="stop-color:#000000"/>
		</linearGradient>
		
			<path style="fill:url(#SVGID_00000104704049291697050780000015752829122367226802_);stroke:#000000;stroke-width:0.25;stroke-miterlimit:10;" d="
			M18.89,6.23v7.97c0,4.05-4.07,5.63-7.31,7.33c-3.28-1.68-7.33-3.27-7.33-7.33V5.95C5.22,5.76,6.32,5.48,7.5,5.06
			c1.63-0.59,2.98-1.29,4.04-1.93h0.2v0.03c0.82,0.54,1.79,1.11,2.94,1.63C16.24,5.51,17.68,5.96,18.89,6.23z"/>
		
			<linearGradient id="SVGID_00000183209960882393303900000002571288266302614941_" gradientUnits="userSpaceOnUse" x1="6.0921" y1="4.6975" x2="6.0921" y2="4.6975">
			<stop  offset="0" style="stop-color:#FFFFFF"/>
			<stop  offset="1" style="stop-color:#000000"/>
		</linearGradient>
		
			<path style="fill:url(#SVGID_00000183209960882393303900000002571288266302614941_);stroke:#000000;stroke-width:0.25;stroke-miterlimit:10;" d="
			M6.09,4.7"/>
	</g>
</g>
<g class="st4">
	<g>
		<path class="st5" d="M29.34,9.3"/>
	</g>
</g>
<g class="st4">
	<g>
		<path class="st6" d="M31.55,10.96"/>
	</g>
</g>
<g class="st4">
	<g>
		<path class="st6" d="M36.77,3.32"/>
	</g>
</g>
<g class="st4">
	<g>
		<path class="st6" d="M35.45,2.13"/>
	</g>
</g>
<g class="st4">
	<g>
		<path class="st6" d="M33.46,2.08"/>
	</g>
</g>
<g class="st4">
	<g>
		<path class="st6" d="M32.74,2.72"/>
	</g>
</g>
<g class="st4">
	<g>
		<path class="st6" d="M33.71,4.33"/>
	</g>
</g>
</svg>
