<?xml version="1.0" encoding="utf-8"?>
<!-- Generator: Adobe Illustrator 27.7.0, SVG Export Plug-In . SVG Version: 6.00 Build 0)  -->
<svg version="1.1" id="Layer_1" xmlns="http://www.w3.org/2000/svg" xmlns:xlink="http://www.w3.org/1999/xlink" x="0px" y="0px"
	 viewBox="0 0 24 24" style="enable-background:new 0 0 24 24;" xml:space="preserve">
<style type="text/css">
	.st0{fill:#662D91;}
	.st1{fill:none;stroke:#000000;stroke-width:0.2;stroke-miterlimit:10;}
	.st2{fill:url(#SVGID_1_);stroke:#000000;stroke-width:0.2;stroke-miterlimit:10;}
	
		.st3{fill:url(#SVGID_00000108987775583404052980000005424421429414208959_);stroke:#000000;stroke-width:0.25;stroke-miterlimit:10;}
	
		.st4{fill:url(#SVGID_00000044883607397080268580000002111583931255585933_);stroke:#000000;stroke-width:0.25;stroke-miterlimit:10;}
	.st5{opacity:0.67;}
	.st6{fill:none;stroke:#7B4FA0;stroke-miterlimit:10;}
	.st7{fill:none;stroke:#000000;stroke-miterlimit:10;}
</style>
<rect x="-0.05" y="0.03" class="st0" width="24.09" height="23.95"/>
<g>
	<polyline class="st1" points="7.18,2.46 7.12,2.17 8.23,2.08 8.96,0.81 8.9,0.56 9.48,0.44 9.68,0.96 9.42,1.08 8.68,2.34 9.1,3.3 
		8.93,3.39 	"/>
	
		<radialGradient id="SVGID_1_" cx="10.1413" cy="13.0597" r="4.2018" gradientTransform="matrix(1.3696 0.7837 -0.5172 0.9039 -2.202 -11.4699)" gradientUnits="userSpaceOnUse">
		<stop  offset="0" style="stop-color:#FFFFFF"/>
		<stop  offset="1" style="stop-color:#000000"/>
	</radialGradient>
	<polygon class="st2" points="8.04,2.95 6.93,3.36 1.91,13.66 8.21,3.99 	"/>
</g>
<g>
	
		<linearGradient id="SVGID_00000008125892027646076720000008139567181336176047_" gradientUnits="userSpaceOnUse" x1="2.5386" y1="8.6124" x2="19.216" y2="15.4069">
		<stop  offset="0" style="stop-color:#54297A"/>
		<stop  offset="0.7648" style="stop-color:#4E4F51"/>
		<stop  offset="1" style="stop-color:#000000"/>
	</linearGradient>
	
		<path style="fill:url(#SVGID_00000008125892027646076720000008139567181336176047_);stroke:#000000;stroke-width:0.25;stroke-miterlimit:10;" d="
		M18.89,6.23v7.97c0,4.05-4.07,5.63-7.31,7.33c-3.28-1.68-7.33-3.27-7.33-7.33V5.95C5.22,5.76,6.32,5.48,7.5,5.06
		c1.63-0.59,2.98-1.29,4.04-1.93h0.2v0.03c0.82,0.54,1.79,1.11,2.94,1.63C16.24,5.51,17.68,5.96,18.89,6.23z"/>
	
		<linearGradient id="SVGID_00000036247276070689189580000005698148158918690213_" gradientUnits="userSpaceOnUse" x1="6.0921" y1="4.6975" x2="6.0921" y2="4.6975">
		<stop  offset="0" style="stop-color:#FFFFFF"/>
		<stop  offset="1" style="stop-color:#000000"/>
	</linearGradient>
	
		<path style="fill:url(#SVGID_00000036247276070689189580000005698148158918690213_);stroke:#000000;stroke-width:0.25;stroke-miterlimit:10;" d="
		M6.09,4.7"/>
</g>
<g class="st5">
	<g>
		<path class="st6" d="M29.34,9.3"/>
	</g>
</g>
<g class="st5">
	<g>
		<path class="st7" d="M31.55,10.96"/>
	</g>
</g>
<g class="st5">
	<g>
		<path class="st7" d="M36.77,3.32"/>
	</g>
</g>
<g class="st5">
	<g>
		<path class="st7" d="M35.45,2.13"/>
	</g>
</g>
<g class="st5">
	<g>
		<path class="st7" d="M33.46,2.08"/>
	</g>
</g>
<g class="st5">
	<g>
		<path class="st7" d="M32.74,2.72"/>
	</g>
</g>
<g class="st5">
	<g>
		<path class="st7" d="M33.71,4.33"/>
	</g>
</g>
</svg>
