<?xml version="1.0" standalone="no"?>
<!DOCTYPE svg PUBLIC "-//W3C//DTD SVG 20010904//EN"
 "http://www.w3.org/TR/2001/REC-SVG-20010904/DTD/svg10.dtd">
<svg version="1.0" xmlns="http://www.w3.org/2000/svg"
 width="1353.000000pt" height="1353.000000pt" viewBox="0 0 1353.000000 1353.000000"
 preserveAspectRatio="xMidYMid meet">

<g transform="translate(0.000000,1353.000000) scale(0.100000,-0.100000)"
fill="#000000" stroke="none">
<path d="M5386 12865 c-82 -19 -156 -41 -164 -49 -12 -12 -12 -23 1 -82 15
-63 15 -69 -3 -103 -46 -91 -283 -498 -298 -513 -15 -15 -61 -21 -281 -37
-202 -15 -267 -23 -279 -35 -13 -13 -13 -23 -2 -78 7 -35 19 -73 27 -85 26
-43 104 -22 117 31 7 30 11 30 286 51 160 12 197 18 211 32 9 10 96 157 193
327 153 268 176 315 176 352 0 52 15 63 96 71 l54 6 20 -44 c28 -63 26 -95 -7
-113 -16 -8 -37 -25 -49 -38 -25 -28 -359 -595 -368 -626 -5 -16 18 -80 78
-221 58 -135 86 -212 86 -238 0 -45 32 -103 57 -103 33 0 98 44 101 68 2 13
-38 121 -93 247 -85 197 -95 226 -85 247 7 13 80 139 164 281 l151 259 70 36
c56 30 71 42 73 63 3 28 -92 284 -116 312 -20 23 -42 21 -216 -18z"/>
<path d="M4580 11584 c-156 -57 -290 -110 -297 -117 -7 -6 -172 -340 -367
-740 -195 -401 -362 -739 -370 -752 -17 -25 -73 -41 -354 -99 -89 -19 -169
-39 -177 -46 -12 -10 -15 -90 -17 -509 l-3 -496 -561 -1150 c-309 -632 -565
-1160 -569 -1172 -10 -37 57 -86 98 -70 7 3 168 243 357 533 562 865 641 984
656 984 7 0 16 -10 19 -22 3 -13 6 -630 8 -1373 4 -1458 2 -1411 58 -1680 89
-429 283 -836 569 -1195 112 -140 435 -461 591 -587 336 -271 713 -516 1239
-803 374 -204 1410 -722 1444 -722 51 1 1270 626 1696 870 1371 785 2018 1566
2177 2627 17 113 18 255 18 2370 l0 2250 -55 17 c-30 9 -131 34 -225 57 -1025
244 -2273 776 -3230 1376 -175 109 -204 131 -215 161 -9 23 -13 24 -107 24
l-98 0 -209 -121 c-629 -362 -1376 -707 -1976 -913 -205 -71 -234 -73 -203
-12 9 17 128 203 265 413 136 211 253 394 258 408 7 19 -2 97 -34 299 -24 151
-47 279 -50 285 -4 6 -17 11 -29 11 -12 -1 -150 -48 -307 -106z m-622 -1390
c58 -30 114 -61 125 -69 25 -17 39 -11 -173 -70 -91 -25 -173 -48 -183 -51
-13 -4 -3 25 45 120 34 69 67 126 72 126 5 0 57 -25 114 -56z m-958 -1802 l0
-138 -120 -182 -121 -182 -24 16 c-14 9 -25 20 -25 24 0 9 282 600 286 600 2
0 4 -62 4 -138z"/>
</g>
</svg>
